<?xml version="1.0" encoding="UTF-8" standalone="no"?>
<!-- Created with Inkscape (http://www.inkscape.org/) -->

<svg
   xmlns:dc="http://purl.org/dc/elements/1.1/"
   xmlns:cc="http://creativecommons.org/ns#"
   xmlns:rdf="http://www.w3.org/1999/02/22-rdf-syntax-ns#"
   xmlns:svg="http://www.w3.org/2000/svg"
   xmlns="http://www.w3.org/2000/svg"
   xmlns:sodipodi="http://sodipodi.sourceforge.net/DTD/sodipodi-0.dtd"
   xmlns:inkscape="http://www.inkscape.org/namespaces/inkscape"
   version="1.1"
   id="svg2"
   xml:space="preserve"
   width="516.6853"
   height="409.91928"
   viewBox="0 0 516.68529 409.91928"
   sodipodi:docname="ITBH_Logo_cmyk.svg"
   inkscape:version="0.92.2 2405546, 2018-03-11"><metadata
     id="metadata8"><rdf:RDF><cc:Work
         rdf:about=""><dc:format>image/svg+xml</dc:format><dc:type
           rdf:resource="http://purl.org/dc/dcmitype/StillImage" /><dc:title></dc:title></cc:Work></rdf:RDF></metadata><defs
     id="defs6"><clipPath
       clipPathUnits="userSpaceOnUse"
       id="clipPath30"><path
         d="m 4612.32,4251.06 c 1.25,2.14 2.3,4.45 3.1,6.82 0.81,2.44 1.38,4.95 1.74,7.58 0.34,2.68 0.48,5.38 0.34,8.29 -0.13,2.88 -0.4,5.85 -1.05,8.96 -0.09,0.94 -0.3,1.77 -0.49,2.71 -0.2,0.94 -0.44,1.83 -0.65,2.77 -0.26,0.9 -0.47,1.8 -0.77,2.75 -0.25,0.99 -0.54,1.9 -0.81,2.83 -4.3,13.51 -11.95,27.94 -22.17,42.59 -10.09,14.36 -22.73,29.03 -37.24,43.37 -14.32,14.21 -30.58,28.24 -48.13,41.41 -17.54,13.13 -36.63,25.64 -56.67,36.8 -20.14,11.26 -39.85,20.36 -58.29,27.14 -18.85,6.95 -36.47,11.53 -52.33,13.74 -16.17,2.13 -30.48,1.76 -41.98,-1.48 -11.92,-3.35 -20.81,-9.59 -25.81,-19.15 l -0.5,-0.8 -2.01,0.64 c -2.94,1.03 -5.82,1.97 -8.81,2.97 -2.96,0.94 -5.92,1.94 -8.84,2.83 -2.96,0.98 -5.95,1.92 -8.87,2.75 -3.07,0.94 -5.95,1.84 -8.91,2.74 -23.06,6.82 -46.04,12.73 -68.82,17.65 -23.33,5.04 -46.58,9.12 -69.61,12.09 -23.69,3.02 -47.19,4.92 -70.31,5.62 -23.96,0.7 -47.59,0.16 -70.66,-1.7 -24.22,-2.07 -47.65,-5.59 -70.25,-10.7 -23.39,-5.28 -45.98,-12.23 -67.25,-20.89 -22.2,-9.08 -43.18,-20.05 -62.68,-32.89 -20.4,-13.46 -39.14,-29 -56.01,-46.72 12.4,-3.27 24.61,-6.85 36.72,-10.52 11.94,-3.72 23.77,-7.69 35.36,-11.87 11.63,-4.18 23.13,-8.56 34.42,-13.17 11.15,-4.57 22.22,-9.39 33.13,-14.4 l 4.44,-2.08 c 11.09,13.58 23.66,25.74 37.5,36.47 13.32,10.46 27.87,19.65 43.35,27.44 14.99,7.62 30.98,13.96 47.73,19.15 16.34,5.04 33.34,8.96 51.05,11.73 16.97,2.71 34.51,4.34 52.46,4.98 17.54,0.61 35.38,0.3 53.57,-0.87 17.77,-1.17 35.75,-3.2 53.97,-6.02 17.84,-2.76 35.89,-6.35 54.11,-10.66 2.75,-0.67 5.52,-1.3 8.3,-2.04 2.72,-0.63 5.52,-1.3 8.24,-2.1 2.75,-0.7 5.5,-1.44 8.25,-2.21 2.76,-0.7 5.52,-1.53 8.21,-2.27 l 3.83,-1.11 1.01,-2.47 c 5.24,-13.33 13.78,-27.57 24.8,-42.21 11.23,-14.8 24.94,-29.91 40.77,-44.65 15.83,-14.83 33.58,-29.24 52.52,-42.51 18.89,-13.36 38.86,-25.43 59.09,-35.73 20.05,-10.19 39.38,-18.08 57.3,-23.66 17.65,-5.48 33.84,-8.68 48.16,-9.63 13.91,-0.89 25.95,0.34 35.55,3.75 9.45,3.31 16.51,8.69 20.9,15.94"
         id="path28"
         inkscape:connector-curvature="0" /></clipPath><linearGradient
       x1="0"
       y1="0"
       x2="1"
       y2="0"
       gradientUnits="userSpaceOnUse"
       gradientTransform="matrix(919.974,0,0,-919.974,3697.58,4231.09)"
       spreadMethod="pad"
       id="linearGradient38"><stop
         style="stop-opacity:1;stop-color:#102d57"
         offset="0"
         id="stop32" /><stop
         style="stop-opacity:1;stop-color:#3971bb"
         offset="0.54285869"
         id="stop34" /><stop
         style="stop-opacity:1;stop-color:#3971bb"
         offset="1"
         id="stop36" /></linearGradient><clipPath
       clipPathUnits="userSpaceOnUse"
       id="clipPath48"><path
         d="m 5109.32,3307.85 c 32.72,-10.46 59.57,-10.4 80.1,-1.87 19.83,8.28 33.54,24.42 40.91,46.52 6.99,21.22 8.1,47.89 3.32,78.28 -4.6,29.16 -14.58,61.82 -30.05,96.78 -10.64,24 -23.35,47.85 -37.6,71.05 -13.95,22.69 -29.4,44.82 -45.87,65.85 -16.16,20.68 -33.51,40.43 -51.49,58.72 -17.81,18.15 -36.36,34.95 -55.39,49.96 l -2.51,1.98 -0.78,2.39 c -0.94,2.68 -1.85,5.36 -2.75,8.06 -0.95,2.61 -1.88,5.32 -2.89,8.06 -0.93,2.7 -1.98,5.38 -2.96,8.02 -1.01,2.74 -2.01,5.35 -3.02,8.02 -9.25,23.66 -19.56,46.92 -30.92,69.92 -10.96,22.28 -22.99,44.18 -35.96,65.83 -12.57,21.09 -26.02,41.94 -40.33,62.43 -14.04,20.06 -28.89,39.9 -44.49,59.45 -14.69,18.33 -29.92,36.2 -45.58,53.75 -15.56,17.31 -31.58,34.2 -48.09,50.68 -16.37,16.26 -33.2,32.21 -50.44,47.71 -17.11,15.45 -34.82,30.49 -52.9,45.12 0.81,-3.84 1.38,-7.49 1.58,-10.99 0.3,-3.61 0.3,-6.99 0,-10.33 -0.26,-3.31 -0.83,-6.38 -1.69,-9.42 -0.82,-2.98 -1.98,-5.86 -3.45,-8.53 14.52,-12.26 28.57,-24.9 42.34,-37.76 13.78,-13 27.25,-26.28 40.3,-39.87 13.08,-13.64 25.84,-27.64 38.18,-41.85 12.4,-14.37 24.32,-29.04 35.79,-43.98 12.09,-15.68 23.56,-31.61 34.35,-47.73 10.94,-16.34 21.3,-32.91 30.85,-49.56 9.78,-16.94 18.82,-34.13 27.01,-51.27 8.34,-17.61 15.94,-35.33 22.59,-53 0.47,-1.34 1.01,-2.71 1.52,-4.05 0.5,-1.37 0.96,-2.77 1.47,-4.08 0.5,-1.4 0.91,-2.77 1.4,-4.13 0.51,-1.34 0.98,-2.75 1.46,-4.09 0.39,-1.3 0.93,-2.6 1.31,-3.87 0.46,-1.31 0.84,-2.64 1.31,-3.92 0.4,-1.33 0.81,-2.63 1.21,-3.97 0.47,-1.27 0.91,-2.54 1.28,-3.91 l 0.98,-3.25 -3.17,1.4 c -12,5.1 -23.5,8.97 -34.41,11.64 -11.05,2.64 -21.55,4.08 -31.36,4.19 -9.92,0.12 -19.23,-1.04 -27.69,-3.58 -8.67,-2.55 -16.51,-6.52 -23.39,-11.97 -7.06,-5.48 -12.97,-12.33 -17.67,-20.53 -4.92,-8.35 -8.48,-18.01 -10.69,-28.97 -2.32,-11.15 -3.31,-23.6 -2.72,-37.36 0.46,-14 2.52,-29.28 6.07,-45.73 3.06,-13.89 7.17,-28.26 12.24,-42.98 5.21,-15 11.42,-30.34 18.68,-45.98 7.4,-15.77 15.74,-31.85 25.12,-47.96 9.5,-16.31 19.99,-32.68 31.41,-48.96 8.06,-11.6 16.6,-22.99 25.47,-34.16 8.97,-11.23 18.22,-22.16 27.7,-32.75 9.61,-10.65 19.35,-20.95 29.3,-30.69 10.01,-9.81 20.17,-19.11 30.38,-27.96 10.66,-9.12 21.38,-17.47 32.09,-25.37 10.72,-7.75 21.38,-14.83 31.96,-21.22 10.49,-6.29 20.85,-11.79 31.06,-16.61 10.08,-4.71 19.96,-8.63 29.52,-11.6"
         id="path46"
         inkscape:connector-curvature="0" /></clipPath><linearGradient
       x1="0"
       y1="0"
       x2="1"
       y2="0"
       gradientUnits="userSpaceOnUse"
       gradientTransform="matrix(590.488,0,0,-590.488,4646.07,3299.78)"
       spreadMethod="pad"
       id="linearGradient56"><stop
         style="stop-opacity:1;stop-color:#102d57"
         offset="0"
         id="stop50" /><stop
         style="stop-opacity:1;stop-color:#3971bb"
         offset="0.54285869"
         id="stop52" /><stop
         style="stop-opacity:1;stop-color:#3971bb"
         offset="1"
         id="stop54" /></linearGradient><clipPath
       clipPathUnits="userSpaceOnUse"
       id="clipPath66"><path
         d="m 3779.82,3726.75 c 41.13,-55.21 87.83,-107.98 139.36,-157.31 52.02,-49.84 108.25,-95.42 167.61,-136.03 59.16,-40.36 120.64,-75.3 183.34,-104.14 61.59,-28.31 123.49,-50.36 184.79,-65.87 58.53,-14.94 114.21,-23.26 166.34,-25.34 50.21,-2.2 96.73,1.51 139.28,10.49 40.55,8.54 77.15,21.91 109.68,39.51 30.86,16.78 57.89,37.4 80.94,61.34 -9.9,9.45 -19.59,19.22 -29.18,29.36 -9.55,10.07 -18.85,20.43 -27.96,31.07 -9.07,10.63 -17.85,21.48 -26.41,32.57 -8.54,11.03 -16.81,22.19 -24.81,33.65 -20.83,-14.43 -44.43,-26.26 -70.57,-35.23 -27.15,-9.18 -56.93,-15.3 -89.13,-18 -33.28,-2.83 -68.96,-2.14 -106.83,2.4 -38.89,4.75 -79.76,13.47 -122.21,26.27 -43.98,13.27 -88.28,30.52 -132.23,51.57 -44.5,21.4 -88.33,46.42 -130.87,74.83 -42.68,28.55 -83.58,60.19 -122.14,94.51 -38.37,34.13 -74.06,70.66 -106.56,108.96 -3.83,4.55 -7.62,9.09 -11.39,13.74 -3.76,4.54 -7.46,9.15 -11.08,13.73 -3.64,4.65 -7.2,9.29 -10.76,13.91 -3.43,4.61 -6.96,9.18 -10.36,13.89 l -4.03,5.49 5.95,2.98 c 18.18,8.98 34.65,18.98 49.26,29.78 14.33,10.52 27.06,21.78 38.02,33.79 10.68,11.62 19.75,24.02 27.3,36.85 7.3,12.6 13.16,25.77 17.43,39.34 5.01,16.04 7.76,32.35 8.3,48.66 0.57,15.97 -0.9,32.02 -4.37,48.13 -3.4,15.71 -8.74,31.45 -15.86,47.13 -7.13,15.37 -15.92,30.67 -26.58,45.84 -10.52,14.91 -22.56,29.35 -35.83,43.12 -13.28,13.81 -27.86,26.97 -43.72,39.47 -15.72,12.5 -32.87,24.43 -51.12,35.63 -18.34,11.23 -37.94,21.79 -58.64,31.61 l -10.22,4.72 c -11.7,5.24 -23.53,10.22 -35.6,14.9 -12.13,4.68 -24.42,9.02 -36.93,13.03 -12.55,4.08 -25.33,7.79 -38.32,11.24 -13.03,3.4 -26.3,6.48 -39.78,9.25 -37.78,7.72 -75.65,12.33 -112.95,13.94 -38.68,1.64 -76.92,0.1 -113.56,-4.74 -38.18,-5.09 -74.81,-13.71 -108.66,-25.98 -35.31,-12.83 -67.51,-29.67 -94.84,-50.62 -40.69,-31.16 -67.28,-68.45 -79.34,-109.52 -12.7,-43.12 -9.08,-89.55 10.85,-135.87 20.41,-47.59 57.48,-93.95 109.6,-134.85 52.12,-41.01 117.56,-75.4 193.24,-99.46 21.78,-6.92 43.65,-12.87 65.64,-17.61 21.74,-4.81 43.45,-8.63 65.09,-11.37 21.44,-2.71 42.75,-4.41 63.95,-5.11 20.8,-0.77 41.52,-0.5 61.88,0.63 l 6.51,0.37 2.96,-4.61 c 3.5,-5.48 7.1,-10.99 10.75,-16.54 3.64,-5.51 7.34,-11 11.17,-16.52 3.83,-5.52 7.67,-11.02 11.59,-16.57 3.94,-5.48 8.01,-10.93 12.01,-16.41"
         id="path64"
         inkscape:connector-curvature="0" /></clipPath><linearGradient
       x1="0"
       y1="0"
       x2="1"
       y2="0"
       gradientUnits="userSpaceOnUse"
       gradientTransform="matrix(1804,0,0,-1804,3147.16,3237.45)"
       spreadMethod="pad"
       id="linearGradient74"><stop
         style="stop-opacity:1;stop-color:#102d57"
         offset="0"
         id="stop68" /><stop
         style="stop-opacity:1;stop-color:#3971bb"
         offset="0.54285869"
         id="stop70" /><stop
         style="stop-opacity:1;stop-color:#3971bb"
         offset="1"
         id="stop72" /></linearGradient></defs><sodipodi:namedview
     pagecolor="#ffffff"
     bordercolor="#666666"
     borderopacity="1"
     objecttolerance="10"
     gridtolerance="10"
     guidetolerance="10"
     inkscape:pageopacity="0"
     inkscape:pageshadow="2"
     inkscape:window-width="2560"
     inkscape:window-height="1373"
     id="namedview4"
     showgrid="false"
     inkscape:zoom="0.84100188"
     inkscape:cx="104.7176"
     inkscape:cy="160.33988"
     inkscape:window-x="0"
     inkscape:window-y="0"
     inkscape:window-maximized="1"
     inkscape:current-layer="g10" /><g
     id="g10"
     inkscape:groupmode="layer"
     inkscape:label="ink_ext_XXXXXX"
     transform="matrix(1.3333333,0,0,-1.3333333,-305.51066,603.32993)"><g
       id="g12"
       transform="scale(0.1)"><path
         d="m 2840.25,1454.56 v 154.64 h -21.41 v -115.69 c -9.81,-10.4 -28.25,-23.49 -44.31,-23.49 -15.46,0 -25.28,6.84 -25.28,27.36 v 111.82 h -21.41 v -112.41 c 0,-33.31 21.71,-45.21 44.61,-45.21 17.54,0 33.6,10.11 45.8,23.79 h 0.59 v -20.81 z m 46.99,154.64 v -154.64 h 21.41 v 115.68 c 9.81,10.41 28.25,23.49 44.31,23.49 15.47,0 25.28,-6.84 25.28,-27.36 v -111.81 h 21.41 v 112.41 c 0,33.31 -21.71,45.2 -44.61,45.2 -17.54,0 -33.6,-10.11 -45.79,-23.79 h -0.6 v 20.82 z m 250.7,60.07 v -74.94 l -1.19,0.59 c -11.9,9.82 -26.17,17.25 -40.74,17.25 -26.17,0 -62.16,-20.22 -62.16,-80.29 0,-61.86 35.99,-80.3 63.35,-80.3 18.43,0 33.6,8.33 40.74,18.14 l 2.97,-15.16 h 19.63 c -1.79,11.3 -1.19,22.6 -1.19,33.9 v 180.81 z m 0,-178.43 c -15.17,-14.87 -25.28,-20.82 -38.96,-20.82 -26.77,0 -43.72,21.41 -43.72,60.67 0,46.69 18.74,63.04 43.72,63.04 12.79,0 27.36,-8.62 38.96,-21.41 z m 285.19,178.43 v -92.19 h -102.9 v 92.19 h -23.79 v -214.71 h 23.79 v 102.3 h 102.9 v -102.3 h 23.79 v 214.71 z m 175.16,-137.39 c 0,-39.85 -16.36,-61.86 -41.93,-61.86 -25.58,0 -41.94,22.01 -41.94,61.86 0,39.85 16.36,61.85 41.94,61.85 25.57,0 41.93,-22 41.93,-61.85 z m 21.41,0 c 0,44.61 -21.12,80.29 -63.34,80.29 -42.23,0 -63.35,-35.68 -63.35,-80.29 0,-44.61 21.12,-80.3 63.35,-80.3 42.22,0 63.34,35.69 63.34,80.3 z m 145.72,38.36 c -9.81,24.09 -24.68,41.93 -56.5,41.93 -38.66,0 -63.35,-30.33 -63.35,-80.29 0,-49.96 24.69,-80.3 63.35,-80.3 30.63,0 44.31,13.09 59.77,39.26 l -17.25,7.73 c -11.89,-22.01 -22.9,-28.55 -42.52,-28.55 -26.47,0 -41.94,22.6 -41.94,61.86 0,39.25 15.47,61.85 41.94,61.85 18.43,0 30.63,-11.89 36.57,-30.63 z m 46.39,99.03 v -214.71 h 21.41 v 115.68 c 9.82,10.41 28.26,23.49 44.31,23.49 15.47,0 25.28,-6.84 25.28,-27.36 v -111.81 h 21.41 v 112.41 c 0,33.31 -21.71,45.2 -44.6,45.2 -17.55,0 -33.61,-10.11 -45.8,-23.79 h -0.6 v 80.89 z m 148.99,-188.25 c 14.28,-19.03 37.77,-29.44 61.86,-29.44 27.95,0 54.12,15.17 54.12,45.21 0,57.69 -89.81,40.44 -89.81,74.04 0,13.68 9.82,22.9 27.96,22.9 16.65,0 27.95,-7.13 39.85,-21.71 l 14.87,13.09 c -10.41,15.76 -32.72,26.76 -52.94,27.06 -29.74,0.3 -50.26,-14.87 -51.15,-41.63 -1.78,-56.51 89.81,-35.69 89.81,-74.94 0,-13.09 -10.11,-25.58 -33.31,-25.58 -19.33,0 -34.19,9.22 -44.31,23.79 z m 259.62,89.22 c -9.82,24.09 -24.69,41.93 -56.51,41.93 -38.66,0 -63.34,-30.33 -63.34,-80.29 0,-49.96 24.68,-80.3 63.34,-80.3 30.64,0 44.32,13.09 59.78,39.26 l -17.25,7.73 c -11.89,-22.01 -22.9,-28.55 -42.53,-28.55 -26.46,0 -41.93,22.6 -41.93,61.86 0,39.25 15.47,61.85 41.93,61.85 18.44,0 30.64,-11.89 36.58,-30.63 z m 46.39,99.03 v -214.71 h 21.41 v 115.68 c 9.82,10.41 28.25,23.49 44.31,23.49 15.47,0 25.28,-6.84 25.28,-27.36 v -111.81 h 21.41 v 112.41 c 0,33.31 -21.71,45.2 -44.6,45.2 -17.55,0 -33.61,-10.11 -45.8,-23.79 h -0.6 v 80.89 z m 280.73,-214.71 v 154.64 h -21.41 v -115.69 c -9.81,-10.4 -28.25,-23.49 -44.31,-23.49 -15.46,0 -25.28,6.84 -25.28,27.36 v 111.82 h -21.41 v -112.41 c 0,-33.31 21.71,-45.21 44.61,-45.21 17.55,0 33.61,10.11 45.8,23.79 h 0.59 v -20.81 z m 60.08,214.71 v -214.71 h 21.41 v 214.71 z m 172.78,0 v -74.94 l -1.19,0.59 c -11.9,9.82 -26.17,17.25 -40.74,17.25 -26.17,0 -62.16,-20.22 -62.16,-80.29 0,-61.86 35.99,-80.3 63.35,-80.3 18.44,0 33.6,8.33 40.74,18.14 l 2.97,-15.16 H 4803 c -1.78,11.3 -1.19,22.6 -1.19,33.9 v 180.81 z m 0,-178.43 c -15.17,-14.87 -25.28,-20.82 -38.96,-20.82 -26.76,0 -43.71,21.41 -43.71,60.67 0,46.69 18.73,63.04 43.71,63.04 12.79,0 27.36,-8.62 38.96,-21.41 z m 81.19,-36.28 H 4883 v 154.64 h -21.41 z m 0,217.68 v -25.57 H 4883 v 25.57 z m 172.78,-2.97 v -74.94 l -1.19,0.59 c -11.9,9.82 -26.17,17.25 -40.74,17.25 -26.17,0 -62.16,-20.22 -62.16,-80.29 0,-61.86 35.99,-80.3 63.35,-80.3 18.43,0 33.6,8.33 40.74,18.14 l 2.97,-15.16 h 19.63 c -1.78,11.3 -1.19,22.6 -1.19,33.9 v 180.81 z m 0,-178.43 c -15.17,-14.87 -25.28,-20.82 -38.96,-20.82 -26.76,0 -43.72,21.41 -43.72,60.67 0,46.69 18.74,63.04 43.72,63.04 12.79,0 27.36,-8.62 38.96,-21.41 z m 86.24,78.81 c 4.16,10.4 15.76,24.08 39.55,24.08 18.44,0 31.82,-7.73 31.82,-28.25 v -8.32 c -68.69,-12.2 -94.57,-29.15 -94.57,-63.05 0,-28.25 20.23,-42.53 44.02,-42.53 23.19,0 40.44,12.49 51.15,24.39 l 2.38,-21.41 h 22 c -2.08,8.03 -3.56,16.35 -3.56,33.3 v 77.92 c 0,33.9 -27.36,46.39 -53.53,46.39 -29.15,0 -48.18,-14.87 -57.99,-32.71 z m 71.37,-74.05 c -12.49,-14.28 -32.11,-25.58 -47.58,-25.58 -11.89,0 -25.57,9.52 -25.57,23.79 0,21.41 24.09,35.69 73.15,44.31 z m 69.59,-41.04 h 21.41 v 46.39 l 28.55,32.71 41.04,-79.1 h 25.28 l -51.45,97.54 45.5,57.1 h -25.87 l -62.45,-78.21 h -0.6 v 138.28 h -21.41 z m 132.04,154.64 v -18.44 h 25.28 v -113.6 c 0,-19.63 9.81,-25.58 33.01,-25.58 12.49,0 21.12,1.19 24.98,2.38 v 17.55 c -5.65,-0.89 -11.89,-1.49 -19.03,-1.49 -12.49,0 -17.55,3.57 -17.55,10.71 v 110.03 h 35.69 v 18.44 h -35.69 v 50.85 h -21.41 v -50.85 z m 127.28,-154.64 h 21.41 v 154.64 h -21.41 z m 0,217.68 v -25.57 h 21.41 v 25.57 z m 80,-217.68 h 21.41 v 46.39 l 28.55,32.71 41.04,-79.1 h 25.28 l -51.45,97.54 45.5,57.1 h -25.87 l -62.45,-78.21 h -0.6 v 138.28 h -21.41 v -214.71"
         style="fill:#102e57;fill-opacity:1;fill-rule:nonzero;stroke:none"
         id="path14"
         inkscape:connector-curvature="0" /><path
         d="m 2840.25,1454.56 v 154.64 h -21.41 v -115.69 c -9.81,-10.4 -28.25,-23.49 -44.31,-23.49 -15.46,0 -25.28,6.84 -25.28,27.36 v 111.82 h -21.41 v -112.41 c 0,-33.31 21.71,-45.21 44.61,-45.21 17.54,0 33.6,10.11 45.8,23.79 h 0.59 v -20.81 z m 46.99,154.64 v -154.64 h 21.41 v 115.68 c 9.81,10.41 28.25,23.49 44.31,23.49 15.47,0 25.28,-6.84 25.28,-27.36 v -111.81 h 21.41 v 112.41 c 0,33.31 -21.71,45.2 -44.61,45.2 -17.54,0 -33.6,-10.11 -45.79,-23.79 h -0.6 v 20.82 z m 250.7,60.07 v -74.94 l -1.19,0.59 c -11.9,9.82 -26.17,17.25 -40.74,17.25 -26.17,0 -62.16,-20.22 -62.16,-80.29 0,-61.86 35.99,-80.3 63.35,-80.3 18.43,0 33.6,8.33 40.74,18.14 l 2.97,-15.16 h 19.63 c -1.79,11.3 -1.19,22.6 -1.19,33.9 v 180.81 z m 0,-178.43 c -15.17,-14.87 -25.28,-20.82 -38.96,-20.82 -26.77,0 -43.72,21.41 -43.72,60.67 0,46.69 18.74,63.04 43.72,63.04 12.79,0 27.36,-8.62 38.96,-21.41 z m 285.19,178.43 v -92.19 h -102.9 v 92.19 h -23.79 v -214.71 h 23.79 v 102.3 h 102.9 v -102.3 h 23.79 v 214.71 z m 175.16,-137.39 c 0,-39.85 -16.36,-61.86 -41.93,-61.86 -25.58,0 -41.94,22.01 -41.94,61.86 0,39.85 16.36,61.85 41.94,61.85 25.57,0 41.93,-22 41.93,-61.85 z m 21.41,0 c 0,44.61 -21.12,80.29 -63.34,80.29 -42.23,0 -63.35,-35.68 -63.35,-80.29 0,-44.61 21.12,-80.3 63.35,-80.3 42.22,0 63.34,35.69 63.34,80.3 z m 145.72,38.36 c -9.81,24.09 -24.68,41.93 -56.5,41.93 -38.66,0 -63.35,-30.33 -63.35,-80.29 0,-49.96 24.69,-80.3 63.35,-80.3 30.63,0 44.31,13.09 59.77,39.26 l -17.25,7.73 c -11.89,-22.01 -22.9,-28.55 -42.52,-28.55 -26.47,0 -41.94,22.6 -41.94,61.86 0,39.25 15.47,61.85 41.94,61.85 18.43,0 30.63,-11.89 36.57,-30.63 z m 46.39,99.03 v -214.71 h 21.41 v 115.68 c 9.82,10.41 28.26,23.49 44.31,23.49 15.47,0 25.28,-6.84 25.28,-27.36 v -111.81 h 21.41 v 112.41 c 0,33.31 -21.71,45.2 -44.6,45.2 -17.55,0 -33.61,-10.11 -45.8,-23.79 h -0.6 v 80.89 z m 148.99,-188.25 c 14.28,-19.03 37.77,-29.44 61.86,-29.44 27.95,0 54.12,15.17 54.12,45.21 0,57.69 -89.81,40.44 -89.81,74.04 0,13.68 9.82,22.9 27.96,22.9 16.65,0 27.95,-7.13 39.85,-21.71 l 14.87,13.09 c -10.41,15.76 -32.72,26.76 -52.94,27.06 -29.74,0.3 -50.26,-14.87 -51.15,-41.63 -1.78,-56.51 89.81,-35.69 89.81,-74.94 0,-13.09 -10.11,-25.58 -33.31,-25.58 -19.33,0 -34.19,9.22 -44.31,23.79 z m 259.62,89.22 c -9.82,24.09 -24.69,41.93 -56.51,41.93 -38.66,0 -63.34,-30.33 -63.34,-80.29 0,-49.96 24.68,-80.3 63.34,-80.3 30.64,0 44.32,13.09 59.78,39.26 l -17.25,7.73 c -11.89,-22.01 -22.9,-28.55 -42.53,-28.55 -26.46,0 -41.93,22.6 -41.93,61.86 0,39.25 15.47,61.85 41.93,61.85 18.44,0 30.64,-11.89 36.58,-30.63 z m 46.39,99.03 v -214.71 h 21.41 v 115.68 c 9.82,10.41 28.25,23.49 44.31,23.49 15.47,0 25.28,-6.84 25.28,-27.36 v -111.81 h 21.41 v 112.41 c 0,33.31 -21.71,45.2 -44.6,45.2 -17.55,0 -33.61,-10.11 -45.8,-23.79 h -0.6 v 80.89 z m 280.73,-214.71 v 154.64 h -21.41 v -115.69 c -9.81,-10.4 -28.25,-23.49 -44.31,-23.49 -15.46,0 -25.28,6.84 -25.28,27.36 v 111.82 h -21.41 v -112.41 c 0,-33.31 21.71,-45.21 44.61,-45.21 17.55,0 33.61,10.11 45.8,23.79 h 0.59 v -20.81 z m 60.08,214.71 v -214.71 h 21.41 v 214.71 z m 172.78,0 v -74.94 l -1.19,0.59 c -11.9,9.82 -26.17,17.25 -40.74,17.25 -26.17,0 -62.16,-20.22 -62.16,-80.29 0,-61.86 35.99,-80.3 63.35,-80.3 18.44,0 33.6,8.33 40.74,18.14 l 2.97,-15.16 H 4803 c -1.78,11.3 -1.19,22.6 -1.19,33.9 v 180.81 z m 0,-178.43 c -15.17,-14.87 -25.28,-20.82 -38.96,-20.82 -26.76,0 -43.71,21.41 -43.71,60.67 0,46.69 18.73,63.04 43.71,63.04 12.79,0 27.36,-8.62 38.96,-21.41 z m 81.19,-36.28 H 4883 v 154.64 h -21.41 z m 0,217.68 v -25.57 H 4883 v 25.57 z m 172.78,-2.97 v -74.94 l -1.19,0.59 c -11.9,9.82 -26.17,17.25 -40.74,17.25 -26.17,0 -62.16,-20.22 -62.16,-80.29 0,-61.86 35.99,-80.3 63.35,-80.3 18.43,0 33.6,8.33 40.74,18.14 l 2.97,-15.16 h 19.63 c -1.78,11.3 -1.19,22.6 -1.19,33.9 v 180.81 z m 0,-178.43 c -15.17,-14.87 -25.28,-20.82 -38.96,-20.82 -26.76,0 -43.72,21.41 -43.72,60.67 0,46.69 18.74,63.04 43.72,63.04 12.79,0 27.36,-8.62 38.96,-21.41 z m 86.24,78.81 c 4.16,10.4 15.76,24.08 39.55,24.08 18.44,0 31.82,-7.73 31.82,-28.25 v -8.32 c -68.69,-12.2 -94.57,-29.15 -94.57,-63.05 0,-28.25 20.23,-42.53 44.02,-42.53 23.19,0 40.44,12.49 51.15,24.39 l 2.38,-21.41 h 22 c -2.08,8.03 -3.56,16.35 -3.56,33.3 v 77.92 c 0,33.9 -27.36,46.39 -53.53,46.39 -29.15,0 -48.18,-14.87 -57.99,-32.71 z m 71.37,-74.05 c -12.49,-14.28 -32.11,-25.58 -47.58,-25.58 -11.89,0 -25.57,9.52 -25.57,23.79 0,21.41 24.09,35.69 73.15,44.31 z m 69.59,-41.04 h 21.41 v 46.39 l 28.55,32.71 41.04,-79.1 h 25.28 l -51.45,97.54 45.5,57.1 h -25.87 l -62.45,-78.21 h -0.6 v 138.28 h -21.41 z m 132.04,154.64 v -18.44 h 25.28 v -113.6 c 0,-19.63 9.81,-25.58 33.01,-25.58 12.49,0 21.12,1.19 24.98,2.38 v 17.55 c -5.65,-0.89 -11.89,-1.49 -19.03,-1.49 -12.49,0 -17.55,3.57 -17.55,10.71 v 110.03 h 35.69 v 18.44 h -35.69 v 50.85 h -21.41 v -50.85 z m 127.28,-154.64 h 21.41 v 154.64 h -21.41 z m 0,217.68 v -25.57 h 21.41 v 25.57 z m 80,-217.68 h 21.41 v 46.39 l 28.55,32.71 41.04,-79.1 h 25.28 l -51.45,97.54 45.5,57.1 h -25.87 l -62.45,-78.21 h -0.6 v 138.28 h -21.41 z"
         style="fill:none;stroke:#102e57;stroke-width:2;stroke-linecap:butt;stroke-linejoin:miter;stroke-miterlimit:6.87476015;stroke-dasharray:none;stroke-opacity:1"
         id="path16"
         inkscape:connector-curvature="0" /><path
         d="m 2292.33,2019.27 v -214.71 h 23.79 v 214.71 z m 90.99,-60.07 v -154.64 h 21.42 v 115.68 c 9.81,10.41 28.25,23.49 44.31,23.49 15.46,0 25.28,-6.84 25.28,-27.36 v -111.81 h 21.41 v 112.41 c 0,33.31 -21.71,45.2 -44.61,45.2 -17.55,0 -33.61,-10.11 -45.8,-23.79 h -0.59 v 20.82 z m 149,-128.18 c 14.27,-19.03 37.76,-29.44 61.85,-29.44 27.96,0 54.13,15.17 54.13,45.21 0,57.69 -89.81,40.44 -89.81,74.04 0,13.68 9.81,22.9 27.95,22.9 16.65,0 27.96,-7.13 39.85,-21.71 l 14.87,13.09 c -10.41,15.76 -32.71,26.76 -52.93,27.06 -29.74,0.3 -50.26,-14.87 -51.16,-41.63 -1.78,-56.51 89.82,-35.69 89.82,-74.94 0,-13.09 -10.12,-25.58 -33.31,-25.58 -19.33,0 -34.2,9.22 -44.31,23.79 z m 133.22,128.18 v -18.44 h 25.28 v -113.6 c 0,-19.63 9.81,-25.58 33.01,-25.58 12.49,0 21.11,1.19 24.98,2.38 v 17.55 c -5.65,-0.89 -11.9,-1.49 -19.03,-1.49 -12.49,0 -17.55,3.57 -17.55,10.71 v 110.03 h 35.69 v 18.44 h -35.69 v 50.85 h -21.41 v -50.85 z m 127.28,-154.64 h 21.41 v 154.64 h -21.41 z m 0,217.68 v -25.57 h 21.41 v 25.57 z m 60.37,-63.04 v -18.44 h 25.28 v -113.6 c 0,-19.63 9.81,-25.58 33.01,-25.58 12.49,0 21.11,1.19 24.98,2.38 v 17.55 c -5.65,-0.89 -11.9,-1.49 -19.03,-1.49 -12.49,0 -17.55,3.57 -17.55,10.71 v 110.03 h 35.69 v 18.44 h -35.69 v 50.85 h -21.41 v -50.85 z m 235.53,-154.64 v 154.64 h -21.41 v -115.69 c -9.82,-10.4 -28.25,-23.49 -44.31,-23.49 -15.47,0 -25.28,6.84 -25.28,27.36 v 111.82 h -21.41 v -112.41 c 0,-33.31 21.71,-45.21 44.61,-45.21 17.54,0 33.6,10.11 45.79,23.79 h 0.6 v -20.81 z m 34.79,154.64 v -18.44 h 25.28 v -113.6 c 0,-19.63 9.82,-25.58 33.01,-25.58 12.49,0 21.12,1.19 24.98,2.38 v 17.55 c -5.65,-0.89 -11.89,-1.49 -19.03,-1.49 -12.49,0 -17.55,3.57 -17.55,10.71 v 110.03 h 35.69 v 18.44 h -35.69 v 50.85 h -21.41 v -50.85 z m 235.13,-154.64 v 136.2 h 33.61 v 18.44 h -33.61 v 22.6 c 0,17.25 5.36,22.01 19.93,22.01 4.76,0 10.41,-1.49 15.46,-2.09 v 19.04 c -6.24,0.59 -12.79,1.48 -19.03,1.48 -25.28,0 -37.77,-8.92 -37.77,-45.5 v -17.54 h -26.17 v -18.44 h 26.17 v -136.2 z m 176.35,0 v 154.64 h -21.41 v -115.69 c -9.81,-10.4 -28.25,-23.49 -44.31,-23.49 -15.47,0 -25.28,6.84 -25.28,27.36 v 111.82 h -21.41 v -112.41 c 0,-33.31 21.71,-45.21 44.61,-45.21 17.54,0 33.6,10.11 45.79,23.79 h 0.6 v -20.81 z m -19.63,175.46 v 27.95 h -26.17 v -27.95 z m -46.98,0 v 27.95 h -26.17 v -27.95 z m 107.95,-175.46 h 21.41 v 85.64 c 10.11,31.82 24.09,49.37 50.85,49.97 v 21.41 c -25.57,0 -38.36,-11.9 -50.26,-33.01 h -0.59 v 30.63 h -21.41 z m 313.93,194.49 v 20.22 H 3738 v -20.22 h 64.24 v -194.49 h 23.79 v 194.49 z m 95.17,-152.86 c -8.92,-16.06 -23.79,-26.17 -42.82,-26.17 -25.58,0 -45.8,23.79 -45.8,57.69 h 100.51 v 14.28 c 0,49.36 -26.76,70.18 -58.88,70.18 -38.06,0 -63.04,-30.33 -63.04,-80.29 0,-56.51 32.71,-80.3 67.21,-80.3 35.09,0 49.36,18.44 59.47,35.99 z m -88.03,49.96 c 1.79,28.55 15.76,47.58 41.64,47.58 23.19,0 36.87,-19.03 36.87,-47.58 z m 240.59,24.09 c -9.81,24.09 -24.68,41.93 -56.5,41.93 -38.66,0 -63.35,-30.33 -63.35,-80.29 0,-49.96 24.69,-80.3 63.35,-80.3 30.63,0 44.31,13.09 59.77,39.26 l -17.25,7.73 c -11.89,-22.01 -22.9,-28.55 -42.52,-28.55 -26.47,0 -41.94,22.6 -41.94,61.86 0,39.25 15.47,61.85 41.94,61.85 18.43,0 30.63,-11.89 36.57,-30.63 z m 37.47,99.03 v -214.71 h 21.41 v 115.68 c 9.82,10.41 28.25,23.49 44.31,23.49 15.47,0 25.28,-6.84 25.28,-27.36 v -111.81 h 21.41 v 112.41 c 0,33.31 -21.71,45.2 -44.61,45.2 -17.54,0 -33.6,-10.11 -45.79,-23.79 h -0.6 v 80.89 z m 159.4,-60.07 v -154.64 h 21.41 v 115.68 c 9.82,10.41 28.25,23.49 44.31,23.49 15.47,0 25.28,-6.84 25.28,-27.36 v -111.81 h 21.41 v 112.41 c 0,33.31 -21.71,45.2 -44.61,45.2 -17.54,0 -33.6,-10.11 -45.79,-23.79 h -0.6 v 20.82 z m 163.56,-154.64 h 21.42 v 154.64 h -21.42 z m 0,217.68 v -25.57 h 21.42 v 25.57 z m 53.24,-191.22 c 14.27,-19.03 37.76,-29.44 61.85,-29.44 27.96,0 54.13,15.17 54.13,45.21 0,57.69 -89.81,40.44 -89.81,74.04 0,13.68 9.81,22.9 27.95,22.9 16.65,0 27.95,-7.13 39.85,-21.71 l 14.87,13.09 c -10.41,15.76 -32.71,26.76 -52.94,27.06 -29.73,0.3 -50.25,-14.87 -51.15,-41.63 -1.78,-56.51 89.81,-35.69 89.81,-74.94 0,-13.09 -10.11,-25.58 -33.3,-25.58 -19.33,0 -34.2,9.22 -44.31,23.79 z m 250.69,89.22 c -9.81,24.09 -24.68,41.93 -56.5,41.93 -38.66,0 -63.35,-30.33 -63.35,-80.29 0,-49.96 24.69,-80.3 63.35,-80.3 30.63,0 44.31,13.09 59.77,39.26 l -17.25,7.73 c -11.89,-22.01 -22.9,-28.55 -42.52,-28.55 -26.47,0 -41.94,22.6 -41.94,61.86 0,39.25 15.47,61.85 41.94,61.85 18.43,0 30.63,-11.89 36.57,-30.63 z m 37.47,99.03 v -214.71 h 21.41 v 115.68 c 9.82,10.41 28.25,23.49 44.31,23.49 15.47,0 25.28,-6.84 25.28,-27.36 v -111.81 h 21.41 v 112.41 c 0,33.31 -21.71,45.2 -44.61,45.2 -17.54,0 -33.6,-10.11 -45.79,-23.79 h -0.6 v 80.89 z m 254.86,-173.08 c -8.92,-16.06 -23.79,-26.17 -42.82,-26.17 -25.58,0 -45.8,23.79 -45.8,57.69 h 100.52 v 14.28 c 0,49.36 -26.77,70.18 -58.89,70.18 -38.06,0 -63.04,-30.33 -63.04,-80.29 0,-56.51 32.71,-80.3 67.21,-80.3 35.09,0 49.36,18.44 59.48,35.99 z m -88.03,49.96 c 1.79,28.55 15.77,47.58 41.64,47.58 23.2,0 36.88,-19.03 36.88,-47.58 z m 223.83,-91.59 h 66.62 c 58.29,0 77.92,25.57 77.92,57.69 0,26.76 -17.25,48.18 -41.34,54.12 l -0.3,0.6 c 25.87,8.92 36.28,25.87 36.28,49.37 0,29.14 -22.6,52.93 -60.07,52.93 h -79.11 z m 23.8,102.3 h 41.03 c 33.91,0 55.91,-16.06 55.91,-43.42 0,-26.77 -17.24,-38.66 -52.34,-38.66 h -44.6 z m 0,92.19 h 51.15 c 27.36,0 40.44,-11.3 40.44,-35.39 0,-18.14 -13.98,-36.58 -49.96,-36.58 h -41.63 z m 167.13,-194.49 h 21.41 v 154.64 h -21.41 z m 0,217.68 v -25.57 h 21.41 v 25.57 z m 76.72,-2.97 v -214.71 h 21.41 v 214.71 z m 163.86,0 v -74.94 l -1.19,0.59 c -11.89,9.82 -26.17,17.25 -40.74,17.25 -26.17,0 -62.15,-20.22 -62.15,-80.29 0,-61.86 35.98,-80.3 63.34,-80.3 18.44,0 33.6,8.33 40.74,18.14 l 2.98,-15.16 h 19.62 c -1.78,11.3 -1.19,22.6 -1.19,33.9 v 180.81 z m 0,-178.43 c -15.17,-14.87 -25.28,-20.82 -38.96,-20.82 -26.76,0 -43.71,21.41 -43.71,60.67 0,46.69 18.73,63.04 43.71,63.04 12.79,0 27.36,-8.62 38.96,-21.41 z m 180.52,-36.28 v 154.64 h -21.42 v -115.69 c -9.81,-10.4 -28.25,-23.49 -44.31,-23.49 -15.46,0 -25.27,6.84 -25.27,27.36 v 111.82 h -21.42 v -112.41 c 0,-33.31 21.71,-45.21 44.61,-45.21 17.55,0 33.61,10.11 45.8,23.79 h 0.59 v -20.81 z m 46.98,154.64 v -154.64 h 21.42 v 115.68 c 9.81,10.41 28.25,23.49 44.31,23.49 15.46,0 25.27,-6.84 25.27,-27.36 v -111.81 h 21.42 v 112.41 c 0,33.31 -21.71,45.2 -44.61,45.2 -17.55,0 -33.61,-10.11 -45.8,-23.79 h -0.59 v 20.82 z m 275.68,5.95 c -11.6,-1.19 -24.09,-7.14 -33.31,-13.68 -10.11,7.13 -21.7,10.7 -38.36,10.7 -33.01,0 -58.58,-21.41 -58.58,-54.12 0,-16.95 6.54,-32.12 21.11,-43.12 -11.89,-7.44 -20.82,-13.09 -20.82,-26.47 0,-9.22 7.44,-18.44 19.33,-22.01 -16.65,-8.62 -26.17,-16.06 -26.17,-31.52 0,-25.58 23.2,-37.47 66.62,-37.47 48.18,0 70.48,19.03 70.48,41.63 0,30.34 -23.49,43.42 -96.65,43.42 -7.73,0 -12.79,4.16 -12.79,11.3 0,6.84 3.87,11.9 12.19,14.28 8.33,-2.38 14.87,-4.17 27.36,-4.17 31.23,0 56.51,23.5 56.51,54.13 0,14.27 -6.25,26.17 -10.71,31.52 5.35,2.68 14.87,4.16 23.79,4.16 z m -19.92,-176.95 c -0.3,-15.17 -21.12,-22.3 -46.69,-22.3 -42.83,0 -49.96,7.73 -49.96,19.33 0,11 9.51,25.87 43.12,25.87 37.77,0 53.23,-7.73 53.53,-22.9 z m -13.39,118.66 c 0,-18.44 -12.49,-34.5 -36.87,-34.5 -23.79,0 -39.85,15.17 -39.85,35.69 0,20.22 13.08,35.68 37.47,35.68 26.17,0 39.25,-14.27 39.25,-36.87"
         style="fill:#102e57;fill-opacity:1;fill-rule:nonzero;stroke:none"
         id="path18"
         inkscape:connector-curvature="0" /><path
         d="m 2292.33,2019.27 v -214.71 h 23.79 v 214.71 z m 90.99,-60.07 v -154.64 h 21.42 v 115.68 c 9.81,10.41 28.25,23.49 44.31,23.49 15.46,0 25.28,-6.84 25.28,-27.36 v -111.81 h 21.41 v 112.41 c 0,33.31 -21.71,45.2 -44.61,45.2 -17.55,0 -33.61,-10.11 -45.8,-23.79 h -0.59 v 20.82 z m 149,-128.18 c 14.27,-19.03 37.76,-29.44 61.85,-29.44 27.96,0 54.13,15.17 54.13,45.21 0,57.69 -89.81,40.44 -89.81,74.04 0,13.68 9.81,22.9 27.95,22.9 16.65,0 27.96,-7.13 39.85,-21.71 l 14.87,13.09 c -10.41,15.76 -32.71,26.76 -52.93,27.06 -29.74,0.3 -50.26,-14.87 -51.16,-41.63 -1.78,-56.51 89.82,-35.69 89.82,-74.94 0,-13.09 -10.12,-25.58 -33.31,-25.58 -19.33,0 -34.2,9.22 -44.31,23.79 z m 133.22,128.18 v -18.44 h 25.28 v -113.6 c 0,-19.63 9.81,-25.58 33.01,-25.58 12.49,0 21.11,1.19 24.98,2.38 v 17.55 c -5.65,-0.89 -11.9,-1.49 -19.03,-1.49 -12.49,0 -17.55,3.57 -17.55,10.71 v 110.03 h 35.69 v 18.44 h -35.69 v 50.85 h -21.41 v -50.85 z m 127.28,-154.64 h 21.41 v 154.64 h -21.41 z m 0,217.68 v -25.57 h 21.41 v 25.57 z m 60.37,-63.04 v -18.44 h 25.28 v -113.6 c 0,-19.63 9.81,-25.58 33.01,-25.58 12.49,0 21.11,1.19 24.98,2.38 v 17.55 c -5.65,-0.89 -11.9,-1.49 -19.03,-1.49 -12.49,0 -17.55,3.57 -17.55,10.71 v 110.03 h 35.69 v 18.44 h -35.69 v 50.85 h -21.41 v -50.85 z m 235.53,-154.64 v 154.64 h -21.41 v -115.69 c -9.82,-10.4 -28.25,-23.49 -44.31,-23.49 -15.47,0 -25.28,6.84 -25.28,27.36 v 111.82 h -21.41 v -112.41 c 0,-33.31 21.71,-45.21 44.61,-45.21 17.54,0 33.6,10.11 45.79,23.79 h 0.6 v -20.81 z m 34.79,154.64 v -18.44 h 25.28 v -113.6 c 0,-19.63 9.82,-25.58 33.01,-25.58 12.49,0 21.12,1.19 24.98,2.38 v 17.55 c -5.65,-0.89 -11.89,-1.49 -19.03,-1.49 -12.49,0 -17.55,3.57 -17.55,10.71 v 110.03 h 35.69 v 18.44 h -35.69 v 50.85 h -21.41 v -50.85 z m 235.13,-154.64 v 136.2 h 33.61 v 18.44 h -33.61 v 22.6 c 0,17.25 5.36,22.01 19.93,22.01 4.76,0 10.41,-1.49 15.46,-2.09 v 19.04 c -6.24,0.59 -12.79,1.48 -19.03,1.48 -25.28,0 -37.77,-8.92 -37.77,-45.5 v -17.54 h -26.17 v -18.44 h 26.17 v -136.2 z m 176.35,0 v 154.64 h -21.41 v -115.69 c -9.81,-10.4 -28.25,-23.49 -44.31,-23.49 -15.47,0 -25.28,6.84 -25.28,27.36 v 111.82 h -21.41 v -112.41 c 0,-33.31 21.71,-45.21 44.61,-45.21 17.54,0 33.6,10.11 45.79,23.79 h 0.6 v -20.81 z m -19.63,175.46 v 27.95 h -26.17 v -27.95 z m -46.98,0 v 27.95 h -26.17 v -27.95 z m 107.95,-175.46 h 21.41 v 85.64 c 10.11,31.82 24.09,49.37 50.85,49.97 v 21.41 c -25.57,0 -38.36,-11.9 -50.26,-33.01 h -0.59 v 30.63 h -21.41 z m 313.93,194.49 v 20.22 H 3738 v -20.22 h 64.24 v -194.49 h 23.79 v 194.49 z m 95.17,-152.86 c -8.92,-16.06 -23.79,-26.17 -42.82,-26.17 -25.58,0 -45.8,23.79 -45.8,57.69 h 100.51 v 14.28 c 0,49.36 -26.76,70.18 -58.88,70.18 -38.06,0 -63.04,-30.33 -63.04,-80.29 0,-56.51 32.71,-80.3 67.21,-80.3 35.09,0 49.36,18.44 59.47,35.99 z m -88.03,49.96 c 1.79,28.55 15.76,47.58 41.64,47.58 23.19,0 36.87,-19.03 36.87,-47.58 z m 240.59,24.09 c -9.81,24.09 -24.68,41.93 -56.5,41.93 -38.66,0 -63.35,-30.33 -63.35,-80.29 0,-49.96 24.69,-80.3 63.35,-80.3 30.63,0 44.31,13.09 59.77,39.26 l -17.25,7.73 c -11.89,-22.01 -22.9,-28.55 -42.52,-28.55 -26.47,0 -41.94,22.6 -41.94,61.86 0,39.25 15.47,61.85 41.94,61.85 18.43,0 30.63,-11.89 36.57,-30.63 z m 37.47,99.03 v -214.71 h 21.41 v 115.68 c 9.82,10.41 28.25,23.49 44.31,23.49 15.47,0 25.28,-6.84 25.28,-27.36 v -111.81 h 21.41 v 112.41 c 0,33.31 -21.71,45.2 -44.61,45.2 -17.54,0 -33.6,-10.11 -45.79,-23.79 h -0.6 v 80.89 z m 159.4,-60.07 v -154.64 h 21.41 v 115.68 c 9.82,10.41 28.25,23.49 44.31,23.49 15.47,0 25.28,-6.84 25.28,-27.36 v -111.81 h 21.41 v 112.41 c 0,33.31 -21.71,45.2 -44.61,45.2 -17.54,0 -33.6,-10.11 -45.79,-23.79 h -0.6 v 20.82 z m 163.56,-154.64 h 21.42 v 154.64 h -21.42 z m 0,217.68 v -25.57 h 21.42 v 25.57 z m 53.24,-191.22 c 14.27,-19.03 37.76,-29.44 61.85,-29.44 27.96,0 54.13,15.17 54.13,45.21 0,57.69 -89.81,40.44 -89.81,74.04 0,13.68 9.81,22.9 27.95,22.9 16.65,0 27.95,-7.13 39.85,-21.71 l 14.87,13.09 c -10.41,15.76 -32.71,26.76 -52.94,27.06 -29.73,0.3 -50.25,-14.87 -51.15,-41.63 -1.78,-56.51 89.81,-35.69 89.81,-74.94 0,-13.09 -10.11,-25.58 -33.3,-25.58 -19.33,0 -34.2,9.22 -44.31,23.79 z m 250.69,89.22 c -9.81,24.09 -24.68,41.93 -56.5,41.93 -38.66,0 -63.35,-30.33 -63.35,-80.29 0,-49.96 24.69,-80.3 63.35,-80.3 30.63,0 44.31,13.09 59.77,39.26 l -17.25,7.73 c -11.89,-22.01 -22.9,-28.55 -42.52,-28.55 -26.47,0 -41.94,22.6 -41.94,61.86 0,39.25 15.47,61.85 41.94,61.85 18.43,0 30.63,-11.89 36.57,-30.63 z m 37.47,99.03 v -214.71 h 21.41 v 115.68 c 9.82,10.41 28.25,23.49 44.31,23.49 15.47,0 25.28,-6.84 25.28,-27.36 v -111.81 h 21.41 v 112.41 c 0,33.31 -21.71,45.2 -44.61,45.2 -17.54,0 -33.6,-10.11 -45.79,-23.79 h -0.6 v 80.89 z m 254.86,-173.08 c -8.92,-16.06 -23.79,-26.17 -42.82,-26.17 -25.58,0 -45.8,23.79 -45.8,57.69 h 100.52 v 14.28 c 0,49.36 -26.77,70.18 -58.89,70.18 -38.06,0 -63.04,-30.33 -63.04,-80.29 0,-56.51 32.71,-80.3 67.21,-80.3 35.09,0 49.36,18.44 59.48,35.99 z m -88.03,49.96 c 1.79,28.55 15.77,47.58 41.64,47.58 23.2,0 36.88,-19.03 36.88,-47.58 z m 223.83,-91.59 h 66.62 c 58.29,0 77.92,25.57 77.92,57.69 0,26.76 -17.25,48.18 -41.34,54.12 l -0.3,0.6 c 25.87,8.92 36.28,25.87 36.28,49.37 0,29.14 -22.6,52.93 -60.07,52.93 h -79.11 z m 23.8,102.3 h 41.03 c 33.91,0 55.91,-16.06 55.91,-43.42 0,-26.77 -17.24,-38.66 -52.34,-38.66 h -44.6 z m 0,92.19 h 51.15 c 27.36,0 40.44,-11.3 40.44,-35.39 0,-18.14 -13.98,-36.58 -49.96,-36.58 h -41.63 z m 167.13,-194.49 h 21.41 v 154.64 h -21.41 z m 0,217.68 v -25.57 h 21.41 v 25.57 z m 76.72,-2.97 v -214.71 h 21.41 v 214.71 z m 163.86,0 v -74.94 l -1.19,0.59 c -11.89,9.82 -26.17,17.25 -40.74,17.25 -26.17,0 -62.15,-20.22 -62.15,-80.29 0,-61.86 35.98,-80.3 63.34,-80.3 18.44,0 33.6,8.33 40.74,18.14 l 2.98,-15.16 h 19.62 c -1.78,11.3 -1.19,22.6 -1.19,33.9 v 180.81 z m 0,-178.43 c -15.17,-14.87 -25.28,-20.82 -38.96,-20.82 -26.76,0 -43.71,21.41 -43.71,60.67 0,46.69 18.73,63.04 43.71,63.04 12.79,0 27.36,-8.62 38.96,-21.41 z m 180.52,-36.28 v 154.64 h -21.42 v -115.69 c -9.81,-10.4 -28.25,-23.49 -44.31,-23.49 -15.46,0 -25.27,6.84 -25.27,27.36 v 111.82 h -21.42 v -112.41 c 0,-33.31 21.71,-45.21 44.61,-45.21 17.55,0 33.61,10.11 45.8,23.79 h 0.59 v -20.81 z m 46.98,154.64 v -154.64 h 21.42 v 115.68 c 9.81,10.41 28.25,23.49 44.31,23.49 15.46,0 25.27,-6.84 25.27,-27.36 v -111.81 h 21.42 v 112.41 c 0,33.31 -21.71,45.2 -44.61,45.2 -17.55,0 -33.61,-10.11 -45.8,-23.79 h -0.59 v 20.82 z m 275.68,5.95 c -11.6,-1.19 -24.09,-7.14 -33.31,-13.68 -10.11,7.13 -21.7,10.7 -38.36,10.7 -33.01,0 -58.58,-21.41 -58.58,-54.12 0,-16.95 6.54,-32.12 21.11,-43.12 -11.89,-7.44 -20.82,-13.09 -20.82,-26.47 0,-9.22 7.44,-18.44 19.33,-22.01 -16.65,-8.62 -26.17,-16.06 -26.17,-31.52 0,-25.58 23.2,-37.47 66.62,-37.47 48.18,0 70.48,19.03 70.48,41.63 0,30.34 -23.49,43.42 -96.65,43.42 -7.73,0 -12.79,4.16 -12.79,11.3 0,6.84 3.87,11.9 12.19,14.28 8.33,-2.38 14.87,-4.17 27.36,-4.17 31.23,0 56.51,23.5 56.51,54.13 0,14.27 -6.25,26.17 -10.71,31.52 5.35,2.68 14.87,4.16 23.79,4.16 z m -19.92,-176.95 c -0.3,-15.17 -21.12,-22.3 -46.69,-22.3 -42.83,0 -49.96,7.73 -49.96,19.33 0,11 9.51,25.87 43.12,25.87 37.77,0 53.23,-7.73 53.53,-22.9 z m -13.39,118.66 c 0,-18.44 -12.49,-34.5 -36.87,-34.5 -23.79,0 -39.85,15.17 -39.85,35.69 0,20.22 13.08,35.68 37.47,35.68 26.17,0 39.25,-14.27 39.25,-36.87 z"
         style="fill:none;stroke:#102e57;stroke-width:2;stroke-linecap:butt;stroke-linejoin:miter;stroke-miterlimit:6.87476015;stroke-dasharray:none;stroke-opacity:1"
         id="path20"
         inkscape:connector-curvature="0" /><path
         d="m 3294.69,2990.74 v -674.92 h -148.41 v 674.92 z m 77.51,-124.78 v 124.78 h 552.98 v -124.78 h -202.29 v -550.14 h -148.41 v 550.14 z m 929.19,-148.4 c 26.47,0 48.21,6.29 65.22,18.9 17.02,12.6 25.52,33.09 25.52,61.44 0,15.75 -2.83,28.67 -8.5,38.76 -5.67,10.07 -13.24,17.96 -22.69,23.63 -9.45,5.67 -20.32,9.6 -32.61,11.82 -12.29,2.2 -25.05,3.31 -38.28,3.31 h -138.96 v -157.86 z m 18.9,273.18 c 32.14,0 61.45,-2.84 87.91,-8.51 26.47,-5.67 49.16,-14.98 68.06,-27.88 18.91,-12.93 33.56,-30.1 43.96,-51.52 10.4,-21.43 15.6,-47.9 15.6,-79.4 0,-34.03 -7.73,-62.39 -23.16,-85.08 -15.45,-22.68 -38.29,-41.28 -68.54,-55.77 41.6,-11.98 72.63,-32.94 93.11,-62.86 20.47,-29.94 30.72,-66.02 30.72,-108.23 0,-34.03 -6.61,-63.5 -19.85,-88.39 -13.23,-24.9 -31.04,-45.22 -53.4,-60.97 -22.38,-15.75 -47.9,-27.41 -76.57,-34.97 -28.68,-7.56 -58.13,-11.34 -88.38,-11.34 h -327.07 v 674.92 z m -10.39,-559.6 c 14.49,0 28.35,1.42 41.59,4.25 13.23,2.84 24.89,7.57 34.97,14.18 10.08,6.62 18.11,15.6 24.11,26.94 5.98,11.35 8.98,25.83 8.98,43.49 0,34.65 -9.78,59.38 -29.31,74.2 -19.54,14.8 -45.37,22.21 -77.51,22.21 h -161.64 v -185.27 z m 506.66,559.6 v -259 h 273.18 v 259 h 148.41 v -674.92 h -148.41 v 291.14 h -273.18 v -291.14 h -148.41 v 674.92 h 148.41"
         style="fill:#102e57;fill-opacity:1;fill-rule:nonzero;stroke:none"
         id="path22"
         inkscape:connector-curvature="0" /><g
         id="g24"><g
           id="g26"
           clip-path="url(#clipPath30)"><path
             d="m 4612.32,4251.06 c 1.25,2.14 2.3,4.45 3.1,6.82 0.81,2.44 1.38,4.95 1.74,7.58 0.34,2.68 0.48,5.38 0.34,8.29 -0.13,2.88 -0.4,5.85 -1.05,8.96 -0.09,0.94 -0.3,1.77 -0.49,2.71 -0.2,0.94 -0.44,1.83 -0.65,2.77 -0.26,0.9 -0.47,1.8 -0.77,2.75 -0.25,0.99 -0.54,1.9 -0.81,2.83 -4.3,13.51 -11.95,27.94 -22.17,42.59 -10.09,14.36 -22.73,29.03 -37.24,43.37 -14.32,14.21 -30.58,28.24 -48.13,41.41 -17.54,13.13 -36.63,25.64 -56.67,36.8 -20.14,11.26 -39.85,20.36 -58.29,27.14 -18.85,6.95 -36.47,11.53 -52.33,13.74 -16.17,2.13 -30.48,1.76 -41.98,-1.48 -11.92,-3.35 -20.81,-9.59 -25.81,-19.15 l -0.5,-0.8 -2.01,0.64 c -2.94,1.03 -5.82,1.97 -8.81,2.97 -2.96,0.94 -5.92,1.94 -8.84,2.83 -2.96,0.98 -5.95,1.92 -8.87,2.75 -3.07,0.94 -5.95,1.84 -8.91,2.74 -23.06,6.82 -46.04,12.73 -68.82,17.65 -23.33,5.04 -46.58,9.12 -69.61,12.09 -23.69,3.02 -47.19,4.92 -70.31,5.62 -23.96,0.7 -47.59,0.16 -70.66,-1.7 -24.22,-2.07 -47.65,-5.59 -70.25,-10.7 -23.39,-5.28 -45.98,-12.23 -67.25,-20.89 -22.2,-9.08 -43.18,-20.05 -62.68,-32.89 -20.4,-13.46 -39.14,-29 -56.01,-46.72 12.4,-3.27 24.61,-6.85 36.72,-10.52 11.94,-3.72 23.77,-7.69 35.36,-11.87 11.63,-4.18 23.13,-8.56 34.42,-13.17 11.15,-4.57 22.22,-9.39 33.13,-14.4 l 4.44,-2.08 c 11.09,13.58 23.66,25.74 37.5,36.47 13.32,10.46 27.87,19.65 43.35,27.44 14.99,7.62 30.98,13.96 47.73,19.15 16.34,5.04 33.34,8.96 51.05,11.73 16.97,2.71 34.51,4.34 52.46,4.98 17.54,0.61 35.38,0.3 53.57,-0.87 17.77,-1.17 35.75,-3.2 53.97,-6.02 17.84,-2.76 35.89,-6.35 54.11,-10.66 2.75,-0.67 5.52,-1.3 8.3,-2.04 2.72,-0.63 5.52,-1.3 8.24,-2.1 2.75,-0.7 5.5,-1.44 8.25,-2.21 2.76,-0.7 5.52,-1.53 8.21,-2.27 l 3.83,-1.11 1.01,-2.47 c 5.24,-13.33 13.78,-27.57 24.8,-42.21 11.23,-14.8 24.94,-29.91 40.77,-44.65 15.83,-14.83 33.58,-29.24 52.52,-42.51 18.89,-13.36 38.86,-25.43 59.09,-35.73 20.05,-10.19 39.38,-18.08 57.3,-23.66 17.65,-5.48 33.84,-8.68 48.16,-9.63 13.91,-0.89 25.95,0.34 35.55,3.75 9.45,3.31 16.51,8.69 20.9,15.94"
             style="fill:url(#linearGradient38);fill-opacity:1;fill-rule:nonzero;stroke:none"
             id="path40"
             inkscape:connector-curvature="0" /></g></g><g
         id="g42"><g
           id="g44"
           clip-path="url(#clipPath48)"><path
             d="m 5109.32,3307.85 c 32.72,-10.46 59.57,-10.4 80.1,-1.87 19.83,8.28 33.54,24.42 40.91,46.52 6.99,21.22 8.1,47.89 3.32,78.28 -4.6,29.16 -14.58,61.82 -30.05,96.78 -10.64,24 -23.35,47.85 -37.6,71.05 -13.95,22.69 -29.4,44.82 -45.87,65.85 -16.16,20.68 -33.51,40.43 -51.49,58.72 -17.81,18.15 -36.36,34.95 -55.39,49.96 l -2.51,1.98 -0.78,2.39 c -0.94,2.68 -1.85,5.36 -2.75,8.06 -0.95,2.61 -1.88,5.32 -2.89,8.06 -0.93,2.7 -1.98,5.38 -2.96,8.02 -1.01,2.74 -2.01,5.35 -3.02,8.02 -9.25,23.66 -19.56,46.92 -30.92,69.92 -10.96,22.28 -22.99,44.18 -35.96,65.83 -12.57,21.09 -26.02,41.94 -40.33,62.43 -14.04,20.06 -28.89,39.9 -44.49,59.45 -14.69,18.33 -29.92,36.2 -45.58,53.75 -15.56,17.31 -31.58,34.2 -48.09,50.68 -16.37,16.26 -33.2,32.21 -50.44,47.71 -17.11,15.45 -34.82,30.49 -52.9,45.12 0.81,-3.84 1.38,-7.49 1.58,-10.99 0.3,-3.61 0.3,-6.99 0,-10.33 -0.26,-3.31 -0.83,-6.38 -1.69,-9.42 -0.82,-2.98 -1.98,-5.86 -3.45,-8.53 14.52,-12.26 28.57,-24.9 42.34,-37.76 13.78,-13 27.25,-26.28 40.3,-39.87 13.08,-13.64 25.84,-27.64 38.18,-41.85 12.4,-14.37 24.32,-29.04 35.79,-43.98 12.09,-15.68 23.56,-31.61 34.35,-47.73 10.94,-16.34 21.3,-32.91 30.85,-49.56 9.78,-16.94 18.82,-34.13 27.01,-51.27 8.34,-17.61 15.94,-35.33 22.59,-53 0.47,-1.34 1.01,-2.71 1.52,-4.05 0.5,-1.37 0.96,-2.77 1.47,-4.08 0.5,-1.4 0.91,-2.77 1.4,-4.13 0.51,-1.34 0.98,-2.75 1.46,-4.09 0.39,-1.3 0.93,-2.6 1.31,-3.87 0.46,-1.31 0.84,-2.64 1.31,-3.92 0.4,-1.33 0.81,-2.63 1.21,-3.97 0.47,-1.27 0.91,-2.54 1.28,-3.91 l 0.98,-3.25 -3.17,1.4 c -12,5.1 -23.5,8.97 -34.41,11.64 -11.05,2.64 -21.55,4.08 -31.36,4.19 -9.92,0.12 -19.23,-1.04 -27.69,-3.58 -8.67,-2.55 -16.51,-6.52 -23.39,-11.97 -7.06,-5.48 -12.97,-12.33 -17.67,-20.53 -4.92,-8.35 -8.48,-18.01 -10.69,-28.97 -2.32,-11.15 -3.31,-23.6 -2.72,-37.36 0.46,-14 2.52,-29.28 6.07,-45.73 3.06,-13.89 7.17,-28.26 12.24,-42.98 5.21,-15 11.42,-30.34 18.68,-45.98 7.4,-15.77 15.74,-31.85 25.12,-47.96 9.5,-16.31 19.99,-32.68 31.41,-48.96 8.06,-11.6 16.6,-22.99 25.47,-34.16 8.97,-11.23 18.22,-22.16 27.7,-32.75 9.61,-10.65 19.35,-20.95 29.3,-30.69 10.01,-9.81 20.17,-19.11 30.38,-27.96 10.66,-9.12 21.38,-17.47 32.09,-25.37 10.72,-7.75 21.38,-14.83 31.96,-21.22 10.49,-6.29 20.85,-11.79 31.06,-16.61 10.08,-4.71 19.96,-8.63 29.52,-11.6"
             style="fill:url(#linearGradient56);fill-opacity:1;fill-rule:nonzero;stroke:none"
             id="path58"
             inkscape:connector-curvature="0" /></g></g><g
         id="g60"><g
           id="g62"
           clip-path="url(#clipPath66)"><path
             d="m 3779.82,3726.75 c 41.13,-55.21 87.83,-107.98 139.36,-157.31 52.02,-49.84 108.25,-95.42 167.61,-136.03 59.16,-40.36 120.64,-75.3 183.34,-104.14 61.59,-28.31 123.49,-50.36 184.79,-65.87 58.53,-14.94 114.21,-23.26 166.34,-25.34 50.21,-2.2 96.73,1.51 139.28,10.49 40.55,8.54 77.15,21.91 109.68,39.51 30.86,16.78 57.89,37.4 80.94,61.34 -9.9,9.45 -19.59,19.22 -29.18,29.36 -9.55,10.07 -18.85,20.43 -27.96,31.07 -9.07,10.63 -17.85,21.48 -26.41,32.57 -8.54,11.03 -16.81,22.19 -24.81,33.65 -20.83,-14.43 -44.43,-26.26 -70.57,-35.23 -27.15,-9.18 -56.93,-15.3 -89.13,-18 -33.28,-2.83 -68.96,-2.14 -106.83,2.4 -38.89,4.75 -79.76,13.47 -122.21,26.27 -43.98,13.27 -88.28,30.52 -132.23,51.57 -44.5,21.4 -88.33,46.42 -130.87,74.83 -42.68,28.55 -83.58,60.19 -122.14,94.51 -38.37,34.13 -74.06,70.66 -106.56,108.96 -3.83,4.55 -7.62,9.09 -11.39,13.74 -3.76,4.54 -7.46,9.15 -11.08,13.73 -3.64,4.65 -7.2,9.29 -10.76,13.91 -3.43,4.61 -6.96,9.18 -10.36,13.89 l -4.03,5.49 5.95,2.98 c 18.18,8.98 34.65,18.98 49.26,29.78 14.33,10.52 27.06,21.78 38.02,33.79 10.68,11.62 19.75,24.02 27.3,36.85 7.3,12.6 13.16,25.77 17.43,39.34 5.01,16.04 7.76,32.35 8.3,48.66 0.57,15.97 -0.9,32.02 -4.37,48.13 -3.4,15.71 -8.74,31.45 -15.86,47.13 -7.13,15.37 -15.92,30.67 -26.58,45.84 -10.52,14.91 -22.56,29.35 -35.83,43.12 -13.28,13.81 -27.86,26.97 -43.72,39.47 -15.72,12.5 -32.87,24.43 -51.12,35.63 -18.34,11.23 -37.94,21.79 -58.64,31.61 l -10.22,4.72 c -11.7,5.24 -23.53,10.22 -35.6,14.9 -12.13,4.68 -24.42,9.02 -36.93,13.03 -12.55,4.08 -25.33,7.79 -38.32,11.24 -13.03,3.4 -26.3,6.48 -39.78,9.25 -37.78,7.72 -75.65,12.33 -112.95,13.94 -38.68,1.64 -76.92,0.1 -113.56,-4.74 -38.18,-5.09 -74.81,-13.71 -108.66,-25.98 -35.31,-12.83 -67.51,-29.67 -94.84,-50.62 -40.69,-31.16 -67.28,-68.45 -79.34,-109.52 -12.7,-43.12 -9.08,-89.55 10.85,-135.87 20.41,-47.59 57.48,-93.95 109.6,-134.85 52.12,-41.01 117.56,-75.4 193.24,-99.46 21.78,-6.92 43.65,-12.87 65.64,-17.61 21.74,-4.81 43.45,-8.63 65.09,-11.37 21.44,-2.71 42.75,-4.41 63.95,-5.11 20.8,-0.77 41.52,-0.5 61.88,0.63 l 6.51,0.37 2.96,-4.61 c 3.5,-5.48 7.1,-10.99 10.75,-16.54 3.64,-5.51 7.34,-11 11.17,-16.52 3.83,-5.52 7.67,-11.02 11.59,-16.57 3.94,-5.48 8.01,-10.93 12.01,-16.41"
             style="fill:url(#linearGradient74);fill-opacity:1;fill-rule:nonzero;stroke:none"
             id="path76"
             inkscape:connector-curvature="0" /></g></g></g></g></svg>