<?xml version="1.0" encoding="UTF-8"?>
<svg width="179px" height="126px" viewBox="0 0 179 126" version="1.1" xmlns="http://www.w3.org/2000/svg" xmlns:xlink="http://www.w3.org/1999/xlink">
    <title>Logo / New FULL DE</title>
    <g id="Logo-/-New-FULL-DE" stroke="none" stroke-width="1" fill="none" fill-rule="evenodd">
        <path d="M128.7215,102.9844 C131.4395,102.9844 133.7045,104.1814 135.0955,106.1234 L135.0955,106.1234 L135.0955,103.2434 L137.5545,103.2434 L137.5545,118.0944 C137.5545,122.5914 134.1575,125.8594 129.4015,125.8594 C125.6475,125.8594 122.3805,123.5944 121.6035,120.4884 L121.6035,120.4884 L123.9655,120.5204 C124.6445,122.4294 126.9095,123.8534 129.3035,123.8534 C132.6685,123.8534 135.0955,121.4914 135.0955,118.2234 L135.0955,118.2234 L135.0955,115.7324 C133.7045,117.7064 131.4395,118.9034 128.7215,118.9034 C124.1915,118.9034 120.8915,115.5704 120.8915,110.9434 C120.8915,106.3174 124.1915,102.9844 128.7215,102.9844 Z M32.3835,102.9844 C35.0685,102.9844 37.3335,104.1814 38.7245,106.1554 L38.7245,106.1554 L38.7245,103.2434 L41.1835,103.2434 L41.1835,119.0974 L38.7245,119.0974 L38.7245,116.2174 C37.3335,118.1914 35.0685,119.3884 32.3835,119.3884 C27.8215,119.3884 24.5215,115.9264 24.5215,111.1704 C24.5215,106.4144 27.8215,102.9844 32.3835,102.9844 Z M75.2525,96.7724 L75.2525,106.1554 C76.6435,104.1814 78.8765,102.9844 81.5945,102.9844 C86.1235,102.9844 89.4565,106.4144 89.4565,111.1704 C89.4565,115.9264 86.1235,119.3884 81.5945,119.3884 C78.8765,119.3884 76.6435,118.1584 75.2525,116.2174 L75.2525,116.2174 L75.2525,119.0974 L72.7615,119.0974 L72.7615,96.7724 L75.2525,96.7724 Z M95.1505,103.2434 L95.1505,112.5614 C95.1505,115.4414 96.9295,117.3174 99.6805,117.3174 C102.4305,117.3174 104.2095,115.4414 104.2095,112.5614 L104.2095,112.5614 L104.2095,103.2434 L106.7015,103.2434 L106.7015,112.5614 C106.7015,116.6704 103.8865,119.3884 99.6805,119.3884 C95.4735,119.3884 92.6595,116.6704 92.6595,112.5614 L92.6595,112.5614 L92.6595,103.2434 L95.1505,103.2434 Z M119.6205,102.8874 L119.6205,105.3144 C115.7375,105.3144 113.4725,107.4174 113.4725,111.0734 L113.4725,111.0734 L113.4725,119.0974 L110.9815,119.0974 L110.9815,103.2434 L113.4725,103.2434 L113.4725,107.0934 C114.4755,104.4084 116.6435,102.8874 119.6205,102.8874 L119.6205,102.8874 Z M6.5315,96.7724 L6.5315,106.8674 L17.8885,106.8674 L17.8885,96.7724 L20.5415,96.7724 L20.5415,119.0974 L17.8885,119.0974 L17.8885,109.2294 L6.5315,109.2294 L6.5315,119.0974 L3.9115,119.0974 L3.9115,96.7724 L6.5315,96.7724 Z M62.9425,102.9844 C66.2425,102.9844 68.4105,105.2174 68.4105,108.7764 L68.4105,108.7764 L68.4105,119.0974 L65.9515,119.0974 L65.9515,109.0674 C65.9515,106.5434 64.5275,104.9904 62.1335,104.9904 C59.7385,104.9904 58.2505,106.5434 58.2505,109.0674 L58.2505,109.0674 L58.2505,119.0974 L55.7915,119.0974 L55.7915,109.0674 C55.7915,106.5434 54.3685,104.9904 51.9415,104.9904 C49.5795,104.9904 48.0915,106.5434 48.0915,109.0674 L48.0915,109.0674 L48.0915,119.0974 L45.5995,119.0974 L45.5995,103.2434 L48.0915,103.2434 L48.0915,105.6054 C48.9975,103.9224 50.7115,102.9844 52.8795,102.9844 C55.2415,102.9844 56.9885,104.1814 57.7655,106.1874 C58.6065,104.1814 60.4835,102.9844 62.9425,102.9844 Z M81.0765,105.1524 C77.6795,105.1524 75.2525,107.6764 75.2525,111.1704 C75.2525,114.6974 77.6795,117.2204 81.0765,117.2204 C84.4735,117.2204 86.9005,114.6974 86.9005,111.1704 C86.9005,107.6764 84.4735,105.1524 81.0765,105.1524 Z M32.9015,105.1524 C29.5035,105.1524 27.0445,107.6764 27.0445,111.1704 C27.0445,114.6974 29.5035,117.2204 32.9015,117.2204 C36.2655,117.2204 38.7245,114.6974 38.7245,111.1704 C38.7245,107.6764 36.2655,105.1524 32.9015,105.1524 Z M129.2715,104.8934 C125.8745,104.8934 123.4155,107.4174 123.4155,110.9434 C123.4155,114.4384 125.8745,116.9614 129.2715,116.9614 C132.6365,116.9614 135.0955,114.4384 135.0955,110.9434 C135.0955,107.4174 132.6365,104.8934 129.2715,104.8934 Z M135.7135,73.2374 C138.3985,73.2374 140.6635,74.4344 142.0545,76.4084 L142.0545,76.4084 L142.0545,73.4964 L144.5135,73.4964 L144.5135,89.3504 L142.0545,89.3504 L142.0545,86.4704 C140.6635,88.4444 138.3985,89.6414 135.7135,89.6414 C131.1515,89.6414 127.8515,86.1794 127.8515,81.4234 C127.8515,76.6674 131.1515,73.2374 135.7135,73.2374 Z M102.4405,73.2374 C105.9025,73.2374 108.2965,75.1144 108.2965,77.8314 L108.2965,77.8314 L105.9995,77.8314 C105.9345,76.1814 104.5115,75.0814 102.4075,75.0814 C100.4015,75.0814 99.0105,76.0524 99.0105,77.5084 C99.0105,79.5144 100.6935,79.8374 102.7315,80.2584 C105.0615,80.7114 108.6845,81.3264 108.6845,84.9824 C108.6845,87.7324 106.1615,89.6414 102.5055,89.6414 C98.8165,89.6414 96.2605,87.6674 96.1955,84.8524 L96.1955,84.8524 L98.6225,84.8524 C98.6875,86.6004 100.2725,87.7644 102.5695,87.7644 C104.7375,87.7644 106.2585,86.6974 106.2585,85.1114 C106.2585,83.0734 104.4145,82.7824 102.3755,82.3934 C99.9495,81.9734 96.5515,81.3264 96.5515,77.7344 C96.5515,75.0174 98.9465,73.2374 102.4405,73.2374 Z M6.3125,67.0254 L6.3125,80.9704 C6.3125,84.7554 8.6425,87.2144 12.2335,87.2144 C15.8575,87.2144 18.1865,84.7554 18.1865,80.9704 L18.1865,80.9704 L18.1865,67.0254 L20.8075,67.0254 L20.8075,81.0994 C20.8075,86.2444 17.3775,89.6414 12.2655,89.6414 C7.1215,89.6414 3.6595,86.2444 3.6595,81.0994 L3.6595,81.0994 L3.6595,67.0254 L6.3125,67.0254 Z M73.8195,73.2374 C78.6725,73.2374 82.1675,76.6674 82.1675,81.4234 C82.1675,81.6824 82.1345,81.9414 82.1025,82.1994 L82.1025,82.1994 L67.8665,82.1994 C68.1895,85.3384 70.6165,87.6034 73.8515,87.6034 C76.5055,87.6034 78.7375,85.8884 79.4165,83.5584 L79.4165,83.5584 L81.9405,83.5584 C81.0675,87.0854 77.7345,89.6414 73.8195,89.6414 C68.9665,89.6414 65.4395,86.1794 65.4395,81.4234 C65.4395,76.6674 68.9665,73.2374 73.8195,73.2374 Z M51.3265,73.4964 L56.6005,86.8914 L61.8425,73.4964 L64.4625,73.4964 L58.0565,89.3504 L55.1125,89.3504 L48.7065,73.4964 L51.3265,73.4964 Z M46.1275,73.4964 L46.1275,89.3504 L43.6685,89.3504 L43.6685,73.4964 L46.1275,73.4964 Z M114.7485,73.4964 L114.7485,89.3504 L112.2895,89.3504 L112.2895,73.4964 L114.7485,73.4964 Z M33.1315,73.2374 C36.8845,73.2374 39.4405,75.8264 39.4405,79.8054 L39.4405,79.8054 L39.4405,89.3504 L36.9815,89.3504 L36.9815,80.0964 C36.9815,77.1204 35.2015,75.2114 32.4195,75.2114 C29.6045,75.2114 27.7925,77.1204 27.7925,80.0964 L27.7925,80.0964 L27.7925,89.3504 L25.3015,89.3504 L25.3015,73.4964 L27.7925,73.4964 L27.7925,76.3114 C28.7955,74.3704 30.7045,73.2374 33.1315,73.2374 Z M122.8585,69.4524 L122.8585,73.4964 L126.4825,73.4964 L126.4825,75.5994 L122.8585,75.5994 L122.8585,89.3504 L120.4005,89.3504 L120.4005,75.5994 L117.4555,75.5994 L117.4555,73.4964 L120.4005,73.4964 L120.4005,69.4524 L122.8585,69.4524 Z M152.7085,69.4524 L152.7085,73.4964 L156.3325,73.4964 L156.3325,75.5994 L152.7085,75.5994 L152.7085,89.3504 L150.2495,89.3504 L150.2495,75.5994 L147.3055,75.5994 L147.3055,73.4964 L150.2495,73.4964 L150.2495,69.4524 L152.7085,69.4524 Z M94.2575,73.1404 L94.2575,75.5674 C90.3755,75.5674 88.1105,77.6704 88.1105,81.3264 L88.1105,81.3264 L88.1105,89.3504 L85.6195,89.3504 L85.6195,73.4964 L88.1105,73.4964 L88.1105,77.3464 C89.1135,74.6614 91.2815,73.1404 94.2575,73.1404 L94.2575,73.1404 Z M136.2315,75.4054 C132.8335,75.4054 130.3745,77.9294 130.3745,81.4234 C130.3745,84.9504 132.8335,87.4734 136.2315,87.4734 C139.5955,87.4734 142.0545,84.9504 142.0545,81.4234 C142.0545,77.9294 139.5955,75.4054 136.2315,75.4054 Z M73.8515,75.2754 C70.7455,75.2754 68.4165,77.3144 67.9305,80.2904 L67.9305,80.2904 L79.8055,80.2904 C79.3845,77.3464 76.9575,75.2754 73.8515,75.2754 Z M113.5185,67.7374 C114.4895,67.7374 115.1685,68.3844 115.1685,69.2904 C115.1685,70.2284 114.4895,70.8754 113.5185,70.8754 C112.5155,70.8754 111.8365,70.2284 111.8365,69.2904 C111.8365,68.3844 112.5155,67.7374 113.5185,67.7374 Z M44.8985,67.7374 C45.8695,67.7374 46.5485,68.3844 46.5485,69.2904 C46.5485,70.2284 45.8695,70.8754 44.8985,70.8754 C43.8955,70.8754 43.2165,70.2284 43.2165,69.2904 C43.2165,68.3844 43.8955,67.7374 44.8985,67.7374 Z M138.6575,68.2544 C139.4665,68.2544 140.0485,68.8054 140.0485,69.5494 C140.0485,70.2934 139.4665,70.8104 138.6575,70.8104 C137.8485,70.8104 137.2985,70.2934 137.2985,69.5494 C137.2985,68.8054 137.8485,68.2544 138.6575,68.2544 Z M134.1605,68.2544 C134.9695,68.2544 135.5195,68.8054 135.5195,69.5494 C135.5195,70.2934 134.9695,70.8104 134.1605,70.8104 C133.3515,70.8104 132.7695,70.2934 132.7695,69.5494 C132.7695,68.8054 133.3515,68.2544 134.1605,68.2544 Z M47.2365,43.6204 C51.4425,43.6204 54.8725,46.4674 55.3905,50.3824 L55.3905,50.3824 L52.8985,50.3824 C52.3815,47.6974 50.0515,45.7884 47.2365,45.7884 C43.8395,45.7884 41.3805,48.3124 41.3805,51.8064 C41.3805,55.3334 43.8395,57.8564 47.2365,57.8564 C50.0845,57.8564 52.3815,55.9154 52.8985,53.2294 L52.8985,53.2294 L55.3905,53.2294 C54.8725,57.1774 51.4425,60.0244 47.2365,60.0244 C42.3835,60.0244 38.8565,56.5624 38.8565,51.8064 C38.8565,47.0504 42.3835,43.6204 47.2365,43.6204 Z M27.9215,43.6204 C32.7745,43.6204 36.2685,47.0504 36.2685,51.8064 C36.2685,52.0654 36.2365,52.3244 36.2035,52.5824 L36.2035,52.5824 L21.9675,52.5824 C22.2915,55.7214 24.7175,57.9864 27.9535,57.9864 C30.6065,57.9864 32.8395,56.2714 33.5185,53.9414 L33.5185,53.9414 L36.0425,53.9414 C35.1685,57.4684 31.8365,60.0244 27.9215,60.0244 C23.0675,60.0244 19.5415,56.5624 19.5415,51.8064 C19.5415,47.0504 23.0675,43.6204 27.9215,43.6204 Z M162.4695,43.6204 C167.3225,43.6204 170.8175,47.0504 170.8175,51.8064 C170.8175,52.0654 170.7845,52.3244 170.7525,52.5824 L170.7525,52.5824 L156.5165,52.5824 C156.8395,55.7214 159.2665,57.9864 162.5015,57.9864 C165.1545,57.9864 167.3875,56.2714 168.0665,53.9414 L168.0665,53.9414 L170.5905,53.9414 C169.7175,57.4684 166.3845,60.0244 162.4695,60.0244 C157.6165,60.0244 154.0895,56.5624 154.0895,51.8064 C154.0895,47.0504 157.6165,43.6204 162.4695,43.6204 Z M125.0135,43.6204 C129.2195,43.6204 132.6485,46.4674 133.1665,50.3824 L133.1665,50.3824 L130.6755,50.3824 C130.1575,47.6974 127.8275,45.7884 125.0135,45.7884 C121.6155,45.7884 119.1565,48.3124 119.1565,51.8064 C119.1565,55.3334 121.6155,57.8564 125.0135,57.8564 C127.8605,57.8564 130.1575,55.9154 130.6755,53.2294 L130.6755,53.2294 L133.1665,53.2294 C132.6485,57.1774 129.2195,60.0244 125.0135,60.0244 C120.1595,60.0244 116.6335,56.5624 116.6335,51.8064 C116.6335,47.0504 120.1595,43.6204 125.0135,43.6204 Z M107.8425,43.6204 C111.3045,43.6204 113.6985,45.4974 113.6985,48.2144 L113.6985,48.2144 L111.4015,48.2144 C111.3365,46.5644 109.9135,45.4644 107.8105,45.4644 C105.8045,45.4644 104.4125,46.4354 104.4125,47.8914 C104.4125,49.8974 106.0955,50.2204 108.1335,50.6414 C110.4635,51.0944 114.0865,51.7094 114.0865,55.3654 C114.0865,58.1154 111.5635,60.0244 107.9075,60.0244 C104.2185,60.0244 101.6625,58.0504 101.5975,55.2354 L101.5975,55.2354 L104.0245,55.2354 C104.0895,56.9834 105.6745,58.1474 107.9715,58.1474 C110.1395,58.1474 111.6605,57.0804 111.6605,55.4944 C111.6605,53.4564 109.8165,53.1654 107.7775,52.7764 C105.3515,52.3564 101.9535,51.7094 101.9535,48.1174 C101.9535,45.4004 104.3485,43.6204 107.8425,43.6204 Z M85.1105,43.6204 C88.8635,43.6204 91.4195,46.2094 91.4195,50.1884 L91.4195,50.1884 L91.4195,59.7334 L88.9605,59.7334 L88.9605,50.4794 C88.9605,47.5034 87.1815,45.5944 84.3985,45.5944 C81.5835,45.5944 79.7725,47.5034 79.7725,50.4794 L79.7725,50.4794 L79.7725,59.7334 L77.2805,59.7334 L77.2805,43.8794 L79.7725,43.8794 L79.7725,46.6944 C80.7755,44.7534 82.6845,43.6204 85.1105,43.6204 Z M20.6415,37.4084 L20.6415,39.7704 L13.5235,39.7704 L13.5235,59.7334 L10.9025,59.7334 L10.9025,39.7704 L3.7845,39.7704 L3.7845,37.4084 L20.6415,37.4084 Z M139.1095,37.4084 L139.1095,46.6944 C140.1125,44.7534 142.0215,43.6204 144.4485,43.6204 C148.2015,43.6204 150.7575,46.2094 150.7575,50.1884 L150.7575,50.1884 L150.7575,59.7334 L148.2985,59.7334 L148.2985,50.4794 C148.2985,47.5034 146.5185,45.5944 143.7365,45.5944 C140.9215,45.5944 139.1095,47.5034 139.1095,50.4794 L139.1095,50.4794 L139.1095,59.7334 L136.6185,59.7334 L136.6185,37.4084 L139.1095,37.4084 Z M98.1075,43.8794 L98.1075,59.7334 L95.6485,59.7334 L95.6485,43.8794 L98.1075,43.8794 Z M61.3335,37.4084 L61.3335,46.6944 C62.3365,44.7534 64.2455,43.6204 66.6715,43.6204 C70.4245,43.6204 72.9805,46.2094 72.9805,50.1884 L72.9805,50.1884 L72.9805,59.7334 L70.5215,59.7334 L70.5215,50.4794 C70.5215,47.5034 68.7425,45.5944 65.9595,45.5944 C63.1455,45.5944 61.3335,47.5034 61.3335,50.4794 L61.3335,50.4794 L61.3335,59.7334 L58.8415,59.7334 L58.8415,37.4084 L61.3335,37.4084 Z M162.5015,45.6584 C159.3955,45.6584 157.0665,47.6974 156.5815,50.6734 L156.5815,50.6734 L168.4555,50.6734 C168.0345,47.7294 165.6075,45.6584 162.5015,45.6584 Z M27.9535,45.6584 C24.8475,45.6584 22.5175,47.6974 22.0325,50.6734 L22.0325,50.6734 L33.9065,50.6734 C33.4865,47.7294 31.0595,45.6584 27.9535,45.6584 Z M96.8775,38.1204 C97.8485,38.1204 98.5275,38.7674 98.5275,39.6734 C98.5275,40.6114 97.8485,41.2584 96.8775,41.2584 C95.8745,41.2584 95.1955,40.6114 95.1955,39.6734 C95.1955,38.7674 95.8745,38.1204 96.8775,38.1204 Z M34.6645,0.0004 L34.6645,18.3634 C34.6705,21.0554 36.8875,23.2484 39.6055,23.2484 C42.3295,23.2484 44.5465,21.0574 44.5465,18.3634 L44.5465,0.0004 L51.8345,0.0004 L51.8345,18.3634 C51.8345,25.0554 46.3495,30.5004 39.6055,30.5004 C32.8625,30.5004 27.3755,25.0554 27.3755,18.3634 L27.3755,0.0004 L34.6645,0.0004 Z M62.8137,0 L62.8137,11.821 L72.6057,11.821 L72.6057,0 L79.9397,0 L79.9397,30.068 L72.6057,30.068 L72.6057,18.292 L62.8137,18.292 L62.8137,30.068 L55.4807,30.068 L55.4807,0 L62.8137,0 Z M24.459,0 L24.459,6.471 L15.897,6.471 L15.897,30.068 L8.564,30.068 L8.564,6.471 L5.68434189e-14,6.471 L5.68434189e-14,0 L24.459,0 Z M90.9189,0 L90.9189,11.821 L100.7109,11.821 L100.7109,0 L108.0439,0 L108.0439,30.068 L100.7109,30.068 L100.7109,18.292 L90.9189,18.292 L90.9189,30.068 L83.5859,30.068 L83.5859,0 L90.9189,0 Z" id="Combined-Shape" fill="#00C1D4"></path>
    </g>
</svg>