<?xml version="1.0" encoding="utf-8"?>
<!-- Generator: Adobe Illustrator 25.2.3, SVG Export Plug-In . SVG Version: 6.00 Build 0)  -->
<svg version="1.1" id="Ebene_1" xmlns="http://www.w3.org/2000/svg" xmlns:xlink="http://www.w3.org/1999/xlink" x="0px" y="0px"
	 viewBox="0 0 2481.9 477.4" style="enable-background:new 0 0 2481.9 477.4;" xml:space="preserve">
<style type="text/css">
	.st0{fill:#020203;}
	.st1{fill:#3776BB;}
	.st2{clip-path:url(#SVGID_2_);}
	.st3{fill:#513F92;}
	.st4{fill:#82C3EC;}
	.st5{fill:#1E478C;}
	.st6{fill:#3676BB;}
	.st7{fill:#006BB4;}
	.st8{fill:#81C3ED;}
	.st9{fill:#3C3B90;}
	.st10{fill:#1B4389;}
	.st11{fill:#59328A;}
	.st12{fill:#433189;}
	.st13{fill:#302B7A;}
	.st14{fill:#382D87;}
	.st15{fill:#332C86;}
	.st16{fill:#302A7A;}
	.st17{fill:#202A50;}
	.st18{clip-path:url(#SVGID_4_);fill:#FFFFFF;}
</style>
<g>
	<path class="st0" d="M740.1,197.2V327h-8.6v-21.5c-3.6,7.1-8.7,12.6-15.2,16.5c-6.5,3.9-13.9,5.8-22.2,5.8c-8.5,0-16.2-2-23.1-6
		c-6.9-4-12.3-9.5-16.2-16.5c-3.9-7-5.9-15-5.9-24c0-9,2-17,5.9-24.1c3.9-7.1,9.3-12.5,16.2-16.5c6.9-3.9,14.6-5.9,23.1-5.9
		c8.2,0,15.5,1.9,22,5.8c6.5,3.9,11.6,9.2,15.3,16.1v-59.7H740.1z M713.4,315c5.5-3.3,9.9-7.8,13.1-13.7c3.2-5.8,4.8-12.5,4.8-20
		c0-7.5-1.6-14.1-4.8-20c-3.2-5.8-7.6-10.4-13.1-13.7c-5.5-3.3-11.8-4.9-18.8-4.9s-13.3,1.6-18.8,4.9c-5.5,3.3-9.9,7.8-13.1,13.7
		c-3.2,5.8-4.8,12.5-4.8,20c0,7.5,1.6,14.1,4.8,20c3.2,5.8,7.6,10.4,13.1,13.7c5.5,3.3,11.8,4.9,18.8,4.9S707.9,318.2,713.4,315z"/>
	<path class="st0" d="M780.7,211.4c-1.4-1.3-2.1-3-2.1-5c0-2,0.7-3.7,2.1-5.1s3.1-2.1,5.1-2.1c2,0,3.7,0.7,5.1,2
		c1.4,1.3,2.1,3,2.1,5c0,2-0.7,3.7-2.1,5.1c-1.4,1.4-3.1,2.1-5.1,2.1C783.8,213.4,782.1,212.8,780.7,211.4z M781.4,235.7h8.8V327
		h-8.8V235.7z"/>
	<path class="st0" d="M913.8,235.7v81.6c0,15.2-3.7,26.4-11,33.6c-7.4,7.2-18.4,10.9-33.3,10.9c-8.4,0-16.3-1.3-23.8-3.9
		c-7.5-2.6-13.5-6.1-18-10.7l4.7-6.7c4.6,4.2,10,7.5,16.5,9.8c6.4,2.3,13.2,3.5,20.5,3.5c12.1,0,21.1-2.9,27-8.7
		c5.8-5.8,8.8-14.7,8.8-26.9v-15.4c-3.7,6.7-8.9,11.8-15.6,15.4c-6.7,3.6-14.1,5.4-22.4,5.4c-8.5,0-16.3-1.9-23.2-5.7
		c-6.9-3.8-12.4-9.1-16.4-15.8c-4-6.8-6-14.4-6-22.9c0-8.5,2-16.2,6-22.9c4-6.8,9.4-12,16.4-15.8c6.9-3.7,14.7-5.6,23.2-5.6
		c8.4,0,16,1.9,22.8,5.6c6.8,3.7,12,9,15.6,15.8v-20.7H913.8z M887,311.2c5.7-3.1,10.2-7.4,13.4-13c3.2-5.5,4.8-11.9,4.8-19
		c0-7.1-1.6-13.4-4.8-18.9c-3.2-5.5-7.7-9.8-13.4-12.9c-5.7-3.1-12.1-4.6-19.3-4.6c-7.1,0-13.5,1.5-19.2,4.6
		c-5.7,3.1-10.1,7.4-13.3,12.9c-3.2,5.5-4.8,11.8-4.8,18.9c0,7.1,1.6,13.5,4.8,19c3.2,5.5,7.6,9.9,13.3,13c5.7,3.1,12,4.6,19.2,4.6
		C874.8,315.8,881.3,314.3,887,311.2z"/>
	<path class="st0" d="M954.5,211.4c-1.4-1.3-2.1-3-2.1-5c0-2,0.7-3.7,2.1-5.1s3.1-2.1,5.1-2.1c2,0,3.7,0.7,5.1,2
		c1.4,1.3,2.1,3,2.1,5c0,2-0.7,3.7-2.1,5.1c-1.4,1.4-3.1,2.1-5.1,2.1C957.6,213.4,955.9,212.8,954.5,211.4z M955.2,235.7h8.8V327
		h-8.8V235.7z"/>
	<path class="st0" d="M1050.6,321.3c-2.2,2.1-5,3.7-8.3,4.8s-6.8,1.7-10.4,1.7c-7.9,0-14.1-2.2-18.4-6.6c-4.3-4.4-6.5-10.5-6.5-18.3
		v-59.7h-16.8v-7.5h16.8v-20h8.8v20h29.1v7.5h-29.1V302c0,6,1.4,10.5,4.3,13.6c2.9,3.1,7.1,4.6,12.7,4.6c5.7,0,10.4-1.7,14.2-5.1
		L1050.6,321.3z"/>
	<path class="st0" d="M1136.2,243.6c6.1,5.8,9.1,14.3,9.1,25.5V327h-8.4v-16.3c-2.9,5.4-7.2,9.5-12.8,12.5s-12.3,4.5-20.1,4.5
		c-10.2,0-18.2-2.4-24.1-7.2c-5.9-4.8-8.8-11.1-8.8-18.9c0-7.6,2.7-13.7,8.1-18.5c5.4-4.7,14.1-7.1,26-7.1h31.3v-7.4
		c0-8.5-2.3-15-6.9-19.4c-4.6-4.4-11.4-6.7-20.2-6.7c-6.1,0-11.9,1.1-17.4,3.2c-5.5,2.1-10.2,4.9-14.1,8.4l-4.4-6.3
		c4.6-4.1,10-7.3,16.5-9.5c6.4-2.3,13.1-3.4,20.1-3.4C1121.5,235,1130.2,237.9,1136.2,243.6z M1124.6,315.3c5.3-3.5,9.3-8.6,12-15.2
		v-17.2h-31.2c-9,0-15.5,1.6-19.5,4.9c-4,3.3-6,7.8-6,13.5c0,6,2.2,10.7,6.7,14.1c4.4,3.4,10.7,5.2,18.7,5.2
		C1112.8,320.6,1119.3,318.8,1124.6,315.3z"/>
	<path class="st0" d="M1185.8,197.2h8.8V327h-8.8V197.2z"/>
</g>
<g>
	<path class="st1" d="M1229.6,325.6c-1.5-1.5-2.2-3.2-2.2-5.3s0.7-3.9,2.2-5.3c1.5-1.4,3.2-2.1,5.2-2.1c2,0,3.7,0.7,5.2,2.1
		c1.5,1.4,2.2,3.2,2.2,5.3s-0.7,3.9-2.2,5.3c-1.5,1.5-3.2,2.2-5.2,2.2C1232.8,327.7,1231.1,327,1229.6,325.6z"/>
</g>
<g>
	<path class="st0" d="M1275.2,197.2h8.8V327h-8.8V197.2z"/>
	<path class="st0" d="M1402.5,283.5h-78.6c0.2,7.1,2,13.5,5.4,19c3.4,5.5,8,9.8,13.7,12.9c5.8,3,12.3,4.6,19.5,4.6
		c6,0,11.5-1.1,16.5-3.2c5.1-2.2,9.3-5.3,12.7-9.5l5.1,5.8c-4,4.8-9,8.5-15,11c-6,2.6-12.5,3.9-19.5,3.9c-9.1,0-17.2-2-24.3-6
		c-7.1-4-12.7-9.5-16.7-16.5c-4-7-6-15-6-24c0-8.9,1.9-16.8,5.7-23.9c3.8-7.1,9-12.6,15.7-16.5c6.7-4,14.1-6,22.4-6
		c8.3,0,15.7,2,22.3,5.9c6.6,3.9,11.8,9.4,15.6,16.4c3.8,7,5.7,14.9,5.7,23.8L1402.5,283.5z M1341.7,247c-5.1,2.9-9.2,6.9-12.3,12.1
		c-3.1,5.2-4.9,11.1-5.3,17.6h70c-0.4-6.5-2.1-12.4-5.3-17.5c-3.2-5.1-7.3-9.2-12.4-12.1c-5.1-2.9-10.9-4.4-17.3-4.4
		C1352.6,242.7,1346.9,244.1,1341.7,247z"/>
	<path class="st0" d="M1488.4,243.6c6.1,5.8,9.1,14.3,9.1,25.5V327h-8.4v-16.3c-2.9,5.4-7.2,9.5-12.8,12.5c-5.6,3-12.3,4.5-20.1,4.5
		c-10.2,0-18.2-2.4-24.1-7.2c-5.9-4.8-8.8-11.1-8.8-18.9c0-7.6,2.7-13.7,8.1-18.5c5.4-4.7,14.1-7.1,26-7.1h31.3v-7.4
		c0-8.5-2.3-15-6.9-19.4c-4.6-4.4-11.3-6.7-20.2-6.7c-6.1,0-11.9,1.1-17.4,3.2c-5.5,2.1-10.2,4.9-14.1,8.4l-4.4-6.3
		c4.6-4.1,10-7.3,16.5-9.5c6.4-2.3,13.1-3.4,20.1-3.4C1473.6,235,1482.3,237.9,1488.4,243.6z M1476.8,315.3c5.3-3.5,9.3-8.6,12-15.2
		v-17.2h-31.2c-9,0-15.5,1.6-19.5,4.9c-4,3.3-6,7.8-6,13.5c0,6,2.2,10.7,6.7,14.1c4.4,3.4,10.7,5.2,18.7,5.2
		C1465,320.6,1471.4,318.8,1476.8,315.3z"/>
	<path class="st0" d="M1559.3,240.3c6-3.6,13.2-5.3,21.7-5.3v8.6l-2.1-0.2c-10.2,0-18.1,3.2-23.8,9.5c-5.7,6.4-8.6,15.2-8.6,26.5
		V327h-8.8v-91.4h8.4v20C1549,249,1553.3,243.9,1559.3,240.3z"/>
	<path class="st0" d="M1681.1,245c6.7,6.7,10,16.2,10,28.7V327h-8.8v-52.7c0-10.3-2.6-18.1-7.8-23.5c-5.2-5.4-12.5-8.1-21.8-8.1
		c-10.7,0-19.2,3.2-25.4,9.6c-6.2,6.4-9.3,15.1-9.3,25.9V327h-8.8v-91.4h8.4v19.8c3.2-6.4,7.8-11.4,14.1-15.1
		c6.2-3.6,13.6-5.4,22.1-5.4C1665.4,235,1674.5,238.3,1681.1,245z"/>
	<path class="st0" d="M1730.8,211.4c-1.4-1.3-2.1-3-2.1-5c0-2,0.7-3.7,2.1-5.1s3.1-2.1,5.1-2.1c2,0,3.7,0.7,5.1,2
		c1.4,1.3,2.1,3,2.1,5c0,2-0.7,3.7-2.1,5.1s-3.1,2.1-5.1,2.1C1733.9,213.4,1732.2,212.8,1730.8,211.4z M1731.5,235.7h8.8V327h-8.8
		V235.7z"/>
	<path class="st0" d="M1853.3,245c6.7,6.7,10,16.2,10,28.7V327h-8.8v-52.7c0-10.3-2.6-18.1-7.8-23.5c-5.2-5.4-12.5-8.1-21.8-8.1
		c-10.7,0-19.2,3.2-25.4,9.6c-6.2,6.4-9.3,15.1-9.3,25.9V327h-8.8v-91.4h8.4v19.8c3.2-6.4,7.8-11.4,14.1-15.1
		c6.2-3.6,13.6-5.4,22.1-5.4C1837.6,235,1846.7,238.3,1853.3,245z"/>
	<path class="st0" d="M1986.2,235.7v81.6c0,15.2-3.7,26.4-11,33.6c-7.4,7.2-18.4,10.9-33.3,10.9c-8.4,0-16.3-1.3-23.8-3.9
		c-7.5-2.6-13.5-6.1-18-10.7l4.7-6.7c4.6,4.2,10,7.5,16.5,9.8c6.4,2.3,13.2,3.5,20.5,3.5c12.1,0,21.1-2.9,27-8.7
		c5.8-5.8,8.8-14.7,8.8-26.9v-15.4c-3.7,6.7-8.9,11.8-15.6,15.4c-6.7,3.6-14.1,5.4-22.4,5.4c-8.5,0-16.3-1.9-23.2-5.7
		c-6.9-3.8-12.4-9.1-16.4-15.8c-4-6.8-6-14.4-6-22.9c0-8.5,2-16.2,6-22.9c4-6.8,9.4-12,16.4-15.8c6.9-3.7,14.7-5.6,23.2-5.6
		c8.4,0,16,1.9,22.8,5.6c6.8,3.7,12,9,15.6,15.8v-20.7H1986.2z M1959.4,311.2c5.7-3.1,10.2-7.4,13.4-13c3.2-5.5,4.8-11.9,4.8-19
		c0-7.1-1.6-13.4-4.8-18.9c-3.2-5.5-7.7-9.8-13.4-12.9c-5.7-3.1-12.1-4.6-19.3-4.6c-7.1,0-13.5,1.5-19.2,4.6
		c-5.7,3.1-10.1,7.4-13.3,12.9c-3.2,5.5-4.8,11.8-4.8,18.9c0,7.1,1.6,13.5,4.8,19c3.2,5.5,7.6,9.9,13.3,13c5.7,3.1,12,4.6,19.2,4.6
		C1947.3,315.8,1953.7,314.3,1959.4,311.2z"/>
</g>
<g>
	<path class="st1" d="M2021.8,325.6c-1.5-1.5-2.2-3.2-2.2-5.3s0.7-3.9,2.2-5.3c1.5-1.4,3.2-2.1,5.2-2.1c2,0,3.7,0.7,5.2,2.1
		c1.5,1.4,2.2,3.2,2.2,5.3s-0.7,3.9-2.2,5.3c-1.5,1.5-3.2,2.2-5.2,2.2C2025,327.7,2023.3,327,2021.8,325.6z"/>
</g>
<g>
	<defs>
		<rect id="SVGID_1_" y="0" width="2481.9" height="477.4"/>
	</defs>
	<clipPath id="SVGID_2_">
		<use xlink:href="#SVGID_1_"  style="overflow:visible;"/>
	</clipPath>
	<g class="st2">
		<path class="st0" d="M2111.2,321.3c-2.2,2.1-5,3.7-8.3,4.8c-3.3,1.1-6.8,1.7-10.4,1.7c-7.9,0-14.1-2.2-18.4-6.6
			c-4.3-4.4-6.5-10.5-6.5-18.3v-59.7h-16.8v-7.5h16.8v-20h8.8v20h29.1v7.5h-29.1V302c0,6,1.4,10.5,4.3,13.6
			c2.9,3.1,7.1,4.6,12.7,4.6c5.7,0,10.4-1.7,14.2-5.1L2111.2,321.3z"/>
		<path class="st0" d="M2148.9,321.8c-6.9-4-12.4-9.5-16.4-16.5c-4-7.1-6-15-6-23.9c0-8.9,2-16.8,6-23.9c4-7.1,9.4-12.6,16.4-16.5
			c6.9-4,14.7-6,23.4-6c8.6,0,16.4,2,23.4,6c6.9,4,12.4,9.5,16.4,16.5c4,7.1,6,15,6,23.9c0,8.9-2,16.8-6,23.9
			c-4,7.1-9.4,12.6-16.4,16.5c-6.9,4-14.7,6-23.4,6C2163.6,327.7,2155.8,325.8,2148.9,321.8z M2191.1,315c5.5-3.3,9.9-7.8,13.1-13.7
			c3.2-5.8,4.8-12.5,4.8-20c0-7.5-1.6-14.1-4.8-20c-3.2-5.8-7.6-10.4-13.1-13.7c-5.5-3.3-11.8-4.9-18.8-4.9c-7,0-13.3,1.6-18.8,4.9
			c-5.5,3.3-9.9,7.8-13.1,13.7c-3.2,5.8-4.8,12.5-4.8,20c0,7.5,1.6,14.1,4.8,20c3.2,5.8,7.6,10.4,13.1,13.7
			c5.5,3.3,11.8,4.9,18.8,4.9C2179.2,319.9,2185.5,318.2,2191.1,315z"/>
		<path class="st0" d="M2261.6,321.8c-6.9-4-12.4-9.5-16.4-16.5c-4-7.1-6-15-6-23.9c0-8.9,2-16.8,6-23.9c4-7.1,9.4-12.6,16.4-16.5
			c6.9-4,14.7-6,23.4-6c8.6,0,16.4,2,23.4,6c6.9,4,12.4,9.5,16.4,16.5c4,7.1,6,15,6,23.9c0,8.9-2,16.8-6,23.9
			c-4,7.1-9.4,12.6-16.4,16.5c-6.9,4-14.7,6-23.4,6C2276.3,327.7,2268.5,325.8,2261.6,321.8z M2303.8,315c5.5-3.3,9.9-7.8,13.1-13.7
			c3.2-5.8,4.8-12.5,4.8-20c0-7.5-1.6-14.1-4.8-20c-3.2-5.8-7.6-10.4-13.1-13.7c-5.5-3.3-11.8-4.9-18.8-4.9c-7,0-13.3,1.6-18.8,4.9
			c-5.5,3.3-9.9,7.8-13.1,13.7c-3.2,5.8-4.8,12.5-4.8,20c0,7.5,1.6,14.1,4.8,20c3.2,5.8,7.6,10.4,13.1,13.7
			c5.5,3.3,11.8,4.9,18.8,4.9C2292,319.9,2298.2,318.2,2303.8,315z"/>
		<path class="st0" d="M2362.1,197.2h8.8V327h-8.8V197.2z"/>
		<path class="st0" d="M2414.3,324.4c-6.7-2.2-11.8-5-15.6-8.4l4-7c3.7,3.2,8.5,5.8,14.4,7.9c5.9,2.1,12,3.2,18.5,3.2
			c9.2,0,16-1.5,20.4-4.6c4.4-3,6.6-7.2,6.6-12.6c0-3.9-1.2-6.9-3.6-9.1c-2.4-2.2-5.3-3.9-8.8-4.9c-3.5-1.1-8.3-2.2-14.5-3.3
			c-7.2-1.3-13.1-2.7-17.5-4.2c-4.4-1.5-8.2-4-11.4-7.4c-3.2-3.4-4.7-8.1-4.7-14c0-7.2,3-13.2,9-17.9c6-4.7,14.6-7.1,25.6-7.1
			c5.8,0,11.6,0.8,17.3,2.5c5.7,1.6,10.4,3.8,14,6.5l-4,7c-3.7-2.7-8-4.7-12.8-6.1c-4.8-1.4-9.7-2.1-14.7-2.1
			c-8.5,0-14.9,1.6-19.3,4.7c-4.3,3.2-6.5,7.3-6.5,12.4c0,4.1,1.2,7.3,3.7,9.5s5.5,4,9,5.1c3.6,1.1,8.5,2.3,15,3.6
			c7.1,1.3,12.9,2.7,17.2,4.1c4.4,1.5,8.1,3.8,11.1,7.1c3,3.3,4.6,7.8,4.6,13.5c0,7.6-3.2,13.7-9.5,18.2c-6.3,4.6-15.2,6.8-26.6,6.8
			C2428,327.7,2421,326.6,2414.3,324.4z"/>
	</g>
</g>
<rect x="26.2" y="151.8" transform="matrix(0.3527 -0.9357 0.9357 0.3527 -140.216 198.4044)" class="st3" width="94.3" height="97.5"/>
<rect x="373.2" y="149.5" transform="matrix(0.988 -0.1545 0.1545 0.988 -25.3066 67.5407)" class="st4" width="97.5" height="94.3"/>
<rect x="314.2" y="344.7" transform="matrix(0.988 -0.1545 0.1545 0.988 -56.1689 60.7807)" class="st5" width="97.5" height="94.3"/>
<polygon class="st6" points="217,0 167.4,168.6 214,144.2 287,283.7 315.8,292.2 333.2,202.7 374.8,210.8 366.5,157.6 446.5,145.1 
	467.5,73.8 "/>
<polygon class="st7" points="424.2,220.4 374.8,210.8 366.5,157.6 446.5,145.1 "/>
<polygon class="st8" points="130.1,188 102.3,261.8 36.4,237 0,256 115.7,477.4 311.1,375.3 309.8,367.4 301.5,365.8 309.2,326.3 
	287,283.7 145.7,242.1 167.4,168.6 "/>
<polygon class="st9" points="102.3,261.8 36.4,237 130.1,188 "/>
<polygon class="st10" points="311.1,375.3 309.8,367.4 321.8,369.7 "/>
<polygon class="st7" points="287,283.7 145.7,242.1 167.4,168.6 214,144.2 "/>
<polygon class="st11" points="470.2,398.5 411.6,387.2 403.9,337.7 321.9,350.5 309.2,326.3 315.8,292.2 396.1,315.9 417,245.1 
	477.4,235.6 476.6,230.6 501.9,235.5 "/>
<polygon class="st12" points="417,245.1 424.2,220.4 476.6,230.6 477.4,235.6 "/>
<polygon class="st13" points="411.6,387.2 321.8,369.7 329.7,365.6 321.9,350.5 403.9,337.7 "/>
<polygon class="st14" points="396.1,315.9 315.8,292.2 333.2,202.7 374.8,210.8 381,250.7 417,245.1 "/>
<polygon class="st15" points="381,250.7 374.8,210.8 424.2,220.4 417,245.1 "/>
<polygon class="st12" points="309.8,367.4 301.5,365.8 309.2,326.3 321.9,350.5 307.5,352.8 "/>
<polygon class="st16" points="321.8,369.7 309.8,367.4 307.5,352.8 321.9,350.5 329.7,365.6 "/>
<rect x="83.9" y="94.5" class="st17" width="312.6" height="312.6"/>
<g>
	<defs>
		<rect id="SVGID_3_" y="0" width="2481.9" height="477.4"/>
	</defs>
	<clipPath id="SVGID_4_">
		<use xlink:href="#SVGID_3_"  style="overflow:visible;"/>
	</clipPath>
	<path class="st18" d="M281.3,291.4c-2.6,2-6.3,5.4-11.1,10.4c-3.1,3.2-6.7,6-10.8,8.6c-4.2,2.6-8.1,3.9-11.7,3.9
		c-3.6,0-6.7-1.1-9.1-3.2c-2.5-2.1-3.7-4.5-3.7-7.2c0-2.7,0.3-5.3,0.9-7.9c0.6-2.6,0.9-4.4,1-5.4c12.9-14.3,26.4-30.4,40.5-48.3
		c8.9-11.3,16.8-22,23.9-32c7-10.1,13-19.9,18-29.6c5-9.6,7.5-16.7,7.5-21.3c0-4.5-1.5-7.9-4.4-10.2c-2.9-2.3-6.4-3.5-10.2-3.5
		c-12.6,0-30.8,16.9-54.6,50.6c-10.6,14.9-20.1,33-28.5,54.3c-5.6,14.2-9.3,27.1-11.2,38.8l0,0c-0.9,0-1.6,0.2-2.2,0.7
		c-0.6,0.5-2.2,2.1-4.8,4.9c-2.6,2.8-5.2,5.5-7.8,8.1c-2.6,2.6-5.6,5-9,7.3c-3.4,2.3-6.4,3.4-8.8,3.4c-2.4,0-3.6-1.7-3.6-5v-1
		c0-4.3,5.2-16.7,15.6-37.3c10.4-20.6,24.8-45.8,43.1-75.6c3.1-5.2,7.5-12.3,13.2-21.4c5.7-9.1,9.3-15,10.8-17.7
		c1.6-2.7,2.4-4.6,2.4-5.6c0-1-0.4-2-1.3-3c-0.9-1-2.1-1.5-3.6-1.5c-7.2,0-12.5,2.2-15.9,6.7c-6.4,7.3-19.5,27.7-39.2,61
		c-6.3,11.1-10.6,18.6-13,22.3c-3.5-3.1-6.5-4.7-9.1-4.7c-8.2,0-17.1,2.6-26.8,7.7c-9.7,5.1-18.5,11.5-26.5,19.1
		c-8,7.6-14.6,16.2-19.9,25.7c-5.3,9.5-8,17.7-8,24.5c0,6.8,1.2,12.1,3.7,15.7c2.5,3.6,6.3,5.5,11.4,5.5c9.3,0,20.2-5.5,32.8-16.5
		c6.8-6,13.4-13.2,20-21.7c-4.8,10.3-7.3,18.7-7.3,25.1c0,10.3,6.1,15.4,18.2,15.4c7.1,0,14.6-3.3,22.6-9.8c5-4.1,9-7.8,11.7-11.2
		c0.6,5.9,2.5,10.7,5.6,14.5c4,4.6,9.7,7,17.3,7c7.6,0,15.6-2,24.1-6.1c6.2-3,12-7.2,17.3-12.5L281.3,291.4z M257,226.7
		c5.4-9.6,14.1-22.5,26.1-38.6c12-16.1,19.5-24.2,22.3-24.2c0.8,0,1.2,0.6,1.2,1.8c0,5.7-8.4,20.5-25.3,44.4
		c-16.8,23.9-30,41.6-39.6,52.9C246.5,248.4,251.6,236.3,257,226.7 M161.3,278.3c-19.1,21.6-31.1,32.5-36,32.5c-1.1,0-1.7-1.3-1.7-4
		c0-2.7,2.5-8.5,7.5-17.5c5-9,12.5-17.6,22.5-25.9c10-8.2,20.8-13.6,32.5-16.2C179.1,257.3,170.9,267.7,161.3,278.3"/>
	<path class="st18" d="M375.7,147.3c-0.9-1-2.1-1.5-3.6-1.5c-7.2,0-12.5,2.2-15.9,6.7c-6.4,7.3-19.5,27.7-39.2,61
		c-6.3,11.1-10.1,16.4-13,22.3c-2.9,5.9-18.8,38.3-23.5,49.9c-6.1,15.2-6.1,24.2-6.1,30.5c0,10.3,6.1,15.4,18.2,15.4
		c7.1,0,14.6-3.3,22.6-9.8c3.5-2.8,6.4-5.4,8.8-7.9c3-2.5,6.5-6.1,12.2-12.1c1.3-1.3,1.7-3.8,1.7-6.9v-2.4c0-5.9-1-8.8-2.9-8.8
		c-1.4,0-4.4,2-9,6.3l0,0c-0.2,0.2-0.6,0.6-1.2,1.1c-1.5,1.5-3.1,3.1-4.9,5c-0.3,0.3-0.6,0.7-1,1.1c-1.9,2-3.7,3.9-5.6,5.7
		c-2.6,2.6-5.6,5-9,7.3c-2.4,1.6-4.6,2.6-6.5,3.1c-0.7,0.2-1.5,0.3-2.3,0.3c-2.4,0-3.6-1.7-3.6-5v-1c0-4.3,5.2-16.7,15.6-37.3
		c10.4-20.6,24.8-45.8,43.1-75.6c3.1-5.2,7.5-12.3,13.2-21.4c5.7-9.1,9.3-15,10.8-17.7c1.6-2.7,2.4-4.6,2.4-5.6
		C377,149.2,376.6,148.2,375.7,147.3"/>
	<path class="st18" d="M362.8,234.9c-0.4-1.3-1-2.1-1.9-2.7c-0.9-0.5-2.9-0.8-6-0.8c-2.9,0-2,0.1-11.3,0.3
		c-34.2,0.2-38.6,1.1-47.5,2.8c-5.5,0.7-10.1,4.1-13.8,10.3c-0.8,1.3-1,2.6-0.6,3.9c0.4,1.3,1,2.1,1.9,2.7c0.9,0.5,2.9,0.8,6,0.8
		c2.9,0,8.9-0.1,18.2-0.3c34.2-0.2,35.6-1.3,40.6-2.8c5-1.5,10.1-4.1,13.8-10.3C363,237.4,363.2,236.1,362.8,234.9"/>
</g>
</svg>
