<?xml version="1.0" encoding="utf-8"?>
<!-- Generator: Adobe Illustrator 25.2.3, SVG Export Plug-In . SVG Version: 6.00 Build 0)  -->
<svg version="1.1" id="Ebene_1" xmlns="http://www.w3.org/2000/svg" xmlns:xlink="http://www.w3.org/1999/xlink" x="0px" y="0px"
	 viewBox="0 0 500.9 477.4" style="enable-background:new 0 0 500.9 477.4;" xml:space="preserve">
<style type="text/css">
	.st0{fill:#020203;}
	.st1{fill:#3776BB;}
	.st2{clip-path:url(#SVGID_2_);}
	.st3{fill:#513F92;}
	.st4{fill:#82C3EC;}
	.st5{fill:#1E478C;}
	.st6{fill:#3676BB;}
	.st7{fill:#006BB4;}
	.st8{fill:#81C3ED;}
	.st9{fill:#3C3B90;}
	.st10{fill:#1B4389;}
	.st11{fill:#59328A;}
	.st12{fill:#433189;}
	.st13{fill:#302B7A;}
	.st14{fill:#382D87;}
	.st15{fill:#332C86;}
	.st16{fill:#302A7A;}
	.st17{fill:#202A50;}
	.st18{clip-path:url(#SVGID_4_);fill:#FFFFFF;}
</style>
<rect x="26.2" y="151.8" transform="matrix(0.3527 -0.9357 0.9357 0.3527 -140.216 198.4044)" class="st3" width="94.3" height="97.5"/>
<rect x="373.2" y="149.5" transform="matrix(0.988 -0.1545 0.1545 0.988 -25.3066 67.5407)" class="st4" width="97.5" height="94.3"/>
<rect x="314.2" y="344.7" transform="matrix(0.988 -0.1545 0.1545 0.988 -56.1689 60.7807)" class="st5" width="97.5" height="94.3"/>
<polygon class="st6" points="217,0 167.4,168.6 214,144.2 287,283.7 315.8,292.2 333.2,202.7 374.8,210.8 366.5,157.6 446.5,145.1 
	467.5,73.8 "/>
<polygon class="st7" points="424.2,220.4 374.8,210.8 366.5,157.6 446.5,145.1 "/>
<polygon class="st8" points="130.1,188 102.3,261.8 36.4,237 0,256 115.7,477.4 311.1,375.3 309.8,367.4 301.5,365.8 309.2,326.3 
	287,283.7 145.7,242.1 167.4,168.6 "/>
<polygon class="st9" points="102.3,261.8 36.4,237 130.1,188 "/>
<polygon class="st10" points="311.1,375.3 309.8,367.4 321.8,369.7 "/>
<polygon class="st7" points="287,283.7 145.7,242.1 167.4,168.6 214,144.2 "/>
<polygon class="st11" points="470.2,398.5 411.6,387.2 403.9,337.7 321.9,350.5 309.2,326.3 315.8,292.2 396.1,315.9 417,245.1 
	477.4,235.6 476.6,230.6 501.9,235.5 "/>
<polygon class="st12" points="417,245.1 424.2,220.4 476.6,230.6 477.4,235.6 "/>
<polygon class="st13" points="411.6,387.2 321.8,369.7 329.7,365.6 321.9,350.5 403.9,337.7 "/>
<polygon class="st14" points="396.1,315.9 315.8,292.2 333.2,202.7 374.8,210.8 381,250.7 417,245.1 "/>
<polygon class="st15" points="381,250.7 374.8,210.8 424.2,220.4 417,245.1 "/>
<polygon class="st12" points="309.8,367.4 301.5,365.8 309.2,326.3 321.9,350.5 307.5,352.8 "/>
<polygon class="st16" points="321.8,369.7 309.8,367.4 307.5,352.8 321.9,350.5 329.7,365.6 "/>
<rect x="83.9" y="94.5" class="st17" width="312.6" height="312.6"/>
<g>
	<defs>
		<rect id="SVGID_3_" y="0" width="2481.9" height="477.4"/>
	</defs>
	<clipPath id="SVGID_4_">
		<use xlink:href="#SVGID_3_"  style="overflow:visible;"/>
	</clipPath>
	<path class="st18" d="M281.3,291.4c-2.6,2-6.3,5.4-11.1,10.4c-3.1,3.2-6.7,6-10.8,8.6c-4.2,2.6-8.1,3.9-11.7,3.9
		c-3.6,0-6.7-1.1-9.1-3.2c-2.5-2.1-3.7-4.5-3.7-7.2c0-2.7,0.3-5.3,0.9-7.9c0.6-2.6,0.9-4.4,1-5.4c12.9-14.3,26.4-30.4,40.5-48.3
		c8.9-11.3,16.8-22,23.9-32c7-10.1,13-19.9,18-29.6c5-9.6,7.5-16.7,7.5-21.3c0-4.5-1.5-7.9-4.4-10.2c-2.9-2.3-6.4-3.5-10.2-3.5
		c-12.6,0-30.8,16.9-54.6,50.6c-10.6,14.9-20.1,33-28.5,54.3c-5.6,14.2-9.3,27.1-11.2,38.8l0,0c-0.9,0-1.6,0.2-2.2,0.7
		c-0.6,0.5-2.2,2.1-4.8,4.9c-2.6,2.8-5.2,5.5-7.8,8.1c-2.6,2.6-5.6,5-9,7.3c-3.4,2.3-6.4,3.4-8.8,3.4c-2.4,0-3.6-1.7-3.6-5v-1
		c0-4.3,5.2-16.7,15.6-37.3c10.4-20.6,24.8-45.8,43.1-75.6c3.1-5.2,7.5-12.3,13.2-21.4c5.7-9.1,9.3-15,10.8-17.7
		c1.6-2.7,2.4-4.6,2.4-5.6c0-1-0.4-2-1.3-3c-0.9-1-2.1-1.5-3.6-1.5c-7.2,0-12.5,2.2-15.9,6.7c-6.4,7.3-19.5,27.7-39.2,61
		c-6.3,11.1-10.6,18.6-13,22.3c-3.5-3.1-6.5-4.7-9.1-4.7c-8.2,0-17.1,2.6-26.8,7.7c-9.7,5.1-18.5,11.5-26.5,19.1
		c-8,7.6-14.6,16.2-19.9,25.7c-5.3,9.5-8,17.7-8,24.5c0,6.8,1.2,12.1,3.7,15.7c2.5,3.6,6.3,5.5,11.4,5.5c9.3,0,20.2-5.5,32.8-16.5
		c6.8-6,13.4-13.2,20-21.7c-4.8,10.3-7.3,18.7-7.3,25.1c0,10.3,6.1,15.4,18.2,15.4c7.1,0,14.6-3.3,22.6-9.8c5-4.1,9-7.8,11.7-11.2
		c0.6,5.9,2.5,10.7,5.6,14.5c4,4.6,9.7,7,17.3,7c7.6,0,15.6-2,24.1-6.1c6.2-3,12-7.2,17.3-12.5L281.3,291.4z M257,226.7
		c5.4-9.6,14.1-22.5,26.1-38.6c12-16.1,19.5-24.2,22.3-24.2c0.8,0,1.2,0.6,1.2,1.8c0,5.7-8.4,20.5-25.3,44.4
		c-16.8,23.9-30,41.6-39.6,52.9C246.5,248.4,251.6,236.3,257,226.7 M161.3,278.3c-19.1,21.6-31.1,32.5-36,32.5c-1.1,0-1.7-1.3-1.7-4
		c0-2.7,2.5-8.5,7.5-17.5c5-9,12.5-17.6,22.5-25.9c10-8.2,20.8-13.6,32.5-16.2C179.1,257.3,170.9,267.7,161.3,278.3"/>
	<path class="st18" d="M375.7,147.3c-0.9-1-2.1-1.5-3.6-1.5c-7.2,0-12.5,2.2-15.9,6.7c-6.4,7.3-19.5,27.7-39.2,61
		c-6.3,11.1-10.1,16.4-13,22.3c-2.9,5.9-18.8,38.3-23.5,49.9c-6.1,15.2-6.1,24.2-6.1,30.5c0,10.3,6.1,15.4,18.2,15.4
		c7.1,0,14.6-3.3,22.6-9.8c3.5-2.8,6.4-5.4,8.8-7.9c3-2.5,6.5-6.1,12.2-12.1c1.3-1.3,1.7-3.8,1.7-6.9v-2.4c0-5.9-1-8.8-2.9-8.8
		c-1.4,0-4.4,2-9,6.3l0,0c-0.2,0.2-0.6,0.6-1.2,1.1c-1.5,1.5-3.1,3.1-4.9,5c-0.3,0.3-0.6,0.7-1,1.1c-1.9,2-3.7,3.9-5.6,5.7
		c-2.6,2.6-5.6,5-9,7.3c-2.4,1.6-4.6,2.6-6.5,3.1c-0.7,0.2-1.5,0.3-2.3,0.3c-2.4,0-3.6-1.7-3.6-5v-1c0-4.3,5.2-16.7,15.6-37.3
		c10.4-20.6,24.8-45.8,43.1-75.6c3.1-5.2,7.5-12.3,13.2-21.4c5.7-9.1,9.3-15,10.8-17.7c1.6-2.7,2.4-4.6,2.4-5.6
		C377,149.2,376.6,148.2,375.7,147.3"/>
	<path class="st18" d="M362.8,234.9c-0.4-1.3-1-2.1-1.9-2.7c-0.9-0.5-2.9-0.8-6-0.8c-2.9,0-2,0.1-11.3,0.3
		c-34.2,0.2-38.6,1.1-47.5,2.8c-5.5,0.7-10.1,4.1-13.8,10.3c-0.8,1.3-1,2.6-0.6,3.9c0.4,1.3,1,2.1,1.9,2.7c0.9,0.5,2.9,0.8,6,0.8
		c2.9,0,8.9-0.1,18.2-0.3c34.2-0.2,35.6-1.3,40.6-2.8c5-1.5,10.1-4.1,13.8-10.3C363,237.4,363.2,236.1,362.8,234.9"/>
</g>
</svg>
