<?xml version="1.0" standalone="no"?>
<!DOCTYPE svg PUBLIC "-//W3C//DTD SVG 1.1//EN" "http://www.w3.org/Graphics/SVG/1.1/DTD/svg11.dtd" >
<svg xmlns="http://www.w3.org/2000/svg" xmlns:xlink="http://www.w3.org/1999/xlink" version="1.1">
<metadata>
Created by FontForge 20170731 at Mon Sep 17 15:00:00 2018
 By Aleksey,,,
</metadata>
<defs>
<font id="icomoon" horiz-adv-x="896" >
  <font-face 
    font-family="icomoon"
    font-weight="400"
    font-stretch="normal"
    units-per-em="1024"
    panose-1="0 0 0 0 0 0 0 0 0 0"
    ascent="960"
    descent="-64"
    x-height="842"
    bbox="-0.581395 -64.2963 1024.4 943"
    underline-thickness="0"
    underline-position="0"
    unicode-range="U+0001-FFFD"
  />
<missing-glyph horiz-adv-x="1024" 
 />
    <glyph glyph-name=".notdef" unicode="&#xfffd;" horiz-adv-x="1024" 
 />
    <glyph glyph-name="glyph1" horiz-adv-x="0" 
d="M0 0v0v0v0z" />
    <glyph glyph-name="glyph1" horiz-adv-x="0" 
d="M0 0v0v0v0z" />
    <glyph glyph-name="nonmarkingreturn" horiz-adv-x="341" 
 />
    <glyph glyph-name="uni0001" horiz-adv-x="0" 
d="M0 0v0v0v0z" />
    <glyph glyph-name="space" unicode=" " horiz-adv-x="512" 
d="M0 0v0v0v0z" />
    <glyph glyph-name="exclam" unicode="!" 
d="M504 740h-2q-49 10 -89 15.5t-91 5.5q-57 0 -105 -6.5t-104 -19.5v-600q56 14 93.5 20t115.5 6q76 0 126.5 -10.5t62.5 -13.5q12 3 57 13.5t119 10.5t113 -6t96 -20v600q-56 13 -104 19.5t-105 6.5q-51 0 -91 -5.5t-89 -15.5h-3v0zM478 196l-12 2q-41 6 -71.5 9.5
t-72.5 3.5q-41 0 -73.5 -3.5t-73.5 -9.5l-12 -2v498l9 1q42 8 75 11.5t75 3.5t74 -3.5t73 -11.5l9 -1v-498v0zM531 694l9 1q42 8 73 11.5t74 3.5q42 0 75.5 -3.5t74.5 -11.5l9 -1v-498l-12 2q-41 6 -73.5 9.5t-73.5 3.5t-72 -3.5t-72 -9.5l-12 -2v498v0z" />
    <glyph glyph-name="comma" unicode="," 
d="M587 581h-356v48h356v-48zM587 676h-356v49h356v-49zM448 391h-217v48h217v-48zM587 486h-356v49h356v-49zM799 614q-6 5 -18.5 2.5t-29.5 -11.5q-27 -29 -53.5 -60t-51.5 -61q-54 -68 -78.5 -110t-26.5 -62q-11 4 -27 0t-28 -29q-18 -33 -30 -75l-12 -42l31.5 15.5
t73.5 50.5q21 18 21.5 34t-5.5 26q19 7 54.5 40t90.5 101q21 27 43 56t42 58q9 26 10 43.5t-6 23.5v0zM771 627q11 3 20 2t16 -6q7 -6 9.5 -17.5t-0.5 -27.5q39 57 62.5 100.5t15.5 49.5t-43 -23.5t-80 -77.5v0zM730 19h-639v858h639v-858zM151 79h519v738h-519v-738v0z" />
    <glyph glyph-name="hyphen" unicode="-" 
d="M666 395h-205v39h205v-39zM798 472h-337v39h337v-39zM387 396l-64 100q25 8 41.5 29t16.5 48q0 34 -23.5 57.5t-56.5 23.5q-34 0 -57.5 -23.5t-23.5 -57.5q0 -27 16.5 -48t41.5 -29l-64 -100q-3 -6 -5 -12t-2 -13v-73q0 -18 13 -31t31 -13h97q19 0 32.5 13.5t13.5 32.5
v71q0 7 -2 13t-5 12v0zM896 150h-806v596h806v-596zM145 205h695v485h-695v-485v0z" />
    <glyph glyph-name="period" unicode="." 
d="M568 39h-4h-5q-16 2 -30 12.5t-24 29.5q-5 9 -12 14t-15 5h-1v0q-8 0 -16 -5t-14 -15q-10 -18 -24 -28t-31 -11q-14 -1 -27 3.5t-26 10.5q-3 1 -6.5 2.5t-6.5 2.5q-11 4 -22 9.5t-21 14.5q-11 12 -15 28t0 37q2 13 0.5 23t-7.5 15t-16.5 5t-23.5 -4q-20 -7 -36.5 -5.5
t-29.5 11.5q-11 8 -17 18.5t-11 20.5q-2 5 -4 9.5t-4 7.5q-29 39 -18 65.5t31 42.5q9 7 13.5 15.5t3.5 16.5q-2 8 -8.5 14.5t-17.5 10.5q-20 8 -32.5 20t-17.5 28q-3 14 -1.5 26.5t4.5 24.5q1 5 2 9.5t1 8.5q2 19 8 32.5t16 22.5q11 11 26.5 15t36.5 2q8 -1 13.5 2.5
t8.5 8.5q6 7 7 17t-3 20q-1 1 -2 3.5t-3 5.5q-6 10 -12.5 29t10.5 40q20 24 42.5 41.5t47.5 28.5q20 8 34 -0.5t21 -14.5l2 -2l2 -2q11 -9 21 -12t18 -1q7 3 13 11.5t9 21.5q5 20 15.5 33t25.5 19q13 4 25 4t23 -1q6 -1 11.5 -1.5t9.5 0.5q33 5 54 -11t27 -50q2 -11 7 -18.5
t14 -10.5q8 -3 17 -1t17 9q16 13 32.5 17.5t31.5 0.5t26.5 -13t20.5 -19q2 -3 5.5 -6t7.5 -6q9 -7 17.5 -16t13.5 -21q7 -15 4 -32t-15 -34q-7 -11 -5.5 -20t3.5 -12q5 -9 13 -13.5t19 -4.5q21 -1 36 -8t25 -21q7 -11 9.5 -23.5t4.5 -23.5q0 -3 0.5 -5t0.5 -5q1 -1 1 -3
t1 -3q2 -12 3 -25t-2 -26q-5 -17 -17 -29t-32 -19v0q-10 -4 -16 -10t-8 -15t2.5 -19t13.5 -18q16 -14 22.5 -29t4.5 -31q-2 -13 -8 -23.5t-12 -19.5q-3 -3 -5.5 -7t-4.5 -7q-4 -9 -11 -21t-19 -20q-14 -10 -31 -11.5t-36 6.5q-7 3 -17 4.5t-18 -4.5q-7 -5 -10.5 -15.5
t-3.5 -24.5q4 -13 3 -25t-6 -23q-10 -17 -27 -25t-35 -13q-3 -1 -6.5 -2.5t-6.5 -2.5q-10 -2 -20.5 -5t-21.5 -3v0zM477 152h0.5h0.5q23 0 42 -12t31 -34q6 -10 10 -12.5t5 -2.5q5 0 12 2t15 5q4 1 8 2.5t8 2.5q13 3 20.5 6.5t9.5 6.5v3t-1 7l-1 3l-1 3q-2 29 7.5 52
t27.5 37q18 12 40 14t45 -8q12 -4 17 -1.5t15 22.5q3 6 6.5 11t6.5 10q4 5 7.5 10.5t3.5 8.5q1 3 -3 7.5t-6 6.5q-20 18 -28.5 41t-4.5 46q4 22 19 38.5t39 24.5v0q10 4 12.5 7.5t2.5 4.5q2 5 1 13t-3 16q0 2 -0.5 3.5t-0.5 3.5q0 3 -0.5 5.5t-0.5 5.5q-1 7 -2.5 14t-3.5 11
q-2 2 -6.5 3.5t-11.5 1.5q-25 0 -45.5 12.5t-32.5 33.5q-11 21 -9.5 43.5t14.5 42.5q1 2 4.5 8t1.5 9q-1 3 -6 7.5t-10 9.5q-4 3 -9 7.5t-10 9.5l-8.5 8.5t-11.5 7.5q-4 1 -9.5 -2t-9.5 -6q-19 -16 -41.5 -20t-43.5 4q-22 8 -36 26.5t-19 42.5q-1 9 -3.5 12.5t-2.5 4.5
q-2 1 -6 1.5t-9 -0.5q-9 -2 -17.5 -1t-16.5 1q-7 1 -13.5 1.5t-10.5 -0.5q-3 -2 -5.5 -7t-2.5 -9q-7 -27 -22 -45t-35 -25q-21 -7 -43.5 -1.5t-44.5 23.5q-2 1 -4 3l-3 3t-2 1.5t-2 1.5q-17 -8 -33.5 -21t-30.5 -31q1 -2 2.5 -4.5t2.5 -4.5q2 -4 4.5 -8t4.5 -9
q9 -22 6.5 -45.5t-16.5 -42.5q-13 -17 -31 -25.5t-39 -6.5q-8 1 -14 0t-8 -3q-2 -1 -4 -6t-3 -16l-2 -12l-2 -12q-2 -7 -3 -14.5t0 -11.5t6 -7t11 -5q24 -9 40 -26.5t19 -40.5q4 -22 -6 -43.5t-31 -37.5l-7.5 -7.5t-4.5 -8.5q0 -2 2 -7t8 -13q4 -6 7.5 -12.5t5.5 -12.5
q8 -17 12 -20t17 2q27 9 51 6t41 -17q16 -15 22.5 -38t1.5 -50q-3 -14 1.5 -18t23.5 -12q4 -1 8 -2.5t8 -3.5q6 -3 14.5 -6t13.5 -3q1 0 4.5 1.5t9.5 11.5q12 22 32 34t42 12v0zM486 276v0v0q-35 0 -66 12.5t-54 36.5q-24 23 -36.5 54t-12.5 66q1 70 50 120t119 50v0v0
q32 0 63 -13.5t55 -37.5t37.5 -55t13.5 -64q1 -33 -11.5 -63.5t-36.5 -54.5t-56 -37.5t-65 -13.5v0zM486 562v0v0q-48 0 -82 -34.5t-34 -82.5q0 -24 8.5 -45.5t24.5 -37.5t37.5 -24.5t45.5 -8.5v0v0v0q23 0 45 9.5t39 25.5q16 17 24.5 37.5t8.5 42.5q-1 47 -36 82.5
t-81 35.5v0z" />
    <glyph glyph-name="zero" unicode="0" 
d="M877 725q-7 5 -15 7.5t-17 2.5q-29 0 -71 -39t-97 -117q-25 -34 -47 -76t-41 -91q-14 -35 -22.5 -66t-12.5 -60q-6 -4 -15 -12t-20 -20q-7 -7 -15 -13.5t-18 -12.5t-19 -9t-17 -3t-15.5 2.5t-12.5 7.5q-6 5 -9 10.5t-3 11.5t1 12l2 12q1 7 2 11t1 6q30 33 61.5 70.5
t63.5 78.5q21 26 39 51t35 48q16 23 30 46t25 45q12 22 17.5 38.5t5.5 26.5q0 11 -3 19t-10 13t-15 8t-17 3q-29 0 -71 -39t-97 -117q-24 -35 -46 -77t-42 -91q-13 -33 -21.5 -62.5t-12.5 -56.5v0v0q-2 0 -4 -0.5t-3 -2.5q-1 -1 -5 -4.5t-10 -10.5q-6 -6 -12 -12.5
t-12 -12.5q-6 -5 -13 -11t-15 -11t-14.5 -7.5t-12.5 -2.5q-5 0 -8 3.5t-3 11.5v3q0 10 12 39t36 76q24 48 57.5 106t75.5 127q7 12 17.5 28.5t23.5 37.5t21 34.5t12 19.5q4 7 5.5 11t1.5 7q0 2 -1 4.5t-3 4.5t-4.5 3t-6.5 1q-17 0 -29 -5t-20 -15q-15 -17 -45 -64t-76 -124
q-15 -26 -25 -43.5t-15 -26.5q-8 8 -15 11.5t-13 3.5q-19 0 -39.5 -6t-42.5 -18q-23 -12 -43 -26.5t-39 -32.5q-18 -18 -33.5 -37.5t-27.5 -41.5q-13 -22 -19 -41t-6 -35t3 -28t9 -20q5 -9 14 -13t21 -4q21 0 46.5 12.5t54.5 38.5q16 14 31.5 30.5t30.5 36.5
q-12 -24 -17.5 -43.5t-5.5 -34.5q0 -23 14 -35t42 -12q17 0 34 7.5t36 22.5q12 9 21 18t15 16q2 -13 6 -24.5t11 -19.5q10 -11 23 -16.5t31 -5.5q17 0 36 5t38 14q15 7 28 17t26 22q2 -11 5.5 -20t10.5 -16q9 -11 22 -16.5t31 -5.5t36.5 5t37.5 14q20 10 37.5 24t33.5 34
q2 3 3.5 8.5t1.5 12.5v8q0 13 -2 20t-7 7q-4 0 -15.5 -9.5t-30.5 -29.5q-7 -7 -15.5 -13.5t-18.5 -12.5q-9 -6 -18 -9t-18 -3q-8 0 -15 2.5t-13 7.5q-5 5 -8 10.5t-3 11.5t0.5 12t2.5 12q1 7 2 11t1 6q30 33 61 70.5t64 78.5q20 26 38.5 51t34.5 48t30 46t26 45
q11 22 17 38.5t6 26.5q0 11 -3.5 19t-10.5 13v0zM478 485q13 23 33 52.5t48 67.5q28 37 45 55.5t23 18.5q2 0 3 -1.5t1 -3.5q0 -14 -19.5 -48t-58.5 -89q-39 -56 -69 -96.5t-52 -66.5q11 33 22.5 61t23.5 50v0zM184 326q-45 -50 -72.5 -75t-38.5 -25q-3 0 -4 3.5t-1 9.5
t5.5 19.5t17.5 34.5q11 20 28.5 40t40.5 39t48 31.5t52 18.5q-16 -23 -35 -47t-41 -49v0zM751 537q-39 -56 -69.5 -96.5t-52.5 -66.5q11 33 22.5 61t24.5 50q12 22 32 52t48 67q28 38 45 56.5t24 18.5q1 0 2 -1.5t1 -4.5q0 -13 -19 -47t-58 -89v0z" />
    <glyph glyph-name="one" unicode="1" 
d="M731 629h-352l-38 47h-257v-78h-30v-132v0v-6v-6v-375q0 -40 28 -68.5t69 -28.5h479l-48 49l-17 18q-39 -18 -81.5 -15t-78.5 26q-8 5 -15.5 11t-14.5 13q-23 24 -35 54.5t-12 64.5q1 33 14 63t37 53q49 48 118 47t117 -51q37 -38 45 -90.5t-16 -99.5l112 -116
q7 7 12.5 15t9.5 17q29 13 47 40.5t18 60.5v376q0 46 -32.5 78.5t-78.5 32.5v0zM814 143q0 -20 -8 -36.5t-22 -27.5v375q0 40 -28.5 68.5t-68.5 28.5h-358l-39 47h-178v50h216l38 -47h365q35 0 59 -24.5t24 -58.5v-375v0zM694 31l-28 29l-58 60l5 10q24 40 18.5 86.5
t-37.5 79.5q-40 41 -97 42t-98 -39q-20 -19 -31 -44t-11 -53q-1 -28 9 -53t29 -45q33 -33 79 -40t87 15l9 5l99 -102l46 -46l38 36l-22 20l-37 39v0zM557 136q-27 -26 -64.5 -25.5t-63.5 27.5t-25 64t28 63q26 26 63.5 25.5t63.5 -27.5t25 -64t-27 -63z" />
    <glyph glyph-name="two" unicode="2" 
d="M313 88l-68 108q26 7 44 30t18 52q0 36 -25.5 61t-61.5 25q-35 0 -60.5 -25t-25.5 -61q0 -29 17.5 -52t44.5 -30l-68 -108q-4 -6 -6 -12.5t-2 -13.5v-79q0 -19 14 -33t33 -14h104q21 0 35 14.5t14 34.5v77q0 7 -2 13.5t-5 12.5v0zM540 88l-68 108q27 7 44.5 30t17.5 52
q0 36 -25 61t-61 25t-61 -25t-25 -61q0 -29 17.5 -52t44.5 -30l-68 -108q-4 -6 -6 -12.5t-2 -13.5v-79q0 -19 14 -33t33 -14h104q20 0 34.5 14.5t14.5 34.5v77q0 7 -2 13.5t-6 12.5v0zM768 88l-68 108q27 7 44.5 30t17.5 52q0 36 -25.5 61t-60.5 25q-36 0 -61.5 -25
t-25.5 -61q0 -29 18 -52t44 -30l-68 -108q-3 -6 -5 -12.5t-2 -13.5v-79q0 -19 13.5 -33t33.5 -14h103q21 0 35.5 14.5t14.5 34.5v77q0 7 -2 13.5t-6 12.5v0zM391 638q0 24 8 46.5t22 42.5q-30 17 -66.5 26.5t-77.5 9.5q-50 0 -93 -14q-43 -13 -75.5 -36.5t-50.5 -55.5
q-19 -31 -19 -67t19 -68q18 -31 50.5 -54.5t75.5 -37.5q43 -13 93 -13q20 0 39 2t37 7l57 -26l10 51q17 10 31.5 21.5t26.5 24.5q-41 26 -64 63t-23 78v0zM645 799q-60 0 -109.5 -23t-76.5 -60q-13 -17 -20 -37t-7 -41q0 -38 21 -70t57 -54q2 -1 3.5 -2t3.5 -2l8 -48l51 24
q16 -4 33 -6t35 -2q88 0 150.5 47t62.5 113q0 67 -62 114t-150 47v0z" />
    <glyph glyph-name="three" unicode="3" horiz-adv-x="1024" 
d="M921 678l-514 -1q-42 0 -72 -30t-30 -73v-3l63 -63v49q0 26 18.5 44.5t44.5 18.5h467q26 0 44.5 -18.5t18.5 -44.5v-355q0 -26 -18.5 -44.5t-44.5 -18.5h-368l-57 -58h59l-91 -91l41 -41l132 132h62l132 -132l40 41l-91 91h164q43 0 73 30t30 73v391q0 42 -30 72.5
t-73 30.5v0zM199 472l232 -232l-232 -232l72 -72l304 304l-304 304zM72 544l-72 -72l232 -232l-232 -232l72 -72l303 303v1.5v0.5l-303 303v0zM557 521q0 -15 -11 -26t-26 -11t-25.5 11t-10.5 26t10.5 25.5t25.5 10.5t26 -10.5t11 -25.5v0zM590 544h258v-47h-258v47z
M557 411q0 -15 -11 -26t-26 -11t-25.5 11t-10.5 26t10.5 25.5t25.5 10.5t26 -10.5t11 -25.5zM590 434h258v-47h-258v47zM590 324h258v-47h-258v47z" />
    <glyph glyph-name="four" unicode="4" 
d="M742 486v125q0 50 -19 94t-52 77t-77 52t-94 19h-104q-50 0 -94 -19t-77 -52t-52 -77t-19 -94v-125q-23 -10 -37 -32t-14 -48v-381q0 -37 26 -63t63 -26h512q37 0 63 26t26 63v381q0 26 -14 48t-37 32v0zM480 184v-75h-64v75q-24 9 -39 31t-15 49q0 36 25 61t61 25
t61 -25t25 -61q0 -27 -15 -49t-39 -31v0zM649 495h-402v97q0 65 46 111.5t111 46.5h88q65 0 111 -46.5t46 -111.5v-97v0z" />
    <glyph glyph-name="five" unicode="5" horiz-adv-x="1024" 
d="M705 288q32 11 32 31t-4 42q-3 21 -8.5 40.5t-39.5 19.5q-35 0 -51.5 29t2.5 58q22 33 3.5 47.5t-33.5 31.5t-31.5 23t-40.5 -13q-28 -23 -57.5 -11t-35.5 47q-3 23 -15.5 31.5t-33.5 5.5q-22 -4 -47.5 1.5t-35.5 -34.5q-11 -40 -39 -49t-60 17q-7 5 -14 11.5t-17 2.5
q-22 -10 -41.5 -25.5t-34.5 -34.5q-11 -12 -3 -24.5t13 -24.5q12 -29 -4 -56t-46 -24q-29 3 -41 -9t-14 -37q-3 -24 -8 -47.5t33 -37.5q36 -13 40.5 -44t-25.5 -54q-22 -17 -21.5 -34t14.5 -35q12 -18 21 -40.5t47 -9.5q40 13 63 -6t15 -60q-6 -35 13.5 -44t40.5 -18
q20 -10 38 -11t33 25q19 31 50 31t49 -31q18 -33 39.5 -27.5t44.5 12.5q22 6 37.5 16.5t6.5 37.5q-2 41 21 60.5t59 5.5q28 -11 40.5 1.5t21.5 30.5q10 18 23.5 37t-14.5 44q-29 26 -24 57.5t39 44.5v0zM371 168q-58 0 -97 39t-39 96t40 97.5t96 40.5q54 0 95 -41t42 -97
q0 -55 -40.5 -95t-96.5 -40v0zM955 104q9 4 14 18.5t5 37.5q-14 45 -30.5 91.5t-34.5 90.5q-39 97 -68.5 148t-49.5 65q11 9 16 27.5t-13 47.5q-24 37 -61 75l-37 38l4.5 -44.5t2.5 -105.5q-1 -33 19.5 -43t34.5 -9q-5 -24 8.5 -81t52.5 -155q16 -39 33.5 -79t35.5 -78
q22 -26 39.5 -37t28.5 -7v0zM985 126q-3 -14 -9 -23t-16 -12q-11 -5 -24.5 -0.5t-28.5 16.5q37 -75 68.5 -125t42.5 -46q12 5 1.5 59.5t-34.5 130.5v0z" />
    <glyph glyph-name="six" unicode="6" 
d="M763 617q-26 55 -68 87q-43 31 -91.5 46t-98.5 17q-49 1 -89 -5q-77 -12 -128 -52t-75 -79q-24 -40 -31.5 -86t-5.5 -63q1 -13 9.5 -44t-3.5 -44q-14 -15 -50.5 -46.5t-23.5 -46.5t26 -16.5t11 -14.5q-2 -14 -10 -19t-2 -20q5 -15 12 -18l7 -3l-7 -11.5t0 -19.5
q6 -8 19 -12t9 -14q-3 -9 -12.5 -32t9.5 -48q19 -24 84.5 -21.5l65.5 2.5l-8 -118h340q0 43 -2 75.5t2 81.5q4 55 15.5 73t45.5 58q17 20 37 63q19 43 30.5 98t9.5 116t-27 116v0zM515 643l-18 -258h-54l-18 258h90v0zM502 287q-7 -6 -14.5 -9t-17.5 -3t-18 3t-14 9
q-7 6 -10 13.5t-3 16.5t3 16.5t10 13.5q6 6 14 9t18 3t18 -3t14 -9t9.5 -13.5t3.5 -16.5t-3.5 -16.5t-9.5 -13.5z" />
    <glyph glyph-name="seven" unicode="7" 
d="M742 549l-294 312l-294 -312h136v-514h316v514h136z" />
    <glyph glyph-name="eight" unicode="8" 
d="M635 322l-138 218q55 16 90 62t35 105q0 72 -51 123t-123 51t-123 -51t-51 -123q0 -59 35.5 -105t89.5 -62l-138 -218q-7 -12 -11 -25.5t-4 -27.5v-159q0 -40 27.5 -67.5t67.5 -27.5h210q41 0 70 29t29 70v155q0 14 -4 28t-11 25v0z" />
    <glyph glyph-name="nine" unicode="9" 
d="M490 845l343 -199v-396l-25 -15l-318 -183l-343 198v396zM490 917l-406 -235v-468l406 -235l406 235v468z" />
    <glyph glyph-name="a" unicode="a" horiz-adv-x="864" 
d="M430 867l363 -210v-420l-363 -210l-364 210v420l364 210v0zM430 943l-430 -248v-496l430 -249l430 249v496l-430 248v0zM598 643h-203l-23 27h-148v-45h-17v-76h1q0 -2 -0.5 -3.5t-0.5 -3.5v-215q0 -23 16 -39t40 -16h277l-28 28l-10 10q-23 -10 -47 -8t-44 15
q-6 3 -10 6.5t-8 8.5q-13 14 -20 31t-7 37q1 19 8 36.5t21 30.5q28 28 68 27.5t67 -29.5q22 -22 26 -52.5t-9 -57.5l37 -38l15 -16l12 -12q4 4 7 8t5 10q17 8 27.5 23.5t10.5 34.5v216q1 26 -17.5 44t-45.5 18v0zM646 363q0 -12 -5 -21t-12 -16v216q0 23 -16 39t-40 16h-206
l-22 27h-103v29h124l22 -27h210q20 0 34 -14t14 -33v-216v0zM576 299l-15 16l-33 35l3 6q14 23 10.5 50t-21.5 46q-23 23 -56 24t-57 -22q-11 -11 -18 -25.5t-7 -30.5q0 -15 6 -30t17 -26q19 -19 45.5 -23t50.5 8l6 3l13 -15l15 -16l28 -28l51 -53l22 21l-38 38l-22 22v0z
M497 359q-15 -16 -37 -15.5t-36 16.5q-15 16 -15 37.5t17 36.5q15 15 36.5 15t36.5 -17q14 -15 13.5 -36.5t-15.5 -36.5z" />
    <glyph glyph-name="b" unicode="b" 
d="M672 302l26 45q31 52 43 111q12 58 5 115.5t-32 111.5t-67 97q-50 53 -116 81t-138 29q-73 2 -139.5 -24.5t-118.5 -76.5q-52 -51 -80.5 -116.5t-29.5 -137.5q-1 -73 25 -139.5t77 -118.5q42 -44 95 -70q53 -27 110.5 -35.5t115.5 0.5q59 10 113 39l45 26l225 -236l65 64
l-224 235v0zM668 528q-1 -57 -23 -108.5t-63 -90.5q-39 -39 -90 -59.5t-106 -20.5q-58 0 -110.5 22.5t-93.5 64.5q-40 42 -60 94q-20 53 -19 107t22 106q22 52 64 92q42 41 95 61q52 20 106.5 19t106.5 -23q51 -21 92 -63q39 -41 59.5 -93t19.5 -108v0zM462 481l-57 90
q23 6 37.5 25t14.5 43q0 30 -21 51t-51 21t-51 -21t-21 -51q0 -24 15 -43t37 -25l-57 -90q-3 -5 -4.5 -10.5t-1.5 -11.5v-66q0 -16 11.5 -27.5t27.5 -11.5h87q17 0 29 12t12 29v64q-1 6 -2.5 11.5t-4.5 10.5v0z" />
    <glyph glyph-name="c" unicode="c" 
d="M896 70h-367v236q0 5 -3.5 8.5t-8.5 3.5h-152q-5 0 -8.5 -3.5t-3.5 -8.5v-236h-353v401h221v86l227 269l227 -269v-86h221v-401v0zM583 124h259v293h-221v120l-173 205l-173 -205v-120h-221v-293h244v182q0 27 19.5 46.5t47.5 19.5h152q27 0 46.5 -19.5t19.5 -46.5v-182
v0zM86 375h55v-212h-55v212v0zM181 375h55v-212h-55v212v0zM398 584q0 20 14.5 34.5t35.5 14.5q20 0 35 -14.5t15 -34.5q0 -3 -0.5 -5.5t-1.5 -5.5q-3 -17 -16.5 -28t-31.5 -11t-31.5 11t-17.5 28q0 3 -0.5 5.5t-0.5 5.5v0zM648 375h55v-212h-55v212zM743 375h54v-212h-54
v212z" />
    <glyph glyph-name="d" unicode="d" horiz-adv-x="864" 
d="M430 867l363 -210v-420l-363 -210l-364 210v420l364 210v0zM430 943l-430 -248v-496l430 -249l430 249v496l-430 248v0zM433 570q0 -9 -6 -15t-15 -6q-8 0 -14 6t-6 15q0 8 6 14t14 6q9 0 15 -6t6 -14zM452 582h146v-26h-146v26v0zM638 658h-289q-24 0 -41 -17.5
t-17 -41.5v-17l35 -35v43q0 15 10.5 25t25.5 10h263q15 0 25 -10t10 -25v-199q0 -15 -10 -25.5t-25 -10.5h-224l-33 -32h49l-52 -52l23 -22l74 74h35l74 -74l23 22l-52 52h92q24 0 41.5 17t17.5 41v220q3 23 -14 40t-41 17v0zM259 520l55 -55l24 -25l26 -25l-8 -7l-20 -20
l-77 -76l33 -32l104 103l22 24l10 8l-114 114l-22 23zM186 552l-32 -32l105 -105l-105 -104l32 -32l136 135v1l-136 137v0zM433 507q0 -9 -6 -15t-15 -6q-8 0 -14 6t-6 15q0 8 6 14t14 6q9 0 15 -6t6 -14zM452 521h146v-27h-146v27v0zM452 458h146v-26h-146v26v0z" />
    <glyph glyph-name="e" unicode="e" horiz-adv-x="864" 
d="M430 942l-430 -248v-497l430 -248l430 248v497zM154 310l105 104l-105 105l32 32l136 -137v0l-136 -136l-32 32v0zM259 311l77 76l20 20l8 7l-26 25l-24 25l-55 55l33 32l22 -23l114 -114l-9 -8l-23 -24l-104 -104l-33 33v0zM412 526q9 0 15 -6t6 -15q0 -8 -6 -14t-15 -6
q-8 0 -14 6t-6 14q0 9 6 15t14 6zM392 569q0 8 6 14t14 6q9 0 15 -6t6 -14q0 -9 -6 -14.5t-15 -5.5q-8 0 -14 5.5t-6 14.5zM693 600v-220q0 -24 -17.5 -41t-41.5 -17h-92l52 -52l-23 -23l-74 75h-35l-74 -75l-23 23l52 52h-49l33 32h224q15 0 25 10.5t10 25.5v199
q0 15 -10 25t-25 10h-263q-15 0 -25.5 -10.5t-10.5 -24.5v-43l-35 35v17q0 24 17 41t41 17h289q24 0 41 -16.5t14 -39.5zM598 520v-27h-146v27h146zM452 554v27h146v-27h-146v0zM598 457v-27h-146v27h146v0z" />
    <glyph glyph-name="f" unicode="f" horiz-adv-x="864" 
d="M430 865l363 -210v-420l-363 -210l-364 210v420l364 210v0zM430 941l-430 -248v-496l430 -248l430 248v496l-430 248v0zM592 508v70q0 55 -39.5 94t-94.5 39h-57q-56 0 -94.5 -39.5t-38.5 -93.5v-70q-13 -6 -21 -18t-8 -26v-211q0 -20 14.5 -34.5t34.5 -14.5h284
q20 0 34 14.5t14 34.5v211q0 14 -8 26t-20 18v0zM447 341v-41h-36v41q-13 6 -21 18t-8 26q0 20 13.5 33.5t33.5 13.5q19 0 33 -13.5t14 -33.5q0 -15 -8 -27t-21 -17v0zM540 513h-223v54q0 36 25.5 61.5t61.5 25.5h48q36 0 61.5 -25.5t25.5 -61.5l1 -54v0z" />
    <glyph glyph-name="g" unicode="g" horiz-adv-x="864" 
d="M430 865l363 -210v-420l-363 -210l-364 210v420l364 210v0zM430 941l-430 -248v-496l430 -248l430 248v496zM506 437q17 6 17 17t-2 24q-2 11 -5 21.5t-21 10.5q-19 0 -28 16t2 32q12 18 2 25.5t-18 17.5t-17 13.5t-22 -7.5q-16 -12 -32 -5.5t-19 26.5q-2 12 -8.5 17
t-17.5 4q-12 -3 -26.5 0t-19.5 -18q-6 -22 -21 -27t-33 9q-4 3 -8 7t-9 2q-13 -6 -23 -14.5t-19 -18.5q-7 -7 -2 -14t8 -13q6 -16 -2.5 -31t-25.5 -13q-16 2 -22.5 -5t-7.5 -21q-1 -13 -4 -26t18 -20q19 -7 21.5 -24.5t-13.5 -30.5q-12 -9 -11.5 -18t7.5 -19t12 -22.5
t26 -4.5q22 7 34.5 -4t8.5 -33q-3 -19 7 -23.5t22 -9.5q11 -5 21 -6t18 14q10 17 27.5 17t26.5 -17q10 -18 22 -15t25 7q12 3 20 9t4 20q-2 22 11 33t33 3q16 -6 22.5 1t11.5 17t12.5 20.5t-8.5 23.5q-17 12 -14.5 29t20.5 24v0zM323 371q-32 0 -53 21.5t-21 52.5t22 53
t52 22t52.5 -22t22.5 -53q1 -30 -21.5 -52t-53.5 -22v0zM682 356q5 3 6.5 12t0.5 23q-13 24 -27 50t-28 50q-33 54 -54.5 80.5t-34.5 33.5q6 6 7 17.5t-12 25.5q-18 20 -43 39l-25 19l6.5 -26t11.5 -62q4 -20 16 -24t21 -2q-1 -15 12.5 -47.5t45.5 -85.5q12 -21 26.5 -43
t28.5 -43q15 -11 25.5 -15.5t16.5 -1.5zM698 371q-1 -8 -3.5 -14t-7.5 -9q-7 -3 -15.5 -2t-17.5 8q28 -42 51.5 -68t29.5 -22q6 3 -5 34t-32 73v0z" />
    <glyph glyph-name="h" unicode="h" horiz-adv-x="864" 
d="M430 865l363 -210v-420l-363 -210l-364 210v420l364 210v0zM430 941l-430 -248v-496l430 -248l430 248v496l-430 248v0zM631 642q-33 70 -102 85.5t-119 6.5q-50 -8 -82 -33t-47 -50q-16 -26 -20.5 -55t-4.5 -41l7 -28t-2 -28q-9 -9 -32.5 -29t-15.5 -31q9 -9 17 -10.5
t8 -9.5q-1 -8 -6.5 -11.5t-2.5 -12.5q4 -10 8 -12l4 -2l-4.5 -7t-0.5 -13q5 -5 13 -8t6 -9q-3 -6 -9 -20.5t6 -30.5q12 -15 54 -13.5l42 1.5l-6 -75h217q0 27 -1 48t1 52q3 35 10 46.5t29 36.5q11 14 24 42q12 28 19.5 63t6.5 74t-17 74v0zM472 659l-11 -165h-34l-11 165h56
v0zM463 432q-5 -4 -9.5 -6t-11.5 -2q-6 0 -11.5 2t-9.5 6q-5 4 -7 9t-2 10q0 7 2 11t7 9q4 4 9 6t12 2t11.5 -2t9.5 -6q4 -4 6 -8.5t2 -11.5q1 -6 -1.5 -10.5t-6.5 -8.5z" />
    <glyph glyph-name="m" unicode="m" 
d="M498 846q-83 0 -155 -31q-73 -31 -127 -85.5t-85 -126.5q-31 -73 -31 -155t31 -155q31 -72 85 -126.5t127 -85.5q72 -31 155 -31q82 0 155 31q72 31 126 85.5t86 126.5q31 73 31 155t-31 155q-32 72 -86 126.5t-126 85.5q-73 31 -155 31v0zM498 122q-68 0 -127 25
q-60 26 -104 70.5t-70 103.5q-26 60 -26 127q0 68 26 127q26 60 70 104t104 70q59 26 127 26q67 0 127 -26q59 -26 103.5 -70t70.5 -104q25 -59 25 -127t-25 -127q-26 -60 -70.5 -104t-103.5 -70q-60 -25 -127 -25v0zM395 281q-22 13 -40 30t-31 38q-14 22 -20.5 47t-6.5 52
t6.5 52t20.5 47q13 21 31 38t40 30q23 12 49 18t54 6q24 0 46 -4t41 -13q20 -8 36 -20.5t29 -28.5l-55 -50q-18 21 -41.5 32t-51.5 11q-17 0 -32 -4t-29 -11q-13 -8 -23.5 -18.5t-18.5 -23.5q-7 -14 -11 -29t-4 -32t4 -32.5t11 -29.5q8 -13 18.5 -23.5t23.5 -18.5
q14 -7 29 -11t32 -4q28 0 51.5 11t41.5 33l55 -51q-13 -16 -29.5 -28t-35.5 -21q-20 -8 -41.5 -12.5t-45.5 -4.5q-29 1 -54.5 7t-48.5 18v0z" />
    <glyph glyph-name="n" unicode="n" 
d="M67 96l25 147q-45 45 -68.5 99t-23.5 112q0 70 34.5 134t99.5 113q32 24 68 42q36 19 76 31.5t83 18.5q43 7 87 7v0v0q44 0 87 -7q43 -6 83 -18.5t76 -31.5q36 -18 68 -42q65 -49 99.5 -113t34.5 -134q0 -71 -34.5 -135t-99.5 -113q-32 -24 -68 -42t-76 -31t-83 -19
q-43 -7 -87 -7q-53 0 -105 10t-100 28l-176 -49v0zM247 207l9 -4q44 -18 93 -27.5t99 -9.5q81 0 152 22q71 23 124 62t83 92q31 52 31 112q0 59 -31 112q-30 52 -83 91t-124 62t-152 23q-80 0 -151 -23t-124 -62t-84 -91q-31 -53 -31 -112q0 -50 21.5 -95.5t63.5 -83.5
l12 -11l-15 -87l107 30v0zM494 306h-258v44h258v-44zM659 391h-423v44h423v-44v0zM659 476h-423v43h423v-43v0zM659 561h-423v43h423v-43v0z" />
    <glyph glyph-name="q" unicode="q" horiz-adv-x="864" 
d="M598 625h-210l-22 27h-124v-29h103l22 -27h206q24 0 40 -16t16 -39v-216q7 7 12 16t5 21v216q0 19 -14 33t-34 14v0zM430 942l-430 -248v-497l430 -248l430 248v497l-430 248v0zM614 217l-51 53l-28 28l-15 17l-13 14l-6 -3q-24 -12 -50.5 -8t-45.5 23q-11 11 -17 26
t-6 30q0 16 7 30.5t18 25.5q24 23 57 22t56 -24q18 -19 21.5 -46t-10.5 -50l-3 -6l33 -35l15 -16l22 -21l38 -38l-22 -22v0zM661 580v-216q0 -19 -10.5 -34.5t-27.5 -23.5q-3 -6 -5.5 -10t-7.5 -9l-12 13l-15 16l-37 38q14 27 10 57.5t-26 52.5q-27 29 -67 29.5t-69 -27.5
q-13 -13 -20.5 -30.5t-7.5 -36.5q0 -20 6.5 -37.5t20.5 -31.5q4 -4 8 -7.5t9 -6.5q20 -13 44.5 -15t46.5 8l10 -10l28 -28h-276q-24 0 -40 16t-16 39v215q0 2 0.5 3.5t0.5 3.5h-1v76h17v45h148l23 -27h203q27 0 45.5 -18.5t17.5 -43.5v0zM426 432q-17 -14 -17 -35.5
t15 -37.5q14 -16 36 -16.5t37 14.5q15 16 15.5 37.5t-13.5 36.5q-15 16 -36.5 16.5t-36.5 -15.5v0z" />
    <glyph glyph-name="r" unicode="r" horiz-adv-x="864" 
d="M429 434q-20 0 -33.5 -13.5t-13.5 -33.5q0 -14 8 -26.5t21 -17.5v-41h36v41q13 5 21 17t8 27q0 20 -14 33.5t-33 13.5zM452 656h-48q-36 0 -61.5 -25.5t-25.5 -61.5v-54h223l-1 54q0 36 -25.5 61.5t-61.5 25.5v0zM430 943l-430 -248v-496l430 -249l430 249v496l-430 248
v0zM620 255q0 -20 -14 -34.5t-35 -14.5h-283q-20 0 -34.5 14.5t-14.5 34.5v211q0 14 8 26t21 18v70q0 54 38.5 93.5t94.5 39.5h57q55 0 94.5 -39t39.5 -94v-70q12 -6 20 -18t8 -26v-211v0z" />
    <glyph glyph-name="s" unicode="s" horiz-adv-x="864" 
d="M430 867l363 -210v-420l-363 -210l-364 210v420l364 210v0zM430 943l-430 -248v-496l430 -249l430 249v496l-430 248v0zM346 287l-42 67q16 5 27 18.5t11 32.5q0 22 -16 38t-38 16q-23 0 -38.5 -16t-15.5 -38q0 -18 10.5 -32t27.5 -19l-43 -67q-1 -4 -3 -7.5t-2 -8.5v-49
q0 -12 8.5 -20t20.5 -8h64q13 0 21.5 8.5t8.5 21.5v48q2 4 1.5 8t-2.5 7v0zM487 287l-42 67q16 5 27 18.5t11 32.5q0 22 -16 38t-38 16q-23 0 -38.5 -16t-15.5 -38q0 -18 10.5 -32t26.5 -19l-42 -67q-1 -4 -3 -7.5t-2 -8.5v-49q0 -12 8.5 -20t20.5 -8h64q13 0 21.5 8.5
t8.5 21.5v48q2 4 1.5 8t-2.5 7v0zM628 287l-42 67q17 5 27.5 18.5t10.5 32.5q0 22 -16 38t-38 16t-38 -16t-16 -38q0 -18 11 -32t27 -19l-42 -67q-2 -4 -3.5 -7.5t-1.5 -8.5v-49q0 -12 8.5 -20t20.5 -8h64q12 0 21 8.5t9 21.5v48q3 4 1.5 8t-3.5 7v0zM395 630q0 15 5 29
t14 26q-19 11 -41.5 17t-48.5 6q-61 0 -104.5 -31.5t-43.5 -76.5q0 -44 43.5 -76t104.5 -32q13 0 24.5 2t23.5 4l36 -16l6 32q11 6 20 13t17 15q-27 16 -41.5 39t-14.5 49v0zM551 729q-37 0 -67.5 -14t-47.5 -37q-7 -11 -12 -23.5t-5 -25.5q0 -24 13.5 -44t35.5 -33
q1 0 2 -1t2 -1l6 -30l32 14q10 -2 20 -3.5t22 -1.5q54 0 92.5 28.5t38.5 70.5t-38 71.5t-94 29.5v0z" />
    <glyph glyph-name="t" unicode="t" horiz-adv-x="864" 
d="M323 523q-30 0 -52 -22.5t-22 -53.5t21 -52.5t53 -21.5q31 0 53.5 22t21.5 52q0 31 -22.5 53.5t-52.5 22.5v0zM430 943l-430 -248v-496l430 -249l430 249v496l-430 248v0zM506 439q-18 -7 -21 -24t15 -29q16 -13 8.5 -23.5t-12.5 -20.5t-11.5 -17t-22.5 -1q-19 8 -32 -3
t-11 -33q3 -14 -5 -20t-20 -9q-13 -4 -25 -7t-21 15q-10 17 -27.5 17t-26.5 -17q-9 -15 -19 -14.5t-20 6.5q-12 5 -22.5 9.5t-7.5 23.5q4 23 -8.5 33.5t-34.5 3.5q-21 -8 -26 4.5t-12 21.5q-7 11 -7.5 20t11.5 18q16 13 13.5 30t-21.5 24q-20 7 -17.5 20.5t3.5 26.5
q1 14 7.5 21t22.5 5q17 -2 25.5 13t2.5 31q-3 6 -7.5 13t1.5 14q9 10 19.5 18.5t22.5 14.5q5 1 9 -2.5t8 -6.5q18 -14 33 -9t21 27q6 21 20 18t27 0q10 1 16.5 -4t9.5 -18q3 -19 19 -25.5t31 5.5q13 11 22 7.5t17 -13.5t18 -17.5t-2 -25.5q-10 -16 -1.5 -32t28.5 -16
q18 0 21 -10.5t5 -22.5q1 -12 1 -23t-17 -17v0zM585 462q-33 53 -46 85t-13 47q-8 -1 -20.5 3t-15.5 23q-5 36 -11.5 62l-6.5 26l25 -19t43 -38q13 -15 12 -26.5t-7 -17.5q13 -6 34.5 -33t54.5 -81q14 -24 28 -50t26 -50q2 -14 0.5 -23t-6.5 -12q-6 -3 -16.5 1.5t-26.5 16.5
q-13 21 -27.5 42.5t-26.5 43.5v0zM735 266q-6 -4 -29.5 22t-51.5 68q9 -7 17.5 -8t15.5 3q5 2 7.5 8t3.5 14q21 -42 32 -73t5 -34v0z" />
    <glyph glyph-name="v" unicode="v" 
d="M209 864v-50h633v-638h54v688h-687zM194 784h-69v-50h633v-637h54v687h-603h-15zM727 32h-669v669h669v-669v0zM117 91h551v551h-551v-551v0z" />
    <glyph glyph-name="w" unicode="w" horiz-adv-x="864" 
d="M430 942l-430 -248v-497l430 -248l430 248v497zM176 599q0 45 43.5 76.5t104.5 31.5q26 0 48.5 -6t41.5 -17q-9 -13 -14 -26.5t-5 -29.5q0 -25 14.5 -48.5t41.5 -38.5q-8 -8 -17 -15t-20 -13l-6 -32l-36 16q-12 -3 -23.5 -4.5t-24.5 -1.5q-61 0 -104.5 32t-43.5 76v0z
M348 271v-48q0 -13 -9 -22t-22 -9h-64q-12 0 -20 8.5t-8 20.5v49q0 4 1.5 8t3.5 8l42 67q-17 5 -27.5 19t-10.5 32q0 22 16 38t38 16t38 -16t16 -38q0 -19 -11 -32.5t-27 -18.5l42 -67q2 -3 2.5 -7t-0.5 -8v0zM489 271v-48q0 -13 -9 -22t-22 -9h-64q-12 0 -20.5 8.5
t-8.5 20.5v49q0 4 2 8l4 8l42 67q-17 5 -27.5 19t-10.5 32q0 22 16 38t38 16t38 -16t16 -38q0 -19 -11 -32.5t-27 -18.5l42 -67q2 -3 2.5 -7t-0.5 -8v0zM630 271v-48q0 -13 -9 -22t-21 -9h-64q-12 0 -20.5 8.5t-8.5 20.5v49q0 4 1.5 8t3.5 8l42 67q-16 5 -27 19t-11 32
q0 22 16 38t38 16q23 0 38.5 -16t15.5 -38q0 -19 -10.5 -32.5t-26.5 -18.5l42 -67q1 -3 2.5 -7t-1.5 -8v0zM552 527q-12 0 -22 2l-20 4l-32 -14l-5 29q-2 1 -2.5 1.5t-2.5 1.5q-22 13 -35.5 33t-13.5 44q0 13 5 25.5t12 23.5q17 23 47.5 37t67.5 14q56 0 94 -29.5t38 -71.5
t-38.5 -71t-92.5 -29v0z" />
    <glyph glyph-name="x" unicode="x" 
d="M502 842q-81 0 -153 -31t-125 -84.5t-84 -125.5q-31 -71 -31 -153t31 -153q31 -72 84 -125.5t125 -84.5t153 -31q82 0 154 31q71 31 124.5 84.5t84.5 125.5q31 71 31 153t-31 153q-31 72 -84.5 125.5t-124.5 84.5q-72 31 -154 31v0zM502 125q-66 0 -125 25
q-59 26 -103 70t-69 102q-25 59 -25 126t25 126q25 58 69 102t103 69q59 26 125 26q67 0 126 -26q59 -25 103 -69t69 -102q25 -59 25 -126t-25 -126q-25 -58 -69 -102t-103 -70q-59 -25 -126 -25zM519 678h-41v-267h157v41h-116v226z" />
    <glyph glyph-name="y" unicode="y" 
d="M896 54h-776v308h228v240h240v240h308v-788zM188 122h640v652h-172v-240h-240v-240h-228v-172v0z" />
    <glyph glyph-name="z" unicode="z" horiz-adv-x="864" 
d="M463 473q-5 4 -9.5 6t-11.5 2t-12 -2t-9 -6q-5 -5 -7 -9t-2 -11q0 -5 2 -10t7 -9q4 -4 9.5 -6t11.5 -2q7 0 11.5 2t9.5 6q4 4 6.5 8.5t1.5 10.5q0 7 -2 11.5t-6 8.5v0zM427 496h34l11 165h-56zM430 943l-430 -248v-496l430 -249l430 249v496l-430 248v0zM598 392
q-22 -26 -29 -37.5t-10 -46.5q-3 -31 -1.5 -52t1.5 -48h-217l5 75l-41.5 -1.5t-53.5 14.5t-6 30t8 20q3 7 -5.5 9.5t-12.5 7.5q-4 6 0.5 13.5l4.5 7.5l-4 1.5t-8 11.5q-3 10 2 13t7 11q0 9 -8.5 10t-16.5 11q-9 10 15 30t32 30q8 7 2.5 27t-6.5 28q0 13 4.5 41.5t20.5 54.5
q15 25 47 50.5t82 32.5q50 9 119 -6t102 -86q16 -35 17 -74t-6.5 -74t-19.5 -63q-13 -28 -24 -41v0z" />
  </font>
</defs>
</svg>
