<!-- Generator: Adobe Illustrator 22.1.0, SVG Export Plug-In . SVG Version: 6.00 Build 0)  -->
<svg version="1.1" class="section-competence__flower" id="dllflower" xmlns="http://www.w3.org/2000/svg" xmlns:xlink="http://www.w3.org/1999/xlink" x="0px" y="0px" width="760.20001"
   height="733.70001" viewBox="0 0 760.2 733.7" style="enable-background:new 0 0 760.2 733.7;" xml:space="preserve">
   	<style type="text/css">
	.st0{fill:#FFFFFF;}
	.st2{enable-background:new;}
	</style>
<g id="weiss">
	<path class="st0" d="M631.1,221.1V80.7L503.7,7.1L382.1,77.3L260.5,7L133,80.7v140.4L11.3,291.3v147.2l115.1,66.5l6.4,3.7v140.4
		l127.5,73.6l105.5-60.9l16.2-9.4l121.7,70.2l127.5-73.6V508.7l121.7-70.2V291.3L631.1,221.1z M266.4,431.7V298.2l115.7-66.8
		l115.7,66.8v133.6l-98.5,57l-17.1,10L266.4,431.7z"/>
	<path class="st0" d="M487,426V304.6l-105.4-60.9l-105.4,60.9v121.6l105.4,60.9L487,426z"/>
</g>
<g id="felder">
	<g>
		<g>
			<polygon id="unterrichtsbausteine" class="st1" fill="#E61432" points="381.8,255.8 291.3,308 381.8,360.4 472.1,308 			"/>
		</g>
		<g class="st2">
			<path class="st0" d="M329.6,305.7c-0.7-0.7-1.2-1.8-1.2-3.1v-5.3h1.8v5.3c0,1.9,0.8,2.8,2.4,2.8s2.4-0.9,2.4-2.8v-5.3h1.8v5.3
				c0,1.4-0.3,2.4-1,3.1s-1.8,1.2-3,1.2C331.4,306.9,330.4,306.5,329.6,305.7z"/>
			<path class="st0" d="M348,297.2v9.5h-1.5l-5.2-6.5v6.5h-1.8v-9.5h1.5l5.2,6.5v-6.5H348z"/>
			<path class="st0" d="M352.6,298.7h-3.1v-1.5h8.1v1.5h-3.1v8.1h-1.8V298.7z"/>
			<path class="st0" d="M366.2,305.3v1.5h-7.1v-9.5h6.9v1.5h-5.2v2.5h4.6v1.5h-4.6v2.6L366.2,305.3L366.2,305.3z"/>
			<path class="st0" d="M374.5,306.7l-2-2.8c-0.1,0-0.2,0-0.4,0h-2.2v2.8h-1.8v-9.5h3.9c0.8,0,1.6,0.1,2.2,0.4s1,0.6,1.4,1.2
				c0.3,0.5,0.5,1.2,0.5,1.8c0,0.7-0.2,1.4-0.5,1.9c-0.3,0.5-0.8,0.9-1.5,1.2l2.2,3.1H374.5z M373.9,299.2c-0.4-0.3-0.9-0.5-1.8-0.5
				H370v3.8h2.1c0.7,0,1.4-0.2,1.8-0.5c0.4-0.3,0.6-0.8,0.6-1.4S374.3,299.5,373.9,299.2z"/>
			<path class="st0" d="M384.7,306.7l-2-2.8c-0.1,0-0.2,0-0.4,0h-2.2v2.8h-1.8v-9.5h3.9c0.8,0,1.6,0.1,2.2,0.4
				c0.6,0.3,1,0.6,1.4,1.2c0.3,0.5,0.5,1.2,0.5,1.8c0,0.7-0.2,1.4-0.5,1.9c-0.3,0.5-0.8,0.9-1.5,1.2l2.2,3.1H384.7z M384.1,299.2
				c-0.4-0.3-0.9-0.5-1.8-0.5h-2.1v3.8h2.1c0.7,0,1.4-0.2,1.8-0.5c0.4-0.3,0.6-0.8,0.6-1.4S384.4,299.5,384.1,299.2z"/>
			<path class="st0" d="M388.6,297.2h1.8v9.5h-1.8V297.2z"/>
			<path class="st0" d="M394.9,306.2c-0.7-0.4-1.4-1-1.8-1.8s-0.6-1.6-0.6-2.5s0.2-1.8,0.6-2.5c0.4-0.7,1-1.4,1.8-1.8
				c0.7-0.4,1.7-0.6,2.6-0.6c0.7,0,1.5,0.1,2.1,0.4s1.2,0.6,1.7,1.2l-1.2,1c-0.7-0.7-1.6-1.2-2.5-1.2c-0.6,0-1.3,0.1-1.8,0.4
				c-0.5,0.3-0.9,0.7-1.3,1.2c-0.3,0.5-0.4,1-0.4,1.8s0.1,1.3,0.4,1.8c0.3,0.5,0.7,0.9,1.3,1.2c0.5,0.3,1.2,0.4,1.8,0.4
				c1,0,1.9-0.4,2.5-1.2l1.2,1c-0.4,0.5-0.9,0.9-1.7,1.2c-0.6,0.3-1.4,0.4-2.1,0.4C396.5,306.9,395.6,306.6,394.9,306.2z"/>
			<path class="st0" d="M411.6,297.2v9.5h-1.8v-4.1h-4.9v4.1h-1.8v-9.5h1.8v4h4.9v-4H411.6z"/>
			<path class="st0" d="M416.2,298.7H413v-1.5h8.1v1.5H418v8.1h-1.8V298.7z"/>
			<path class="st0" d="M423.3,306.5c-0.7-0.2-1.3-0.5-1.7-0.8l0.6-1.4c0.4,0.3,0.8,0.5,1.5,0.7c0.5,0.2,1.2,0.3,1.7,0.3
				c0.7,0,1.3-0.1,1.6-0.3c0.3-0.2,0.5-0.5,0.5-0.9c0-0.3-0.1-0.5-0.3-0.6c-0.2-0.1-0.4-0.3-0.7-0.4s-0.7-0.2-1.3-0.3
				c-0.7-0.2-1.4-0.3-1.8-0.5c-0.4-0.2-0.8-0.4-1.2-0.8c-0.3-0.4-0.5-0.8-0.5-1.5c0-0.5,0.1-1,0.4-1.5s0.7-0.7,1.3-1
				c0.6-0.2,1.3-0.4,2.1-0.4c0.6,0,1.2,0.1,1.7,0.2c0.5,0.1,1,0.3,1.5,0.6l-0.5,1.4c-0.4-0.2-0.8-0.4-1.3-0.5
				c-0.4-0.1-0.9-0.2-1.4-0.2c-0.7,0-1.3,0.1-1.6,0.3s-0.5,0.5-0.5,0.9c0,0.3,0.1,0.5,0.3,0.6c0.2,0.2,0.4,0.3,0.7,0.4
				c0.3,0.1,0.7,0.2,1.3,0.3c0.7,0.2,1.3,0.3,1.8,0.5c0.4,0.2,0.8,0.4,1.2,0.8c0.3,0.3,0.5,0.8,0.5,1.5c0,0.5-0.1,1-0.4,1.5
				s-0.7,0.7-1.3,1c-0.6,0.2-1.3,0.4-2.1,0.4C424.8,306.9,424,306.7,423.3,306.5z"/>
			<path class="st0" d="M430.9,301.2h3.8v1.5h-3.8V301.2z"/>
			<path class="st0" d="M349.9,317.2c0.3,0.4,0.4,0.9,0.4,1.5c0,0.8-0.3,1.4-0.9,1.8c-0.6,0.4-1.5,0.7-2.7,0.7H342V312h4.3
				c1.1,0,1.9,0.2,2.5,0.7c0.6,0.4,0.9,1,0.9,1.8c0,0.4-0.1,0.9-0.3,1.2c-0.2,0.4-0.5,0.7-0.9,0.8
				C349.2,316.6,349.6,316.8,349.9,317.2z M343.9,313.3v2.6h2.4c0.6,0,1-0.1,1.4-0.3c0.3-0.2,0.5-0.5,0.5-0.9c0-0.4-0.1-0.7-0.5-0.9
				c-0.3-0.2-0.8-0.3-1.4-0.3L343.9,313.3L343.9,313.3z M348.6,318.5c0-0.9-0.7-1.3-2-1.3h-2.8v2.6h2.8
				C348,319.8,348.6,319.4,348.6,318.5z"/>
			<path class="st0" d="M358.3,319.1h-4.6l-0.9,2.1H351l4.2-9.2h1.7l4.2,9.2h-1.8L358.3,319.1z M357.7,317.7l-1.8-4l-1.8,4H357.7z"
				/>
			<path class="st0" d="M363.1,320.2c-0.7-0.7-1.1-1.8-1.1-3.1V312h1.7v5.1c0,1.8,0.8,2.7,2.3,2.7c1.5,0,2.3-0.9,2.3-2.7V312h1.7
				v5.2c0,1.3-0.4,2.3-1,3.1c-0.7,0.7-1.7,1.1-3,1.1C364.7,321.3,363.8,321,363.1,320.2z"/>
			<path class="st0" d="M373.4,321c-0.7-0.2-1.2-0.4-1.6-0.8l0.6-1.3c0.4,0.3,0.8,0.5,1.4,0.7s1.1,0.3,1.7,0.3
				c0.7,0,1.2-0.1,1.5-0.3c0.4-0.2,0.5-0.5,0.5-0.9c0-0.3-0.1-0.5-0.3-0.7c-0.2-0.1-0.4-0.3-0.7-0.4s-0.7-0.2-1.2-0.4
				c-0.7-0.1-1.2-0.4-1.7-0.5c-0.4-0.1-0.8-0.4-1.1-0.8s-0.4-0.8-0.4-1.5c0-0.5,0.1-0.9,0.4-1.4c0.3-0.4,0.7-0.7,1.2-1
				c0.6-0.2,1.2-0.4,2-0.4c0.6,0,1.1,0.1,1.7,0.2c0.5,0.1,1,0.4,1.4,0.6l-0.5,1.3c-0.4-0.2-0.8-0.4-1.2-0.5
				c-0.4-0.1-0.9-0.2-1.2-0.2c-0.7,0-1.2,0.1-1.5,0.4c-0.4,0.2-0.5,0.5-0.5,0.9c0,0.3,0.1,0.5,0.3,0.7c0.2,0.1,0.4,0.3,0.7,0.4
				c0.3,0.1,0.7,0.2,1.2,0.4c0.7,0.1,1.2,0.3,1.7,0.5c0.4,0.1,0.8,0.4,1.1,0.8s0.4,0.8,0.4,1.4c0,0.5-0.1,0.9-0.4,1.4
				c-0.3,0.4-0.7,0.7-1.2,0.9c-0.6,0.2-1.2,0.4-2,0.4C374.7,321.3,374.1,321.2,373.4,321z"/>
			<path class="st0" d="M382.8,313.4h-3.1V312h7.8v1.5h-3.1v7.7h-1.7V313.4z"/>
			<path class="st0" d="M395.8,319.7v1.5h-6.9V312h6.7v1.5h-5v2.4h4.5v1.4h-4.5v2.6L395.8,319.7L395.8,319.7z"/>
			<path class="st0" d="M397.9,312h1.7v9.2h-1.7V312z"/>
			<path class="st0" d="M410.4,312v9.2H409l-5-6.2v6.2h-1.8V312h1.4l5,6.2V312H410.4z"/>
			<path class="st0" d="M419.9,319.7v1.5h-6.9V312h6.7v1.5h-5v2.4h4.5v1.4h-4.5v2.6L419.9,319.7L419.9,319.7z"/>
		</g>
	</g>
	<g>
		<g>
			<polygon id="tools" class="st1" fill="#3278C8" points="286,421.5 376.3,473.7 376.3,369.6 286,317.2 			"/>
		</g>
		<g class="st2">
			<path class="st0" d="M303.5,385.7h-3.1v-1.5h8.1v1.5h-3.1v8h-1.8L303.5,385.7L303.5,385.7z"/>
			<path class="st0" d="M311.6,393.3c-0.8-0.4-1.4-1-1.9-1.8s-0.6-1.6-0.6-2.5c0-0.9,0.2-1.8,0.6-2.5c0.5-0.7,1-1.4,1.9-1.8
				s1.7-0.6,2.7-0.6s1.9,0.2,2.7,0.6s1.4,1,1.9,1.8c0.5,0.7,0.6,1.6,0.6,2.5c0,1-0.2,1.8-0.6,2.5c-0.5,0.7-1,1.4-1.9,1.8
				c-0.8,0.4-1.7,0.6-2.7,0.6S312.5,393.7,311.6,393.3z M316,391.9c0.5-0.3,0.9-0.7,1.2-1.2s0.4-1.1,0.4-1.8c0-0.6-0.2-1.2-0.4-1.8
				c-0.3-0.5-0.7-0.9-1.2-1.2c-0.5-0.3-1-0.4-1.7-0.4c-0.6,0-1.2,0.2-1.7,0.4c-0.5,0.3-0.9,0.7-1.2,1.2c-0.3,0.5-0.4,1.1-0.4,1.8
				c0,0.6,0.2,1.2,0.4,1.8c0.3,0.5,0.7,0.9,1.2,1.2c0.5,0.3,1,0.4,1.7,0.4C314.9,392.4,315.5,392.3,316,391.9z"/>
			<path class="st0" d="M323.3,393.3c-0.8-0.4-1.4-1-1.9-1.8s-0.6-1.6-0.6-2.5c0-0.9,0.2-1.8,0.6-2.5c0.5-0.7,1-1.4,1.9-1.8
				s1.7-0.6,2.7-0.6s1.9,0.2,2.7,0.6s1.4,1,1.9,1.8c0.5,0.7,0.6,1.6,0.6,2.5c0,1-0.2,1.8-0.6,2.5c-0.5,0.7-1,1.4-1.9,1.8
				c-0.8,0.4-1.7,0.6-2.7,0.6S324.1,393.7,323.3,393.3z M327.7,391.9c0.5-0.3,0.9-0.7,1.2-1.2s0.4-1.1,0.4-1.8
				c0-0.6-0.2-1.2-0.4-1.8c-0.3-0.5-0.7-0.9-1.2-1.2c-0.5-0.3-1-0.4-1.7-0.4c-0.6,0-1.2,0.2-1.7,0.4c-0.5,0.3-0.9,0.7-1.2,1.2
				c-0.3,0.5-0.4,1.1-0.4,1.8c0,0.6,0.2,1.2,0.4,1.8c0.3,0.5,0.7,0.9,1.2,1.2c0.5,0.3,1,0.4,1.7,0.4
				C326.6,392.4,327.2,392.3,327.7,391.9z"/>
			<path class="st0" d="M333.1,384.2h1.8v8h5v1.5h-6.8L333.1,384.2L333.1,384.2z"/>
			<path class="st0" d="M342.2,393.6c-0.7-0.2-1.2-0.5-1.6-0.8l0.6-1.4c0.4,0.3,0.9,0.6,1.4,0.7c0.6,0.2,1.1,0.3,1.7,0.3
				c0.7,0,1.2-0.1,1.6-0.3c0.3-0.2,0.6-0.6,0.6-0.9c0-0.2-0.1-0.5-0.3-0.6c-0.2-0.2-0.5-0.3-0.7-0.4c-0.3-0.1-0.7-0.2-1.2-0.3
				c-0.7-0.2-1.3-0.3-1.8-0.5c-0.5-0.2-0.8-0.5-1.1-0.8c-0.3-0.4-0.5-0.9-0.5-1.5c0-0.6,0.2-1,0.4-1.4c0.3-0.4,0.7-0.8,1.3-1
				c0.6-0.2,1.3-0.4,2.1-0.4c0.6,0,1.1,0.1,1.7,0.2c0.6,0.2,1,0.3,1.4,0.6l-0.6,1.4c-0.4-0.2-0.9-0.4-1.3-0.6
				c-0.5-0.2-0.9-0.2-1.3-0.2c-0.7,0-1.2,0.1-1.5,0.3c-0.3,0.2-0.5,0.6-0.5,1c0,0.2,0.1,0.5,0.3,0.6c0.2,0.2,0.5,0.3,0.7,0.4
				c0.3,0.1,0.7,0.2,1.2,0.3c0.7,0.2,1.3,0.3,1.8,0.5c0.5,0.2,0.9,0.5,1.2,0.8c0.3,0.4,0.5,0.9,0.5,1.4s-0.2,1-0.4,1.4
				c-0.3,0.4-0.7,0.8-1.3,1c-0.6,0.2-1.3,0.4-2.2,0.4C343.6,394,342.9,393.9,342.2,393.6z"/>
			<path class="st0" d="M294.6,400.6h-3.3V399h8.3v1.5h-3.3v8.3h-1.8V400.6z"/>
			<path class="st0" d="M301.8,407.8c-0.8-0.8-1.1-1.9-1.1-3.3V399h1.8v5.5c0,1.9,0.8,2.9,2.5,2.9c1.7,0,2.5-1,2.5-2.9V399h1.8v5.5
				c0,1.4-0.4,2.5-1.1,3.3c-0.8,0.8-1.8,1.1-3.2,1.1S302.6,408.6,301.8,407.8z"/>
			<path class="st0" d="M313.5,400.6h-3.3V399h8.3v1.5h-3.3v8.3h-1.8V400.6z"/>
			<path class="st0" d="M321.6,408.3c-0.8-0.4-1.4-1-1.9-1.8c-0.5-0.8-0.7-1.6-0.7-2.6s0.2-1.8,0.7-2.6c0.5-0.8,1.1-1.4,1.9-1.8
				s1.7-0.7,2.7-0.7s1.9,0.2,2.7,0.7c0.8,0.4,1.4,1,1.9,1.8c0.5,0.8,0.7,1.6,0.7,2.6c0,1-0.2,1.8-0.7,2.6c-0.5,0.8-1.1,1.4-1.9,1.8
				c-0.8,0.4-1.7,0.7-2.7,0.7S322.4,408.8,321.6,408.3z M326.1,406.9c0.5-0.3,0.9-0.7,1.2-1.2c0.3-0.5,0.4-1.1,0.4-1.8
				c0-0.7-0.1-1.2-0.4-1.8c-0.3-0.5-0.7-0.9-1.2-1.2c-0.5-0.3-1.1-0.4-1.8-0.4c-0.7,0-1.2,0.1-1.8,0.4c-0.5,0.3-0.9,0.7-1.2,1.2
				c-0.3,0.5-0.4,1.1-0.4,1.8c0,0.7,0.1,1.2,0.4,1.8c0.3,0.5,0.7,0.9,1.2,1.2c0.5,0.3,1.1,0.4,1.8,0.4
				C325,407.4,325.6,407.2,326.1,406.9z"/>
			<path class="st0" d="M337.2,408.8l-2-2.9c-0.1,0-0.2,0-0.4,0h-2.2v2.9h-1.8V399h4c0.9,0,1.6,0.1,2.2,0.4c0.6,0.3,1.1,0.7,1.5,1.2
				s0.5,1.1,0.5,1.9c0,0.7-0.2,1.4-0.5,1.9c-0.4,0.5-0.9,0.9-1.5,1.2l2.3,3.2H337.2z M336.6,401.1c-0.4-0.3-1-0.5-1.8-0.5h-2.1v3.9
				h2.1c0.8,0,1.4-0.2,1.8-0.5c0.4-0.3,0.6-0.8,0.6-1.5S337,401.4,336.6,401.1z"/>
			<path class="st0" d="M341,399h1.8v9.8H341V399z"/>
			<path class="st0" d="M351.7,406.6h-4.9l-1,2.3H344l4.4-9.8h1.8l4.4,9.8h-1.9L351.7,406.6z M351.1,405.1l-1.9-4.3l-1.8,4.3H351.1z
				"/>
			<path class="st0" d="M355.8,399h1.8v8.3h5.1v1.5h-7V399z"/>
			<path class="st0" d="M364.9,408.6c-0.7-0.2-1.3-0.5-1.7-0.9l0.6-1.4c0.4,0.3,0.9,0.6,1.5,0.8s1.2,0.3,1.8,0.3
				c0.7,0,1.3-0.1,1.6-0.3c0.4-0.2,0.5-0.5,0.5-0.9c0-0.3-0.1-0.5-0.3-0.7c-0.2-0.2-0.5-0.3-0.8-0.4c-0.3-0.1-0.7-0.2-1.3-0.4
				c-0.7-0.2-1.4-0.4-1.8-0.5c-0.5-0.2-0.9-0.5-1.2-0.8c-0.3-0.4-0.5-0.9-0.5-1.5c0-0.5,0.1-1,0.4-1.5c0.3-0.4,0.7-0.8,1.3-1.1
				c0.6-0.3,1.3-0.4,2.2-0.4c0.6,0,1.2,0.1,1.8,0.2c0.6,0.1,1.1,0.4,1.5,0.6l-0.6,1.4c-0.4-0.3-0.9-0.4-1.3-0.6s-0.9-0.2-1.4-0.2
				c-0.7,0-1.3,0.1-1.6,0.4s-0.5,0.6-0.5,1c0,0.3,0.1,0.5,0.3,0.7c0.2,0.2,0.5,0.3,0.8,0.4c0.3,0.1,0.7,0.2,1.3,0.4
				c0.7,0.2,1.3,0.3,1.8,0.5s0.9,0.5,1.2,0.8c0.3,0.4,0.5,0.9,0.5,1.5c0,0.5-0.1,1-0.4,1.5c-0.3,0.4-0.7,0.8-1.3,1.1
				c-0.6,0.3-1.3,0.4-2.2,0.4C366.3,409,365.6,408.9,364.9,408.6z"/>
			<path class="st0" d="M360.7,394.2l-1.2-1.2c-0.9,0.8-2,1.2-3.3,1.2c-0.7,0-1.3-0.1-1.8-0.3c-0.5-0.2-1-0.5-1.3-0.9
				c-0.3-0.4-0.5-0.8-0.5-1.4c0-0.6,0.2-1.1,0.5-1.6c0.4-0.5,0.9-0.9,1.7-1.4c-0.4-0.4-0.7-0.8-0.8-1.1c-0.2-0.3-0.3-0.7-0.3-1.1
				c0-0.7,0.3-1.2,0.8-1.7c0.5-0.4,1.2-0.6,2.1-0.6c0.8,0,1.4,0.2,1.9,0.6c0.5,0.4,0.7,0.9,0.7,1.6c0,0.5-0.2,1-0.5,1.3
				c-0.3,0.4-0.8,0.8-1.5,1.2l2.1,2c0.2-0.5,0.4-1,0.5-1.7l1.4,0.5c-0.2,0.9-0.5,1.6-0.9,2.2l1.2,1.2L360.7,394.2z M358.4,392
				l-2.6-2.5c-0.6,0.3-1,0.6-1.2,0.9c-0.2,0.3-0.3,0.6-0.3,1c0,0.4,0.2,0.7,0.5,1c0.4,0.3,0.8,0.4,1.4,0.4
				C357.1,392.7,357.8,392.5,358.4,392z M355.7,385.6c-0.2,0.2-0.3,0.4-0.3,0.8c0,0.2,0.1,0.4,0.2,0.6c0.1,0.2,0.4,0.5,0.7,0.8
				c0.6-0.3,1-0.6,1.2-0.8c0.2-0.2,0.3-0.5,0.3-0.7c0-0.3-0.1-0.5-0.3-0.7s-0.5-0.3-0.8-0.3C356.2,385.4,355.9,385.5,355.7,385.6z"
				/>
		</g>
	</g>
	<g>
		<g>
			<polygon id="trends" class="st1" fill="#D2AA6E" points="387.1,473.7 477.5,421.5 477.5,317.2 387.1,369.6 			"/>
		</g>
		<g class="st2">
			<path class="st0" d="M403.6,392.2h-3.2v-1.6h8.4v1.6h-3.2v8.3h-1.8L403.6,392.2L403.6,392.2z"/>
			<path class="st0" d="M416.6,400.5l-2-2.9c-0.1,0-0.2,0-0.4,0H412v2.9h-1.8v-9.8h4.1c0.8,0,1.6,0.2,2.2,0.4
				c0.7,0.2,1.2,0.7,1.5,1.2c0.3,0.5,0.5,1.2,0.5,1.9c0,0.7-0.2,1.4-0.6,1.9c-0.3,0.5-0.9,0.9-1.6,1.2l2.2,3.2L416.6,400.5
				L416.6,400.5z M416,392.7c-0.4-0.3-1-0.5-1.8-0.5H412v3.9h2.1c0.8,0,1.4-0.2,1.8-0.5c0.4-0.3,0.6-0.8,0.6-1.5
				C416.6,393.5,416.4,393,416,392.7z"/>
			<path class="st0" d="M428,399v1.6h-7.4v-9.8h7.2v1.6h-5.4v2.6h4.7v1.5h-4.7v2.7L428,399L428,399z"/>
			<path class="st0" d="M438.9,390.6v9.8h-1.5l-5.5-6.7v6.7h-1.8v-9.8h1.5l5.5,6.7v-6.7H438.9z"/>
			<path class="st0" d="M441.8,390.6h4.3c1.1,0,2,0.2,2.8,0.6c0.8,0.4,1.5,1,1.9,1.7c0.4,0.7,0.7,1.6,0.7,2.6s-0.2,1.8-0.7,2.6
				c-0.4,0.7-1.1,1.3-1.9,1.7c-0.8,0.4-1.7,0.6-2.8,0.6h-4.3V390.6z M446,398.9c0.7,0,1.3-0.2,1.9-0.4c0.6-0.2,1-0.7,1.2-1.2
				c0.3-0.5,0.4-1.1,0.4-1.8c0-0.7-0.2-1.2-0.4-1.8c-0.3-0.5-0.7-0.9-1.2-1.2c-0.6-0.2-1.2-0.4-1.9-0.4h-2.4v6.8H446L446,398.9z"/>
			<path class="st0" d="M454.3,400.3c-0.7-0.2-1.2-0.5-1.7-0.8l0.7-1.4c0.4,0.3,0.9,0.6,1.5,0.7c0.6,0.2,1.2,0.3,1.7,0.3
				c0.7,0,1.2-0.1,1.7-0.3c0.4-0.2,0.6-0.6,0.6-0.9c0-0.2-0.1-0.5-0.3-0.7c-0.2-0.2-0.5-0.3-0.7-0.4c-0.3-0.1-0.7-0.2-1.2-0.3
				c-0.7-0.2-1.3-0.3-1.8-0.5c-0.5-0.2-0.8-0.5-1.2-0.8s-0.5-0.9-0.5-1.6c0-0.6,0.2-1.1,0.4-1.5c0.3-0.4,0.7-0.8,1.3-1.1
				c0.6-0.2,1.3-0.4,2.1-0.4c0.6,0,1.2,0.1,1.7,0.2c0.6,0.2,1.1,0.3,1.5,0.7l-0.6,1.4c-0.4-0.2-0.9-0.4-1.3-0.6
				c-0.5-0.2-0.9-0.2-1.3-0.2c-0.7,0-1.2,0.1-1.6,0.3c-0.3,0.2-0.5,0.6-0.5,1c0,0.2,0.1,0.5,0.3,0.7c0.2,0.2,0.5,0.3,0.7,0.4
				c0.3,0.1,0.7,0.2,1.2,0.3c0.7,0.2,1.3,0.3,1.8,0.5s0.9,0.5,1.2,0.8s0.5,0.9,0.5,1.5c0,0.6-0.2,1.1-0.4,1.5
				c-0.3,0.4-0.7,0.8-1.3,1.1c-0.6,0.2-1.3,0.4-2.2,0.4C455.7,400.6,455,400.5,454.3,400.3z"/>
		</g>
	</g>
	<g>
		<g>
			<polygon id="schuetzen-sicher-agieren" fill="#00232D" class="st5" points="388.2,642.3 410.4,655.1 503.7,708.9 619.2,642.3 619.2,508.9 503.7,442.2 405.3,499.1
				388.2,508.9 			"/>
			<path class="st0" d="M522.5,504.5v-8c0-8.6-7-15.4-15.4-15.4h-6.6c-8.6,0-15.4,7-15.4,15.4v8c-2,1-3.3,2.9-3.3,5.2v24.4
				c0,3.1,2.5,5.7,5.7,5.7h32.8c3.1,0,5.7-2.5,5.7-5.7v-24.4C525.9,507.4,524.4,505.5,522.5,504.5z M505.8,523.8v4.8h-4.1v-4.8
				c-2-0.8-3.4-2.8-3.4-5.1c0-3,2.4-5.5,5.5-5.5s5.5,2.4,5.5,5.5C509.3,521.1,507.8,523.1,505.8,523.8z M516.6,503.9h-25.7v-6.2
				c0-5.5,4.5-10,10-10h5.6c5.5,0,10,4.5,10,10V503.9L516.6,503.9z"/>
			<g class="st2">
				<path class="st0" d="M438.7,584.2c-1.1-0.3-2-0.8-2.5-1.3l1-2.1c0.6,0.5,1.4,0.9,2.2,1.2c0.9,0.3,1.8,0.5,2.7,0.5
					c1.1,0,2-0.2,2.5-0.5c0.6-0.4,0.8-0.9,0.8-1.5c0-0.4-0.2-0.8-0.5-1.1c-0.3-0.3-0.7-0.5-1.2-0.7c-0.5-0.2-1.1-0.3-2-0.5
					c-1.2-0.3-2-0.6-2.7-0.8s-1.3-0.7-1.9-1.3c-0.5-0.6-0.8-1.4-0.8-2.3c0-0.8,0.2-1.6,0.7-2.2s1.2-1.2,2-1.7c0.9-0.4,2-0.6,3.3-0.6
					c0.9,0,1.9,0.1,2.7,0.4c0.9,0.2,1.7,0.6,2.3,1l-0.9,2.1c-0.7-0.4-1.4-0.7-2-0.9c-0.7-0.2-1.4-0.3-2-0.3c-1.1,0-2,0.2-2.4,0.6
					c-0.5,0.4-0.8,0.9-0.8,1.5c0,0.4,0.2,0.8,0.5,1.1c0.3,0.3,0.7,0.5,1.2,0.7c0.5,0.2,1.1,0.3,2,0.5c1.1,0.3,2,0.5,2.7,0.8
					s1.4,0.7,1.9,1.3c0.5,0.6,0.8,1.4,0.8,2.3c0,0.9-0.2,1.6-0.7,2.2s-1.2,1.2-2,1.6c-0.9,0.4-2,0.6-3.3,0.6
					C440.9,584.7,439.8,584.5,438.7,584.2z"/>
				<path class="st0" d="M453.3,583.9c-1-0.5-1.7-1.2-2.2-2c-0.5-0.9-0.8-2-0.8-3c0-1.2,0.3-2.1,0.8-3c0.5-0.9,1.3-1.6,2.2-2
					c1-0.5,2-0.8,3.2-0.8s2.1,0.2,2.9,0.7c0.9,0.5,1.5,1.1,2,2l-2,1.2c-0.3-0.5-0.8-0.9-1.3-1.2c-0.5-0.3-1.1-0.4-1.7-0.4
					c-1,0-1.9,0.3-2.5,1c-0.7,0.7-1,1.6-1,2.6c0,1.1,0.3,2,1,2.6c0.7,0.7,1.5,1,2.5,1c0.6,0,1.2-0.1,1.7-0.4
					c0.5-0.3,0.9-0.7,1.3-1.2l2,1.2c-0.5,0.9-1.1,1.6-2,2c-0.9,0.5-1.9,0.7-2.9,0.7C455.2,584.6,454.2,584.4,453.3,583.9z"/>
				<path class="st0" d="M474.1,574.2c0.9,0.9,1.3,2,1.3,3.7v6.5h-2.7v-6.2c0-1-0.2-1.8-0.7-2.2c-0.5-0.5-1.2-0.8-2-0.8
					c-1,0-1.8,0.3-2.3,0.9c-0.6,0.6-0.9,1.5-0.9,2.5v5.8h-2.7v-15.9h2.7v5.8c0.5-0.5,1-0.9,1.7-1.1c0.7-0.3,1.4-0.4,2.1-0.4
					C472,572.9,473.2,573.3,474.1,574.2z"/>
				<path class="st0" d="M490.4,573v11.4h-2.5V583c-0.4,0.5-1,0.9-1.7,1.2c-0.7,0.3-1.4,0.4-2,0.4c-1.6,0-2.7-0.4-3.6-1.3
					c-0.9-0.9-1.4-2.1-1.4-3.8v-6.5h2.7v6.1c0,1.1,0.2,1.8,0.7,2.3c0.5,0.5,1.2,0.8,2,0.8c1,0,1.8-0.3,2.2-0.9
					c0.6-0.6,0.9-1.5,0.9-2.5V573H490.4z M481.9,570.9c-0.2-0.2-0.4-0.6-0.4-0.9c0-0.4,0.1-0.7,0.4-1c0.2-0.2,0.6-0.4,0.9-0.4
					c0.4,0,0.7,0.1,0.9,0.4c0.2,0.3,0.4,0.6,0.4,1c0,0.4-0.1,0.7-0.4,0.9s-0.6,0.4-0.9,0.4C482.3,571.3,482.1,571.2,481.9,570.9z
					 M486,570.9c-0.2-0.2-0.4-0.6-0.4-0.9c0-0.4,0.1-0.7,0.4-1c0.3-0.3,0.6-0.4,0.9-0.4c0.4,0,0.7,0.1,0.9,0.4
					c0.2,0.2,0.4,0.6,0.4,1c0,0.4-0.1,0.7-0.4,0.9c-0.2,0.2-0.6,0.4-0.9,0.4S486.3,571.2,486,570.9z"/>
				<path class="st0" d="M501.4,583.9c-0.3,0.3-0.7,0.5-1.2,0.6c-0.5,0.1-1,0.2-1.5,0.2c-1.3,0-2.2-0.3-2.9-1
					c-0.7-0.7-1.1-1.7-1.1-2.8v-5.6h-1.9v-2.1h1.9v-2.6h2.7v2.6h3v2.1h-3v5.5c0,0.6,0.1,1,0.4,1.3s0.7,0.5,1.2,0.5
					c0.6,0,1.1-0.2,1.5-0.5L501.4,583.9z"/>
				<path class="st0" d="M513.1,582.4v2.1h-9.9v-1.7l6.2-7.6h-6.1v-2.1h9.6v1.7l-6.3,7.6H513.1z"/>
				<path class="st0" d="M526.6,579.6h-9c0.2,0.9,0.6,1.6,1.3,2c0.7,0.5,1.5,0.8,2.4,0.8c1.3,0,2.3-0.4,3.1-1.3l1.5,1.7
					c-0.5,0.6-1.2,1.1-2,1.4c-0.8,0.3-1.7,0.5-2.6,0.5c-1.3,0-2.3-0.3-3.3-0.8c-1-0.5-1.7-1.2-2.2-2c-0.6-0.9-0.8-2-0.8-3
					c0-1.1,0.3-2.1,0.8-3c0.5-0.9,1.2-1.6,2.1-2c0.9-0.5,2-0.8,3-0.8c1.1,0,2.1,0.3,3,0.8s1.6,1.2,2,2s0.8,2,0.8,3.1
					C526.6,579.1,526.6,579.3,526.6,579.6z M518.7,575.8c-0.6,0.5-1,1.2-1.1,2h6.5c-0.1-0.9-0.5-1.5-1.1-2c-0.6-0.5-1.3-0.8-2.1-0.8
					C520,575.1,519.3,575.3,518.7,575.8z"/>
				<path class="st0" d="M539.8,574.2c0.9,0.9,1.3,2,1.3,3.7v6.5h-2.7v-6.2c0-1-0.2-1.8-0.7-2.2c-0.5-0.5-1.2-0.8-2-0.8
					c-1,0-1.8,0.3-2.3,0.9c-0.6,0.6-0.9,1.5-0.9,2.5v5.8h-2.7v-11.4h2.5v1.5c0.5-0.5,1-1,1.7-1.2c0.7-0.3,1.5-0.4,2.2-0.4
					C537.8,572.9,538.9,573.3,539.8,574.2z"/>
				<path class="st0" d="M563,584.7l-1.9-1.9c-1.4,1.2-3.1,1.8-5.1,1.8c-1.1,0-2-0.2-2.8-0.5c-0.9-0.4-1.5-0.8-2-1.5
					c-0.5-0.6-0.7-1.3-0.7-2c0-1,0.3-1.8,0.8-2.4c0.6-0.7,1.5-1.4,2.6-2c-0.6-0.6-1.1-1.2-1.3-1.7c-0.3-0.5-0.4-1.1-0.4-1.7
					c0-1.1,0.4-2,1.2-2.5c0.8-0.7,1.9-1,3.1-1c1.2,0,2.1,0.3,2.9,0.9s1.1,1.4,1.1,2.4c0,0.8-0.2,1.5-0.7,2s-1.3,1.2-2.3,1.9l3.2,3.1
					c0.4-0.7,0.7-1.6,0.9-2.5l2.1,0.7c-0.3,1.4-0.8,2.4-1.4,3.4l1.9,1.8L563,584.7z M559.5,581.4l-4-3.8c-0.9,0.5-1.5,1-1.9,1.4
					c-0.4,0.4-0.5,0.9-0.5,1.5s0.3,1.2,0.9,1.6c0.6,0.4,1.3,0.6,2.2,0.6C557.5,582.6,558.6,582.2,559.5,581.4z M555.3,571.6
					c-0.4,0.3-0.5,0.7-0.5,1.2c0,0.4,0.1,0.7,0.3,1c0.2,0.3,0.6,0.7,1.1,1.3c0.9-0.5,1.5-0.9,1.8-1.3c0.3-0.4,0.5-0.8,0.5-1.2
					c0-0.5-0.2-0.8-0.5-1.1c-0.3-0.3-0.8-0.4-1.3-0.4C556.2,571.3,555.7,571.3,555.3,571.6z"/>
				<path class="st0" d="M422.4,610.7c-0.9-0.2-1.6-0.6-2.1-0.9l1.1-2c0.5,0.4,1.2,0.6,1.9,0.8s1.5,0.3,2.1,0.3
					c1.6,0,2.4-0.4,2.4-1.3c0-0.4-0.2-0.7-0.6-0.9c-0.4-0.2-1.1-0.3-2-0.5c-1-0.1-1.8-0.3-2.3-0.5c-0.6-0.2-1.1-0.5-1.6-1
					s-0.7-1.1-0.7-2c0-1.1,0.5-2,1.4-2.6s2.1-1,3.7-1c0.8,0,1.6,0.1,2.3,0.3s1.5,0.4,2,0.7l-1.1,2c-1-0.6-2-0.9-3.3-0.9
					c-0.8,0-1.4,0.1-1.8,0.4s-0.6,0.6-0.6,1c0,0.4,0.2,0.8,0.7,0.9c0.4,0.2,1.1,0.4,2,0.5c0.9,0.1,1.7,0.3,2.2,0.5
					c0.6,0.2,1.1,0.5,1.6,1c0.4,0.5,0.6,1.1,0.6,1.9c0,1.1-0.5,2-1.4,2.5c-1,0.7-2.2,1-3.8,1C424.3,611,423.3,610.9,422.4,610.7z"/>
				<path class="st0" d="M433.4,597c-0.3-0.3-0.5-0.7-0.5-1.2c0-0.5,0.2-0.9,0.5-1.2c0.3-0.3,0.8-0.5,1.3-0.5c0.5,0,0.9,0.2,1.3,0.5
					c0.3,0.3,0.5,0.7,0.5,1.1c0,0.5-0.2,0.9-0.5,1.2c-0.3,0.3-0.8,0.5-1.3,0.5C434.1,597.5,433.7,597.3,433.4,597z M433.3,599.4h2.7
					v11.4h-2.7V599.4z"/>
				<path class="st0" d="M442.1,610.3c-1-0.5-1.7-1.2-2.2-2c-0.5-0.9-0.8-2-0.8-3c0-1.2,0.3-2.1,0.8-3c0.5-0.9,1.3-1.6,2.2-2
					s2-0.8,3.2-0.8c1.2,0,2.1,0.2,2.9,0.7c0.9,0.5,1.5,1.1,2,2l-2,1.2c-0.3-0.5-0.8-0.9-1.3-1.2c-0.5-0.3-1.1-0.4-1.7-0.4
					c-1,0-1.9,0.3-2.5,1c-0.7,0.7-1,1.6-1,2.6c0,1.1,0.3,2,1,2.6c0.7,0.7,1.5,1,2.5,1c0.6,0,1.2-0.1,1.7-0.4
					c0.5-0.3,0.9-0.7,1.3-1.2l2,1.2c-0.5,0.9-1.1,1.6-2,2c-0.9,0.5-1.9,0.7-2.9,0.7C444,611,442.9,610.8,442.1,610.3z"/>
				<path class="st0" d="M462.8,600.5c0.9,0.9,1.3,2,1.3,3.7v6.5h-2.7v-6.2c0-1-0.2-1.8-0.7-2.2c-0.5-0.5-1.2-0.8-2-0.8
					c-1,0-1.8,0.3-2.3,0.9c-0.6,0.6-0.9,1.5-0.9,2.5v5.8h-2.7v-15.9h2.7v5.8c0.5-0.5,1-0.9,1.7-1.1c0.7-0.3,1.4-0.4,2.1-0.4
					C460.8,599.3,462,599.6,462.8,600.5z"/>
				<path class="st0" d="M478.9,606h-9c0.2,0.9,0.6,1.6,1.3,2c0.7,0.5,1.5,0.8,2.4,0.8c1.3,0,2.3-0.4,3.1-1.3l1.5,1.7
					c-0.5,0.6-1.2,1.1-2,1.4c-0.8,0.3-1.7,0.5-2.6,0.5c-1.3,0-2.3-0.3-3.3-0.8c-1-0.5-1.7-1.2-2.2-2c-0.6-0.9-0.8-2-0.8-3
					c0-1.1,0.3-2.1,0.8-3c0.5-0.9,1.2-1.6,2.1-2c0.9-0.5,2-0.8,3-0.8s2.1,0.3,3,0.8s1.6,1.2,2,2c0.5,0.9,0.8,2,0.8,3.1
					C479,605.4,478.9,605.6,478.9,606z M471,602.2c-0.6,0.5-1,1.2-1.1,2h6.5c-0.1-0.9-0.5-1.5-1.1-2c-0.6-0.5-1.3-0.8-2.1-0.8
					C472.3,601.4,471.6,601.7,471,602.2z"/>
				<path class="st0" d="M488.7,599.3v2.5c-0.2,0-0.4-0.1-0.6-0.1c-1.1,0-1.9,0.3-2.4,0.9c-0.6,0.6-0.9,1.5-0.9,2.6v5.6h-2.7v-11.4
					h2.5v1.7C485.5,599.8,486.8,599.3,488.7,599.3z"/>
				<path class="st0" d="M508.1,607.4h-7.5l-1.5,3.5h-2.8l6.7-15h2.7l6.8,15h-2.9L508.1,607.4z M507.2,605.2l-2.8-6.5l-2.8,6.5
					H507.2z"/>
				<path class="st0" d="M526,599.4v9.8c0,4-2,6-6.1,6c-1.1,0-2.1-0.1-3.1-0.4c-1-0.3-1.8-0.7-2.4-1.2l1.2-2c0.5,0.4,1.2,0.8,1.9,1
					c0.8,0.3,1.6,0.4,2.3,0.4c1.3,0,2.1-0.3,2.7-0.9s0.9-1.5,0.9-2.6v-0.6c-0.5,0.5-1,0.9-1.7,1.2s-1.4,0.4-2.1,0.4
					c-1.1,0-2-0.2-2.9-0.7c-0.9-0.5-1.6-1.1-2-2c-0.5-0.9-0.8-1.9-0.8-2.9c0-1.1,0.3-2,0.8-2.9c0.5-0.9,1.2-1.5,2-2
					c0.9-0.5,1.9-0.7,2.9-0.7c0.9,0,1.6,0.1,2.2,0.4s1.3,0.7,1.7,1.3v-1.6L526,599.4L526,599.4z M522.4,607.2c0.7-0.6,1-1.4,1-2.3
					s-0.3-1.8-1-2.3c-0.7-0.6-1.5-0.9-2.5-0.9c-1.1,0-1.9,0.3-2.5,0.9c-0.7,0.6-1,1.4-1,2.3s0.3,1.8,1,2.3c0.7,0.6,1.5,0.9,2.5,0.9
					C520.9,608,521.8,607.7,522.4,607.2z"/>
				<path class="st0" d="M530.2,597c-0.3-0.3-0.5-0.7-0.5-1.2c0-0.5,0.2-0.9,0.5-1.2c0.3-0.3,0.8-0.5,1.3-0.5s0.9,0.2,1.3,0.5
					c0.3,0.3,0.5,0.7,0.5,1.1c0,0.5-0.2,0.9-0.5,1.2c-0.3,0.3-0.8,0.5-1.3,0.5C530.9,597.5,530.5,597.3,530.2,597z M530.1,599.4h2.7
					v11.4h-2.7V599.4z"/>
				<path class="st0" d="M547.5,606h-9c0.2,0.9,0.6,1.6,1.3,2c0.7,0.5,1.5,0.8,2.4,0.8c1.3,0,2.3-0.4,3.1-1.3l1.5,1.7
					c-0.5,0.6-1.2,1.1-2,1.4c-0.8,0.3-1.7,0.5-2.6,0.5c-1.3,0-2.3-0.3-3.3-0.8c-1-0.5-1.7-1.2-2.2-2c-0.6-0.9-0.8-2-0.8-3
					c0-1.1,0.3-2.1,0.8-3c0.5-0.9,1.2-1.6,2.1-2c0.9-0.5,2-0.8,3-0.8c1.1,0,2.1,0.3,3,0.8s1.6,1.2,2,2c0.5,0.9,0.8,2,0.8,3.1
					C547.5,605.4,547.5,605.6,547.5,606z M539.6,602.2c-0.6,0.5-1,1.2-1.1,2h6.5c-0.1-0.9-0.5-1.5-1.1-2c-0.6-0.5-1.3-0.8-2.1-0.8
					C540.9,601.4,540.2,601.7,539.6,602.2z"/>
				<path class="st0" d="M557.3,599.3v2.5c-0.2,0-0.4-0.1-0.6-0.1c-1.1,0-1.9,0.3-2.4,0.9c-0.6,0.6-0.9,1.5-0.9,2.6v5.6h-2.7v-11.4
					h2.5v1.7C554,599.8,555.3,599.3,557.3,599.3z"/>
				<path class="st0" d="M570.7,606h-9c0.2,0.9,0.6,1.6,1.3,2c0.7,0.5,1.5,0.8,2.4,0.8c1.3,0,2.3-0.4,3.1-1.3l1.5,1.7
					c-0.5,0.6-1.2,1.1-2,1.4c-0.8,0.3-1.7,0.5-2.6,0.5c-1.3,0-2.3-0.3-3.3-0.8c-1-0.5-1.7-1.2-2.2-2c-0.5-0.9-0.8-2-0.8-3
					c0-1.1,0.3-2.1,0.8-3c0.5-0.9,1.2-1.6,2.1-2c0.9-0.5,2-0.8,3-0.8c1.1,0,2.1,0.3,3,0.8s1.6,1.2,2,2c0.5,0.9,0.8,2,0.8,3.1
					C570.8,605.4,570.7,605.6,570.7,606z M562.8,602.2c-0.6,0.5-1,1.2-1.1,2h6.5c-0.1-0.9-0.5-1.5-1.1-2c-0.6-0.5-1.3-0.8-2.1-0.8
					C564.1,601.4,563.4,601.7,562.8,602.2z"/>
				<path class="st0" d="M583.9,600.5c0.9,0.9,1.3,2,1.3,3.7v6.5h-2.7v-6.2c0-1-0.2-1.8-0.7-2.2c-0.5-0.5-1.2-0.8-2-0.8
					c-1,0-1.8,0.3-2.3,0.9c-0.6,0.6-0.9,1.5-0.9,2.5v5.8h-2.7v-11.4h2.5v1.5c0.5-0.5,1-1,1.7-1.2s1.5-0.4,2.2-0.4
					C581.9,599.3,583,599.6,583.9,600.5z"/>
			</g>
		</g>
		<g>
			<polygon id="suchen-verarbeiten-aufbewahren" class="st5" fill="#00232D" points="376,87.6 260.5,20.9 145,87.6 145,221 260.5,287.7 359.9,230.3 376,221 			"/>
			<g>
				<path class="st0" d="M279.9,71.1h-23.4l-2.6-3.1h-17.2v5.2h-2V82h0.1c0,0.3-0.1,0.6-0.1,0.8v24.9c0,3.6,2.8,6.4,6.4,6.4h32
					l-3.2-3.3l-1.2-1.2c-3.4,1.6-7.4,1.3-10.5-0.8c-0.8-0.5-1.4-1-2-1.7c-2-2.1-3.1-4.9-3.1-7.9c0.1-2.9,1.3-5.8,3.3-7.8
					c4.4-4.3,11.5-4.2,15.7,0.3c3.3,3.3,4,8.5,1.9,12.7l4.3,4.4l1.8,1.9l1.4,1.5c0.7-0.7,1.1-1.3,1.5-2.1c2.6-1.2,4.4-3.8,4.4-6.7
					v-25C287.3,74.3,284.1,71.1,279.9,71.1z M285.5,103.5c0,1.8-0.8,3.2-2,4.3v-25c0-3.6-2.8-6.4-6.4-6.4h-23.8l-2.6-3.1h-12V70H253
					l2.6,3.1h24.3c3,0,5.5,2.5,5.5,5.5L285.5,103.5L285.5,103.5z"/>
				<path class="st0" d="M277.5,110.9l-1.8-1.9l-3.9-4.1l0.4-0.7c2.1-3.5,1.6-8.1-1.3-11c-3.5-3.6-9.4-3.8-13.1-0.3
					c-1.8,1.8-2.8,4-2.8,6.4c-0.1,2.4,0.9,4.8,2.6,6.5c2.8,2.9,7.4,3.6,11,1.7l0.7-0.3l1.6,1.7l1.8,1.9l3.2,3.3l5.9,6l2.5-2.4
					l-4.3-4.4L277.5,110.9z M268.2,104c-2.3,2.3-6.2,2.3-8.5-0.2c-2.3-2.4-2.3-6.2,0.2-8.5c2.3-2.3,6.2-2.3,8.5,0.2
					C270.7,97.9,270.6,101.7,268.2,104z"/>
			</g>
			<g class="st2">
				<path class="st0" d="M215.2,154.1c-1.1-0.3-2-0.8-2.5-1.3l1-2.1c0.6,0.5,1.4,0.9,2.2,1.2c0.9,0.3,1.8,0.5,2.7,0.5
					c1.1,0,2-0.2,2.5-0.5c0.6-0.4,0.8-0.9,0.8-1.5c0-0.4-0.2-0.8-0.5-1.1c-0.3-0.3-0.7-0.5-1.2-0.7c-0.5-0.2-1.1-0.3-2-0.5
					c-1.2-0.3-2-0.6-2.7-0.8c-0.7-0.2-1.3-0.7-1.9-1.3c-0.5-0.6-0.8-1.4-0.8-2.3c0-0.8,0.2-1.6,0.7-2.2c0.5-0.7,1.2-1.2,2-1.7
					c0.9-0.4,2-0.6,3.3-0.6c0.9,0,1.9,0.1,2.7,0.4c0.9,0.2,1.7,0.6,2.3,1l-0.9,2.1c-0.7-0.4-1.4-0.7-2-0.9c-0.7-0.2-1.4-0.3-2-0.3
					c-1.1,0-2,0.2-2.4,0.6c-0.6,0.4-0.8,0.9-0.8,1.5c0,0.4,0.2,0.8,0.5,1.1c0.3,0.3,0.7,0.5,1.2,0.7c0.5,0.2,1.1,0.3,2,0.5
					c1.1,0.3,2,0.5,2.7,0.8c0.7,0.3,1.4,0.7,1.9,1.3c0.5,0.6,0.8,1.4,0.8,2.3c0,0.9-0.2,1.6-0.7,2.2c-0.5,0.7-1.2,1.2-2,1.6
					c-0.9,0.4-2,0.6-3.3,0.6C217.4,154.5,216.3,154.4,215.2,154.1z"/>
				<path class="st0" d="M238.8,142.9v11.4h-2.5v-1.5c-0.4,0.5-1,0.9-1.6,1.2c-0.7,0.3-1.4,0.4-2,0.4c-1.6,0-2.7-0.4-3.6-1.3
					c-0.9-0.9-1.4-2.1-1.4-3.8v-6.5h2.7v6.1c0,1.1,0.2,1.8,0.7,2.3c0.5,0.5,1.2,0.8,2,0.8c1,0,1.8-0.3,2.2-0.9
					c0.6-0.6,0.9-1.5,0.9-2.5v-5.8H238.8z"/>
				<path class="st0" d="M244.9,153.8c-1-0.5-1.7-1.2-2.2-2c-0.6-0.9-0.8-2-0.8-3c0-1.2,0.3-2.1,0.8-3c0.5-0.9,1.3-1.6,2.2-2
					c1-0.5,2-0.8,3.2-0.8s2.1,0.2,2.9,0.7c0.9,0.5,1.5,1.1,2,2l-2,1.2c-0.3-0.5-0.8-0.9-1.3-1.2c-0.5-0.3-1.1-0.4-1.7-0.4
					c-1,0-1.9,0.3-2.5,1c-0.7,0.7-1,1.6-1,2.6s0.3,2,1,2.6c0.7,0.7,1.5,1,2.5,1c0.6,0,1.2-0.1,1.7-0.4c0.5-0.3,0.9-0.7,1.3-1.2
					l2,1.2c-0.5,0.9-1.1,1.6-2,2c-0.9,0.5-1.9,0.7-2.9,0.7C246.9,154.5,245.8,154.3,244.9,153.8z"/>
				<path class="st0" d="M265.8,144c0.9,0.9,1.3,2,1.3,3.7v6.5h-2.7V148c0-1-0.2-1.8-0.7-2.2c-0.5-0.5-1.2-0.8-2-0.8
					c-1,0-1.8,0.3-2.3,0.9c-0.6,0.6-0.9,1.5-0.9,2.5v5.8h-2.7v-15.9h2.7v5.8c0.5-0.5,1-0.9,1.7-1.1c0.7-0.3,1.4-0.4,2.1-0.4
					C263.7,142.7,264.9,143.2,265.8,144z"/>
				<path class="st0" d="M281.9,149.5h-9c0.2,0.9,0.6,1.6,1.3,2c0.7,0.5,1.5,0.8,2.4,0.8c1.3,0,2.3-0.4,3.1-1.3l1.5,1.7
					c-0.5,0.6-1.2,1.1-2,1.4c-0.8,0.3-1.7,0.5-2.6,0.5c-1.3,0-2.3-0.3-3.3-0.8c-1-0.5-1.7-1.2-2.2-2c-0.5-0.9-0.8-2-0.8-3
					s0.3-2.1,0.8-3c0.5-0.9,1.2-1.6,2.1-2c0.9-0.5,2-0.8,3-0.8s2.1,0.3,3,0.8s1.6,1.2,2,2c0.5,0.9,0.8,2,0.8,3.1
					C281.9,148.9,281.9,149.2,281.9,149.5z M273.9,145.7c-0.6,0.5-1,1.2-1.1,2h6.5c-0.1-0.9-0.5-1.5-1.1-2c-0.6-0.5-1.3-0.8-2.1-0.8
					S274.4,145.2,273.9,145.7z"/>
				<path class="st0" d="M294.9,144c0.9,0.9,1.3,2,1.3,3.7v6.5h-2.7V148c0-1-0.2-1.8-0.7-2.2c-0.5-0.5-1.2-0.8-2-0.8
					c-1,0-1.8,0.3-2.3,0.9c-0.6,0.6-0.9,1.5-0.9,2.5v5.8h-2.7v-11.4h2.5v1.5c0.5-0.5,1-1,1.7-1.2c0.7-0.3,1.5-0.4,2.2-0.4
					C293,142.7,294,143.2,294.9,144z"/>
				<path class="st0" d="M302.3,151.4c0.3,0.3,0.5,0.8,0.5,1.3c0,0.2,0,0.5-0.1,0.7c-0.1,0.2-0.2,0.6-0.4,1.2l-1.1,3h-1.8l0.9-3.3
					c-0.3-0.1-0.6-0.3-0.8-0.6c-0.2-0.3-0.3-0.6-0.3-1c0-0.5,0.2-1,0.5-1.3c0.3-0.3,0.8-0.5,1.3-0.5S302,151.1,302.3,151.4z"/>
				<path class="st0" d="M194.9,165.7l-6.5,15h-2.7l-6.5-15h3l5,11.6l5.1-11.6H194.9z"/>
				<path class="st0" d="M206.7,175.8h-9c0.2,0.9,0.6,1.6,1.3,2c0.7,0.5,1.5,0.8,2.4,0.8c1.3,0,2.3-0.4,3.1-1.3l1.5,1.7
					c-0.5,0.6-1.2,1.1-2,1.4s-1.7,0.5-2.6,0.5c-1.3,0-2.3-0.3-3.3-0.8c-1-0.5-1.7-1.2-2.2-2c-0.5-0.9-0.8-2-0.8-3
					c0-1.1,0.3-2.1,0.8-3c0.5-0.9,1.2-1.6,2.1-2c0.9-0.5,2-0.8,3-0.8c1.1,0,2.1,0.3,3,0.8c0.9,0.5,1.6,1.2,2,2
					c0.5,0.9,0.8,2,0.8,3.1C206.7,175.2,206.7,175.5,206.7,175.8z M198.8,172c-0.6,0.5-1,1.2-1.1,2h6.5c-0.1-0.9-0.5-1.5-1.1-2
					c-0.6-0.5-1.3-0.8-2.1-0.8C200.1,171.2,199.4,171.5,198.8,172z"/>
				<path class="st0" d="M216.5,169.1v2.5c-0.2,0-0.4-0.1-0.6-0.1c-1.1,0-1.9,0.3-2.4,0.9c-0.6,0.6-0.9,1.5-0.9,2.6v5.6h-2.7v-11.4
					h2.5v1.7C213.2,169.7,214.5,169.1,216.5,169.1z"/>
				<path class="st0" d="M227.5,170.4c0.9,0.8,1.4,2,1.4,3.7v6.7h-2.5v-1.4c-0.3,0.5-0.8,0.9-1.4,1.2s-1.4,0.4-2.2,0.4
					s-1.7-0.2-2.2-0.5c-0.7-0.3-1.2-0.7-1.5-1.3c-0.3-0.6-0.5-1.1-0.5-1.8c0-1.1,0.4-1.9,1.2-2.4c0.8-0.6,2-1,3.6-1h2.9v-0.2
					c0-0.8-0.2-1.5-0.7-1.9c-0.5-0.4-1.2-0.7-2.1-0.7c-0.7,0-1.3,0.1-1.9,0.3c-0.6,0.2-1.2,0.5-1.6,0.9l-1.1-2
					c0.6-0.5,1.4-0.8,2.1-1.1c0.9-0.2,1.8-0.4,2.7-0.4C225.3,169.1,226.6,169.5,227.5,170.4z M225.1,178.4c0.5-0.3,0.9-0.8,1.1-1.4
					v-1.4h-2.7c-1.6,0-2.3,0.5-2.3,1.6c0,0.5,0.2,0.9,0.6,1.2c0.4,0.3,0.9,0.4,1.6,0.4C223.9,178.9,224.5,178.7,225.1,178.4z"/>
				<path class="st0" d="M239.4,169.1v2.5c-0.2,0-0.4-0.1-0.6-0.1c-1.1,0-1.9,0.3-2.4,0.9c-0.6,0.6-0.9,1.5-0.9,2.6v5.6h-2.7v-11.4
					h2.5v1.7C236.1,169.7,237.5,169.1,239.4,169.1z"/>
				<path class="st0" d="M251.6,169.9c0.9,0.5,1.6,1.2,2,2c0.5,0.9,0.8,2,0.8,3c0,1.2-0.3,2.1-0.8,3.1c-0.5,1-1.2,1.6-2,2
					c-0.9,0.5-1.9,0.7-3,0.7c-0.8,0-1.5-0.1-2.1-0.4c-0.7-0.3-1.2-0.7-1.7-1.3v1.5h-2.5v-15.9h2.7v5.9c0.5-0.5,1-0.9,1.7-1.2
					c0.6-0.3,1.3-0.4,2-0.4C249.8,169.1,250.7,169.4,251.6,169.9z M250.7,177.6c0.7-0.7,1-1.6,1-2.6s-0.3-2-1-2.6s-1.5-1-2.4-1
					c-0.7,0-1.3,0.2-1.8,0.5c-0.5,0.3-0.9,0.7-1.3,1.3c-0.3,0.6-0.5,1.2-0.5,1.9s0.2,1.4,0.5,1.9c0.3,0.6,0.7,1,1.3,1.3
					c0.5,0.3,1.1,0.5,1.8,0.5C249.3,178.5,250.1,178.3,250.7,177.6z"/>
				<path class="st0" d="M268.3,175.8h-9c0.2,0.9,0.6,1.6,1.3,2c0.7,0.5,1.5,0.8,2.4,0.8c1.3,0,2.3-0.4,3.1-1.3l1.5,1.7
					c-0.5,0.6-1.2,1.1-2,1.4s-1.7,0.5-2.6,0.5c-1.3,0-2.3-0.3-3.3-0.8c-1-0.5-1.7-1.2-2.2-2c-0.5-0.9-0.8-2-0.8-3
					c0-1.1,0.3-2.1,0.8-3c0.5-0.9,1.2-1.6,2.1-2c0.9-0.5,2-0.8,3-0.8s2.1,0.3,3,0.8c0.9,0.5,1.6,1.2,2,2c0.5,0.9,0.8,2,0.8,3.1
					C268.3,175.2,268.3,175.5,268.3,175.8z M260.3,172c-0.6,0.5-1,1.2-1.1,2h6.5c-0.1-0.9-0.5-1.5-1.1-2c-0.6-0.5-1.3-0.8-2.1-0.8
					C261.7,171.2,260.9,171.5,260.3,172z"/>
				<path class="st0" d="M271.5,166.8c-0.3-0.3-0.5-0.7-0.5-1.2c0-0.5,0.2-0.9,0.5-1.2c0.3-0.3,0.8-0.5,1.3-0.5s0.9,0.2,1.3,0.5
					c0.3,0.3,0.5,0.7,0.5,1.1c0,0.5-0.2,0.9-0.5,1.2c-0.3,0.3-0.8,0.5-1.3,0.5C272.3,167.3,271.9,167.2,271.5,166.8z M271.4,169.3
					h2.7v11.4h-2.7V169.3z"/>
				<path class="st0" d="M285.1,180.1c-0.3,0.3-0.7,0.5-1.2,0.6c-0.5,0.1-0.9,0.2-1.5,0.2c-1.3,0-2.2-0.3-2.9-1
					c-0.7-0.7-1.1-1.7-1.1-2.8v-5.6h-1.9v-2.1h1.9v-2.6h2.7v2.6h3v2.1h-3v5.5c0,0.6,0.1,1,0.4,1.3c0.3,0.3,0.7,0.5,1.2,0.5
					c0.6,0,1.1-0.2,1.5-0.5L285.1,180.1z"/>
				<path class="st0" d="M298.1,175.8h-9c0.2,0.9,0.6,1.6,1.3,2c0.7,0.5,1.5,0.8,2.4,0.8c1.3,0,2.3-0.4,3.1-1.3l1.5,1.7
					c-0.5,0.6-1.2,1.1-2,1.4s-1.7,0.5-2.6,0.5c-1.3,0-2.3-0.3-3.3-0.8c-1-0.5-1.7-1.2-2.2-2c-0.5-0.9-0.8-2-0.8-3
					c0-1.1,0.3-2.1,0.8-3c0.5-0.9,1.2-1.6,2.1-2c0.9-0.5,2-0.8,3-0.8s2.1,0.3,3,0.8c0.9,0.5,1.6,1.2,2,2c0.5,0.9,0.8,2,0.8,3.1
					C298.1,175.2,298.1,175.5,298.1,175.8z M290.1,172c-0.6,0.5-1,1.2-1.1,2h6.5c-0.1-0.9-0.5-1.5-1.1-2c-0.6-0.5-1.3-0.8-2.1-0.8
					S290.8,171.5,290.1,172z"/>
				<path class="st0" d="M311.2,170.4c0.9,0.9,1.3,2,1.3,3.7v6.5h-2.6v-6.2c0-1-0.2-1.8-0.7-2.2c-0.5-0.5-1.2-0.8-2-0.8
					c-1,0-1.8,0.3-2.3,0.9c-0.6,0.6-0.9,1.5-0.9,2.5v5.8h-2.7v-11.4h2.5v1.5c0.5-0.5,1-1,1.7-1.2c0.7-0.3,1.5-0.4,2.2-0.4
					C309.3,169.1,310.3,169.6,311.2,170.4z"/>
				<path class="st0" d="M334.5,180.9l-1.9-1.9c-1.4,1.2-3.1,1.8-5.1,1.8c-1.1,0-2-0.2-2.8-0.5c-0.9-0.4-1.5-0.8-2-1.5
					c-0.5-0.6-0.7-1.3-0.7-2c0-1,0.3-1.8,0.8-2.4c0.6-0.7,1.5-1.4,2.6-2c-0.6-0.6-1.1-1.2-1.3-1.7c-0.3-0.5-0.4-1.1-0.4-1.7
					c0-1.1,0.4-2,1.2-2.5c0.8-0.7,1.9-1,3.1-1c1.2,0,2.1,0.3,2.9,0.9c0.8,0.6,1.1,1.4,1.1,2.4c0,0.8-0.2,1.5-0.7,2s-1.3,1.2-2.3,1.9
					l3.2,3.1c0.4-0.7,0.7-1.6,0.9-2.5l2.1,0.7c-0.3,1.4-0.8,2.4-1.4,3.4l1.9,1.8L334.5,180.9z M331,177.6l-4-3.8
					c-0.9,0.5-1.5,1-1.9,1.4s-0.5,0.9-0.5,1.5s0.3,1.2,0.9,1.6c0.6,0.4,1.3,0.6,2.2,0.6C329,178.7,330.1,178.4,331,177.6z
					 M326.8,167.8c-0.4,0.3-0.5,0.7-0.5,1.2c0,0.4,0.1,0.7,0.3,1c0.2,0.3,0.6,0.7,1.1,1.3c0.9-0.5,1.5-0.9,1.8-1.3
					c0.3-0.4,0.5-0.8,0.5-1.2c0-0.5-0.2-0.8-0.5-1.1c-0.3-0.3-0.8-0.4-1.3-0.4C327.7,167.4,327.2,167.5,326.8,167.8z"/>
				<path class="st0" d="M191.8,203.5h-7.5l-1.5,3.5H180l6.7-15h2.7l6.8,15h-2.9L191.8,203.5z M190.8,201.4l-2.8-6.5l-2.8,6.5H190.8
					z"/>
				<path class="st0" d="M209.3,195.6V207h-2.5v-1.5c-0.4,0.5-1,0.9-1.6,1.2c-0.7,0.3-1.4,0.4-2,0.4c-1.6,0-2.7-0.4-3.6-1.3
					c-0.9-0.9-1.4-2.1-1.4-3.8v-6.5h2.7v6.1c0,1.1,0.2,1.8,0.7,2.3c0.5,0.5,1.2,0.8,2,0.8c1,0,1.8-0.3,2.2-0.9
					c0.6-0.6,0.9-1.5,0.9-2.5v-5.8H209.3z"/>
				<path class="st0" d="M216.3,194.9v0.7h3.1v2.1h-3v9.3h-2.7v-9.3h-1.9v-2.1h1.9v-0.7c0-1.3,0.4-2.2,1.1-2.9
					c0.7-0.7,1.8-1.1,3-1.1c1.1,0,1.9,0.2,2.4,0.6l-0.8,2c-0.5-0.3-1-0.5-1.5-0.5C216.9,193.1,216.3,193.8,216.3,194.9z"/>
				<path class="st0" d="M231.1,196.2c0.9,0.5,1.6,1.2,2,2c0.5,0.9,0.8,2,0.8,3c0,1.2-0.3,2.1-0.8,3.1c-0.5,1-1.2,1.6-2,2
					c-0.9,0.5-1.9,0.7-3,0.7c-0.8,0-1.5-0.1-2.1-0.4c-0.7-0.3-1.2-0.7-1.7-1.3v1.5h-2.5V191h2.7v5.9c0.5-0.5,1-0.9,1.7-1.2
					c0.6-0.3,1.3-0.4,2-0.4C229.3,195.4,230.2,195.7,231.1,196.2z M230.2,203.9c0.7-0.7,1-1.6,1-2.6c0-1.1-0.3-2-1-2.6
					c-0.7-0.7-1.5-1-2.4-1c-0.7,0-1.3,0.2-1.8,0.5c-0.5,0.3-0.9,0.7-1.3,1.3c-0.3,0.6-0.5,1.2-0.5,1.9c0,0.7,0.2,1.4,0.5,1.9
					c0.3,0.6,0.7,1,1.3,1.3c0.5,0.3,1.1,0.5,1.8,0.5C228.8,204.9,229.7,204.6,230.2,203.9z"/>
				<path class="st0" d="M247.8,202.2h-9c0.2,0.9,0.6,1.6,1.3,2c0.7,0.5,1.5,0.8,2.4,0.8c1.3,0,2.3-0.4,3.1-1.3l1.5,1.7
					c-0.5,0.6-1.2,1.1-2,1.4c-0.8,0.3-1.7,0.5-2.6,0.5c-1.3,0-2.3-0.3-3.3-0.8c-1-0.5-1.7-1.2-2.2-2c-0.5-0.9-0.8-2-0.8-3
					c0-1.1,0.3-2.1,0.8-3c0.5-0.9,1.2-1.6,2.1-2c0.9-0.5,2-0.8,3-0.8c1.1,0,2.1,0.3,3,0.8c0.9,0.5,1.6,1.2,2,2
					c0.5,0.9,0.8,2,0.8,3.1C247.8,201.6,247.8,201.9,247.8,202.2z M239.8,198.4c-0.6,0.5-1,1.2-1.1,2h6.5c-0.1-0.9-0.5-1.5-1.1-2
					c-0.6-0.5-1.3-0.8-2.1-0.8C241.2,197.6,240.4,197.9,239.8,198.4z"/>
				<path class="st0" d="M268.6,195.6l-4.2,11.4h-2.5l-2.9-7.9l-3,7.9h-2.6l-4.2-11.4h2.5l3,8.5l3.1-8.5h2.2l3.1,8.5l3.1-8.5H268.6z
					"/>
				<path class="st0" d="M278.8,196.7c0.9,0.8,1.4,2,1.4,3.7v6.7h-2.5v-1.4c-0.3,0.5-0.8,0.9-1.4,1.2c-0.6,0.3-1.4,0.4-2.2,0.4
					c-0.9,0-1.7-0.2-2.2-0.5c-0.7-0.3-1.2-0.7-1.5-1.3c-0.3-0.6-0.5-1.1-0.5-1.8c0-1.1,0.4-1.9,1.2-2.4s2-1,3.6-1h2.9v-0.2
					c0-0.8-0.2-1.5-0.7-1.9s-1.2-0.7-2.1-0.7c-0.7,0-1.3,0.1-1.9,0.3c-0.6,0.2-1.2,0.5-1.6,0.9l-1.1-2c0.6-0.5,1.4-0.8,2.1-1.1
					c0.9-0.2,1.8-0.4,2.7-0.4C276.7,195.4,277.9,195.8,278.8,196.7z M276.4,204.8c0.5-0.3,0.9-0.8,1.1-1.4v-1.4h-2.7
					c-1.6,0-2.3,0.5-2.3,1.6c0,0.5,0.2,0.9,0.6,1.2c0.4,0.3,0.9,0.4,1.6,0.4C275.3,205.3,275.9,205.1,276.4,204.8z"/>
				<path class="st0" d="M294.1,196.7c0.9,0.9,1.3,2,1.3,3.7v6.5h-2.7v-6.2c0-1-0.2-1.8-0.7-2.2c-0.5-0.5-1.2-0.8-2-0.8
					c-1,0-1.8,0.3-2.3,0.9c-0.6,0.6-0.9,1.5-0.9,2.5v5.8H284v-15.9h2.7v5.8c0.5-0.5,1-0.9,1.7-1.1c0.7-0.3,1.4-0.4,2.1-0.4
					C292.1,195.4,293.3,195.9,294.1,196.7z"/>
				<path class="st0" d="M306,195.4v2.5c-0.2,0-0.4-0.1-0.6-0.1c-1.1,0-1.9,0.3-2.4,0.9c-0.6,0.6-0.9,1.5-0.9,2.6v5.6h-2.7v-11.4
					h2.5v1.7C302.7,196,304.1,195.4,306,195.4z"/>
				<path class="st0" d="M319.5,202.2h-9c0.2,0.9,0.6,1.6,1.3,2c0.7,0.5,1.5,0.8,2.4,0.8c1.3,0,2.3-0.4,3.1-1.3l1.5,1.7
					c-0.5,0.6-1.2,1.1-2,1.4c-0.8,0.3-1.7,0.5-2.6,0.5c-1.3,0-2.3-0.3-3.3-0.8c-1-0.5-1.7-1.2-2.2-2c-0.5-0.9-0.8-2-0.8-3
					c0-1.1,0.3-2.1,0.8-3c0.5-0.9,1.2-1.6,2.1-2c0.9-0.5,2-0.8,3-0.8s2.1,0.3,3,0.8c0.9,0.5,1.6,1.2,2,2c0.5,0.9,0.8,2,0.8,3.1
					C319.5,201.6,319.5,201.9,319.5,202.2z M311.5,198.4c-0.6,0.5-1,1.2-1.1,2h6.5c-0.1-0.9-0.5-1.5-1.1-2c-0.6-0.5-1.3-0.8-2.1-0.8
					S312.1,197.9,311.5,198.4z"/>
				<path class="st0" d="M332.6,196.7c0.9,0.9,1.3,2,1.3,3.7v6.5h-2.7v-6.2c0-1-0.2-1.8-0.7-2.2c-0.5-0.5-1.2-0.8-2-0.8
					c-1,0-1.8,0.3-2.3,0.9c-0.6,0.6-0.9,1.5-0.9,2.5v5.8h-2.7v-11.4h2.5v1.5c0.5-0.5,1-1,1.7-1.2c0.7-0.3,1.5-0.4,2.2-0.4
					C330.5,195.4,331.7,195.9,332.6,196.7z"/>
			</g>
		</g>
		<g>
			<polygon id="kommunizieren-kooperieren" class="st5" fill="#00232D" points="503.7,287.7 619.2,220.9 619.2,87.6 503.7,21 388.2,87.6 388.2,220.9 410.4,233.9 			"/>
			<g>
				<g>
					<path class="st0" d="M493.8,110.3l-4.9-7.7c2.5-0.8,4.4-3,4.4-6c0-3.4-2.8-6.2-6.2-6.2s-6.2,2.8-6.2,6.2c0,2.8,1.9,5.1,4.4,6
						l-4.9,7.7c-0.3,0.6-0.6,1.2-0.6,1.9v5.7c0,1.9,1.5,3.3,3.3,3.3h7.4c2,0,3.5-1.6,3.5-3.5v-5.6
						C494.3,111.5,494.1,110.8,493.8,110.3z"/>
					<path class="st0" d="M510.2,110.3l-4.9-7.7c2.5-0.8,4.4-3,4.4-6c0-3.4-2.8-6.2-6.2-6.2s-6.2,2.8-6.2,6.2c0,2.8,1.9,5.1,4.4,6
						l-4.9,7.7c-0.3,0.6-0.6,1.2-0.6,1.9v5.7c0,1.9,1.5,3.3,3.3,3.3h7.4c2,0,3.5-1.6,3.5-3.5v-5.6
						C510.6,111.5,510.4,110.8,510.2,110.3z"/>
					<path class="st0" d="M526.4,110.3l-4.9-7.7c2.5-0.8,4.4-3,4.4-6c0-3.4-2.8-6.2-6.2-6.2c-3.4,0-6.2,2.8-6.2,6.2
						c0,2.8,1.9,5.1,4.4,6l-4.9,7.7c-0.3,0.6-0.6,1.2-0.6,1.9v5.7c0,1.9,1.5,3.3,3.3,3.3h7.4c2,0,3.5-1.6,3.5-3.5v-5.6
						C527,111.5,526.8,110.8,526.4,110.3z"/>
				</g>
				<g>
					<path class="st0" d="M499.5,70.7c0-2.3,0.9-4.5,2.2-6.4c-2.9-1.7-6.4-2.6-10.4-2.6c-9.5,0-17.1,5.6-17.1,12.5
						c0,6.8,7.7,12.5,17.1,12.5c2,0,3.7-0.3,5.6-0.7l4.1,1.9l0.8-3.7c1.7-1,3-2,4.2-3.2C501.8,78.4,499.5,74.6,499.5,70.7z"/>
					<path class="st0" d="M517.6,59.2c-5.8,0-10.7,2.3-13.3,6c-1.2,1.7-2,3.6-2,5.7c0,3.6,2.2,6.8,5.7,8.9c0.2,0.1,0.3,0.2,0.5,0.3
						l0.7,3.4l3.6-1.7c1.6,0.4,3.1,0.7,4.9,0.7c8.4,0,15.2-5.1,15.2-11.5C532.9,64.4,526.1,59.2,517.6,59.2z"/>
				</g>
			</g>
			<g class="st2">
				<path class="st0" d="M415.8,157.6l-2.3,2.4v3.8h-2.8v-15h2.8v7.7l7.4-7.7h3.1l-6.3,6.7l6.7,8.3h-3.2L415.8,157.6z"/>
				<path class="st0" d="M428.1,163.2c-1-0.5-1.7-1.2-2.1-2c-0.5-0.9-0.8-2-0.8-3c0-1.2,0.3-2.1,0.8-3c0.5-0.9,1.3-1.6,2.1-2
					c1-0.5,2-0.8,3.1-0.8s2.2,0.3,3.1,0.8c1,0.5,1.7,1.2,2.1,2c0.5,0.9,0.8,1.9,0.8,3s-0.3,2.1-0.8,3c-0.5,0.9-1.3,1.6-2.1,2
					c-1,0.5-2,0.8-3.1,0.8S429.1,163.7,428.1,163.2z M433.7,160.7c0.7-0.7,1-1.6,1-2.6c0-1.1-0.3-2-1-2.6c-0.7-0.7-1.5-1-2.4-1
					c-1,0-1.8,0.3-2.4,1c-0.7,0.7-1,1.6-1,2.6c0,1.1,0.3,2,1,2.6c0.7,0.7,1.5,1,2.4,1C432.2,161.7,433.1,161.4,433.7,160.7z"/>
				<path class="st0" d="M458.3,153.6c0.9,0.9,1.3,2,1.3,3.8v6.5h-2.7v-6.2c0-1-0.2-1.8-0.7-2.2c-0.5-0.5-1.1-0.8-2-0.8
					c-0.9,0-1.7,0.3-2.1,0.9c-0.6,0.6-0.8,1.5-0.8,2.5v5.9h-2.7v-6.2c0-1-0.2-1.8-0.7-2.2c-0.5-0.5-1.1-0.8-2-0.8
					c-0.9,0-1.7,0.3-2.1,0.9c-0.5,0.6-0.8,1.5-0.8,2.5v5.9h-2.7v-11.4h2.5v1.5c0.4-0.5,1-0.9,1.7-1.2c0.7-0.3,1.4-0.4,2.1-0.4
					c0.9,0,1.7,0.2,2.2,0.5c0.6,0.3,1.2,0.8,1.6,1.5c0.5-0.6,1.1-1.1,1.9-1.4c0.8-0.3,1.6-0.5,2.4-0.5
					C456.4,152.3,457.6,152.7,458.3,153.6z"/>
				<path class="st0" d="M481.5,153.6c0.9,0.9,1.3,2,1.3,3.8v6.5H480v-6.2c0-1-0.2-1.8-0.7-2.2c-0.5-0.5-1.1-0.8-2-0.8
					c-0.9,0-1.7,0.3-2.1,0.9c-0.6,0.6-0.8,1.5-0.8,2.5v5.9h-2.7v-6.2c0-1-0.2-1.8-0.7-2.2c-0.5-0.5-1.1-0.8-2-0.8
					c-0.9,0-1.7,0.3-2.1,0.9s-0.8,1.5-0.8,2.5v5.9h-2.7v-11.4h2.5v1.5c0.4-0.5,1-0.9,1.7-1.2c0.7-0.3,1.4-0.4,2.1-0.4
					c0.9,0,1.7,0.2,2.2,0.5c0.6,0.3,1.2,0.8,1.6,1.5c0.5-0.6,1.1-1.1,1.9-1.4c0.8-0.3,1.6-0.5,2.4-0.5
					C479.5,152.3,480.7,152.7,481.5,153.6z"/>
				<path class="st0" d="M497.9,152.4v11.5h-2.5v-1.5c-0.4,0.5-1,0.9-1.7,1.2s-1.4,0.4-2,0.4c-1.6,0-2.7-0.4-3.6-1.3
					c-0.9-0.9-1.4-2.1-1.4-3.8v-6.5h2.7v6.1c0,1.1,0.2,1.8,0.7,2.3c0.5,0.5,1.2,0.8,2,0.8c1,0,1.8-0.3,2.2-0.9
					c0.6-0.6,0.9-1.5,0.9-2.5v-5.8L497.9,152.4L497.9,152.4z"/>
				<path class="st0" d="M511.9,153.6c0.9,0.9,1.3,2,1.3,3.7v6.5h-2.7v-6.2c0-1-0.2-1.8-0.7-2.2c-0.5-0.5-1.2-0.8-2-0.8
					c-1,0-1.8,0.3-2.3,0.9c-0.6,0.6-0.9,1.5-0.9,2.5v5.8h-2.7v-11.4h2.5v1.5c0.5-0.5,1-1,1.7-1.2c0.7-0.2,1.5-0.4,2.2-0.4
					C509.9,152.3,511,152.7,511.9,153.6z"/>
				<path class="st0" d="M517.3,150.1c-0.3-0.3-0.5-0.7-0.5-1.2c0-0.5,0.2-0.9,0.5-1.2c0.3-0.3,0.8-0.5,1.3-0.5s0.9,0.2,1.3,0.5
					c0.3,0.3,0.5,0.7,0.5,1.1c0,0.5-0.2,0.9-0.5,1.2c-0.3,0.3-0.8,0.5-1.3,0.5C518,150.5,517.6,150.3,517.3,150.1z M517.2,152.4h2.7
					v11.5h-2.7V152.4z"/>
				<path class="st0" d="M532.8,161.8v2.1h-9.9v-1.7l6.2-7.6H523v-2.1h9.6v1.7l-6.3,7.6H532.8z"/>
				<path class="st0" d="M536,150.1c-0.3-0.3-0.5-0.7-0.5-1.2c0-0.5,0.2-0.9,0.5-1.2c0.3-0.3,0.8-0.5,1.3-0.5c0.5,0,0.9,0.2,1.3,0.5
					c0.3,0.3,0.5,0.7,0.5,1.1c0,0.5-0.2,0.9-0.5,1.2c-0.3,0.3-0.8,0.5-1.3,0.5C536.7,150.5,536.3,150.3,536,150.1z M535.8,152.4h2.7
					v11.5h-2.7V152.4z"/>
				<path class="st0" d="M553.3,159h-9c0.2,0.9,0.6,1.6,1.3,2c0.7,0.5,1.5,0.8,2.4,0.8c1.3,0,2.3-0.4,3.1-1.3l1.5,1.7
					c-0.5,0.6-1.2,1.1-2,1.4c-0.8,0.3-1.7,0.5-2.6,0.5c-1.3,0-2.3-0.3-3.3-0.8c-1-0.5-1.7-1.2-2.2-2c-0.6-0.9-0.8-2-0.8-3
					c0-1.1,0.3-2.1,0.8-3c0.5-0.9,1.2-1.6,2.1-2c0.9-0.5,2-0.8,3-0.8c1.1,0,2.1,0.3,3,0.8c0.9,0.5,1.6,1.2,2,2
					c0.5,0.9,0.8,2,0.8,3.1C553.4,158.4,553.4,158.6,553.3,159z M545.4,155.2c-0.6,0.5-1,1.2-1.1,2h6.5c-0.1-0.9-0.5-1.5-1.1-2
					c-0.6-0.5-1.3-0.8-2.1-0.8S546,154.6,545.4,155.2z"/>
				<path class="st0" d="M563.1,152.3v2.5c-0.2,0-0.4-0.1-0.6-0.1c-1.1,0-1.9,0.3-2.4,0.9c-0.6,0.6-0.9,1.5-0.9,2.6v5.6h-2.7v-11.4
					h2.5v1.7C559.8,152.9,561.2,152.3,563.1,152.3z"/>
				<path class="st0" d="M576.5,159h-9c0.2,0.9,0.6,1.6,1.3,2c0.7,0.5,1.5,0.8,2.4,0.8c1.3,0,2.3-0.4,3.1-1.3l1.5,1.7
					c-0.5,0.6-1.2,1.1-2,1.4s-1.7,0.5-2.6,0.5c-1.3,0-2.3-0.3-3.3-0.8c-1-0.5-1.7-1.2-2.2-2c-0.5-0.9-0.8-2-0.8-3
					c0-1.1,0.3-2.1,0.8-3c0.5-0.9,1.2-1.6,2.1-2c0.9-0.5,2-0.8,3-0.8c1.1,0,2.1,0.3,3,0.8c0.9,0.5,1.6,1.2,2,2
					c0.5,0.9,0.8,2,0.8,3.1C576.6,158.4,576.6,158.6,576.5,159z M568.6,155.2c-0.6,0.5-1,1.2-1.1,2h6.5c-0.1-0.9-0.5-1.5-1.1-2
					c-0.6-0.5-1.3-0.8-2.1-0.8C570,154.4,569.2,154.6,568.6,155.2z"/>
				<path class="st0" d="M589.7,153.6c0.9,0.9,1.3,2,1.3,3.7v6.5h-2.7v-6.2c0-1-0.2-1.8-0.7-2.2c-0.5-0.5-1.2-0.8-2-0.8
					c-1,0-1.8,0.3-2.3,0.9c-0.6,0.6-0.9,1.5-0.9,2.5v5.8h-2.7v-11.4h2.5v1.5c0.5-0.5,1-1,1.7-1.2c0.7-0.3,1.5-0.4,2.2-0.4
					C587.6,152.3,588.8,152.7,589.7,153.6z"/>
				<path class="st0" d="M432,190.4l-1.9-1.9c-1.4,1.2-3.1,1.8-5.1,1.8c-1.1,0-2-0.2-2.8-0.5c-0.9-0.4-1.5-0.8-2-1.5
					c-0.5-0.6-0.7-1.3-0.7-2c0-1,0.3-1.8,0.8-2.4c0.6-0.7,1.5-1.4,2.6-2c-0.6-0.6-1.1-1.2-1.3-1.7c-0.3-0.5-0.4-1.1-0.4-1.7
					c0-1.1,0.4-2,1.2-2.5c0.8-0.7,1.9-1,3.1-1c1.2,0,2.1,0.3,2.9,0.9s1.1,1.4,1.1,2.4c0,0.8-0.2,1.5-0.7,2c-0.5,0.6-1.3,1.2-2.3,1.9
					l3.2,3.1c0.4-0.7,0.7-1.6,0.9-2.5l2.1,0.7c-0.3,1.4-0.8,2.4-1.4,3.4l1.9,1.8L432,190.4z M428.6,187.1l-4-3.8
					c-0.9,0.5-1.5,1-1.9,1.4s-0.5,0.9-0.5,1.5c0,0.6,0.3,1.2,0.9,1.6c0.6,0.4,1.3,0.6,2.2,0.6C426.5,188.2,427.6,187.8,428.6,187.1z
					 M424.4,177.4c-0.4,0.3-0.5,0.7-0.5,1.2c0,0.4,0.1,0.7,0.3,1c0.2,0.3,0.6,0.7,1.1,1.3c0.9-0.5,1.5-0.9,1.8-1.3s0.5-0.8,0.5-1.2
					c0-0.5-0.2-0.8-0.5-1.1c-0.3-0.3-0.8-0.4-1.3-0.4C425.2,176.9,424.8,177.1,424.4,177.4z"/>
				<path class="st0" d="M448.1,183.9l-2.3,2.4v3.8h-2.8v-15h2.8v7.7l7.4-7.7h3.1l-6.3,6.7l6.7,8.3h-3.2L448.1,183.9z"/>
				<path class="st0" d="M460.4,189.6c-1-0.5-1.7-1.2-2.1-2c-0.5-0.9-0.8-2-0.8-3c0-1.2,0.3-2.1,0.8-3c0.5-0.9,1.3-1.6,2.1-2
					c1-0.5,2-0.8,3.1-0.8s2.2,0.3,3.1,0.8c1,0.5,1.7,1.2,2.1,2c0.5,0.9,0.8,1.9,0.8,3s-0.3,2.1-0.8,3c-0.5,0.9-1.3,1.6-2.1,2
					c-1,0.5-2,0.8-3.1,0.8S461.3,190.1,460.4,189.6z M466,187c0.7-0.7,1-1.6,1-2.6c0-1.1-0.3-2-1-2.6c-0.7-0.7-1.5-1-2.4-1
					s-1.8,0.3-2.4,1c-0.7,0.7-1,1.6-1,2.6c0,1.1,0.3,2,1,2.6c0.7,0.7,1.5,1,2.4,1C464.5,188.1,465.3,187.7,466,187z"/>
				<path class="st0" d="M474.7,189.6c-1-0.5-1.7-1.2-2.1-2c-0.5-0.9-0.8-2-0.8-3c0-1.2,0.3-2.1,0.8-3c0.5-0.9,1.3-1.6,2.1-2
					c1-0.5,2-0.8,3.1-0.8s2.2,0.3,3.1,0.8c1,0.5,1.7,1.2,2.1,2c0.5,0.9,0.8,1.9,0.8,3s-0.3,2.1-0.8,3c-0.5,0.9-1.3,1.6-2.1,2
					c-1,0.5-2,0.8-3.1,0.8S475.7,190.1,474.7,189.6z M480.3,187c0.7-0.7,1-1.6,1-2.6c0-1.1-0.3-2-1-2.6c-0.7-0.7-1.5-1-2.4-1
					s-1.8,0.3-2.4,1c-0.7,0.7-1,1.6-1,2.6c0,1.1,0.3,2,1,2.6c0.7,0.7,1.5,1,2.4,1C478.8,188.1,479.7,187.7,480.3,187z"/>
				<path class="st0" d="M496.5,179.3c0.9,0.5,1.6,1.2,2,2c0.5,0.9,0.8,2,0.8,3c0,1.2-0.3,2.1-0.8,3.1c-0.5,0.9-1.2,1.6-2,2
					c-0.9,0.5-1.9,0.7-3,0.7c-1.6,0-2.7-0.5-3.7-1.6v5.6H487v-15.6h2.5v1.5c0.5-0.6,1-1,1.7-1.3c0.7-0.3,1.4-0.4,2.1-0.4
					C494.5,178.6,495.6,178.8,496.5,179.3z M495.6,187c0.7-0.7,1-1.6,1-2.6c0-1.1-0.3-2-1-2.6c-0.7-0.7-1.5-1-2.4-1
					c-0.7,0-1.3,0.2-1.8,0.5c-0.5,0.3-0.9,0.7-1.3,1.3c-0.3,0.6-0.5,1.2-0.5,1.9c0,0.7,0.2,1.4,0.5,1.9c0.3,0.6,0.7,1,1.3,1.3
					c0.5,0.3,1.1,0.5,1.8,0.5C494.2,188.1,494.9,187.7,495.6,187z"/>
				<path class="st0" d="M513.1,185.4h-9c0.2,0.9,0.6,1.6,1.3,2c0.7,0.5,1.5,0.8,2.4,0.8c1.3,0,2.3-0.4,3.1-1.3l1.5,1.7
					c-0.5,0.6-1.2,1.1-2,1.4c-0.8,0.3-1.7,0.5-2.6,0.5c-1.3,0-2.3-0.3-3.3-0.8c-1-0.5-1.7-1.2-2.2-2c-0.5-0.9-0.8-2-0.8-3
					c0-1.1,0.3-2.1,0.8-3c0.5-0.9,1.2-1.6,2.1-2c0.9-0.5,2-0.8,3-0.8c1.1,0,2.1,0.3,3,0.8c0.9,0.5,1.6,1.2,2,2
					c0.5,0.9,0.8,2,0.8,3.1C513.2,184.7,513.2,185,513.1,185.4z M505.2,181.6c-0.6,0.5-1,1.2-1.1,2h6.5c-0.1-0.9-0.5-1.5-1.1-2
					c-0.6-0.5-1.3-0.8-2.1-0.8C506.5,180.8,505.8,181,505.2,181.6z"/>
				<path class="st0" d="M522.9,178.6v2.5c-0.2,0-0.4-0.1-0.6-0.1c-1.1,0-1.9,0.3-2.4,0.9s-0.9,1.5-0.9,2.6v5.6h-2.7v-11.4h2.5v1.7
					C519.6,179.2,521,178.6,522.9,178.6z"/>
				<path class="st0" d="M525.9,176.4c-0.3-0.3-0.5-0.7-0.5-1.2c0-0.5,0.2-0.9,0.5-1.2c0.3-0.3,0.8-0.5,1.3-0.5
					c0.5,0,0.9,0.2,1.3,0.5c0.3,0.3,0.5,0.7,0.5,1.1c0,0.5-0.2,0.9-0.5,1.2c-0.3,0.3-0.8,0.5-1.3,0.5
					C526.5,176.9,526.2,176.7,525.9,176.4z M525.7,178.7h2.7v11.5h-2.7V178.7z"/>
				<path class="st0" d="M543.2,185.4h-9c0.2,0.9,0.6,1.6,1.3,2c0.7,0.5,1.5,0.8,2.4,0.8c1.3,0,2.3-0.4,3.1-1.3l1.5,1.7
					c-0.5,0.6-1.2,1.1-2,1.4c-0.8,0.3-1.7,0.5-2.6,0.5c-1.3,0-2.3-0.3-3.3-0.8c-1-0.5-1.7-1.2-2.2-2c-0.6-0.9-0.8-2-0.8-3
					c0-1.1,0.3-2.1,0.8-3c0.5-0.9,1.2-1.6,2.1-2c0.9-0.5,2-0.8,3-0.8c1.1,0,2.1,0.3,3,0.8c0.9,0.5,1.6,1.2,2,2
					c0.5,0.9,0.8,2,0.8,3.1C543.2,184.7,543.2,185,543.2,185.4z M535.2,181.6c-0.6,0.5-1,1.2-1.1,2h6.5c-0.1-0.9-0.5-1.5-1.1-2
					c-0.6-0.5-1.3-0.8-2.1-0.8S535.8,181,535.2,181.6z"/>
				<path class="st0" d="M553,178.6v2.5c-0.2,0-0.4-0.1-0.6-0.1c-1.1,0-1.9,0.3-2.4,0.9c-0.6,0.6-0.9,1.5-0.9,2.6v5.6h-2.7v-11.4
					h2.5v1.7C549.7,179.2,551,178.6,553,178.6z"/>
				<path class="st0" d="M566.5,185.4h-9c0.2,0.9,0.6,1.6,1.3,2c0.7,0.5,1.5,0.8,2.4,0.8c1.3,0,2.3-0.4,3.1-1.3l1.5,1.7
					c-0.5,0.6-1.2,1.1-2,1.4c-0.8,0.3-1.7,0.5-2.6,0.5c-1.3,0-2.3-0.3-3.3-0.8c-1-0.5-1.7-1.2-2.2-2c-0.6-0.9-0.8-2-0.8-3
					c0-1.1,0.3-2.1,0.8-3c0.5-0.9,1.2-1.6,2.1-2c0.9-0.5,2-0.8,3-0.8s2.1,0.3,3,0.8c0.9,0.5,1.6,1.2,2,2c0.5,0.9,0.8,2,0.8,3.1
					C566.5,184.7,566.5,185,566.5,185.4z M558.5,181.6c-0.6,0.5-1,1.2-1.1,2h6.5c-0.1-0.9-0.5-1.5-1.1-2c-0.6-0.5-1.3-0.8-2.1-0.8
					S559,181,558.5,181.6z"/>
				<path class="st0" d="M579.5,179.9c0.9,0.9,1.3,2,1.3,3.7v6.5h-2.7v-6.2c0-1-0.2-1.8-0.7-2.2c-0.5-0.5-1.2-0.8-2-0.8
					c-1,0-1.8,0.3-2.3,0.9s-0.9,1.5-0.9,2.5v5.8h-2.7v-11.4h2.5v1.5c0.5-0.5,1-1,1.7-1.2c0.7-0.3,1.5-0.4,2.2-0.4
					C577.5,178.6,578.6,179,579.5,179.9z"/>
			</g>
		</g>
		<g>
			<polygon id="analysieren-reflektieren" class="st5" fill="#00232D" points="138.9,231.6 23.4,298.3 23.4,431.6 132.6,494.7 138.9,498.3 254.4,431.6 254.4,298.3
				"/>
			<path class="st0" d="M160.6,282.2c-5.1-10.8-17.8-12-25.6-10.6c-7.6,1.2-12.6,5.8-14.9,9.7c-2.3,3.9-2.9,9.2-2.8,11
				c0.2,1.3,1.7,5.3,0.5,6.4c-1.4,1.5-6.8,5.4-5.5,6.9c1.3,1.5,2.9,1.1,2.8,2.3c-0.2,1.3-1.5,1.4-1,2.8c0.6,1.5,1.4,1.6,1.4,1.6
				s-1.2,1.5-0.6,2.3c0.7,0.8,2.5,1,2.1,2c-0.4,1-2.1,3.4-0.3,5.9c1.9,2.4,11,1.5,11,1.5l-0.6,8.7h25.1c0-4.2-0.4-6.8,0-11.6
				c0.5-5.4,1.2-5.7,4.5-9.7C160.4,307.2,165.6,293,160.6,282.2z M142.3,280.2l-1.3,19h-4l-1.3-19H142.3z M141.3,306.5
				c-0.7,0.7-1.4,1-2.4,1c-1,0-1.8-0.3-2.4-1c-0.7-0.7-1-1.4-1-2.2c0-1,0.3-1.6,1-2.2c0.7-0.7,1.4-1,2.4-1c1.1,0,1.8,0.3,2.4,1
				c0.7,0.6,1,1.3,1,2.2C142.3,305.2,141.9,305.9,141.3,306.5z"/>
			<g class="st2">
				<path class="st0" d="M79.9,369.3h-7.5l-1.5,3.5h-2.8l6.7-15h2.7l6.8,15h-2.9L79.9,369.3z M78.9,367.1l-2.8-6.5l-2.8,6.5H78.9z"
					/>
				<path class="st0" d="M96.5,362.5c0.9,0.9,1.3,2,1.3,3.7v6.5H95v-6.2c0-1-0.2-1.8-0.7-2.2s-1.2-0.8-2-0.8c-1,0-1.8,0.3-2.3,0.9
					c-0.6,0.6-0.9,1.5-0.9,2.5v5.8h-2.6v-11.4H89v1.5c0.5-0.5,1-1,1.7-1.2c0.7-0.2,1.5-0.4,2.2-0.4
					C94.4,361.2,95.6,361.7,96.5,362.5z"/>
				<path class="st0" d="M109.9,362.5c0.9,0.8,1.4,2,1.4,3.7v6.7h-2.5v-1.4c-0.3,0.5-0.8,0.9-1.4,1.2c-0.6,0.3-1.4,0.4-2.2,0.4
					c-0.9,0-1.7-0.2-2.2-0.5c-0.7-0.3-1.2-0.7-1.5-1.3s-0.5-1.1-0.5-1.8c0-1.1,0.4-1.9,1.2-2.4c0.8-0.6,2-1,3.6-1h2.9V366
					c0-0.8-0.2-1.5-0.7-1.9s-1.2-0.7-2.1-0.7c-0.7,0-1.3,0.1-1.9,0.3c-0.6,0.2-1.2,0.5-1.6,0.9l-1.1-2c0.6-0.5,1.4-0.8,2.1-1.1
					c0.9-0.2,1.8-0.4,2.7-0.4C107.8,361.2,109.1,361.6,109.9,362.5z M107.5,370.6c0.5-0.3,0.9-0.8,1.1-1.4v-1.4h-2.7
					c-1.6,0-2.3,0.5-2.3,1.6c0,0.5,0.2,0.9,0.6,1.2c0.4,0.3,0.9,0.4,1.7,0.4C106.4,371,107,370.9,107.5,370.6z"/>
				<path class="st0" d="M115.3,356.9h2.7v15.9h-2.7V356.9z"/>
				<path class="st0" d="M132.8,361.4l-5.4,12.4c-0.5,1.3-1.1,2.1-1.9,2.6c-0.8,0.5-1.6,0.8-2.6,0.8c-0.6,0-1.2-0.1-1.7-0.3
					c-0.6-0.2-1-0.5-1.4-0.8l1.1-2c0.3,0.2,0.6,0.4,0.9,0.6c0.4,0.1,0.7,0.2,1.1,0.2c0.5,0,0.9-0.1,1.2-0.4c0.3-0.2,0.6-0.7,0.9-1.3
					l0.2-0.5l-5-11.5h2.8l3.6,8.5l3.6-8.5L132.8,361.4L132.8,361.4z"/>
				<path class="st0" d="M135.6,372.6c-0.9-0.2-1.6-0.6-2.1-0.9l1.1-2c0.5,0.4,1.2,0.6,1.9,0.8c0.7,0.2,1.5,0.3,2.1,0.3
					c1.6,0,2.4-0.4,2.4-1.3c0-0.4-0.2-0.7-0.6-0.9c-0.4-0.2-1.1-0.3-2-0.5c-1-0.1-1.8-0.3-2.3-0.5c-0.6-0.2-1.1-0.5-1.6-1
					c-0.5-0.5-0.7-1.1-0.7-2c0-1.1,0.5-2,1.4-2.6c0.9-0.7,2.1-1,3.7-1c0.8,0,1.6,0.1,2.3,0.3c0.8,0.2,1.5,0.4,2,0.7l-1.1,2
					c-1-0.6-2-0.9-3.3-0.9c-0.8,0-1.4,0.1-1.8,0.4c-0.4,0.3-0.6,0.6-0.6,1s0.2,0.8,0.7,0.9c0.4,0.2,1.1,0.4,2,0.5
					c0.9,0.1,1.7,0.3,2.2,0.5c0.6,0.2,1.1,0.5,1.6,1c0.4,0.5,0.6,1.1,0.6,1.9c0,1.1-0.5,2-1.4,2.5c-0.9,0.6-2.2,1-3.8,1
					C137.5,373,136.5,372.8,135.6,372.6z"/>
				<path class="st0" d="M146.5,359c-0.3-0.3-0.5-0.7-0.5-1.2c0-0.5,0.2-0.9,0.5-1.2c0.3-0.3,0.8-0.5,1.3-0.5s0.9,0.2,1.3,0.5
					c0.3,0.3,0.5,0.7,0.5,1.1c0,0.5-0.2,0.9-0.5,1.2c-0.3,0.3-0.8,0.5-1.3,0.5C147.2,359.4,146.8,359.3,146.5,359z M146.4,361.4h2.7
					v11.4h-2.7V361.4z"/>
				<path class="st0" d="M163.9,367.9h-9c0.2,0.9,0.6,1.6,1.3,2c0.7,0.5,1.5,0.8,2.4,0.8c1.3,0,2.3-0.4,3.1-1.3l1.5,1.7
					c-0.5,0.6-1.2,1.1-2,1.4c-0.8,0.3-1.7,0.5-2.6,0.5c-1.3,0-2.3-0.3-3.3-0.8c-1-0.5-1.7-1.2-2.2-2c-0.6-0.9-0.8-2-0.8-3
					s0.3-2.1,0.8-3c0.5-0.9,1.2-1.6,2.1-2c0.9-0.5,2-0.8,3-0.8c1.1,0,2.1,0.3,3,0.8c0.9,0.5,1.6,1.2,2,2c0.5,0.9,0.8,2,0.8,3.1
					C163.9,367.3,163.9,367.6,163.9,367.9z M155.9,364.1c-0.6,0.5-1,1.2-1.1,2h6.5c-0.1-0.9-0.5-1.5-1.1-2c-0.6-0.5-1.3-0.8-2.1-0.8
					C157.3,363.3,156.5,363.6,155.9,364.1z"/>
				<path class="st0" d="M173.6,361.2v2.5c-0.2,0-0.4-0.1-0.6-0.1c-1.1,0-1.9,0.3-2.4,0.9c-0.6,0.6-0.9,1.5-0.9,2.6v5.6H167v-11.4
					h2.5v1.7C170.3,361.8,171.7,361.2,173.6,361.2z"/>
				<path class="st0" d="M187.1,367.9h-9c0.2,0.9,0.6,1.6,1.3,2c0.7,0.5,1.5,0.8,2.4,0.8c1.3,0,2.3-0.4,3.1-1.3l1.5,1.7
					c-0.5,0.6-1.2,1.1-2,1.4c-0.8,0.3-1.7,0.5-2.6,0.5c-1.3,0-2.3-0.3-3.3-0.8c-1-0.5-1.7-1.2-2.2-2c-0.5-0.9-0.8-2-0.8-3
					s0.3-2.1,0.8-3c0.5-0.9,1.2-1.6,2.1-2c0.9-0.5,2-0.8,3-0.8c1.1,0,2.1,0.3,3,0.8c0.9,0.5,1.6,1.2,2,2c0.5,0.9,0.8,2,0.8,3.1
					C187.1,367.3,187.1,367.6,187.1,367.9z M179.1,364.1c-0.6,0.5-1,1.2-1.1,2h6.5c-0.1-0.9-0.5-1.5-1.1-2c-0.6-0.5-1.3-0.8-2.1-0.8
					C180.5,363.3,179.8,363.6,179.1,364.1z"/>
				<path class="st0" d="M200.2,362.5c0.9,0.9,1.3,2,1.3,3.7v6.5h-2.7v-6.2c0-1-0.2-1.8-0.7-2.2c-0.5-0.5-1.2-0.8-2-0.8
					c-1,0-1.8,0.3-2.3,0.9c-0.6,0.6-0.9,1.5-0.9,2.5v5.8H190v-11.4h2.5v1.5c0.5-0.5,1-1,1.7-1.2c0.7-0.2,1.5-0.4,2.2-0.4
					C198.2,361.2,199.3,361.7,200.2,362.5z"/>
				<path class="st0" d="M67.3,399.4l-1.9-1.9c-1.4,1.2-3.1,1.8-5.1,1.8c-1.1,0-2-0.2-2.8-0.5c-0.9-0.4-1.5-0.8-2-1.5
					c-0.5-0.6-0.7-1.3-0.7-2c0-1,0.3-1.8,0.8-2.4c0.6-0.7,1.5-1.4,2.6-2c-0.6-0.6-1.1-1.2-1.3-1.7c-0.3-0.5-0.4-1.1-0.4-1.7
					c0-1.1,0.4-2,1.2-2.5c0.8-0.7,1.9-1,3.1-1c1.2,0,2.1,0.3,2.9,0.9c0.8,0.6,1.1,1.4,1.1,2.4c0,0.8-0.2,1.5-0.7,2
					c-0.5,0.6-1.3,1.2-2.3,1.9l3.2,3.1c0.4-0.7,0.7-1.6,0.9-2.5l2.1,0.7c-0.3,1.4-0.8,2.4-1.4,3.4l1.9,1.8L67.3,399.4z M63.9,396
					l-4-3.8c-0.9,0.5-1.5,1-1.9,1.4c-0.4,0.4-0.5,0.9-0.5,1.5c0,0.6,0.3,1.2,0.9,1.6c0.6,0.4,1.3,0.6,2.2,0.6
					C61.8,397.2,62.9,396.8,63.9,396z M59.7,386.3c-0.4,0.3-0.5,0.7-0.5,1.2c0,0.4,0.1,0.7,0.3,1c0.2,0.3,0.6,0.7,1.1,1.3
					c0.9-0.5,1.5-0.9,1.8-1.3c0.3-0.4,0.5-0.8,0.5-1.2c0-0.5-0.2-0.8-0.5-1.1c-0.3-0.3-0.8-0.4-1.3-0.4
					C60.5,385.9,60,386,59.7,386.3z"/>
				<path class="st0" d="M88.1,399.1l-3-4.4c-0.1,0-0.3,0-0.6,0h-3.4v4.4h-2.8v-15h6.1c1.3,0,2.4,0.2,3.4,0.7c1,0.4,1.7,1.1,2.2,1.9
					c0.5,0.8,0.8,1.8,0.8,2.8c0,1.2-0.3,2.1-0.8,2.9s-1.4,1.5-2.3,1.9l3.4,5L88.1,399.1C88.1,399.2,88.1,399.1,88.1,399.1z
					 M87,387.2c-0.6-0.5-1.6-0.8-2.7-0.8h-3.2v6h3.2c1.2,0,2.1-0.3,2.7-0.8c0.6-0.5,1-1.3,1-2.2C88,388.4,87.7,387.8,87,387.2z"/>
				<path class="st0" d="M104.9,394.3h-9c0.2,0.9,0.6,1.6,1.3,2s1.5,0.8,2.4,0.8c1.3,0,2.3-0.4,3.1-1.3l1.5,1.7
					c-0.5,0.6-1.2,1.1-2,1.4c-0.8,0.3-1.7,0.5-2.6,0.5c-1.3,0-2.3-0.3-3.3-0.8c-1-0.5-1.7-1.2-2.2-2c-0.6-0.9-0.8-2-0.8-3
					s0.3-2.1,0.8-3c0.5-0.9,1.2-1.6,2.1-2c0.9-0.5,2-0.8,3-0.8c1.1,0,2.1,0.3,3,0.8c0.9,0.5,1.6,1.2,2,2c0.5,0.9,0.8,2,0.8,3.1
					C105,393.7,105,394,104.9,394.3z M97,390.5c-0.6,0.5-1,1.2-1.1,2h6.5c-0.1-0.9-0.5-1.5-1.1-2c-0.6-0.5-1.3-0.8-2.1-0.8
					C98.3,389.7,97.5,390,97,390.5z"/>
				<path class="st0" d="M111,387v0.7h3.1v2.1h-3v9.3h-2.7v-9.3h-1.9v-2.1h1.9V387c0-1.3,0.4-2.2,1.1-2.9c0.7-0.7,1.8-1.1,3-1.1
					c1.1,0,1.9,0.2,2.4,0.6l-0.8,2c-0.5-0.3-1-0.5-1.5-0.5C111.6,385.3,111,385.9,111,387z M116,383.2h2.7v15.9H116V383.2z"/>
				<path class="st0" d="M133.5,394.3h-9c0.2,0.9,0.6,1.6,1.3,2c0.7,0.5,1.5,0.8,2.4,0.8c1.3,0,2.3-0.4,3.1-1.3l1.5,1.7
					c-0.5,0.6-1.2,1.1-2,1.4s-1.7,0.5-2.6,0.5c-1.3,0-2.3-0.3-3.3-0.8c-1-0.5-1.7-1.2-2.2-2c-0.5-0.9-0.8-2-0.8-3s0.3-2.1,0.8-3
					c0.5-0.9,1.2-1.6,2.1-2c0.9-0.5,2-0.8,3-0.8s2.1,0.3,3,0.8c0.9,0.5,1.6,1.2,2,2c0.5,0.9,0.8,2,0.8,3.1
					C133.5,393.7,133.5,394,133.5,394.3z M125.5,390.5c-0.6,0.5-1,1.2-1.1,2h6.5c-0.1-0.9-0.5-1.5-1.1-2c-0.6-0.5-1.3-0.8-2.1-0.8
					C126.8,389.7,126.1,390,125.5,390.5z"/>
				<path class="st0" d="M141.3,394.3l-2,1.9v3h-2.7v-15.9h2.7v9.7l5.6-5.2h3.2l-4.8,4.8l5.3,6.6h-3.2L141.3,394.3z"/>
				<path class="st0" d="M157.6,398.6c-0.3,0.3-0.7,0.5-1.2,0.6c-0.5,0.1-0.9,0.2-1.5,0.2c-1.3,0-2.2-0.3-2.9-1
					c-0.7-0.7-1.1-1.7-1.1-2.8V390h-1.9v-2.1h1.9v-2.6h2.7v2.6h3v2.1h-3v5.5c0,0.6,0.1,1,0.4,1.3s0.7,0.5,1.2,0.5
					c0.6,0,1.1-0.2,1.5-0.5L157.6,398.6z"/>
				<path class="st0" d="M160.6,385.4c-0.3-0.3-0.5-0.7-0.5-1.2s0.2-0.9,0.5-1.2c0.3-0.3,0.8-0.5,1.3-0.5c0.5,0,0.9,0.2,1.3,0.5
					c0.3,0.3,0.5,0.7,0.5,1.1c0,0.5-0.2,0.9-0.5,1.2c-0.3,0.3-0.8,0.5-1.3,0.5C161.3,385.8,160.9,385.7,160.6,385.4z M160.5,387.7
					h2.7v11.4h-2.7V387.7z"/>
				<path class="st0" d="M177.9,394.3h-9c0.2,0.9,0.6,1.6,1.3,2s1.5,0.8,2.4,0.8c1.3,0,2.3-0.4,3.1-1.3l1.5,1.7
					c-0.5,0.6-1.2,1.1-2,1.4s-1.7,0.5-2.6,0.5c-1.3,0-2.3-0.3-3.3-0.8c-1-0.5-1.7-1.2-2.2-2c-0.5-0.9-0.8-2-0.8-3s0.3-2.1,0.8-3
					c0.5-0.9,1.2-1.6,2.1-2c0.9-0.5,2-0.8,3-0.8s2.1,0.3,3,0.8c0.9,0.5,1.6,1.2,2,2c0.5,0.9,0.8,2,0.8,3.1
					C177.9,393.7,177.9,394,177.9,394.3z M169.9,390.5c-0.6,0.5-1,1.2-1.1,2h6.5c-0.1-0.9-0.5-1.5-1.1-2c-0.6-0.5-1.3-0.8-2.1-0.8
					C171.3,389.7,170.5,390,169.9,390.5z"/>
				<path class="st0" d="M187.7,387.5v2.5c-0.2,0-0.4-0.1-0.6-0.1c-1.1,0-1.9,0.3-2.4,0.9c-0.6,0.6-0.9,1.5-0.9,2.6v5.6h-2.7v-11.4
					h2.5v1.7C184.4,388.1,185.7,387.5,187.7,387.5z"/>
				<path class="st0" d="M201.2,394.3h-9c0.2,0.9,0.6,1.6,1.3,2c0.7,0.5,1.5,0.8,2.4,0.8c1.3,0,2.3-0.4,3.1-1.3l1.5,1.7
					c-0.5,0.6-1.2,1.1-2,1.4s-1.7,0.5-2.6,0.5c-1.3,0-2.3-0.3-3.3-0.8c-1-0.5-1.7-1.2-2.2-2c-0.5-0.9-0.8-2-0.8-3s0.3-2.1,0.8-3
					c0.5-0.9,1.2-1.6,2.1-2c0.9-0.5,2-0.8,3-0.8s2.1,0.3,3,0.8c0.9,0.5,1.6,1.2,2,2c0.5,0.9,0.8,2,0.8,3.1
					C201.2,393.7,201.2,394,201.2,394.3z M193.2,390.5c-0.6,0.5-1,1.2-1.1,2h6.5c-0.1-0.9-0.5-1.5-1.1-2c-0.6-0.5-1.3-0.8-2.1-0.8
					C194.5,389.7,193.8,390,193.2,390.5z"/>
				<path class="st0" d="M214.2,388.8c0.9,0.9,1.3,2,1.3,3.7v6.5h-2.7v-6.2c0-1-0.2-1.8-0.7-2.2c-0.5-0.5-1.2-0.8-2-0.8
					c-1,0-1.8,0.3-2.3,0.9c-0.6,0.6-0.9,1.5-0.9,2.5v5.8h-2.7v-11.4h2.5v1.5c0.5-0.5,1-1,1.7-1.2c0.7-0.2,1.5-0.4,2.2-0.4
					C212.3,387.5,213.4,388,214.2,388.8z"/>
			</g>
		</g>
		<g>
			<polygon id="produzieren-praesentieren" class="st5" fill="#00232D" points="625.3,498.3 740.8,431.6 740.8,298.3 625.3,231.6 509.9,298.3 509.9,431.6 			"/>
			<g>
				<circle class="st0" cx="622.4" cy="289.2" r="2.3"/>
				<rect x="626.8" y="287.7" class="st0" width="16.9" height="3.1"/>
				<path class="st0" d="M648.4,279h-33.5c-3.7,0-6.7,3-6.7,6.7v2l4.1,4.1v-5c0-2.2,1.8-4.1,4.1-4.1h30.4c2.2,0,4.1,1.8,4.1,4.1v23
					c0,2.2-1.8,4.1-4.1,4.1h-10.7h-5.4h-1h-5.4h-3.5l-3.8,3.8h5.7l-6,6l2.6,2.6l8.6-8.6h4l8.6,8.6l2.6-2.6l-6-6h10.6
					c3.7,0,6.7-3,6.7-6.7v-25.5C655.2,282,652.1,279,648.4,279z"/>
				<polygon class="st0" points="604.5,294.9 610.8,301.3 613.8,304.2 616.7,307 615.7,307.9 613.4,310.2 604.5,319 608.3,322.7 
					620.4,310.7 623,308 624,307 613.8,296.7 610.8,293.9 608.3,291.2 				"/>
				<path class="st0" d="M596.2,291.2l-3.7,3.7l12.1,12.1l-12.1,12.1l3.7,3.7l15.7-15.7V307L596.2,291.2z"/>
				<circle class="st0" cx="622.4" cy="296.5" r="2.3"/>
				<rect x="626.8" y="294.8" class="st0" width="16.9" height="3.1"/>
				<rect x="626.8" y="302.1" class="st0" width="16.9" height="3.1"/>
			</g>
			<g class="st2">
				<path class="st0" d="M564,358.5c1,0.4,1.7,1.1,2.2,1.9c0.5,0.8,0.8,1.8,0.8,2.8s-0.3,2-0.8,2.8c-0.5,0.8-1.3,1.5-2.2,1.9
					c-1,0.4-2.1,0.7-3.4,0.7h-3.4v4.3h-2.8v-15h6.1C562,357.8,563,358,564,358.5z M563.2,365.4c0.6-0.5,1-1.3,1-2.2
					c0-1-0.3-1.7-1-2.2c-0.6-0.5-1.6-0.8-2.7-0.8h-3.2v6h3.2C561.7,366.1,562.6,365.9,563.2,365.4z"/>
				<path class="st0" d="M576.6,361.2v2.5c-0.2,0-0.4-0.1-0.6-0.1c-1.1,0-1.9,0.3-2.4,0.9c-0.6,0.6-0.9,1.5-0.9,2.6v5.6H570v-11.4
					h2.5v1.7C573.3,361.8,574.6,361.2,576.6,361.2z"/>
				<path class="st0" d="M581.4,372.2c-1-0.5-1.7-1.2-2.1-2c-0.5-0.9-0.8-2-0.8-3c0-1.2,0.3-2.1,0.8-3c0.5-0.9,1.3-1.6,2.1-2
					c1-0.5,2-0.8,3.1-0.8c1.2,0,2.2,0.3,3.1,0.8c1,0.5,1.7,1.2,2.1,2c0.5,0.9,0.8,1.9,0.8,3s-0.3,2.1-0.8,3c-0.5,0.9-1.3,1.6-2.1,2
					c-1,0.5-2,0.8-3.1,0.8C583.3,373,582.3,372.7,581.4,372.2z M586.9,369.7c0.7-0.7,1-1.6,1-2.6c0-1.1-0.3-2-1-2.6
					c-0.7-0.7-1.5-1-2.4-1c-1,0-1.8,0.3-2.4,1c-0.7,0.7-1,1.6-1,2.6c0,1.1,0.3,2,1,2.6c0.7,0.7,1.5,1,2.4,1
					C585.5,370.7,586.3,370.4,586.9,369.7z"/>
				<path class="st0" d="M604.9,356.9v15.9h-2.5v-1.5c-0.5,0.6-1,1-1.7,1.3c-0.7,0.3-1.4,0.4-2.1,0.4c-1.1,0-2-0.2-2.9-0.7
					c-0.9-0.5-1.6-1.2-2-2c-0.5-0.9-0.8-2-0.8-3.1s0.3-2.1,0.8-3c0.5-0.9,1.2-1.6,2-2c0.9-0.5,1.9-0.7,2.9-0.7c0.8,0,1.5,0.1,2,0.4
					c0.6,0.3,1.2,0.7,1.6,1.2v-5.9h2.7L604.9,356.9L604.9,356.9z M600.6,370.3c0.5-0.3,0.9-0.7,1.3-1.3c0.3-0.6,0.5-1.2,0.5-1.9
					s-0.2-1.4-0.5-1.9c-0.3-0.6-0.7-1-1.3-1.3c-0.6-0.3-1.1-0.5-1.8-0.5c-0.7,0-1.3,0.2-1.8,0.5c-0.5,0.3-0.9,0.7-1.3,1.3
					c-0.3,0.6-0.5,1.2-0.5,1.9s0.2,1.4,0.5,1.9c0.3,0.6,0.7,1,1.3,1.3c0.5,0.3,1.1,0.5,1.8,0.5C599.5,370.8,600.1,370.6,600.6,370.3
					z"/>
				<path class="st0" d="M620.1,361.4v11.4h-2.5v-1.5c-0.4,0.5-1,0.9-1.7,1.2c-0.7,0.3-1.4,0.4-2,0.4c-1.6,0-2.7-0.4-3.6-1.3
					c-0.9-0.9-1.4-2.1-1.4-3.8v-6.5h2.7v6.1c0,1.1,0.2,1.8,0.7,2.3c0.5,0.5,1.2,0.8,2,0.8c1,0,1.8-0.3,2.2-0.9
					c0.6-0.6,0.9-1.5,0.9-2.5v-5.8H620.1z"/>
				<path class="st0" d="M633.1,370.7v2.1h-9.9v-1.7l6.2-7.6h-6.1v-2.1h9.6v1.7l-6.3,7.6H633.1z"/>
				<path class="st0" d="M636.2,359c-0.3-0.3-0.5-0.7-0.5-1.2c0-0.5,0.2-0.9,0.5-1.2c0.3-0.3,0.8-0.5,1.3-0.5c0.5,0,0.9,0.2,1.3,0.5
					c0.3,0.3,0.5,0.7,0.5,1.1c0,0.5-0.2,0.9-0.5,1.2c-0.3,0.3-0.8,0.5-1.3,0.5C637,359.4,636.5,359.3,636.2,359z M636.1,361.4h2.7
					v11.4h-2.7V361.4z"/>
				<path class="st0" d="M653.6,367.9h-9c0.2,0.9,0.6,1.6,1.3,2c0.7,0.5,1.5,0.8,2.4,0.8c1.3,0,2.3-0.4,3.1-1.3l1.5,1.7
					c-0.5,0.6-1.2,1.1-2,1.4s-1.7,0.5-2.6,0.5c-1.3,0-2.3-0.3-3.3-0.8c-1-0.5-1.7-1.2-2.2-2c-0.6-0.9-0.8-2-0.8-3s0.3-2.1,0.8-3
					c0.5-0.9,1.2-1.6,2.1-2c0.9-0.5,2-0.8,3-0.8c1.1,0,2.1,0.3,3,0.8c0.9,0.5,1.6,1.2,2,2c0.5,0.9,0.8,2,0.8,3.1
					C653.6,367.3,653.6,367.6,653.6,367.9z M645.7,364.1c-0.6,0.5-1,1.2-1.1,2h6.5c-0.1-0.9-0.5-1.5-1.1-2c-0.6-0.5-1.3-0.8-2.1-0.8
					C646.9,363.3,646.3,363.6,645.7,364.1z"/>
				<path class="st0" d="M663.3,361.2v2.5c-0.2,0-0.4-0.1-0.6-0.1c-1.1,0-1.9,0.3-2.4,0.9c-0.6,0.6-0.9,1.5-0.9,2.6v5.6h-2.7v-11.4
					h2.5v1.7C660,361.8,661.4,361.2,663.3,361.2z"/>
				<path class="st0" d="M676.8,367.9h-9c0.2,0.9,0.6,1.6,1.3,2c0.7,0.5,1.5,0.8,2.4,0.8c1.3,0,2.3-0.4,3.1-1.3l1.5,1.7
					c-0.5,0.6-1.2,1.1-2,1.4s-1.7,0.5-2.6,0.5c-1.3,0-2.3-0.3-3.3-0.8c-1-0.5-1.7-1.2-2.2-2c-0.6-0.9-0.8-2-0.8-3s0.3-2.1,0.8-3
					c0.5-0.9,1.2-1.6,2.1-2c0.9-0.5,2-0.8,3-0.8c1.1,0,2.1,0.3,3,0.8c0.9,0.5,1.6,1.2,2,2c0.5,0.9,0.8,2,0.8,3.1
					C676.8,367.3,676.8,367.6,676.8,367.9z M668.9,364.1c-0.6,0.5-1,1.2-1.1,2h6.5c-0.1-0.9-0.5-1.5-1.1-2c-0.6-0.5-1.3-0.8-2.1-0.8
					C670.2,363.3,669.5,363.6,668.9,364.1z"/>
				<path class="st0" d="M689.9,362.5c0.9,0.9,1.3,2,1.3,3.7v6.5h-2.7v-6.2c0-1-0.2-1.8-0.7-2.2c-0.5-0.5-1.2-0.8-2-0.8
					c-1,0-1.8,0.3-2.3,0.9c-0.6,0.6-0.9,1.5-0.9,2.5v5.8h-2.7v-11.4h2.5v1.5c0.5-0.5,1-1,1.7-1.2c0.7-0.3,1.5-0.4,2.2-0.4
					C687.9,361.2,689.1,361.7,689.9,362.5z"/>
				<path class="st0" d="M551,399.4l-1.9-1.9c-1.4,1.2-3.1,1.8-5.1,1.8c-1.1,0-2-0.2-2.8-0.5c-0.9-0.4-1.5-0.8-2-1.5
					c-0.5-0.6-0.7-1.3-0.7-2c0-1,0.3-1.8,0.8-2.4c0.6-0.7,1.5-1.4,2.6-2c-0.6-0.6-1.1-1.2-1.3-1.7c-0.3-0.5-0.4-1.1-0.4-1.7
					c0-1.1,0.4-2,1.2-2.5c0.8-0.7,1.9-1,3.1-1c1.2,0,2.1,0.3,2.9,0.9c0.8,0.6,1.1,1.4,1.1,2.4c0,0.8-0.2,1.5-0.7,2
					c-0.5,0.6-1.3,1.2-2.3,1.9l3.2,3.1c0.4-0.7,0.7-1.6,0.9-2.5l2.1,0.7c-0.3,1.4-0.8,2.4-1.4,3.4l1.9,1.8L551,399.4z M547.5,396
					l-4-3.8c-0.9,0.5-1.5,1-1.9,1.4c-0.4,0.4-0.5,0.9-0.5,1.5c0,0.6,0.3,1.2,0.9,1.6c0.6,0.4,1.3,0.6,2.2,0.6
					C545.6,397.2,546.6,396.8,547.5,396z M543.4,386.3c-0.4,0.3-0.5,0.7-0.5,1.2c0,0.4,0.1,0.7,0.3,1c0.2,0.3,0.6,0.7,1.1,1.3
					c0.9-0.5,1.5-0.9,1.8-1.3c0.3-0.4,0.5-0.8,0.5-1.2c0-0.5-0.2-0.8-0.5-1.1c-0.3-0.3-0.8-0.4-1.3-0.4
					C544.2,385.9,543.7,386,543.4,386.3z"/>
				<path class="st0" d="M571.5,384.8c1,0.4,1.7,1.1,2.2,1.9c0.5,0.8,0.8,1.8,0.8,2.8s-0.3,2-0.8,2.8c-0.5,0.8-1.3,1.5-2.2,1.9
					c-1,0.4-2.1,0.7-3.4,0.7h-3.4v4.3h-2.8v-15h6.1C569.4,384.1,570.5,384.3,571.5,384.8z M570.7,391.7c0.6-0.5,1-1.3,1-2.2
					s-0.3-1.7-1-2.2c-0.6-0.5-1.6-0.8-2.7-0.8h-3.2v6h3.2C569.2,392.4,570.1,392.2,570.7,391.7z"/>
				<path class="st0" d="M584.1,387.5v2.5c-0.2,0-0.4-0.1-0.6-0.1c-1.1,0-1.9,0.3-2.4,0.9c-0.6,0.6-0.9,1.5-0.9,2.6v5.6h-2.7v-11.4
					h2.5v1.7C580.8,388.1,582.2,387.5,584.1,387.5z"/>
				<path class="st0" d="M595.1,388.8c0.9,0.8,1.4,2,1.4,3.7v6.7H594v-1.4c-0.3,0.5-0.8,0.9-1.4,1.2c-0.6,0.3-1.4,0.4-2.2,0.4
					s-1.7-0.2-2.2-0.5s-1.2-0.7-1.5-1.3c-0.3-0.6-0.5-1.1-0.5-1.8c0-1.1,0.4-1.9,1.2-2.4c0.8-0.6,2-1,3.6-1h2.9v-0.2
					c0-0.8-0.2-1.5-0.7-1.9s-1.2-0.7-2.1-0.7c-0.7,0-1.3,0.1-1.9,0.3c-0.6,0.2-1.2,0.5-1.6,0.9l-1.1-2c0.6-0.5,1.4-0.8,2.1-1.1
					s1.8-0.4,2.7-0.4C592.9,387.5,594.2,387.9,595.1,388.8z M588.4,385.5c-0.2-0.2-0.4-0.6-0.4-0.9c0-0.4,0.1-0.7,0.4-1
					c0.3-0.3,0.6-0.4,0.9-0.4c0.4,0,0.7,0.1,0.9,0.4c0.2,0.2,0.4,0.6,0.4,1s-0.1,0.7-0.4,0.9c-0.2,0.2-0.6,0.4-0.9,0.4
					C589,385.9,588.7,385.8,588.4,385.5z M592.6,396.9c0.5-0.3,0.9-0.8,1.1-1.4v-1.4h-2.7c-1.6,0-2.3,0.5-2.3,1.6
					c0,0.5,0.2,0.9,0.6,1.2c0.4,0.3,0.9,0.4,1.6,0.4C591.5,397.4,592.1,397.2,592.6,396.9z M592.6,385.5c-0.2-0.2-0.4-0.6-0.4-0.9
					c0-0.4,0.1-0.7,0.4-1c0.2-0.2,0.6-0.4,0.9-0.4c0.4,0,0.7,0.1,0.9,0.4c0.2,0.2,0.4,0.6,0.4,1s-0.1,0.7-0.4,0.9
					c-0.2,0.2-0.6,0.4-0.9,0.4C593.2,385.9,592.9,385.8,592.6,385.5z"/>
				<path class="st0" d="M601.2,398.9c-0.9-0.2-1.6-0.6-2.1-0.9l1.1-2c0.5,0.4,1.2,0.6,1.9,0.8s1.5,0.3,2.1,0.3
					c1.6,0,2.4-0.4,2.4-1.3c0-0.4-0.2-0.7-0.6-0.9c-0.4-0.2-1.1-0.3-2-0.5c-1-0.1-1.8-0.3-2.3-0.5s-1.1-0.5-1.6-1
					c-0.5-0.5-0.7-1.1-0.7-2c0-1.1,0.5-2,1.4-2.6s2.1-1,3.7-1c0.8,0,1.6,0.1,2.3,0.3c0.8,0.2,1.5,0.4,2,0.7l-1.1,2
					c-1-0.6-2-0.9-3.3-0.9c-0.8,0-1.4,0.1-1.8,0.4c-0.4,0.3-0.6,0.6-0.6,1s0.2,0.8,0.7,0.9c0.4,0.2,1.1,0.4,2,0.5
					c0.9,0.1,1.7,0.3,2.2,0.5c0.6,0.2,1.1,0.5,1.6,1c0.4,0.5,0.6,1.1,0.6,1.9c0,1.1-0.5,2-1.4,2.5c-1,0.7-2.2,1-3.8,1
					C603,399.3,602.1,399.1,601.2,398.9z"/>
				<path class="st0" d="M622.7,394.3h-9c0.2,0.9,0.6,1.6,1.3,2s1.5,0.8,2.4,0.8c1.3,0,2.3-0.4,3.1-1.3l1.5,1.7
					c-0.5,0.6-1.2,1.1-2,1.4s-1.7,0.5-2.6,0.5c-1.3,0-2.3-0.3-3.3-0.8c-1-0.5-1.7-1.2-2.2-2c-0.6-0.9-0.8-2-0.8-3s0.3-2.1,0.8-3
					c0.5-0.9,1.2-1.6,2.1-2c0.9-0.5,2-0.8,3-0.8c1.1,0,2.1,0.3,3,0.8c0.9,0.5,1.6,1.2,2,2c0.5,0.9,0.8,2,0.8,3.1
					C622.7,393.7,622.7,394,622.7,394.3z M614.8,390.5c-0.6,0.5-1,1.2-1.1,2h6.5c-0.1-0.9-0.5-1.5-1.1-2c-0.6-0.5-1.3-0.8-2.1-0.8
					C616.1,389.7,615.4,390,614.8,390.5z"/>
				<path class="st0" d="M635.8,388.8c0.9,0.9,1.3,2,1.3,3.7v6.5h-2.7v-6.2c0-1-0.2-1.8-0.7-2.2c-0.5-0.5-1.2-0.8-2-0.8
					c-1,0-1.8,0.3-2.3,0.9c-0.6,0.6-0.9,1.5-0.9,2.5v5.8h-2.7v-11.4h2.5v1.5c0.5-0.5,1-1,1.7-1.2c0.7-0.3,1.5-0.4,2.2-0.4
					C633.9,387.5,634.9,388,635.8,388.8z"/>
				<path class="st0" d="M648,398.6c-0.3,0.3-0.7,0.5-1.2,0.6c-0.5,0.1-1,0.2-1.5,0.2c-1.3,0-2.2-0.3-2.9-1
					c-0.7-0.7-1.1-1.7-1.1-2.8V390h-1.9v-2.1h1.9v-2.6h2.7v2.6h3v2.1h-3v5.5c0,0.6,0.1,1,0.4,1.3s0.7,0.5,1.2,0.5
					c0.6,0,1.1-0.2,1.5-0.5L648,398.6z"/>
				<path class="st0" d="M650.8,385.4c-0.3-0.3-0.5-0.7-0.5-1.2s0.2-0.9,0.5-1.2c0.3-0.3,0.8-0.5,1.3-0.5s0.9,0.2,1.3,0.5
					c0.3,0.3,0.5,0.7,0.5,1.1c0,0.5-0.2,0.9-0.5,1.2c-0.3,0.3-0.8,0.5-1.3,0.5S651.2,385.7,650.8,385.4z M650.7,387.7h2.7v11.4h-2.7
					V387.7z"/>
				<path class="st0" d="M668.2,394.3h-9c0.2,0.9,0.6,1.6,1.3,2s1.5,0.8,2.4,0.8c1.3,0,2.3-0.4,3.1-1.3l1.5,1.7
					c-0.5,0.6-1.2,1.1-2,1.4s-1.7,0.5-2.6,0.5c-1.3,0-2.3-0.3-3.3-0.8s-1.7-1.2-2.2-2c-0.5-0.9-0.8-2-0.8-3s0.3-2.1,0.8-3
					c0.5-0.9,1.2-1.6,2.1-2c0.9-0.5,2-0.8,3-0.8s2.1,0.3,3,0.8c0.9,0.5,1.6,1.2,2,2c0.5,0.9,0.8,2,0.8,3.1
					C668.3,393.7,668.2,394,668.2,394.3z M660.3,390.5c-0.6,0.5-1,1.2-1.1,2h6.5c-0.1-0.9-0.5-1.5-1.1-2c-0.6-0.5-1.3-0.8-2.1-0.8
					C661.6,389.7,660.9,390,660.3,390.5z"/>
				<path class="st0" d="M678,387.5v2.5c-0.2,0-0.4-0.1-0.6-0.1c-1.1,0-1.9,0.3-2.4,0.9c-0.6,0.6-0.9,1.5-0.9,2.6v5.6h-2.7v-11.4
					h2.5v1.7C674.8,388.1,676.1,387.5,678,387.5z"/>
				<path class="st0" d="M691.4,394.3h-9c0.2,0.9,0.6,1.6,1.3,2s1.5,0.8,2.4,0.8c1.3,0,2.3-0.4,3.1-1.3l1.5,1.7
					c-0.5,0.6-1.2,1.1-2,1.4s-1.7,0.5-2.6,0.5c-1.3,0-2.3-0.3-3.3-0.8s-1.7-1.2-2.2-2c-0.6-0.9-0.8-2-0.8-3s0.3-2.1,0.8-3
					c0.5-0.9,1.2-1.6,2.1-2c0.9-0.5,2-0.8,3-0.8c1.1,0,2.1,0.3,3,0.8c0.9,0.5,1.6,1.2,2,2c0.5,0.9,0.8,2,0.8,3.1
					C691.5,393.7,691.5,394,691.4,394.3z M683.5,390.5c-0.6,0.5-1,1.2-1.1,2h6.5c-0.1-0.9-0.5-1.5-1.1-2c-0.6-0.5-1.3-0.8-2.1-0.8
					C684.8,389.7,684.1,390,683.5,390.5z"/>
				<path class="st0" d="M704.6,388.8c0.9,0.9,1.3,2,1.3,3.7v6.5h-2.7v-6.2c0-1-0.2-1.8-0.7-2.2s-1.2-0.8-2-0.8
					c-1,0-1.8,0.3-2.3,0.9c-0.6,0.6-0.9,1.5-0.9,2.5v5.8h-2.7v-11.4h2.5v1.5c0.5-0.5,1-1,1.7-1.2c0.7-0.3,1.5-0.4,2.2-0.4
					C702.6,387.5,703.7,388,704.6,388.8z"/>
			</g>
		</g>
		<g>
			<polygon id="problemloesen-handeln" class="st5" fill="#00232D" points="152.5,504.5 145,508.9 145,642.3 260.5,708.9 376,642.3 376,508.9 260.5,442.2 			"/>
			<g class="st2">
				<path class="st0" d="M189.6,570.1c1,0.4,1.7,1.1,2.2,1.9c0.6,0.8,0.8,1.8,0.8,2.8s-0.3,2-0.8,2.8c-0.5,0.8-1.3,1.5-2.2,1.9
					c-1,0.4-2.1,0.7-3.4,0.7h-3.4v4.3h-2.8v-15h6.1C187.4,569.5,188.6,569.7,189.6,570.1z M188.8,577c0.6-0.5,1-1.3,1-2.2
					c0-1-0.3-1.7-1-2.2c-0.6-0.5-1.6-0.8-2.7-0.8h-3.2v6h3.2C187.2,577.8,188.1,577.6,188.8,577z"/>
				<path class="st0" d="M202.1,572.9v2.5c-0.2,0-0.4-0.1-0.6-0.1c-1.1,0-1.9,0.3-2.4,0.9c-0.6,0.6-0.9,1.5-0.9,2.6v5.6h-2.7V573
					h2.5v1.7C198.8,573.5,200.2,572.9,202.1,572.9z"/>
				<path class="st0" d="M206.8,583.9c-1-0.5-1.7-1.2-2.1-2c-0.5-0.9-0.8-2-0.8-3c0-1.2,0.3-2.1,0.8-3c0.5-0.9,1.3-1.6,2.1-2
					c1-0.5,2-0.8,3.1-0.8s2.2,0.3,3.1,0.8c1,0.5,1.7,1.2,2.1,2c0.5,0.9,0.8,1.9,0.8,3s-0.3,2.1-0.8,3c-0.5,0.9-1.3,1.6-2.1,2
					c-1,0.5-2,0.8-3.1,0.8C208.8,584.6,207.8,584.4,206.8,583.9z M212.4,581.4c0.7-0.7,1-1.6,1-2.6c0-1.1-0.3-2-1-2.6
					c-0.7-0.7-1.5-1-2.4-1s-1.8,0.3-2.4,1c-0.7,0.7-1,1.6-1,2.6c0,1.1,0.3,2,1,2.6c0.7,0.7,1.5,1,2.4,1S211.8,582.1,212.4,581.4z"/>
				<path class="st0" d="M228.6,573.7c0.9,0.5,1.6,1.2,2,2c0.5,0.9,0.8,2,0.8,3c0,1.2-0.3,2.1-0.8,3.1c-0.5,1-1.2,1.6-2,2
					c-0.9,0.5-1.9,0.7-3,0.7c-0.8,0-1.5-0.1-2.1-0.4c-0.7-0.3-1.2-0.7-1.7-1.3v1.5h-2.5v-15.9h2.7v5.9c0.5-0.5,1-0.9,1.7-1.2
					c0.6-0.3,1.3-0.4,2-0.4C226.6,572.9,227.7,573.2,228.6,573.7z M227.7,581.4c0.7-0.7,1-1.6,1-2.6c0-1.1-0.3-2-1-2.6s-1.5-1-2.4-1
					c-0.7,0-1.3,0.2-1.8,0.5c-0.5,0.3-0.9,0.7-1.3,1.3c-0.3,0.6-0.5,1.2-0.5,1.9c0,0.7,0.2,1.4,0.5,1.9c0.3,0.6,0.7,1,1.3,1.3
					c0.5,0.3,1.1,0.5,1.8,0.5C226.2,582.4,227,582.1,227.7,581.4z"/>
				<path class="st0" d="M234.4,568.6h2.7v15.9h-2.7V568.6z"/>
				<path class="st0" d="M251.9,579.6h-9c0.2,0.9,0.6,1.6,1.3,2c0.7,0.5,1.5,0.8,2.4,0.8c1.3,0,2.3-0.4,3.1-1.3l1.5,1.7
					c-0.5,0.6-1.2,1.1-2,1.4c-0.8,0.3-1.7,0.5-2.6,0.5c-1.3,0-2.3-0.3-3.3-0.8c-1-0.5-1.7-1.2-2.2-2c-0.5-0.9-0.8-2-0.8-3
					c0-1.1,0.3-2.1,0.8-3c0.5-0.9,1.2-1.6,2.1-2c0.9-0.5,2-0.8,3-0.8c1.1,0,2.1,0.3,3,0.8c0.9,0.5,1.6,1.2,2,2
					c0.5,0.9,0.8,2,0.8,3.1C252,579.1,252,579.3,251.9,579.6z M244,575.8c-0.6,0.5-1,1.2-1.1,2h6.5c-0.1-0.9-0.5-1.5-1.1-2
					c-0.6-0.5-1.3-0.8-2.1-0.8C245.4,575.1,244.6,575.3,244,575.8z"/>
				<path class="st0" d="M273,574.2c0.9,0.9,1.3,2,1.3,3.8v6.5h-2.7v-6.2c0-1-0.2-1.8-0.7-2.2s-1.1-0.8-2-0.8
					c-0.9,0-1.7,0.3-2.1,0.9c-0.6,0.6-0.8,1.5-0.8,2.5v5.9h-2.7v-6.2c0-1-0.2-1.8-0.7-2.2s-1.1-0.8-2-0.8c-0.9,0-1.7,0.3-2.1,0.9
					c-0.5,0.6-0.8,1.5-0.8,2.5v5.9h-2.7v-11.4h2.5v1.5c0.4-0.5,1-0.9,1.6-1.2c0.7-0.3,1.4-0.4,2.1-0.4c0.9,0,1.7,0.2,2.2,0.5
					c0.7,0.3,1.2,0.8,1.6,1.5c0.5-0.6,1.1-1.1,1.9-1.4s1.6-0.5,2.4-0.5C271,572.9,272.1,573.3,273,574.2z"/>
				<path class="st0" d="M278.2,568.6h2.7v15.9h-2.7V568.6z"/>
				<path class="st0" d="M287,583.9c-1-0.5-1.7-1.2-2.1-2c-0.5-0.9-0.8-2-0.8-3c0-1.2,0.3-2.1,0.8-3c0.5-0.9,1.3-1.6,2.1-2
					c1-0.5,2-0.8,3.1-0.8s2.2,0.3,3.1,0.8c1,0.5,1.7,1.2,2.1,2s0.8,1.9,0.8,3s-0.3,2.1-0.8,3c-0.5,0.9-1.3,1.6-2.1,2
					c-1,0.5-2,0.8-3.1,0.8C289,584.6,287.9,584.4,287,583.9z M287.1,570.9c-0.2-0.2-0.4-0.6-0.4-0.9c0-0.4,0.1-0.7,0.4-1
					c0.3-0.3,0.6-0.4,0.9-0.4c0.4,0,0.7,0.1,0.9,0.4c0.2,0.2,0.4,0.6,0.4,1c0,0.4-0.1,0.7-0.4,0.9c-0.2,0.2-0.6,0.4-0.9,0.4
					C287.6,571.3,287.3,571.2,287.1,570.9z M292.6,581.4c0.7-0.7,1-1.6,1-2.6c0-1.1-0.3-2-1-2.6c-0.7-0.7-1.5-1-2.4-1
					c-1,0-1.8,0.3-2.4,1c-0.7,0.7-1,1.6-1,2.6c0,1.1,0.3,2,1,2.6c0.7,0.7,1.5,1,2.4,1C291.1,582.4,291.9,582.1,292.6,581.4z
					 M291.2,570.9c-0.2-0.2-0.4-0.6-0.4-0.9c0-0.4,0.1-0.7,0.4-1c0.2-0.2,0.6-0.4,0.9-0.4s0.7,0.1,0.9,0.4c0.2,0.2,0.4,0.6,0.4,1
					c0,0.4-0.1,0.7-0.4,0.9c-0.2,0.2-0.6,0.4-0.9,0.4S291.5,571.2,291.2,570.9z"/>
				<path class="st0" d="M300.2,584.3c-0.9-0.2-1.6-0.6-2.1-0.9l1.1-2c0.5,0.4,1.2,0.6,1.9,0.8s1.5,0.3,2.1,0.3
					c1.6,0,2.4-0.4,2.4-1.3c0-0.4-0.2-0.7-0.6-0.9c-0.4-0.2-1.1-0.3-2-0.5c-1-0.1-1.8-0.3-2.3-0.5c-0.6-0.2-1.1-0.5-1.6-1
					s-0.7-1.1-0.7-2c0-1.1,0.5-2,1.4-2.6c0.9-0.7,2.1-1,3.7-1c0.8,0,1.6,0.1,2.3,0.3s1.5,0.4,2,0.7l-1.1,2c-1-0.6-2-0.9-3.3-0.9
					c-0.8,0-1.4,0.1-1.8,0.4s-0.6,0.6-0.6,1c0,0.4,0.2,0.8,0.7,0.9c0.4,0.2,1.1,0.4,2,0.5c0.9,0.1,1.7,0.3,2.2,0.5
					c0.6,0.2,1.1,0.5,1.6,1c0.4,0.5,0.6,1.1,0.6,1.9c0,1.1-0.5,2-1.4,2.5c-1,0.7-2.2,1-3.8,1C301.9,584.6,301.1,584.5,300.2,584.3z"
					/>
				<path class="st0" d="M321.7,579.6h-9c0.2,0.9,0.6,1.6,1.3,2c0.7,0.5,1.5,0.8,2.4,0.8c1.3,0,2.3-0.4,3.1-1.3l1.5,1.7
					c-0.5,0.6-1.2,1.1-2,1.4c-0.8,0.3-1.7,0.5-2.6,0.5c-1.3,0-2.3-0.3-3.3-0.8c-1-0.5-1.7-1.2-2.2-2c-0.5-0.9-0.8-2-0.8-3
					c0-1.1,0.3-2.1,0.8-3c0.5-0.9,1.2-1.6,2.1-2c0.9-0.5,2-0.8,3-0.8c1.1,0,2.1,0.3,3,0.8c0.9,0.5,1.6,1.2,2,2s0.8,2,0.8,3.1
					C321.7,579.1,321.7,579.3,321.7,579.6z M313.8,575.8c-0.6,0.5-1,1.2-1.1,2h6.5c-0.1-0.9-0.5-1.5-1.1-2c-0.6-0.5-1.3-0.8-2.1-0.8
					C315,575.1,314.3,575.3,313.8,575.8z"/>
				<path class="st0" d="M334.8,574.2c0.9,0.9,1.3,2,1.3,3.7v6.5h-2.7v-6.2c0-1-0.2-1.8-0.7-2.2c-0.5-0.5-1.2-0.8-2-0.8
					c-1,0-1.8,0.3-2.3,0.9c-0.6,0.6-0.9,1.5-0.9,2.5v5.8h-2.7v-11.4h2.5v1.5c0.5-0.5,1-1,1.7-1.2c0.7-0.3,1.5-0.4,2.2-0.4
					C332.8,572.9,334,573.3,334.8,574.2z"/>
				<path class="st0" d="M211.3,611.1l-1.9-1.9c-1.4,1.2-3.1,1.8-5.1,1.8c-1.1,0-2-0.2-2.8-0.5c-0.9-0.4-1.5-0.8-2-1.5
					c-0.5-0.6-0.7-1.3-0.7-2c0-1,0.3-1.8,0.8-2.4c0.6-0.7,1.5-1.4,2.6-2c-0.6-0.6-1.1-1.2-1.3-1.7c-0.3-0.5-0.4-1.1-0.4-1.7
					c0-1.1,0.4-2,1.2-2.5c0.8-0.7,1.9-1,3.1-1c1.2,0,2.1,0.3,2.9,0.9s1.1,1.4,1.1,2.4c0,0.8-0.2,1.5-0.7,2c-0.5,0.6-1.3,1.2-2.3,1.9
					l3.2,3.1c0.4-0.7,0.7-1.6,0.9-2.5l2.1,0.7c-0.3,1.4-0.8,2.4-1.4,3.4l1.9,1.8L211.3,611.1z M207.9,607.7l-4-3.8
					c-0.9,0.5-1.5,1-1.9,1.4c-0.4,0.4-0.5,0.9-0.5,1.5c0,0.6,0.3,1.2,0.9,1.6c0.6,0.4,1.3,0.6,2.2,0.6
					C205.8,608.9,206.9,608.5,207.9,607.7z M203.7,598c-0.4,0.3-0.5,0.7-0.5,1.2c0,0.4,0.1,0.7,0.3,1c0.2,0.3,0.6,0.7,1.1,1.3
					c0.9-0.5,1.5-0.9,1.8-1.3c0.3-0.4,0.5-0.8,0.5-1.2c0-0.5-0.2-0.8-0.5-1.1c-0.3-0.3-0.8-0.4-1.3-0.4
					C204.5,597.6,204,597.7,203.7,598z"/>
				<path class="st0" d="M235.6,595.8v15h-2.8v-6.4H225v6.4h-2.8v-15h2.8v6.2h7.8v-6.2H235.6z"/>
				<path class="st0" d="M248.1,600.5c0.9,0.8,1.4,2,1.4,3.7v6.7h-2.5v-1.4c-0.3,0.5-0.8,0.9-1.4,1.2c-0.6,0.3-1.4,0.4-2.2,0.4
					s-1.7-0.2-2.2-0.5c-0.7-0.3-1.2-0.7-1.5-1.3c-0.3-0.6-0.5-1.1-0.5-1.8c0-1.1,0.4-1.9,1.2-2.4c0.8-0.6,2-1,3.6-1h2.9v-0.3
					c0-0.8-0.2-1.5-0.7-1.9c-0.5-0.4-1.2-0.7-2.1-0.7c-0.7,0-1.3,0.1-1.9,0.3c-0.6,0.2-1.2,0.5-1.6,0.9l-1.1-2
					c0.6-0.5,1.4-0.8,2.1-1.1c0.9-0.2,1.8-0.4,2.7-0.4C245.9,599.3,247.2,599.6,248.1,600.5z M245.7,608.6c0.5-0.3,0.9-0.8,1.1-1.4
					v-1.4H244c-1.6,0-2.3,0.5-2.3,1.6c0,0.5,0.2,0.9,0.6,1.2c0.4,0.3,0.9,0.4,1.6,0.4C244.6,609,245.2,608.9,245.7,608.6z"/>
				<path class="st0" d="M263.4,600.5c0.9,0.9,1.3,2,1.3,3.7v6.5H262v-6.2c0-1-0.2-1.8-0.7-2.2c-0.5-0.5-1.2-0.8-2-0.8
					c-1,0-1.8,0.3-2.3,0.9c-0.6,0.6-0.9,1.5-0.9,2.5v5.8h-2.7v-11.4h2.5v1.5c0.5-0.5,1-1,1.7-1.2c0.7-0.3,1.5-0.4,2.2-0.4
					C261.4,599.3,262.5,599.6,263.4,600.5z"/>
				<path class="st0" d="M280,595v15.9h-2.5v-1.5c-0.5,0.6-1,1-1.7,1.3s-1.4,0.4-2.1,0.4c-1.1,0-2-0.2-2.9-0.7c-0.9-0.5-1.6-1.2-2-2
					c-0.5-0.9-0.8-2-0.8-3.1c0-1.2,0.3-2.1,0.8-3c0.5-0.9,1.2-1.6,2-2c0.9-0.5,1.9-0.7,2.9-0.7c0.8,0,1.5,0.1,2,0.4
					c0.6,0.3,1.2,0.7,1.6,1.2v-5.9h2.7L280,595L280,595z M275.7,608.2c0.5-0.3,0.9-0.7,1.3-1.3c0.3-0.6,0.5-1.2,0.5-1.9
					c0-0.7-0.2-1.4-0.5-1.9s-0.7-1-1.3-1.3c-0.5-0.3-1.1-0.5-1.8-0.5s-1.3,0.2-1.8,0.5c-0.5,0.3-0.9,0.7-1.3,1.3
					c-0.3,0.6-0.5,1.2-0.5,1.9c0,0.7,0.2,1.4,0.5,1.9c0.3,0.6,0.7,1,1.3,1.3c0.5,0.3,1.1,0.5,1.8,0.5S275.2,608.5,275.7,608.2z"/>
				<path class="st0" d="M294.8,606h-9c0.2,0.9,0.6,1.6,1.3,2c0.7,0.5,1.5,0.8,2.4,0.8c1.3,0,2.3-0.4,3.1-1.3l1.5,1.7
					c-0.5,0.6-1.2,1.1-2,1.4c-0.8,0.3-1.7,0.5-2.6,0.5c-1.3,0-2.3-0.3-3.3-0.8c-1-0.5-1.7-1.2-2.2-2c-0.5-0.9-0.8-2-0.8-3
					c0-1.1,0.3-2.1,0.8-3c0.5-0.9,1.2-1.6,2.1-2c0.9-0.5,2-0.8,3-0.8c1.1,0,2.1,0.3,3,0.8c0.9,0.5,1.6,1.2,2,2s0.8,2,0.8,3.1
					C294.8,605.4,294.8,605.6,294.8,606z M286.8,602.2c-0.6,0.5-1,1.2-1.1,2h6.5c-0.1-0.9-0.5-1.5-1.1-2c-0.6-0.5-1.3-0.8-2.1-0.8
					C288.2,601.4,287.5,601.7,286.8,602.2z"/>
				<path class="st0" d="M297.9,595h2.7v15.9h-2.7V595z"/>
				<path class="st0" d="M314.6,600.5c0.9,0.9,1.3,2,1.3,3.7v6.5h-2.7v-6.2c0-1-0.2-1.8-0.7-2.2c-0.5-0.5-1.2-0.8-2-0.8
					c-1,0-1.8,0.3-2.3,0.9c-0.6,0.6-0.9,1.5-0.9,2.5v5.8h-2.7v-11.4h2.5v1.5c0.5-0.5,1-1,1.7-1.2c0.7-0.3,1.5-0.4,2.2-0.4
					C312.7,599.3,313.9,599.6,314.6,600.5z"/>
			</g>
			<g>
				<path class="st0" d="M271,515.2c2.6-1,2-2.8,1.8-4.7c-0.3-1.8-0.2-3.8-3-3.8c-3,0-4.7-3.1-3-5.5c1.9-2.8-0.6-3.5-1.9-5.1
					c-1.3-1.5-2.5-2.3-4.5-0.7c-2.4,1.9-5.4,0.7-5.9-2.3c-0.4-2-1.4-2.6-3-2.4c-1.9,0.4-4.5-1.3-5.4,2c-0.9,3.4-3.4,4.3-6.2,2
					c-0.6-0.5-1.2-1.3-2-1c-2,0.9-3.5,2.2-4.9,3.8c-1,1.1,0.3,2.1,0.7,3.1c1,2.4-0.6,5.4-3.2,5.1c-2.4-0.3-3.3,0.9-3.4,3
					c-0.2,2-1.6,4.3,1.6,5.4c3,1.1,3.4,4.3,1,6.2c-1.9,1.5-1.6,2.8-0.5,4.4c1.1,1.6,1.2,4.3,4.4,3.1c3.4-1.2,5.6,0.8,5,4.2
					c-0.5,3,1.6,3.1,3.4,3.9c1.7,0.8,3.2,1.4,4.5-1c1.5-2.6,4.8-2.6,6.2,0c1.5,2.7,3.4,1.5,5.4,1c1.9-0.5,3.4-1.2,2.8-3.4
					c-0.3-3.4,2-5.4,5.1-4.2c2.4,1,3.1-0.5,3.9-2s2.9-3,0.5-5.1C267.6,519.5,268.1,516.3,271,515.2z M249.8,522.9
					c-5,0-8.6-3.7-8.6-8.6c0-4.8,3.9-8.7,8.6-8.7c4.6,0,8.6,4,8.7,8.8C258.5,519,254.4,522.9,249.8,522.9z"/>
				<g>
					<g>
						<path class="st0" d="M291.3,524.6c0.8-0.5,1-1.9,0.8-4c-2-3.8-4.2-7.9-6.3-11.6c-5-8.3-8.3-12.2-10.2-13.2
							c0.9-1,1.5-2.8-0.6-5.1c-2.7-3-7.9-6.6-7.9-6.6s1.4,4.6,2.1,10.1c0.5,3,2.9,3.2,4.2,3c-0.1,2.3,1.8,7.1,6.7,15.3
							c2,3.3,4.2,6.7,6.3,10C288.7,524.4,290.4,525.1,291.3,524.6z"/>
					</g>
					<g>
						<path class="st0" d="M293.2,522.9c-0.1,1.3-0.5,2.2-1.3,2.6c-1,0.6-2.3,0.4-3.8-0.6c4.4,6.3,8.4,11,9.4,10.3
							C298.3,534.8,296.4,529.4,293.2,522.9z"/>
					</g>
				</g>
			</g>
		</g>
	</g>
</g>
<g id="Transparenz">
	<g>
		<polygon class="st7" id="ubausteine_trigger" fill="transparent" data-element_type="unterrichtsbausteine" points="381.8,255.8 291.3,308 381.8,360.4 472.1,308 		"/>
	</g>
	<g>
		<polygon class="st7" id="tools_trigger" fill="transparent" data-element_type="tools" points="286,421.5 376.3,473.7 376.3,369.6 286,317.2 		"/>
	</g>
	<g>
		<polygon class="st7" id="trends_trigger" fill="transparent" data-element_type="trends" points="387.1,473.7 477.4,421.5 477.4,317.2 387.1,369.6 		"/>
	</g>
	<polygon class="st6" data-element_type="suchen-verarbeiten-aufbewahren" fill="transparent" points="376,87.6 260.4,20.9 145,87.6 145,221 260.4,287.7 359.8,230.3 376,221 	"/>
	<polygon class="st6" data-element_type="kommunizieren-kooperieren" fill="transparent" points="503.7,287.7 619.2,220.9 619.2,87.6 503.7,21 388.1,87.6 388.1,220.9 410.4,233.9 	"/>
	<polygon class="st6" data-element_type="produzieren-praesentieren" fill="transparent" points="625.2,498.3 740.8,431.6 740.8,298.3 625.2,231.6 509.9,298.3 509.9,431.6 	"/>
	<polygon class="st6" data-element_type="schuetzen-sicher-agieren" fill="transparent" points="388.1,642.3 410.4,655.1 503.7,708.9 619.2,642.3 619.2,508.9 503.7,442.2 405.3,499.1 388.1,508.9 	"/>
	<polygon class="st6" data-element_type="problemloesen-handeln" fill="transparent" points="152.5,504.5 145,508.9 145,642.3 260.4,708.9 376,642.3 376,508.9 260.4,442.2 	"/>
	<polygon class="st6" data-element_type="analysieren-reflektieren" fill="transparent" points="138.9,231.6 23.3,298.3 23.3,431.6 132.5,494.7 138.9,498.3 254.4,431.6 254.4,298.3 	"/>
</g>
</svg>
