<?xml version="1.0" encoding="utf-8"?>
<!-- Generator: Adobe Illustrator 25.2.3, SVG Export Plug-In . SVG Version: 6.00 Build 0)  -->
<svg version="1.1" id="Ebene_1" xmlns="http://www.w3.org/2000/svg" xmlns:xlink="http://www.w3.org/1999/xlink" x="0px" y="0px"
	 viewBox="0 0 407 150.3" style="enable-background:new 0 0 407 150.3;" xml:space="preserve">
<style type="text/css">
	.st0{fill:#513F92;}
	.st1{fill:#A7C7EA;}
	.st2{fill:#384892;}
	.st3{fill:#5F7ABB;}
	.st4{fill:#3F5FA9;}
	.st5{fill:#A7C6EA;}
	.st6{fill:#3A368C;}
	.st7{fill:#243982;}
	.st8{fill:#59328A;}
	.st9{fill:#412B86;}
	.st10{fill:#272557;}
	.st11{fill:#2D296E;}
	.st12{fill:#2B2A67;}
	.st13{fill:#23234F;}
	.st14{fill:#272955;}
	.st15{clip-path:url(#SVGID_2_);fill:#FFFFFF;}
	.st16{clip-path:url(#SVGID_2_);fill:#4B8E91;}
	.st17{clip-path:url(#SVGID_2_);fill:#95C0A6;}
	.st18{clip-path:url(#SVGID_2_);fill:#174F52;}
	.st19{clip-path:url(#SVGID_2_);fill:#2D6C5F;}
	.st20{clip-path:url(#SVGID_2_);fill:#347278;}
	.st21{clip-path:url(#SVGID_2_);fill:#0E3F44;}
	.st22{clip-path:url(#SVGID_2_);fill:#1F564D;}
	.st23{clip-path:url(#SVGID_2_);fill:#052326;}
	.st24{clip-path:url(#SVGID_2_);fill:#092F2C;}
	.st25{clip-path:url(#SVGID_2_);fill:#01222B;}
	.st26{clip-path:url(#SVGID_2_);fill:#6C757D;}
</style>
<rect x="257.2" y="47.8" transform="matrix(0.3527 -0.9357 0.9357 0.3527 117.0154 295.4556)" class="st0" width="29.7" height="30.7"/>
<rect x="366.5" y="47.1" transform="matrix(0.988 -0.1545 0.1545 0.988 -4.9798 59.7243)" class="st1" width="30.7" height="29.7"/>
<rect x="347.9" y="108.5" transform="matrix(0.988 -0.1545 0.1545 0.988 -14.6988 57.6077)" class="st2" width="30.7" height="29.7"/>
<polygon class="st3" points="317.3,0 301.7,53.1 316.4,45.4 339.3,89.3 348.4,92 353.9,63.8 367,66.4 364.4,49.6 389.6,45.7 
	396.2,23.2 "/>
<polygon class="st4" points="382.6,69.4 367,66.4 364.4,49.6 389.6,45.7 "/>
<polygon class="st5" points="290,59.2 281.2,82.5 260.4,74.6 249,80.6 285.4,150.3 346.9,118.2 346.5,115.7 343.9,115.2 
	346.3,102.7 339.3,89.3 294.9,76.2 301.7,53.1 "/>
<polygon class="st6" points="281.2,82.5 260.4,74.6 290,59.2 "/>
<polygon class="st7" points="346.9,118.2 346.5,115.7 350.3,116.4 "/>
<polygon class="st4" points="339.3,89.3 294.9,76.2 301.7,53.1 316.4,45.4 "/>
<polygon class="st8" points="399.3,74.2 380.3,77.2 373.7,99.5 348.4,92 346.3,102.7 350.3,110.4 376.2,106.3 378.6,121.9 
	397,125.5 407,74.2 399,72.6 "/>
<polygon class="st9" points="380.3,77.2 382.6,69.4 399,72.6 399.3,74.2 "/>
<polygon class="st10" points="378.6,121.9 350.3,116.4 352.8,115.1 350.3,110.4 376.2,106.3 "/>
<polygon class="st11" points="373.7,99.5 348.4,92 353.9,63.8 367,66.4 369,78.9 380.3,77.2 "/>
<polygon class="st12" points="369,78.9 367,66.4 382.6,69.4 380.3,77.2 "/>
<polygon class="st9" points="346.5,115.7 343.9,115.2 346.3,102.7 350.3,110.4 345.8,111.1 "/>
<polygon class="st13" points="350.3,116.4 346.5,115.7 345.8,111.1 350.3,110.4 352.8,115.1 "/>
<rect x="275.4" y="29.8" class="st14" width="98.4" height="98.4"/>
<g>
	<defs>
		<rect id="SVGID_1_" width="407" height="150.3"/>
	</defs>
	<clipPath id="SVGID_2_">
		<use xlink:href="#SVGID_1_"  style="overflow:visible;"/>
	</clipPath>
	<path class="st15" d="M337.6,91.7c-0.8,0.6-2,1.7-3.5,3.3c-1,1-2.1,1.9-3.4,2.7c-1.3,0.8-2.5,1.2-3.7,1.2c-1.1,0-2.1-0.3-2.9-1
		c-0.8-0.7-1.2-1.4-1.2-2.3c0-0.8,0.1-1.7,0.3-2.5c0.2-0.8,0.3-1.4,0.3-1.7c4.1-4.5,8.3-9.6,12.7-15.2c2.8-3.6,5.3-6.9,7.5-10.1
		c2.2-3.2,4.1-6.3,5.7-9.3c1.6-3,2.4-5.3,2.4-6.7c0-1.4-0.5-2.5-1.4-3.2c-0.9-0.7-2-1.1-3.2-1.1c-4,0-9.7,5.3-17.2,15.9
		c-3.3,4.7-6.3,10.4-9,17.1c-1.8,4.5-2.9,8.5-3.5,12.2c-0.3,0-0.5,0.1-0.7,0.2c-0.2,0.2-0.7,0.7-1.5,1.5c-0.8,0.9-1.6,1.7-2.5,2.5
		c-0.8,0.8-1.8,1.6-2.8,2.3c-1.1,0.7-2,1.1-2.8,1.1c-0.8,0-1.1-0.5-1.1-1.6v-0.3c0-1.3,1.6-5.3,4.9-11.7c3.3-6.5,7.8-14.4,13.6-23.8
		c1-1.6,2.4-3.9,4.2-6.7c1.8-2.9,2.9-4.7,3.4-5.6c0.5-0.9,0.7-1.4,0.7-1.8s-0.1-0.6-0.4-0.9c-0.3-0.3-0.7-0.5-1.1-0.5
		c-2.3,0-3.9,0.7-5,2.1c-2,2.3-6.1,8.7-12.4,19.2c-2,3.5-3.3,5.8-4.1,7c-1.1-1-2-1.5-2.9-1.5c-2.6,0-5.4,0.8-8.4,2.4
		c-3.1,1.6-5.8,3.6-8.3,6c-2.5,2.4-4.6,5.1-6.3,8.1c-1.7,3-2.5,5.6-2.5,7.7c0,2.1,0.4,3.8,1.2,4.9c0.8,1.1,2,1.7,3.6,1.7
		c2.9,0,6.4-1.7,10.3-5.2c2.1-1.9,4.2-4.2,6.3-6.8c-1.5,3.3-2.3,5.9-2.3,7.9c0,3.2,1.9,4.8,5.7,4.8c2.2,0,4.6-1,7.1-3.1
		c1.6-1.3,2.8-2.5,3.7-3.5c0.2,1.9,0.8,3.4,1.8,4.6c1.2,1.5,3.1,2.2,5.5,2.2c2.4,0,4.9-0.6,7.6-1.9c2-0.9,3.8-2.3,5.5-3.9
		L337.6,91.7z M329.9,71.4c1.7-3,4.4-7.1,8.2-12.2c3.8-5.1,6.1-7.6,7-7.6c0.3,0,0.4,0.2,0.4,0.6c0,1.8-2.7,6.4-8,14
		c-5.3,7.5-9.5,13.1-12.5,16.7C326.6,78.2,328.2,74.4,329.9,71.4 M299.8,87.6c-6,6.8-9.8,10.2-11.3,10.2c-0.4,0-0.5-0.4-0.5-1.3
		c0-0.8,0.8-2.7,2.4-5.5c1.6-2.8,3.9-5.5,7.1-8.1c3.2-2.6,6.6-4.3,10.2-5.1C305.4,81,302.8,84.3,299.8,87.6"/>
	<path class="st15" d="M367.3,46.4c-0.3-0.3-0.7-0.5-1.1-0.5c-2.3,0-3.9,0.7-5,2.1c-2,2.3-6.1,8.7-12.4,19.2c-2,3.5-3.2,5.2-4.1,7
		c-0.9,1.8-5.9,12.1-7.4,15.7c-1.9,4.8-1.9,7.6-1.9,9.6c0,3.2,1.9,4.8,5.7,4.8c2.2,0,4.6-1,7.1-3.1c1.1-0.9,2-1.7,2.8-2.5
		c1-0.8,2.1-1.9,3.8-3.8c0.4-0.4,0.5-1.2,0.5-2.2v-0.8c0-1.9-0.3-2.8-0.9-2.8c-0.4,0-1.4,0.6-2.8,2l0,0c-0.1,0.1-0.2,0.2-0.4,0.4
		c-0.5,0.5-1,1-1.5,1.6c-0.1,0.1-0.2,0.2-0.3,0.3c-0.6,0.6-1.2,1.2-1.8,1.8c-0.8,0.8-1.8,1.6-2.8,2.3c-0.8,0.5-1.4,0.8-2,1
		c-0.2,0-0.5,0.1-0.7,0.1c-0.8,0-1.1-0.5-1.1-1.6v-0.3c0-1.3,1.6-5.3,4.9-11.7c3.3-6.5,7.8-14.4,13.6-23.8c1-1.6,2.4-3.9,4.2-6.7
		c1.8-2.9,2.9-4.7,3.4-5.6c0.5-0.9,0.7-1.4,0.7-1.8C367.7,47,367.6,46.7,367.3,46.4"/>
	<path class="st15" d="M363.2,74c-0.1-0.4-0.3-0.7-0.6-0.8c-0.3-0.2-0.9-0.2-1.9-0.2c-0.9,0-0.6,0-3.5,0.1
		c-10.8,0.1-12.2,0.4-15,0.9c-1.7,0.2-3.2,1.3-4.3,3.2c-0.2,0.4-0.3,0.8-0.2,1.2c0.1,0.4,0.3,0.7,0.6,0.8c0.3,0.2,0.9,0.2,1.9,0.3
		c0.9,0,2.8,0,5.7-0.1c10.8-0.1,11.2-0.4,12.8-0.9c1.6-0.5,3.2-1.3,4.3-3.2C363.3,74.8,363.3,74.4,363.2,74"/>
	<polygon class="st16" points="41.2,141.6 1.8,112.4 6.3,73.8 12.2,78.4 26.6,72.7 28.9,57.3 26.5,55.4 46.9,46.6 51.1,81.9 
		85.6,96.7 88.4,103.8 87.2,114.1 85.5,122.5 	"/>
	<polygon class="st17" points="141.7,77.2 139.4,77 134.8,65.4 129.9,64.7 127.8,46.4 144.3,47.9 151.5,63.3 	"/>
	<polygon class="st16" points="91.9,73.4 52.5,44.2 46.9,46.6 45.7,35.8 82.8,8.1 125.4,26.4 127.8,46.4 127.4,46.3 117.6,60.2 
		118.9,63.1 102.1,60.6 	"/>
	<polygon class="st18" points="85.6,96.7 51.1,81.9 46.9,46.6 52.5,44.2 91.9,73.4 81.5,86.5 	"/>
	<polygon class="st19" points="129.9,64.7 118.9,63.1 117.6,60.2 127.4,46.3 127.8,46.4 	"/>
	<polygon class="st20" points="126.4,122.1 119.7,121.1 120.5,117.1 106,104.5 90.7,109.8 88.4,103.8 89,98.2 93.7,100.2 
		126.4,75.8 139.4,77 147,96.2 	"/>
	<polygon class="st21" points="88.4,103.8 85.6,96.7 89,98.2 	"/>
	<polygon class="st22" points="139.4,77 126.4,75.8 130.8,72.5 129.9,64.7 134.8,65.4 	"/>
	<polygon class="st21" points="93.7,100.2 89,98.2 91.9,73.5 91.9,73.4 102.1,60.6 118.9,63.1 124.7,75.7 126.4,75.8 	"/>
	<polygon class="st23" points="89,98.2 85.6,96.7 81.5,86.5 91.9,73.4 91.9,73.5 	"/>
	<polygon class="st24" points="126.4,75.8 124.7,75.7 118.9,63.1 129.9,64.7 130.8,72.5 	"/>
	<polygon class="st17" points="6.3,73.8 0,68.8 2.2,53.4 16.7,47.7 26.5,55.4 7.5,63.6 	"/>
	<polygon class="st19" points="12.2,78.4 6.3,73.8 7.5,63.6 26.5,55.4 28.9,57.3 26.6,72.7 	"/>
	<polygon class="st17" points="98.6,142.2 84.1,129.7 85.5,122.5 86.2,122.2 87.2,114.1 87.8,110.8 90.7,109.8 93.7,117.2 
		119.7,121.1 116.8,136 	"/>
	<polygon class="st19" points="85.5,122.5 87.2,114.1 86.2,122.2 	"/>
	<polygon class="st22" points="119.7,121.1 93.7,117.2 90.7,109.8 106,104.5 120.5,117.1 	"/>
	<polygon class="st25" points="101.4,29 43.4,29 14.4,79.2 43.4,129.4 101.4,129.4 130.4,79.2 	"/>
	<path class="st15" d="M115,46.5c-0.9-0.7-2-1.1-3.3-1.1c-4,0-9.9,5.4-17.6,16.3c-3.4,4.8-6.5,10.6-9.2,17.5
		c-1.9,4.8-3.1,9.2-3.7,13.1c-0.8,0.6-2,1.7-3.6,3.3c-1,1-2.1,1.9-3.5,2.8c-1.3,0.8-2.6,1.2-3.8,1.2c-1.2,0-2.1-0.3-2.9-1
		c-0.8-0.7-1.2-1.5-1.2-2.3c0-0.9,0.1-1.7,0.3-2.5c0.2-0.8,0.3-1.4,0.3-1.7c4.2-4.6,8.5-9.8,13-15.5c2.9-3.6,5.4-7.1,7.7-10.3
		c2.3-3.2,4.2-6.4,5.8-9.5c1.6-3.1,2.4-5.4,2.4-6.8c0-1.5-0.5-2.5-1.4-3.3c-0.9-0.7-2-1.1-3.3-1.1c-4,0-9.9,5.4-17.6,16.3
		c-3.4,4.8-6.5,10.6-9.2,17.5c-1.8,4.6-3,8.7-3.6,12.5v0c-0.3,0-0.5,0.1-0.7,0.2c-0.2,0.2-0.7,0.7-1.5,1.6c-0.8,0.9-1.7,1.8-2.5,2.6
		c-0.8,0.8-1.8,1.6-2.9,2.3c-1.1,0.7-2,1.1-2.8,1.1c-0.8,0-1.2-0.5-1.2-1.6v-0.3c0-1.4,1.7-5.4,5-12c3.3-6.6,8-14.7,13.9-24.3
		c1-1.7,2.4-4,4.2-6.9c1.8-2.9,3-4.8,3.5-5.7c0.5-0.9,0.8-1.5,0.8-1.8c0-0.3-0.1-0.6-0.4-1c-0.3-0.3-0.7-0.5-1.2-0.5
		c-2.3,0-4,0.7-5.1,2.1c-2,2.4-6.3,8.9-12.6,19.6c-2,3.6-3.4,6-4.2,7.2c-1.1-1-2.1-1.5-2.9-1.5c-2.6,0-5.5,0.8-8.6,2.5
		c-3.1,1.6-5.9,3.7-8.5,6.2c-2.6,2.5-4.7,5.2-6.4,8.3c-1.7,3.1-2.6,5.7-2.6,7.9c0,2.2,0.4,3.9,1.2,5c0.8,1.2,2,1.8,3.7,1.8
		c3,0,6.5-1.8,10.5-5.3c2.2-1.9,4.3-4.2,6.4-7c-1.6,3.3-2.3,6-2.3,8.1c0,3.3,1.9,4.9,5.8,4.9c2.3,0,4.7-1,7.3-3.1
		c1.6-1.3,2.9-2.5,3.8-3.6c0.2,1.9,0.8,3.5,1.8,4.6c1.3,1.5,3.1,2.2,5.6,2.2c2.4,0,5-0.7,7.7-2c2-1,3.9-2.3,5.6-4
		c0.3,1.5,0.8,2.7,1.7,3.7c1.3,1.5,3.1,2.2,5.6,2.2c2.4,0,5-0.7,7.7-2c2.7-1.3,5.2-3.3,7.4-6c0.4-0.5,0.5-1.2,0.5-2.2v-0.8
		c0-1.9-0.3-2.8-0.9-2.8c-0.6,0-2.2,1.3-4.8,4c-1,1-2.1,1.9-3.5,2.8c-1.3,0.8-2.6,1.2-3.8,1.2c-1.2,0-2.1-0.3-2.9-1
		c-0.8-0.7-1.2-1.5-1.2-2.3c0-0.9,0.1-1.7,0.3-2.5c0.2-0.8,0.3-1.4,0.3-1.7c4.2-4.6,8.5-9.8,13-15.5c2.9-3.6,5.4-7.1,7.7-10.3
		c2.3-3.2,4.2-6.4,5.8-9.5c1.6-3.1,2.4-5.4,2.4-6.8C116.4,48.4,116,47.3,115,46.5 M73.5,71.5c1.7-3.1,4.5-7.2,8.4-12.4
		c3.9-5.2,6.3-7.8,7.2-7.8c0.3,0,0.4,0.2,0.4,0.6c0,1.8-2.7,6.6-8.1,14.3c-5.4,7.7-9.6,13.4-12.7,17C70.1,78.5,71.8,74.6,73.5,71.5
		 M42.7,88.1c-6.2,7-10,10.4-11.6,10.4c-0.4,0-0.5-0.4-0.5-1.3c0-0.9,0.8-2.7,2.4-5.6c1.6-2.9,4-5.7,7.2-8.3
		c3.2-2.6,6.7-4.4,10.4-5.2C48.5,81.3,45.8,84.7,42.7,88.1 M101.9,66.2c-5.4,7.7-9.6,13.4-12.7,17c1.5-4.7,3.2-8.6,4.9-11.6
		c1.7-3.1,4.5-7.2,8.4-12.4c3.9-5.2,6.3-7.8,7.2-7.8c0.3,0,0.4,0.2,0.4,0.6C110,53.7,107.3,58.5,101.9,66.2"/>
	<polygon class="st26" points="189.3,83.5 173.7,92.4 189.3,101.4 189.3,93.9 232.6,93.9 232.6,90.9 189.3,90.9 	"/>
	<polygon class="st26" points="217.1,74.9 232.6,65.9 217.1,57 217.1,64.4 173.7,64.4 173.7,67.4 217.1,67.4 	"/>
</g>
</svg>
