<?xml version="1.0" encoding="utf-8"?>
<!-- Generator: Adobe Illustrator 25.2.3, SVG Export Plug-In . SVG Version: 6.00 Build 0)  -->
<svg version="1.1" id="Ebene_1" xmlns="http://www.w3.org/2000/svg" xmlns:xlink="http://www.w3.org/1999/xlink" x="0px" y="0px"
	 viewBox="0 0 1920 958.1" style="enable-background:new 0 0 1920 958.1;" xml:space="preserve">
<style type="text/css">
	.st0{clip-path:url(#SVGID_2_);fill:url(#SVGID_3_);}
	.st1{clip-path:url(#SVGID_5_);fill:url(#SVGID_6_);}
	.st2{clip-path:url(#SVGID_8_);fill:url(#SVGID_9_);}
	.st3{clip-path:url(#SVGID_11_);fill:url(#SVGID_12_);}
	.st4{clip-path:url(#SVGID_14_);fill:url(#SVGID_15_);}
	.st5{clip-path:url(#SVGID_17_);fill:url(#SVGID_18_);}
	.st6{clip-path:url(#SVGID_20_);fill:url(#SVGID_21_);}
	.st7{clip-path:url(#SVGID_23_);fill:url(#SVGID_24_);}
	.st8{clip-path:url(#SVGID_26_);fill:url(#SVGID_27_);}
	.st9{clip-path:url(#SVGID_29_);fill:url(#SVGID_30_);}
	.st10{clip-path:url(#SVGID_32_);fill:url(#SVGID_33_);}
	.st11{clip-path:url(#SVGID_35_);fill:url(#SVGID_36_);}
	.st12{clip-path:url(#SVGID_38_);fill:url(#SVGID_39_);}
	.st13{clip-path:url(#SVGID_41_);fill:url(#SVGID_42_);}
	.st14{clip-path:url(#SVGID_44_);fill:url(#SVGID_45_);}
	.st15{clip-path:url(#SVGID_47_);fill:url(#SVGID_48_);}
	.st16{clip-path:url(#SVGID_50_);fill:url(#SVGID_51_);}
	.st17{clip-path:url(#SVGID_53_);fill:url(#SVGID_54_);}
	.st18{clip-path:url(#SVGID_56_);fill:url(#SVGID_57_);}
	.st19{clip-path:url(#SVGID_59_);fill:url(#SVGID_60_);}
	.st20{clip-path:url(#SVGID_62_);fill:url(#SVGID_63_);}
	.st21{clip-path:url(#SVGID_65_);fill:url(#SVGID_66_);}
	.st22{clip-path:url(#SVGID_68_);fill:url(#SVGID_69_);}
	.st23{clip-path:url(#SVGID_71_);fill:url(#SVGID_72_);}
	.st24{clip-path:url(#SVGID_74_);fill:url(#SVGID_75_);}
	.st25{clip-path:url(#SVGID_77_);fill:url(#SVGID_78_);}
	.st26{clip-path:url(#SVGID_80_);fill:url(#SVGID_81_);}
</style>
<g>
	<defs>
		<path id="SVGID_1_" d="M267.2,479.6l35.6-6.8l7,36.8l-35.6,6.8L267.2,479.6z M1585.1,470.5l72.8-22l21.2,70.3l-72.8,22l-5.2-17.4
			l-16,43l-65.7-24.4l23.6-63.5l50.1,18.6L1585.1,470.5z M1791.8,444l8.2-21.9l22.7,8.4l-8.2,22L1791.8,444z M1683,418.5h36.3V456
			H1683V418.5z M242,453.1l3.5-47l48.6,3.6l-3.5,47L242,453.1z M89.5,404l26.1-4.1l3.9,25.3l-26.1,4.1L89.5,404z M306.1,451.7
			l102-58.9l38.9,67.3l20.5-55.2l155.8,57.9l-56,150.6l-155.8-57.9l15.7-42.3L363,550.3L306.1,451.7z M149.4,436.6L166,392
			l46.2,17.2l-16.6,44.6L149.4,436.6z M1752.3,371.5l34-7.6l7.3,32.9l-34,7.6L1752.3,371.5z M308.9,341.3l72.8-22l21.2,70.3
			l-72.8,22L308.9,341.3z M1582,328.6l82.5-18.4l17.8,79.7l-82.5,18.4L1582,328.6z M196.7,334.3l54-31.2l30.1,52.2l-54,31.2
			L196.7,334.3z M453.5,285.3l54.5-10.4l-15.7-27.2l31.4-18.1l18.8,32.5l-16.2,9.4l32.9-6.3l19.5,102.1L473,387.4L453.5,285.3z
			 M1327.7,226.4l94.4-18l18.7,97.7l-8.2,1.6l94.8,35.3l-18.8,50.5l45.8-10.2l14.9,66.6l-68.9,15.4l-6.9-31l-22,59.1l46.2,79.9
			l-102,58.9l-56.9-98.6l86.3-49.8l-129.4-48.1l42.3-113.7l-11.5,2.2L1327.7,226.4z M0,958.1h1920V0H0V958.1z"/>
	</defs>
	<clipPath id="SVGID_2_">
		<use xlink:href="#SVGID_1_"  style="overflow:visible;"/>
	</clipPath>
	
		<linearGradient id="SVGID_3_" gradientUnits="userSpaceOnUse" x1="9.094947e-13" y1="958.058" x2="1" y2="958.058" gradientTransform="matrix(0 -958.0579 -958.0579 0 918835.0625 958.058)">
		<stop  offset="0" style="stop-color:#CCD8E0"/>
		<stop  offset="0.6585" style="stop-color:#ECF0F4"/>
		<stop  offset="1" style="stop-color:#FDFEFF"/>
	</linearGradient>
	<rect x="0" class="st0" width="1920" height="958.1"/>
</g>
<g>
	<defs>
		<polygon id="SVGID_4_" points="1471.4,493.2 1460.7,474.5 1445,483.6 1315.5,435.5 1357.8,321.8 1432.5,307.5 1527.3,342.8 
			1508.5,393.3 1485.4,398.5 1493.4,434.1 		"/>
	</defs>
	<clipPath id="SVGID_5_">
		<use xlink:href="#SVGID_4_"  style="overflow:visible;"/>
	</clipPath>
	
		<linearGradient id="SVGID_6_" gradientUnits="userSpaceOnUse" x1="0" y1="957.5764" x2="1" y2="957.5764" gradientTransform="matrix(0 -958.0579 -958.0579 0 918835.0625 958.058)">
		<stop  offset="0" style="stop-color:#2866A5"/>
		<stop  offset="0.1073" style="stop-color:#2A67A7"/>
		<stop  offset="1" style="stop-color:#3675BB"/>
	</linearGradient>
	<rect x="1315.5" y="307.5" class="st1" width="211.8" height="185.6"/>
</g>
<g>
	<defs>
		<polygon id="SVGID_7_" points="567.2,613.5 411.5,555.6 427.2,513.2 465,491.4 446.9,460.2 467.5,405 623.2,462.9 		"/>
	</defs>
	<clipPath id="SVGID_8_">
		<use xlink:href="#SVGID_7_"  style="overflow:visible;"/>
	</clipPath>
	
		<linearGradient id="SVGID_9_" gradientUnits="userSpaceOnUse" x1="0" y1="958.52" x2="1" y2="958.52" gradientTransform="matrix(0 -958.0579 -958.0579 0 918835.0625 958.058)">
		<stop  offset="0" style="stop-color:#2866A5"/>
		<stop  offset="0.1073" style="stop-color:#2A67A7"/>
		<stop  offset="1" style="stop-color:#3675BB"/>
	</linearGradient>
	<rect x="411.5" y="405" class="st2" width="211.8" height="208.5"/>
</g>
<g>
	<defs>
		
			<rect id="SVGID_10_" x="317.9" y="328.7" transform="matrix(0.9573 -0.2891 0.2891 0.9573 -90.4709 118.5227)" width="76" height="73.5"/>
	</defs>
	<clipPath id="SVGID_11_">
		<use xlink:href="#SVGID_10_"  style="overflow:visible;"/>
	</clipPath>
	
		<linearGradient id="SVGID_12_" gradientUnits="userSpaceOnUse" x1="0" y1="958.6885" x2="1" y2="958.6885" gradientTransform="matrix(0 -958.0579 -958.0579 0 918835.0625 958.058)">
		<stop  offset="0" style="stop-color:#2866A5"/>
		<stop  offset="0.1073" style="stop-color:#2A67A7"/>
		<stop  offset="1" style="stop-color:#3675BB"/>
	</linearGradient>
	<rect x="308.9" y="319.3" class="st3" width="94" height="92.3"/>
</g>
<g>
	<defs>
		
			<rect id="SVGID_13_" x="157" y="398.2" transform="matrix(0.3485 -0.9373 0.9373 0.3485 -278.5585 444.9588)" width="47.6" height="49.2"/>
	</defs>
	<clipPath id="SVGID_14_">
		<use xlink:href="#SVGID_13_"  style="overflow:visible;"/>
	</clipPath>
	
		<linearGradient id="SVGID_15_" gradientUnits="userSpaceOnUse" x1="0" y1="958.8713" x2="1" y2="958.8713" gradientTransform="matrix(0 -958.0579 -958.0579 0 918835.0625 958.058)">
		<stop  offset="0" style="stop-color:#2866A5"/>
		<stop  offset="0.1073" style="stop-color:#2A67A7"/>
		<stop  offset="1" style="stop-color:#3675BB"/>
	</linearGradient>
	<rect x="149.4" y="392" class="st4" width="62.8" height="61.8"/>
</g>
<g>
	<defs>
		<polygon id="SVGID_16_" points="1606.4,540.8 1601.1,523.4 1608.8,502.9 1593.1,497.1 1585.1,470.5 1657.9,448.5 1679.1,518.8 		
			"/>
	</defs>
	<clipPath id="SVGID_17_">
		<use xlink:href="#SVGID_16_"  style="overflow:visible;"/>
	</clipPath>
	
		<linearGradient id="SVGID_18_" gradientUnits="userSpaceOnUse" x1="0" y1="957.3564" x2="1" y2="957.3564" gradientTransform="matrix(0 -958.0579 -958.0579 0 918835.0625 958.058)">
		<stop  offset="0" style="stop-color:#2866A5"/>
		<stop  offset="0.1073" style="stop-color:#2A67A7"/>
		<stop  offset="1" style="stop-color:#3675BB"/>
	</linearGradient>
	<rect x="1585.1" y="448.5" class="st5" width="94" height="92.3"/>
</g>
<g>
	<defs>
		
			<rect id="SVGID_19_" x="1795.5" y="425.2" transform="matrix(0.3485 -0.9373 0.9373 0.3485 767.5066 1978.7804)" width="23.4" height="24.2"/>
	</defs>
	<clipPath id="SVGID_20_">
		<use xlink:href="#SVGID_19_"  style="overflow:visible;"/>
	</clipPath>
	
		<linearGradient id="SVGID_21_" gradientUnits="userSpaceOnUse" x1="0" y1="957.1736" x2="1" y2="957.1736" gradientTransform="matrix(0 -958.0579 -958.0579 0 918835.0625 958.058)">
		<stop  offset="0" style="stop-color:#2866A5"/>
		<stop  offset="0.1073" style="stop-color:#2A67A7"/>
		<stop  offset="1" style="stop-color:#3675BB"/>
	</linearGradient>
	<rect x="1791.8" y="422.1" class="st6" width="30.9" height="30.4"/>
</g>
<g>
	<defs>
		<polygon id="SVGID_22_" points="1585.1,566.4 1519.4,542 1543,478.4 1593.1,497.1 1601.1,523.4 		"/>
	</defs>
	<clipPath id="SVGID_23_">
		<use xlink:href="#SVGID_22_"  style="overflow:visible;"/>
	</clipPath>
	
		<linearGradient id="SVGID_24_" gradientUnits="userSpaceOnUse" x1="0" y1="957.4315" x2="1" y2="957.4315" gradientTransform="matrix(0 -958.0579 -958.0579 0 918835.0625 958.058)">
		<stop  offset="0" style="stop-color:#67A7D1"/>
		<stop  offset="1" style="stop-color:#84C0EA"/>
	</linearGradient>
	<rect x="1519.4" y="478.4" class="st7" width="81.7" height="88"/>
</g>
<g>
	<defs>
		<polygon id="SVGID_25_" points="1601.1,523.4 1593.1,497.1 1608.8,502.9 		"/>
	</defs>
	<clipPath id="SVGID_26_">
		<use xlink:href="#SVGID_25_"  style="overflow:visible;"/>
	</clipPath>
	
		<linearGradient id="SVGID_27_" gradientUnits="userSpaceOnUse" x1="0" y1="957.389" x2="1" y2="957.389" gradientTransform="matrix(0 -958.0579 -958.0579 0 918835.0625 958.058)">
		<stop  offset="0" style="stop-color:#005197"/>
		<stop  offset="0.501" style="stop-color:#0058A2"/>
		<stop  offset="1" style="stop-color:#005DA9"/>
	</linearGradient>
	<rect x="1593.1" y="497.1" class="st8" width="15.6" height="26.4"/>
</g>
<g>
	<defs>
		<polygon id="SVGID_28_" points="1346.3,324 1327.7,226.4 1422.1,208.3 1440.7,306 1432.5,307.5 1371.5,284.9 1357.8,321.8 		"/>
	</defs>
	<clipPath id="SVGID_29_">
		<use xlink:href="#SVGID_28_"  style="overflow:visible;"/>
	</clipPath>
	
		<linearGradient id="SVGID_30_" gradientUnits="userSpaceOnUse" x1="0" y1="957.6152" x2="1" y2="957.6152" gradientTransform="matrix(0 -958.0579 -958.0579 0 918835.0625 958.058)">
		<stop  offset="0" style="stop-color:#67A7D1"/>
		<stop  offset="1" style="stop-color:#84C0EA"/>
	</linearGradient>
	<rect x="1327.7" y="208.3" class="st9" width="113.1" height="115.7"/>
</g>
<g>
	<defs>
		<polygon id="SVGID_31_" points="1357.8,321.8 1371.5,284.9 1432.5,307.5 		"/>
	</defs>
	<clipPath id="SVGID_32_">
		<use xlink:href="#SVGID_31_"  style="overflow:visible;"/>
	</clipPath>
	
		<linearGradient id="SVGID_33_" gradientUnits="userSpaceOnUse" x1="0" y1="957.6038" x2="1" y2="957.6038" gradientTransform="matrix(0 -958.0579 -958.0579 0 918835.0625 958.058)">
		<stop  offset="0" style="stop-color:#005197"/>
		<stop  offset="0.501" style="stop-color:#0058A2"/>
		<stop  offset="1" style="stop-color:#005DA9"/>
	</linearGradient>
	<rect x="1357.8" y="284.9" class="st10" width="74.7" height="36.9"/>
</g>
<g>
	<defs>
		<polygon id="SVGID_34_" points="473,387.4 453.5,285.3 508,274.9 511,280.2 526.2,271.4 559.1,265.1 578.6,367.2 		"/>
	</defs>
	<clipPath id="SVGID_35_">
		<use xlink:href="#SVGID_34_"  style="overflow:visible;"/>
	</clipPath>
	
		<linearGradient id="SVGID_36_" gradientUnits="userSpaceOnUse" x1="0" y1="958.5214" x2="1" y2="958.5214" gradientTransform="matrix(0 -958.0579 -958.0579 0 918835.0625 958.058)">
		<stop  offset="0" style="stop-color:#67A7D1"/>
		<stop  offset="1" style="stop-color:#84C0EA"/>
	</linearGradient>
	<rect x="453.5" y="265.1" class="st11" width="125.1" height="122.2"/>
</g>
<g>
	<defs>
		
			<rect id="SVGID_37_" x="244.5" y="407" transform="matrix(7.485906e-02 -0.9972 0.9972 7.485906e-02 -182.1841 666.4297)" width="47.1" height="48.7"/>
	</defs>
	<clipPath id="SVGID_38_">
		<use xlink:href="#SVGID_37_"  style="overflow:visible;"/>
	</clipPath>
	
		<linearGradient id="SVGID_39_" gradientUnits="userSpaceOnUse" x1="0" y1="958.7802" x2="1" y2="958.7802" gradientTransform="matrix(0 -958.0579 -958.0579 0 918835.0625 958.058)">
		<stop  offset="0" style="stop-color:#67A7D1"/>
		<stop  offset="1" style="stop-color:#84C0EA"/>
	</linearGradient>
	<rect x="242" y="406.1" class="st12" width="52.1" height="50.6"/>
</g>
<g>
	<defs>
		
			<rect id="SVGID_40_" x="91.3" y="401.8" transform="matrix(0.988 -0.1545 0.1545 0.988 -62.8051 21.1233)" width="26.4" height="25.6"/>
	</defs>
	<clipPath id="SVGID_41_">
		<use xlink:href="#SVGID_40_"  style="overflow:visible;"/>
	</clipPath>
	
		<linearGradient id="SVGID_42_" gradientUnits="userSpaceOnUse" x1="0" y1="958.9509" x2="1" y2="958.9509" gradientTransform="matrix(0 -958.0579 -958.0579 0 918835.0625 958.058)">
		<stop  offset="0" style="stop-color:#67A7D1"/>
		<stop  offset="1" style="stop-color:#84C0EA"/>
	</linearGradient>
	<rect x="89.5" y="399.9" class="st13" width="30.1" height="29.3"/>
</g>
<g>
	<defs>
		<polygon id="SVGID_43_" points="1415.6,632 1358.7,533.4 1445,483.6 1471.3,493.4 1471.4,493.2 1517.6,573.1 		"/>
	</defs>
	<clipPath id="SVGID_44_">
		<use xlink:href="#SVGID_43_"  style="overflow:visible;"/>
	</clipPath>
	
		<linearGradient id="SVGID_45_" gradientUnits="userSpaceOnUse" x1="0" y1="957.5589" x2="1" y2="957.5589" gradientTransform="matrix(0 -958.0579 -958.0579 0 918835.0625 958.058)">
		<stop  offset="0" style="stop-color:#41388E"/>
		<stop  offset="1" style="stop-color:#4C4294"/>
	</linearGradient>
	<rect x="1358.7" y="483.6" class="st14" width="158.9" height="148.4"/>
</g>
<g>
	<defs>
		<polygon id="SVGID_46_" points="1471.3,493.4 1445,483.6 1460.7,474.5 1471.4,493.2 		"/>
	</defs>
	<clipPath id="SVGID_47_">
		<use xlink:href="#SVGID_46_"  style="overflow:visible;"/>
	</clipPath>
	
		<linearGradient id="SVGID_48_" gradientUnits="userSpaceOnUse" x1="0" y1="957.538" x2="1" y2="957.538" gradientTransform="matrix(0 -958.0579 -958.0579 0 918835.0625 958.058)">
		<stop  offset="0" style="stop-color:#252F61"/>
		<stop  offset="1" style="stop-color:#27336C"/>
	</linearGradient>
	<rect x="1445" y="474.5" class="st15" width="26.4" height="18.9"/>
</g>
<g>
	<defs>
		<polygon id="SVGID_49_" points="363,550.3 306.1,451.7 408.1,392.8 446.9,460.2 427.2,513.2 		"/>
	</defs>
	<clipPath id="SVGID_50_">
		<use xlink:href="#SVGID_49_"  style="overflow:visible;"/>
	</clipPath>
	
		<linearGradient id="SVGID_51_" gradientUnits="userSpaceOnUse" x1="0" y1="958.667" x2="1" y2="958.667" gradientTransform="matrix(0 -958.0579 -958.0579 0 918835.0625 958.058)">
		<stop  offset="0" style="stop-color:#41388E"/>
		<stop  offset="1" style="stop-color:#4C4294"/>
	</linearGradient>
	<rect x="306.1" y="392.8" class="st16" width="140.8" height="157.4"/>
</g>
<g>
	<defs>
		<polygon id="SVGID_52_" points="427.2,513.2 446.9,460.2 465,491.4 		"/>
	</defs>
	<clipPath id="SVGID_53_">
		<use xlink:href="#SVGID_52_"  style="overflow:visible;"/>
	</clipPath>
	
		<linearGradient id="SVGID_54_" gradientUnits="userSpaceOnUse" x1="0" y1="958.5944" x2="1" y2="958.5944" gradientTransform="matrix(0 -958.0579 -958.0579 0 918835.0625 958.058)">
		<stop  offset="0" style="stop-color:#252F61"/>
		<stop  offset="1" style="stop-color:#27336C"/>
	</linearGradient>
	<rect x="427.2" y="460.2" class="st17" width="37.8" height="53.1"/>
</g>
<g>
	<defs>
		
			<rect id="SVGID_55_" x="207.6" y="314.7" transform="matrix(0.866 -0.5 0.5 0.866 -140.4187 165.5817)" width="62.4" height="60.3"/>
	</defs>
	<clipPath id="SVGID_56_">
		<use xlink:href="#SVGID_55_"  style="overflow:visible;"/>
	</clipPath>
	
		<linearGradient id="SVGID_57_" gradientUnits="userSpaceOnUse" x1="0" y1="958.8108" x2="1" y2="958.8108" gradientTransform="matrix(0 -958.0579 -958.0579 0 918835.0625 958.058)">
		<stop  offset="0" style="stop-color:#41388E"/>
		<stop  offset="1" style="stop-color:#4C4294"/>
	</linearGradient>
	<rect x="196.7" y="303.1" class="st18" width="84.1" height="83.4"/>
</g>
<g>
	<defs>
		
			<rect id="SVGID_58_" x="1589.9" y="318.5" transform="matrix(0.976 -0.2177 0.2177 0.976 -39.0744 363.9166)" width="84.5" height="81.7"/>
	</defs>
	<clipPath id="SVGID_59_">
		<use xlink:href="#SVGID_58_"  style="overflow:visible;"/>
	</clipPath>
	
		<linearGradient id="SVGID_60_" gradientUnits="userSpaceOnUse" x1="0" y1="957.3564" x2="1" y2="957.3564" gradientTransform="matrix(0 -958.0579 -958.0579 0 918835.0625 958.058)">
		<stop  offset="0" style="stop-color:#41388E"/>
		<stop  offset="1" style="stop-color:#4C4294"/>
	</linearGradient>
	<rect x="1582" y="310.2" class="st19" width="100.2" height="98.1"/>
</g>
<g>
	<defs>
		
			<rect id="SVGID_61_" x="1755.6" y="367.3" transform="matrix(0.976 -0.2177 0.2177 0.976 -41.1073 395.1417)" width="34.9" height="33.7"/>
	</defs>
	<clipPath id="SVGID_62_">
		<use xlink:href="#SVGID_61_"  style="overflow:visible;"/>
	</clipPath>
	
		<linearGradient id="SVGID_63_" gradientUnits="userSpaceOnUse" x1="0" y1="957.2094" x2="1" y2="957.2094" gradientTransform="matrix(0 -958.0579 -958.0579 0 918835.0625 958.058)">
		<stop  offset="0" style="stop-color:#1B3E79"/>
		<stop  offset="1" style="stop-color:#1F468A"/>
	</linearGradient>
	<rect x="1752.3" y="363.9" class="st20" width="41.4" height="40.5"/>
</g>
<g>
	<defs>
		<polygon id="SVGID_64_" points="1500.3,465.1 1493.4,434.1 1508.5,393.3 1554.3,383.1 1569.2,449.7 		"/>
	</defs>
	<clipPath id="SVGID_65_">
		<use xlink:href="#SVGID_64_"  style="overflow:visible;"/>
	</clipPath>
	
		<linearGradient id="SVGID_66_" gradientUnits="userSpaceOnUse" x1="0" y1="957.4617" x2="1" y2="957.4617" gradientTransform="matrix(0 -958.0579 -958.0579 0 918835.0625 958.058)">
		<stop  offset="0" style="stop-color:#552A85"/>
		<stop  offset="0.2442" style="stop-color:#582D87"/>
		<stop  offset="1" style="stop-color:#5F358C"/>
	</linearGradient>
	<rect x="1493.4" y="383.1" class="st21" width="75.8" height="82"/>
</g>
<g>
	<defs>
		<polygon id="SVGID_67_" points="1493.4,434.1 1485.4,398.5 1508.5,393.3 		"/>
	</defs>
	<clipPath id="SVGID_68_">
		<use xlink:href="#SVGID_67_"  style="overflow:visible;"/>
	</clipPath>
	
		<linearGradient id="SVGID_69_" gradientUnits="userSpaceOnUse" x1="0" y1="957.4975" x2="1" y2="957.4975" gradientTransform="matrix(0 -958.0579 -958.0579 0 918835.0625 958.058)">
		<stop  offset="0" style="stop-color:#2A2961"/>
		<stop  offset="1" style="stop-color:#2C2C6C"/>
	</linearGradient>
	<rect x="1485.4" y="393.3" class="st22" width="23.1" height="40.8"/>
</g>
<g>
	<defs>
		<rect id="SVGID_70_" x="1683" y="418.5" width="36.3" height="37.5"/>
	</defs>
	<clipPath id="SVGID_71_">
		<use xlink:href="#SVGID_70_"  style="overflow:visible;"/>
	</clipPath>
	
		<linearGradient id="SVGID_72_" gradientUnits="userSpaceOnUse" x1="0" y1="957.2844" x2="1" y2="957.2844" gradientTransform="matrix(0 -958.0579 -958.0579 0 918835.0625 958.058)">
		<stop  offset="0" style="stop-color:#552A85"/>
		<stop  offset="0.2442" style="stop-color:#582D87"/>
		<stop  offset="1" style="stop-color:#5F358C"/>
	</linearGradient>
	<rect x="1683" y="418.5" class="st23" width="36.3" height="37.5"/>
</g>
<g>
	<defs>
		<polygon id="SVGID_73_" points="508,274.9 492.3,247.7 523.7,229.6 542.4,262.1 526.2,271.4 		"/>
	</defs>
	<clipPath id="SVGID_74_">
		<use xlink:href="#SVGID_73_"  style="overflow:visible;"/>
	</clipPath>
	
		<linearGradient id="SVGID_75_" gradientUnits="userSpaceOnUse" x1="0" y1="958.52" x2="1" y2="958.52" gradientTransform="matrix(0 -958.0579 -958.0579 0 918835.0625 958.058)">
		<stop  offset="0" style="stop-color:#552A85"/>
		<stop  offset="0.2442" style="stop-color:#582D87"/>
		<stop  offset="1" style="stop-color:#5F358C"/>
	</linearGradient>
	<rect x="492.3" y="229.6" class="st24" width="50.1" height="45.3"/>
</g>
<g>
	<defs>
		<polygon id="SVGID_76_" points="511,280.2 508,274.9 526.2,271.4 		"/>
	</defs>
	<clipPath id="SVGID_77_">
		<use xlink:href="#SVGID_76_"  style="overflow:visible;"/>
	</clipPath>
	
		<linearGradient id="SVGID_78_" gradientUnits="userSpaceOnUse" x1="0" y1="958.5203" x2="1" y2="958.5203" gradientTransform="matrix(0 -958.0579 -958.0579 0 918835.0625 958.058)">
		<stop  offset="0" style="stop-color:#372780"/>
		<stop  offset="0.5361" style="stop-color:#3A2A83"/>
		<stop  offset="1" style="stop-color:#3F2F88"/>
	</linearGradient>
	<rect x="508" y="271.4" class="st25" width="18.3" height="8.8"/>
</g>
<g>
	<defs>
		
			<rect id="SVGID_79_" x="270.4" y="475.9" transform="matrix(0.9822 -0.1877 0.1877 0.9822 -87.7385 62.9569)" width="36.3" height="37.5"/>
	</defs>
	<clipPath id="SVGID_80_">
		<use xlink:href="#SVGID_79_"  style="overflow:visible;"/>
	</clipPath>
	
		<linearGradient id="SVGID_81_" gradientUnits="userSpaceOnUse" x1="0" y1="958.7589" x2="1" y2="958.7589" gradientTransform="matrix(0 -958.0579 -958.0579 0 918835.0625 958.058)">
		<stop  offset="0" style="stop-color:#552A85"/>
		<stop  offset="0.2442" style="stop-color:#582D87"/>
		<stop  offset="1" style="stop-color:#5F358C"/>
	</linearGradient>
	<rect x="267.2" y="472.8" class="st26" width="42.7" height="43.6"/>
</g>
</svg>
