<?xml version="1.0" encoding="utf-8"?>
<!-- Generator: Adobe Illustrator 27.0.0, SVG Export Plug-In . SVG Version: 6.00 Build 0)  -->
<svg version="1.1" xmlns="http://www.w3.org/2000/svg" xmlns:xlink="http://www.w3.org/1999/xlink" x="0px" y="0px"
	 viewBox="0 0 151 144.9" style="enable-background:new 0 0 151 144.9;" xml:space="preserve">
<style type="text/css">
	.st0{fill:#D5DCE3;}
	.st1{fill:#01222C;}
	.st2{fill:#231F20;}
	.st3{clip-path:url(#SVGID_00000046340853924242928260000003281081486576524673_);fill:#231F20;}
	.st4{clip-path:url(#SVGID_00000144324477320575934490000017841566353122391444_);fill:#231F20;}
	.st5{clip-path:url(#SVGID_00000119082773141995385890000005980186928175536556_);fill:#231F20;}
	.st6{clip-path:url(#SVGID_00000032646426439391779230000008692447134763455657_);fill:#231F20;}
	.st7{clip-path:url(#SVGID_00000151538626893519985910000014398641287279603353_);fill:#231F20;}
	.st8{fill:#FFFFFF;}
	.st9{fill:#5F7ABE;}
	.st10{fill:#5735AC;}
	.st11{fill:#A6C6EC;}
	.st12{fill:#394791;}
	.st13{fill:#6800AC;}
	.st14{fill:#272856;}
	.st15{clip-path:url(#SVGID_00000177486625908520611840000012041776609089654673_);}
	.st16{clip-path:url(#SVGID_00000067220199230672708500000011994106941900044988_);fill:#231F20;}
	.st17{clip-path:url(#SVGID_00000109005762973294611260000006424887775012063125_);fill:#231F20;}
	.st18{clip-path:url(#SVGID_00000047781534363595450560000007173804501680951999_);}
	.st19{clip-path:url(#SVGID_00000134941174250201480300000007120613983674415780_);}
	.st20{clip-path:url(#SVGID_00000160168015085853732780000016206989084411961762_);}
	.st21{clip-path:url(#SVGID_00000133519634752321701000000011811972837899934649_);}
	.st22{clip-path:url(#SVGID_00000124882088232306790510000011806112182807873190_);}
	.st23{clip-path:url(#SVGID_00000142162265263275919630000010817797166992099993_);fill:#231F20;}
	.st24{clip-path:url(#SVGID_00000018201774111081202750000006163791317284167579_);fill:#231F20;}
	.st25{clip-path:url(#SVGID_00000008148805848010326270000013458685609238501537_);}
	.st26{clip-path:url(#SVGID_00000035515269658455736870000016401060034480179352_);}
	.st27{clip-path:url(#SVGID_00000057114164355736771440000011364364865613315241_);}
	.st28{clip-path:url(#SVGID_00000020387792099983650080000001100479082919895975_);fill:#231F20;}
	.st29{clip-path:url(#SVGID_00000124855380899996664400000001065622220295578517_);fill:#231F20;}
	.st30{clip-path:url(#SVGID_00000104677918048638501310000000571431008288239775_);}
	.st31{clip-path:url(#SVGID_00000107578333941626463730000014474384548042325685_);}
	.st32{clip-path:url(#SVGID_00000176009518701826537620000012571599983243315631_);}
	.st33{clip-path:url(#SVGID_00000008115330854093621580000001562295024858505884_);}
	.st34{clip-path:url(#SVGID_00000140716267656301759210000004210746293529907862_);fill:#231F20;}
	.st35{clip-path:url(#SVGID_00000021829176083930814730000018109714707768072841_);fill:#231F20;}
	.st36{clip-path:url(#SVGID_00000071519482043762234310000017350450383644003248_);}
	.st37{clip-path:url(#SVGID_00000164512060690918436150000016618899457422755488_);fill:#231F20;}
	.st38{clip-path:url(#SVGID_00000168825569935277718290000016053325142023325841_);fill:#231F20;}
	.st39{clip-path:url(#SVGID_00000039831448531844542990000010827140826127412907_);fill:#231F20;}
	.st40{clip-path:url(#SVGID_00000045590201832992990660000014951740546537752999_);fill:#231F20;}
	.st41{clip-path:url(#SVGID_00000129177159449431520370000012225021971915927227_);fill:#231F20;}
	.st42{clip-path:url(#SVGID_00000114049321095191269060000014127073393854947213_);fill:#231F20;}
	.st43{clip-path:url(#SVGID_00000142149189354483955510000000828817667744044176_);fill:#231F20;}
	.st44{clip-path:url(#SVGID_00000098920094544539884690000002137030718278445747_);}
	.st45{clip-path:url(#SVGID_00000140731460623434674740000013677040179931868598_);fill:#231F20;}
	.st46{clip-path:url(#SVGID_00000112610094787676574060000013182799588814895752_);fill:#231F20;}
	.st47{clip-path:url(#SVGID_00000029767714943087470010000013142424638079269272_);}
	.st48{clip-path:url(#SVGID_00000016770609974248278400000000979576368311271827_);}
	.st49{clip-path:url(#SVGID_00000155110184825218648410000001510961472851936437_);}
	.st50{clip-path:url(#SVGID_00000117646441871981232670000002818115147383586443_);}
	.st51{clip-path:url(#SVGID_00000078019164688432700440000016895288180729783687_);}
	.st52{clip-path:url(#SVGID_00000162346771233271434350000000421042933614792878_);fill:#231F20;}
	.st53{clip-path:url(#SVGID_00000000205355821501842700000011830293326938021802_);fill:#231F20;}
	.st54{clip-path:url(#SVGID_00000000210865992889578390000012385336539696676008_);}
	.st55{clip-path:url(#SVGID_00000018206144702198137300000007221702243592943538_);}
	.st56{clip-path:url(#SVGID_00000103251134168295383150000008069870645212067234_);}
	.st57{clip-path:url(#SVGID_00000062891564797542056830000011012720748243402666_);fill:#231F20;}
	.st58{clip-path:url(#SVGID_00000092431938791196494520000003119256859932723359_);fill:#231F20;}
	.st59{clip-path:url(#SVGID_00000060013018377378333270000004015387037388176061_);}
	.st60{clip-path:url(#SVGID_00000177445981599497336410000015205434133310365102_);}
	.st61{clip-path:url(#SVGID_00000031178989300015210820000012327954579571295360_);}
	.st62{clip-path:url(#SVGID_00000073704932547016295210000010475871668857679286_);}
	.st63{clip-path:url(#SVGID_00000111183548771897872460000008525472420043538561_);fill:#231F20;}
	.st64{clip-path:url(#SVGID_00000143599679121298635760000009322493169126428847_);fill:#231F20;}
	.st65{clip-path:url(#SVGID_00000062163239018338620330000002425595400410143162_);}
	.st66{clip-path:url(#SVGID_00000018214077371458455100000003353959676404579508_);fill:#231F20;}
	.st67{clip-path:url(#SVGID_00000051364569176327047740000001499878468408283306_);fill:#231F20;}
	.st68{clip-path:url(#SVGID_00000000223209066515396190000006296756949294298282_);fill:#FFFFFF;}
	.st69{clip-path:url(#SVGID_00000170965857797131369440000001831701022346957503_);fill:#FFFFFF;}
	.st70{clip-path:url(#SVGID_00000021084020845155556600000010000372191729356431_);fill:#FFFFFF;}
	.st71{clip-path:url(#SVGID_00000052807998158894541240000008812281846769982086_);fill:#FFFFFF;}
	.st72{clip-path:url(#SVGID_00000113348940236545680850000005979428905644430222_);fill:#FFFFFF;}
	.st73{clip-path:url(#SVGID_00000015337720159047493660000018045073076991936421_);fill:#FFFFFF;}
	.st74{clip-path:url(#SVGID_00000080891825870296877850000008826039915044395176_);fill:#FFFFFF;}
	.st75{clip-path:url(#SVGID_00000046322630294671993820000010494711515032998567_);fill:#FFFFFF;}
	.st76{clip-path:url(#SVGID_00000153674967744128337990000016736515203337809542_);fill:#FFFFFF;}
	.st77{clip-path:url(#SVGID_00000052803396839024680470000008254588296427751040_);fill:#FFFFFF;}
	.st78{clip-path:url(#SVGID_00000061442306299597533500000008798135852785076360_);fill:#FFFFFF;}
	.st79{clip-path:url(#SVGID_00000084510202418987072340000002205410534026022287_);fill:#FFFFFF;}
	.st80{clip-path:url(#SVGID_00000001640614586830952750000008356572719459967151_);fill:#FFFFFF;}
	.st81{clip-path:url(#SVGID_00000172418816189227911260000005565084287494390710_);fill:#FFFFFF;}
	.st82{clip-path:url(#SVGID_00000177471068776208931440000006708783135854363308_);fill:#FFFFFF;}
	.st83{clip-path:url(#SVGID_00000082339485076873782590000015814776913655100341_);fill:#FFFFFF;}
	.st84{clip-path:url(#SVGID_00000181774432796886175840000010698515016641087411_);fill:#FFFFFF;}
	.st85{clip-path:url(#SVGID_00000161608765444637051680000011054175469864536972_);fill:#FFFFFF;}
	.st86{clip-path:url(#SVGID_00000178925390128483260360000014247642293936186756_);fill:#FFFFFF;}
	.st87{clip-path:url(#SVGID_00000023281606890427826000000010010066272874634921_);fill:#FFFFFF;}
	.st88{clip-path:url(#SVGID_00000137128288591219223910000011153047229781889955_);fill:#FFFFFF;}
	.st89{clip-path:url(#SVGID_00000168820177828782937910000007889294232113904535_);fill:#FFFFFF;}
	.st90{clip-path:url(#SVGID_00000150792320909000276200000008637101961449053077_);fill:#FFFFFF;}
	.st91{clip-path:url(#SVGID_00000008107118269036403680000012767298932051097753_);fill:#FFFFFF;}
	.st92{clip-path:url(#SVGID_00000088107762538511356270000011643661290823751609_);fill:#FFFFFF;}
	.st93{clip-path:url(#SVGID_00000142884902827247351320000013852712988452753802_);fill:#FFFFFF;}
	.st94{clip-path:url(#SVGID_00000058572133868630282990000014649409432100813209_);fill:#FFFFFF;}
	.st95{clip-path:url(#SVGID_00000034812099822590577930000017875958184700094901_);fill:#FFFFFF;}
	.st96{clip-path:url(#SVGID_00000049922680260521113220000005589585787539825828_);fill:#FFFFFF;}
	.st97{clip-path:url(#SVGID_00000175292373117529188670000000301222386004349887_);}
	.st98{fill:none;stroke:#272856;stroke-miterlimit:10;}
	.st99{fill:none;stroke:#272856;stroke-width:1.1675;stroke-miterlimit:10;}
	.st100{fill:none;stroke:#000000;stroke-miterlimit:10;}
	.st101{clip-path:url(#SVGID_00000056407838344424435890000015252006467620510399_);}
	.st102{clip-path:url(#SVGID_00000112609868906189018870000013670363834942298548_);}
	.st103{clip-path:url(#SVGID_00000137848130625957236640000005641375896421920680_);}
	.st104{clip-path:url(#SVGID_00000170987786592678079210000018435917958514547091_);}
	.st105{clip-path:url(#SVGID_00000167379656903418006120000006237813336909291454_);}
	.st106{clip-path:url(#SVGID_00000029023426259632668200000000712200827626918289_);}
	.st107{clip-path:url(#SVGID_00000160155630871092799740000017345638906996494774_);}
	.st108{clip-path:url(#SVGID_00000085214769459589009720000002061908738794201496_);}
	.st109{clip-path:url(#SVGID_00000015328880364136161260000002823796928126714254_);}
	.st110{fill:#A7A7A7;}
	.st111{fill:#41413F;}
	.st112{fill:#4C8E90;}
	.st113{clip-path:url(#SVGID_00000142864394012082220360000018420180032566269078_);}
	.st114{fill:#1C2F63;}
	.st115{clip-path:url(#SVGID_00000168087878833255883990000006980170197339188632_);}
	.st116{clip-path:url(#SVGID_00000141439207763201894050000006531173224296067000_);}
	.st117{clip-path:url(#SVGID_00000047049186312572981800000003464320078472010883_);}
	.st118{fill:#1B1C19;}
	.st119{fill:#804659;}
	.st120{fill-rule:evenodd;clip-rule:evenodd;fill:#7FC2D4;}
	.st121{fill:none;stroke:#000000;stroke-width:3;stroke-miterlimit:10;}
	.st122{fill:none;stroke:#F0F0F0;stroke-width:3;stroke-miterlimit:10;}
	.st123{fill:none;stroke:#A7A7A7;stroke-width:3;stroke-miterlimit:10;}
	.st124{fill:none;stroke:#FFFFFF;stroke-width:2;stroke-miterlimit:10;}
	.st125{fill:none;stroke:#FFFFFF;stroke-width:2.4;stroke-miterlimit:10;}
	.st126{fill:#95C0A6;}
	.st127{fill:#357076;}
	.st128{clip-path:url(#SVGID_00000119119409770524956960000006944683479836127927_);}
	.st129{clip-path:url(#SVGID_00000087381697491211812670000009406475259578485414_);}
</style>
<g id="Ebene_2">
</g>
<g id="Ebene_1">
	<g>
		<g>
			<polygon class="st1" points="46.9,86 46.9,58.9 23.4,45.4 0,58.9 0,86 23.4,99.6 			"/>
			<g>
				<g>
					<path class="st8" d="M24.8,73.8c-0.3,0.3-0.6,0.4-1.1,0.4c-0.4,0-0.8-0.1-1.1-0.4c-0.3-0.3-0.4-0.6-0.4-1c0-0.4,0.1-0.7,0.4-1
						s0.6-0.4,1.1-0.4c0.4,0,0.8,0.1,1.1,0.4c0.3,0.3,0.4,0.6,0.4,1C25.2,73.2,25.1,73.5,24.8,73.8 M25.2,62.1l-0.6,8.5h-1.8
						l-0.6-8.5H25.2z M33.4,62.9c-2.2-4.8-7.9-5.3-11.4-4.8c-3.4,0.5-5.6,2.6-6.7,4.3c-1.1,1.8-1.3,4.1-1.2,4.9
						c0.1,0.6,0.7,2.3,0.2,2.9c-0.6,0.6-3,2.4-2.4,3.1c0.6,0.7,1.3,0.5,1.2,1c-0.1,0.6-0.6,0.6-0.4,1.3c0.2,0.7,0.6,0.7,0.6,0.7
						s-0.5,0.7-0.2,1c0.3,0.3,1.1,0.4,1,0.8c-0.1,0.4-0.9,1.5-0.1,2.6c0.8,1.1,4.9,0.6,4.9,0.6l-0.3,3.9h11.2c0-1.9-0.2-3,0-5.2
						c0.2-2.4,0.5-2.5,2-4.3C33.3,74.1,35.6,67.8,33.4,62.9"/>
				</g>
			</g>
		</g>
		<g>
			<polygon class="st1" points="124.8,40.6 124.8,13.5 101.3,0 77.9,13.5 77.9,40.6 101.3,54.1 			"/>
			<g>
				<g>
					<g>
						<path class="st8" d="M97.2,34l-2.1-3.3c1.1-0.3,1.9-1.3,1.9-2.5c0-1.4-1.2-2.6-2.6-2.6c-1.4,0-2.6,1.2-2.6,2.6
							c0,1.2,0.8,2.2,1.9,2.5L91.6,34c-0.2,0.2-0.2,0.5-0.2,0.8v2.4c0,0.8,0.6,1.4,1.4,1.4H96c0.8,0,1.5-0.7,1.5-1.5v-2.3
							C97.5,34.6,97.4,34.3,97.2,34"/>
					</g>
					<g>
						<path class="st8" d="M104.1,34l-2.1-3.3c1.1-0.3,1.9-1.3,1.9-2.5c0-1.4-1.2-2.6-2.6-2.6c-1.4,0-2.6,1.2-2.6,2.6
							c0,1.2,0.8,2.2,1.9,2.5L98.5,34c-0.2,0.2-0.2,0.5-0.2,0.8v2.4c0,0.8,0.6,1.4,1.4,1.4h3.2c0.8,0,1.5-0.7,1.5-1.5v-2.3
							C104.4,34.6,104.3,34.3,104.1,34"/>
					</g>
					<g>
						<path class="st8" d="M111.1,34l-2.1-3.3c1.1-0.3,1.9-1.3,1.9-2.5c0-1.4-1.2-2.6-2.6-2.6c-1.4,0-2.6,1.2-2.6,2.6
							c0,1.2,0.8,2.2,1.9,2.5l-2.1,3.3c-0.2,0.2-0.2,0.5-0.2,0.8v2.4c0,0.8,0.6,1.4,1.4,1.4h3.2c0.8,0,1.5-0.7,1.5-1.5v-2.3
							C111.3,34.6,111.2,34.3,111.1,34"/>
					</g>
					<g>
						<path class="st8" d="M99.6,17.3c0-1,0.3-1.9,0.9-2.7c-1.2-0.7-2.7-1.1-4.4-1.1c-4,0-7.2,2.4-7.2,5.3c0,2.9,3.2,5.3,7.2,5.3
							c0.8,0,1.6-0.1,2.3-0.3l1.7,0.8l0.3-1.6c0.7-0.4,1.3-0.9,1.8-1.4C100.6,20.6,99.6,19,99.6,17.3"/>
					</g>
					<g>
						<path class="st8" d="M107.3,12.4c-2.4,0-4.5,1-5.6,2.5c-0.5,0.7-0.8,1.5-0.8,2.4c0,1.5,0.9,2.9,2.4,3.8c0.1,0,0.1,0.1,0.2,0.1
							l0.3,1.5l1.5-0.7c0.7,0.2,1.4,0.3,2.1,0.3c3.6,0,6.5-2.2,6.5-4.9C113.8,14.6,110.9,12.4,107.3,12.4"/>
					</g>
				</g>
			</g>
		</g>
		<g>
			<polygon class="st1" points="72.6,131.4 72.6,104.3 49.1,90.8 25.7,104.3 25.7,131.4 49.1,144.9 			"/>
			<g>
				<g>
					<path class="st8" d="M46.9,122.5c-2.4,0-4.3-1.8-4.2-4.2c0-2.4,1.9-4.3,4.3-4.3c2.3,0,4.3,2,4.3,4.3
						C51.2,120.5,49.2,122.5,46.9,122.5 M57.4,118.7c1.3-0.5,1-1.4,0.9-2.3c-0.1-0.9-0.1-1.9-1.5-1.9c-1.5,0-2.3-1.5-1.5-2.7
						c0.9-1.4-0.3-1.8-0.9-2.5c-0.6-0.7-1.3-1.1-2.3-0.3c-1.2,0.9-2.7,0.3-2.9-1.1c-0.2-1-0.7-1.3-1.5-1.2c-0.9,0.1-2.2-0.6-2.6,1
						c-0.4,1.7-1.7,2.1-3.1,1c-0.3-0.2-0.6-0.6-1-0.5c-1,0.4-1.7,1.1-2.4,1.9c-0.4,0.5,0.1,1,0.3,1.5c0.5,1.2-0.3,2.6-1.6,2.5
						c-1.2-0.1-1.6,0.4-1.7,1.5c-0.1,1-0.8,2.1,0.8,2.7c1.5,0.6,1.7,2.1,0.5,3.1c-0.9,0.7-0.8,1.4-0.2,2.2c0.5,0.7,0.6,2.1,2.2,1.6
						c1.7-0.6,2.8,0.4,2.4,2.1c-0.3,1.5,0.8,1.6,1.7,1.9c0.9,0.4,1.6,0.7,2.2-0.4c0.8-1.3,2.4-1.3,3.1,0c0.8,1.4,1.7,0.8,2.6,0.5
						c0.9-0.3,1.7-0.6,1.4-1.7c-0.1-1.7,1-2.7,2.5-2.1c1.2,0.5,1.6-0.2,1.9-1c0.4-0.8,1.4-1.5,0.3-2.5
						C55.7,120.8,55.9,119.2,57.4,118.7"/>
					<path class="st8" d="M65.2,124.4c0.4-0.2,0.6-0.8,0.6-1.7c-0.6-1.9-1.3-3.9-2-5.7c-1.6-4.1-2.9-6.1-3.7-6.7
						c0.4-0.4,0.8-1.2,0.1-2.3c-1-1.6-3.1-3.6-3.1-3.6s0.3,2.2,0.2,4.7c0,1.4,1.1,1.7,1.7,1.6c-0.2,1,0.3,3.3,1.9,7.4
						c0.6,1.6,1.4,3.3,2.2,4.9C64,124.1,64.7,124.6,65.2,124.4"/>
				</g>
			</g>
		</g>
		<g>
			<polygon class="st1" points="151,86 151,58.9 127.5,45.4 104.1,58.9 104.1,86 127.5,99.6 			"/>
			<g>
				<g>
					<g>
						<path class="st8" d="M138.9,61.7l-14.2,0c-1.6,0-2.8,1.3-2.8,2.8l0,0.1l1.7,1.7l0-1.3c0-1,0.8-1.7,1.7-1.7l12.9,0
							c1,0,1.7,0.8,1.7,1.7l0,9.8c0,1-0.8,1.7-1.7,1.7l-4.6,0l-2.2,0l-0.4,0h-2.2l-0.7,0l-1.6,1.6h1.6l-2.5,2.5l1.1,1.1l3.6-3.6
							l1.7,0l3.6,3.6l1.1-1.1l-2.5-2.5l4.5,0c1.6,0,2.8-1.3,2.8-2.8l0-10.8C141.7,62.9,140.5,61.7,138.9,61.7"/>
					</g>
				</g>
				<g>
					<polygon class="st8" points="118.9,67.3 122.3,70.7 123.8,72.2 125.4,73.7 124.9,74.2 123.7,75.4 119,80.2 120.9,82.1 
						127.4,75.7 128.8,74.3 129.3,73.7 123.8,68.3 122.3,66.7 120.9,65.3 					"/>
				</g>
				<g>
					<g>
						<path class="st8" d="M115.4,65.3l-2,2l6.4,6.4l-6.4,6.4l2,2l8.4-8.4c0,0,0,0,0,0L115.4,65.3z"/>
					</g>
					<g>
						<path class="st8" d="M128.8,66c0,0.6-0.4,1-1,1c-0.6,0-1-0.4-1-1c0-0.6,0.4-1,1-1C128.4,65,128.8,65.4,128.8,66"/>
					</g>
				</g>
				<rect x="129.7" y="65.3" class="st8" width="7.1" height="1.3"/>
				<g>
					<g>
						<path class="st8" d="M128.8,69c0,0.6-0.4,1-1,1c-0.6,0-1-0.4-1-1c0-0.6,0.4-1,1-1C128.4,68,128.8,68.5,128.8,69"/>
					</g>
				</g>
				<rect x="129.7" y="68.4" class="st8" width="7.1" height="1.3"/>
				<rect x="129.7" y="71.4" class="st8" width="7.1" height="1.3"/>
			</g>
		</g>
		<g>
			<polygon class="st1" points="124.8,131.4 124.8,104.3 101.3,90.8 77.9,104.3 77.9,131.4 101.3,144.9 			"/>
			<g>
				<path class="st8" d="M106.8,113.2H95.9v-2.6c0-2.4,1.9-4.3,4.3-4.3h2.4c2.4,0,4.3,1.9,4.3,4.3V113.2z M102.2,121.6v2h-1.7v-2
					c-0.9-0.3-1.5-1.2-1.5-2.2c0-1.3,1-2.3,2.3-2.3s2.3,1,2.3,2.3C103.7,120.5,103.1,121.3,102.2,121.6 M109.3,113.5v-3.4
					c0-3.6-2.9-6.6-6.6-6.6h-2.8c-3.6,0-6.6,2.9-6.6,6.6v3.4c-0.8,0.4-1.4,1.2-1.4,2.2v10.3c0,1.3,1.1,2.4,2.4,2.4h13.9
					c1.3,0,2.4-1.1,2.4-2.4v-10.3C110.7,114.7,110.1,113.8,109.3,113.5"/>
			</g>
		</g>
		<g>
			<polygon class="st1" points="72.6,40.6 72.6,13.5 49.1,0 25.7,13.5 25.7,40.6 49.1,54.1 			"/>
			<g>
				<path class="st8" d="M61.1,32.2c0,0.8-0.4,1.5-0.9,2V22.4c0-1.7-1.4-3-3-3H45.9l-1.2-1.5h-5.6v-1.6h6.7l1.2,1.5h11.4
					c1.4,0,2.6,1.2,2.6,2.6L61.1,32.2L61.1,32.2z M58.5,16.9h-11l-1.2-1.5h-8.1v2.5h-0.9V22h0c0,0.1,0,0.2,0,0.4v11.8
					c0,1.7,1.4,3,3,3h15l-1.5-1.6l-0.5-0.6c-1.6,0.8-3.5,0.6-5-0.3c-0.3-0.2-0.7-0.5-0.9-0.8c-1-1-1.5-2.3-1.5-3.7
					c0-1.4,0.6-2.7,1.6-3.7c2.1-2,5.4-1.9,7.4,0.1c1.5,1.6,1.9,4,0.9,6l2,2l0.9,0.9l0.7,0.7c0.3-0.3,0.5-0.6,0.7-1
					c1.2-0.5,2.1-1.8,2.1-3.2V20.4C62,18.5,60.4,16.9,58.5,16.9"/>
				<path class="st8" d="M53,32.4c-1.1,1.1-2.9,1.1-4-0.1c-1.1-1.1-1.1-2.9,0.1-4c1.1-1.1,2.9-1.1,4,0.1
					C54.2,29.5,54.1,31.3,53,32.4 M57.3,35.7l-0.9-0.9l-1.8-1.9l0.2-0.3c1-1.7,0.7-3.8-0.6-5.2c-1.7-1.7-4.4-1.8-6.1-0.1
					c-0.8,0.8-1.3,1.9-1.3,3c0,1.2,0.4,2.3,1.2,3.1c1.3,1.4,3.5,1.7,5.2,0.8l0.3-0.2l0.7,0.8l0.9,0.9l1.5,1.6l1.4,1.4l1.2-1.1
					l-0.7-0.6L57.3,35.7z"/>
			</g>
		</g>
	</g>
</g>
</svg>
