<?xml version="1.0" encoding="utf-8"?>
<!-- Generator: Adobe Illustrator 27.0.0, SVG Export Plug-In . SVG Version: 6.00 Build 0)  -->
<svg version="1.1" xmlns="http://www.w3.org/2000/svg" xmlns:xlink="http://www.w3.org/1999/xlink" x="0px" y="0px"
	 viewBox="0 0 612.7 108.1" style="enable-background:new 0 0 612.7 108.1;" xml:space="preserve">
<style type="text/css">
	.st0{fill:#D5DCE3;}
	.st1{fill:#01222C;}
	.st2{fill:#231F20;}
	.st3{clip-path:url(#SVGID_00000014598303022271056300000002954253797339924143_);fill:#231F20;}
	.st4{clip-path:url(#SVGID_00000093157010212575828150000006704046328644218814_);fill:#231F20;}
	.st5{clip-path:url(#SVGID_00000005233140720453599350000008152160618339110309_);fill:#231F20;}
	.st6{clip-path:url(#SVGID_00000096773102112885046450000010114859864399097511_);fill:#231F20;}
	.st7{clip-path:url(#SVGID_00000072273968808830665920000015991975270801238702_);fill:#231F20;}
	.st8{fill:#FFFFFF;}
	.st9{fill:#5F7ABE;}
	.st10{fill:#5735AC;}
	.st11{fill:#A6C6EC;}
	.st12{fill:#394791;}
	.st13{fill:#6800AC;}
	.st14{fill:#272856;}
	.st15{clip-path:url(#SVGID_00000082365442961564063100000001160574444552820623_);}
	.st16{clip-path:url(#SVGID_00000137824295717807724040000000612415020526648986_);fill:#231F20;}
	.st17{clip-path:url(#SVGID_00000073683234582009061280000005842262919914101158_);fill:#231F20;}
	.st18{clip-path:url(#SVGID_00000183238810974452455860000011383006704449712531_);}
	.st19{clip-path:url(#SVGID_00000124138504236072776430000006120439176856576169_);}
	.st20{clip-path:url(#SVGID_00000031894077117058277170000018233522510584329379_);}
	.st21{clip-path:url(#SVGID_00000032647025946035762730000009577242706224602813_);}
	.st22{clip-path:url(#SVGID_00000090974694706125995860000005974675840348905379_);}
	.st23{clip-path:url(#SVGID_00000111168497374196163730000001049910951265962941_);fill:#231F20;}
	.st24{clip-path:url(#SVGID_00000037661983324464149050000015018931574174064303_);fill:#231F20;}
	.st25{clip-path:url(#SVGID_00000088113794305368151360000004109146594002258576_);}
	.st26{clip-path:url(#SVGID_00000028320319424253293290000004455529659510677386_);}
	.st27{clip-path:url(#SVGID_00000097502511203049485400000007831765950483559356_);}
	.st28{clip-path:url(#SVGID_00000013888050480914836240000004032454726526728609_);fill:#231F20;}
	.st29{clip-path:url(#SVGID_00000142178617718038891110000006056703365327473554_);fill:#231F20;}
	.st30{clip-path:url(#SVGID_00000098189251981615343380000006137961510546073751_);}
	.st31{clip-path:url(#SVGID_00000065059970421535018690000006608803766707672963_);}
	.st32{clip-path:url(#SVGID_00000002355590711765747890000002384075837984596618_);}
	.st33{clip-path:url(#SVGID_00000039843153815721050940000011620399750948425919_);}
	.st34{clip-path:url(#SVGID_00000173876681184490106050000011465296760423862205_);fill:#231F20;}
	.st35{clip-path:url(#SVGID_00000179606637295778280520000005893573278956524195_);fill:#231F20;}
	.st36{clip-path:url(#SVGID_00000165222294937077741520000005066529097568656782_);}
	.st37{clip-path:url(#SVGID_00000148633820817220231970000017905584195098116774_);fill:#231F20;}
	.st38{clip-path:url(#SVGID_00000116237024733761989700000004062561314356609959_);fill:#231F20;}
	.st39{clip-path:url(#SVGID_00000055676859340040546870000001228566504972891804_);fill:#231F20;}
	.st40{clip-path:url(#SVGID_00000116919105877541062860000002200059415352315827_);fill:#231F20;}
	.st41{clip-path:url(#SVGID_00000178906479088094992430000018333992185922492858_);fill:#231F20;}
	.st42{clip-path:url(#SVGID_00000142148769893821380200000003484504724933108884_);fill:#231F20;}
	.st43{clip-path:url(#SVGID_00000123411461251789391310000004014430295760738444_);fill:#231F20;}
	.st44{clip-path:url(#SVGID_00000034772866231439788230000017735207998247494327_);}
	.st45{clip-path:url(#SVGID_00000170239889026373400420000010368737537286784935_);fill:#231F20;}
	.st46{clip-path:url(#SVGID_00000098901846191139240220000006507436190121255099_);fill:#231F20;}
	.st47{clip-path:url(#SVGID_00000094604747250953990990000003137795379603726780_);}
	.st48{clip-path:url(#SVGID_00000001634068399383570930000017277313701057332874_);}
	.st49{clip-path:url(#SVGID_00000179622485671376075390000007954620599619225022_);}
	.st50{clip-path:url(#SVGID_00000149375956105290608060000014739877892663041968_);}
	.st51{clip-path:url(#SVGID_00000114044506429203554070000012280921270549495962_);}
	.st52{clip-path:url(#SVGID_00000075877817801750212570000016815747993297921457_);fill:#231F20;}
	.st53{clip-path:url(#SVGID_00000108995293277836049890000007833278520983429818_);fill:#231F20;}
	.st54{clip-path:url(#SVGID_00000172414444639153341860000016070180962340622724_);}
	.st55{clip-path:url(#SVGID_00000142862435305797717690000007720363116712712348_);}
	.st56{clip-path:url(#SVGID_00000113320402602540882510000002118362957912831116_);}
	.st57{clip-path:url(#SVGID_00000043443779791839315160000005086019943172897178_);fill:#231F20;}
	.st58{clip-path:url(#SVGID_00000092420153575665402630000010647248917897685132_);fill:#231F20;}
	.st59{clip-path:url(#SVGID_00000063623800268355562280000006482527874863490435_);}
	.st60{clip-path:url(#SVGID_00000129171281200285067430000009170330548339633036_);}
	.st61{clip-path:url(#SVGID_00000083795862666981441200000003551356490959781820_);}
	.st62{clip-path:url(#SVGID_00000130649185828481391890000014172251981468156062_);}
	.st63{clip-path:url(#SVGID_00000073717789947913716660000000403094302507139456_);fill:#231F20;}
	.st64{clip-path:url(#SVGID_00000062891549008774819430000010908130218713777341_);fill:#231F20;}
	.st65{clip-path:url(#SVGID_00000034074854552474132170000001827319267099810487_);}
	.st66{clip-path:url(#SVGID_00000091008837073254803170000016492920829171845533_);fill:#231F20;}
	.st67{clip-path:url(#SVGID_00000128477545718789366260000003688581347905661095_);fill:#231F20;}
	.st68{clip-path:url(#SVGID_00000002343856948230897010000012587579060407456669_);fill:#FFFFFF;}
	.st69{clip-path:url(#SVGID_00000008871134606544734290000014439151021648623012_);fill:#FFFFFF;}
	.st70{clip-path:url(#SVGID_00000109019469205581785700000013523083309722463668_);fill:#FFFFFF;}
	.st71{clip-path:url(#SVGID_00000085972312061815221380000014517873868516935829_);fill:#FFFFFF;}
	.st72{clip-path:url(#SVGID_00000031183341832191211960000010206815575308550539_);fill:#FFFFFF;}
	.st73{clip-path:url(#SVGID_00000081614031857038824020000010522063348860679559_);fill:#FFFFFF;}
	.st74{clip-path:url(#SVGID_00000088827561641918527600000013977421781175945640_);fill:#FFFFFF;}
	.st75{clip-path:url(#SVGID_00000014608937809663282990000012032426085097214655_);fill:#FFFFFF;}
	.st76{clip-path:url(#SVGID_00000140713840708916970850000003558345905489803711_);fill:#FFFFFF;}
	.st77{clip-path:url(#SVGID_00000171691834693994256320000001413241121752085139_);fill:#FFFFFF;}
	.st78{clip-path:url(#SVGID_00000116918954377495962590000010259917029994365341_);fill:#FFFFFF;}
	.st79{clip-path:url(#SVGID_00000003079959932455119390000004576374023304379269_);fill:#FFFFFF;}
	.st80{clip-path:url(#SVGID_00000106867302491249636550000011330597631576466326_);fill:#FFFFFF;}
	.st81{clip-path:url(#SVGID_00000046340820711622698590000012944276274337976705_);fill:#FFFFFF;}
	.st82{clip-path:url(#SVGID_00000075856433193028633720000010690438715815429303_);fill:#FFFFFF;}
	.st83{clip-path:url(#SVGID_00000055700018862682520570000011387320779203109305_);fill:#FFFFFF;}
	.st84{clip-path:url(#SVGID_00000013902467366125887680000016689627080407372189_);fill:#FFFFFF;}
	.st85{clip-path:url(#SVGID_00000132801475671182307070000012202168643586179514_);fill:#FFFFFF;}
	.st86{clip-path:url(#SVGID_00000142865275897769384700000001363485521583072148_);fill:#FFFFFF;}
	.st87{clip-path:url(#SVGID_00000036236492090653069170000005172998688394471811_);fill:#FFFFFF;}
	.st88{clip-path:url(#SVGID_00000109742737509640570790000005197900155851051148_);fill:#FFFFFF;}
	.st89{clip-path:url(#SVGID_00000031920303475005541570000006941500369151530882_);fill:#FFFFFF;}
	.st90{clip-path:url(#SVGID_00000062171224272427811190000013294161895173787568_);fill:#FFFFFF;}
	.st91{clip-path:url(#SVGID_00000009559398578849983610000001600205129925030273_);fill:#FFFFFF;}
	.st92{clip-path:url(#SVGID_00000105386554686583064140000010711990647642508221_);fill:#FFFFFF;}
	.st93{clip-path:url(#SVGID_00000093165874961039030040000015936896603128744889_);fill:#FFFFFF;}
	.st94{clip-path:url(#SVGID_00000043445540784504968760000008771037134872180918_);fill:#FFFFFF;}
	.st95{clip-path:url(#SVGID_00000049914090870859263200000005947807419863450030_);fill:#FFFFFF;}
	.st96{clip-path:url(#SVGID_00000059304480119384138750000000290453470362971781_);fill:#FFFFFF;}
	.st97{clip-path:url(#SVGID_00000005952696233176217380000003474543923339275136_);}
	.st98{fill:none;stroke:#272856;stroke-miterlimit:10;}
	.st99{fill:none;stroke:#272856;stroke-width:1.1675;stroke-miterlimit:10;}
	.st100{fill:none;stroke:#000000;stroke-miterlimit:10;}
	.st101{clip-path:url(#SVGID_00000053508515886381218420000017389593679541028797_);}
	.st102{clip-path:url(#SVGID_00000007408180398432347630000008594489353954260146_);}
	.st103{clip-path:url(#SVGID_00000073692871228250872170000016285490588907421375_);}
	.st104{clip-path:url(#SVGID_00000034800447245194915640000001620606788645452189_);}
	.st105{clip-path:url(#SVGID_00000173151625304217046750000008993813928415220361_);}
	.st106{clip-path:url(#SVGID_00000047022467572903216610000011033373730043609527_);}
	.st107{clip-path:url(#SVGID_00000043418797521831258390000009287155103370038204_);}
	.st108{clip-path:url(#SVGID_00000182507850277960269170000007759150968629595014_);}
	.st109{clip-path:url(#SVGID_00000140727229245712602600000010803094237002344618_);}
	.st110{fill:#A7A7A7;}
	.st111{fill:#41413F;}
	.st112{fill:#4C8E90;}
	.st113{clip-path:url(#SVGID_00000118385235997328895960000005478913903996574629_);}
	.st114{fill:#1C2F63;}
	.st115{clip-path:url(#SVGID_00000176014915530860359740000012473790645595878294_);}
	.st116{clip-path:url(#SVGID_00000002382165108633530340000004284836302821987992_);}
	.st117{clip-path:url(#SVGID_00000162342934060915165520000012804000903036570786_);}
	.st118{fill:#1B1C19;}
	.st119{fill:#804659;}
	.st120{fill-rule:evenodd;clip-rule:evenodd;fill:#7FC2D4;}
	.st121{fill:none;stroke:#000000;stroke-width:3;stroke-miterlimit:10;}
	.st122{fill:none;stroke:#F0F0F0;stroke-width:3;stroke-miterlimit:10;}
	.st123{fill:none;stroke:#A7A7A7;stroke-width:3;stroke-miterlimit:10;}
	.st124{fill:none;stroke:#FFFFFF;stroke-width:2;stroke-miterlimit:10;}
	.st125{fill:none;stroke:#FFFFFF;stroke-width:2.4;stroke-miterlimit:10;}
	.st126{fill:#95C0A6;}
	.st127{fill:#357076;}
	.st128{clip-path:url(#SVGID_00000028289657745101011050000005945178967038440858_);}
	.st129{clip-path:url(#SVGID_00000152235657186384947130000012802501969578307762_);}
</style>
<g id="Ebene_2">
</g>
<g id="Ebene_1">
	<g>
		<g>
			<polygon class="st1" points="93.4,80.9 93.4,27 46.7,0 0,27 0,80.9 46.7,107.9 			"/>
			<g>
				<g>
					<path class="st8" d="M49.4,56.6c-0.6,0.5-1.3,0.8-2.1,0.8c-0.8,0-1.5-0.3-2.1-0.8c-0.6-0.5-0.8-1.2-0.8-2c0-0.8,0.3-1.4,0.8-2
						c0.6-0.5,1.3-0.8,2.1-0.8c0.9,0,1.6,0.3,2.1,0.8c0.6,0.5,0.8,1.2,0.8,2C50.3,55.4,50,56,49.4,56.6 M50.3,33.2l-1.2,17h-3.6
						l-1.2-17L50.3,33.2z M66.5,34.9c-4.5-9.6-15.8-10.6-22.8-9.5C37,26.4,32.6,30.5,30.4,34c-2.1,3.5-2.6,8.2-2.4,9.8
						c0.1,1.1,1.5,4.6,0.4,5.7c-1.2,1.3-6,4.8-4.9,6.1c1.2,1.3,2.6,0.9,2.4,2.1c-0.2,1.2-1.3,1.2-0.8,2.5c0.5,1.3,1.3,1.4,1.3,1.4
						s-1,1.3-0.5,2c0.5,0.7,2.2,0.8,1.9,1.7c-0.3,0.9-1.9,3.1-0.2,5.2c1.7,2.2,9.8,1.3,9.8,1.3l-0.5,7.7h22.3c0-3.8-0.3-6.1,0-10.3
						c0.4-4.8,1-5.1,4-8.6C66.3,57.2,71,44.6,66.5,34.9"/>
				</g>
			</g>
		</g>
		<g>
			<polygon class="st1" points="612.7,81.2 612.7,27.2 566,0.2 519.3,27.2 519.3,81.2 566,108.1 			"/>
			<g>
				<g>
					<g>
						<path class="st8" d="M557.8,68.1l-4.1-6.5c2.2-0.6,3.7-2.6,3.7-5c0-2.9-2.3-5.2-5.2-5.2s-5.2,2.3-5.2,5.2c0,2.4,1.6,4.4,3.7,5
							l-4.1,6.5c-0.3,0.5-0.5,1-0.5,1.6v4.8c0,1.6,1.3,2.8,2.8,2.8h6.3c1.6,0,3-1.3,3-3v-4.6C558.3,69.1,558.1,68.5,557.8,68.1"/>
					</g>
					<g>
						<path class="st8" d="M571.6,68.1l-4.1-6.5c2.2-0.6,3.7-2.6,3.7-5c0-2.9-2.3-5.2-5.2-5.2s-5.2,2.3-5.2,5.2c0,2.4,1.6,4.4,3.7,5
							l-4.1,6.5c-0.3,0.5-0.5,1-0.5,1.6v4.8c0,1.6,1.3,2.8,2.8,2.8h6.3c1.6,0,3-1.3,3-3v-4.6C572.1,69.1,571.9,68.5,571.6,68.1"/>
					</g>
					<g>
						<path class="st8" d="M585.4,68.1l-4.1-6.5c2.2-0.6,3.7-2.6,3.7-5c0-2.9-2.3-5.2-5.2-5.2s-5.2,2.3-5.2,5.2c0,2.4,1.6,4.4,3.7,5
							l-4.1,6.5c-0.3,0.5-0.5,1-0.5,1.6v4.8c0,1.6,1.3,2.8,2.8,2.8h6.3c1.6,0,3-1.3,3-3v-4.6C585.8,69.1,585.7,68.5,585.4,68.1"/>
					</g>
					<g>
						<path class="st8" d="M562.6,34.8c0-2,0.7-3.8,1.8-5.4c-2.4-1.4-5.5-2.2-8.8-2.2c-8,0-14.4,4.7-14.4,10.5
							c0,5.8,6.4,10.5,14.4,10.5c1.6,0,3.2-0.2,4.6-0.6l3.4,1.6l0.6-3.1c1.4-0.8,2.6-1.7,3.5-2.8C564.5,41.2,562.6,38.1,562.6,34.8"
							/>
					</g>
					<g>
						<path class="st8" d="M577.9,25c-4.8,0-9,2-11.2,5c-1,1.4-1.6,3-1.6,4.7c0,3,1.8,5.8,4.7,7.5c0.1,0.1,0.3,0.2,0.4,0.2l0.5,2.9
							l3.1-1.5c1.3,0.3,2.7,0.5,4.2,0.5c7.1,0,12.9-4.4,12.9-9.7C590.8,29.4,585,25,577.9,25"/>
					</g>
				</g>
			</g>
		</g>
		<g>
			<polygon class="st1" points="197.3,80.9 197.3,27 150.5,0 103.8,27 103.8,80.9 150.5,107.9 			"/>
			<g>
				<g>
					<path class="st8" d="M146,63.1c-4.8,0-8.5-3.7-8.5-8.5c0-4.7,3.8-8.6,8.5-8.6c4.5,0,8.5,4,8.5,8.6
						C154.6,59.2,150.7,63.1,146,63.1 M166.9,55.6c2.6-0.9,2-2.8,1.8-4.6c-0.3-1.8-0.2-3.7-3-3.7c-2.9,0-4.6-3.1-3.1-5.4
						c1.8-2.7-0.6-3.6-1.8-4.9c-1.3-1.4-2.5-2.2-4.5-0.6c-2.3,1.9-5.3,0.7-5.8-2.2c-0.3-1.9-1.3-2.6-3.1-2.3c-1.9,0.3-4.4-1.3-5.2,2
						c-0.9,3.4-3.5,4.2-6.1,2c-0.6-0.5-1.1-1.2-1.9-0.9c-1.9,0.8-3.5,2.2-4.8,3.7c-0.9,1.1,0.2,2.1,0.7,3.1c1,2.4-0.6,5.2-3.2,5
						c-2.4-0.2-3.2,0.8-3.4,2.9c-0.2,2-1.6,4.1,1.6,5.3c3,1.1,3.5,4.2,0.9,6.1c-1.8,1.4-1.6,2.8-0.5,4.3c1.1,1.5,1.1,4.2,4.3,3.1
						c3.3-1.1,5.5,0.7,4.9,4.1c-0.5,2.9,1.6,3.1,3.3,3.9c1.7,0.8,3.2,1.3,4.5-0.9c1.5-2.6,4.7-2.6,6.1,0c1.5,2.7,3.4,1.5,5.3,1
						c1.8-0.5,3.5-1.2,2.8-3.4c-0.2-3.4,2-5.3,5-4.1c2.3,0.9,3.1-0.5,3.8-2c0.8-1.6,2.9-3,0.5-5.1C163.6,59.9,164.1,56.7,166.9,55.6
						"/>
					<path class="st8" d="M182.5,67.1c0.7-0.3,1.2-1.5,1.2-3.5c-1.2-3.7-2.6-7.7-4.1-11.3c-3.3-8.1-5.7-12.1-7.4-13.3
						c0.9-0.8,1.7-2.3,0.2-4.7c-2-3.1-6.1-7.1-6.1-7.1s0.6,4.3,0.5,9.4c-0.1,2.8,2.2,3.3,3.4,3.3c-0.4,2,0.6,6.6,3.8,14.7
						c1.3,3.2,2.8,6.6,4.3,9.8C180.1,66.5,181.6,67.5,182.5,67.1"/>
				</g>
			</g>
		</g>
		<g>
			<polygon class="st1" points="300.9,80.9 300.9,27 254.1,0 207.4,27 207.4,80.9 254.1,107.9 			"/>
			<g>
				<g>
					<g>
						<path class="st8" d="M276.8,32.4l-28.3,0c-3.1,0-5.7,2.5-5.7,5.7l0,0.2l3.5,3.5l0-2.7c0-1.9,1.6-3.5,3.5-3.5l25.7,0
							c1.9,0,3.5,1.6,3.5,3.5l0,19.5c0,1.9-1.6,3.5-3.5,3.5l-9.1,0l-4.5,0l-0.8,0h-4.5l-1.4,0l-3.2,3.2h3.3l-5,5l2.2,2.2l7.2-7.2
							l3.4,0l7.2,7.2l2.2-2.2l-5-5l9,0c3.1,0,5.7-2.5,5.7-5.7l0-21.5C282.4,34.9,279.9,32.4,276.8,32.4"/>
					</g>
				</g>
				<g>
					<polygon class="st8" points="237,43.7 243.7,50.4 246.8,53.4 249.8,56.5 248.9,57.4 246.5,59.8 237,69.3 241,73.2 253.8,60.4 
						256.6,57.6 257.7,56.5 246.8,45.6 243.7,42.5 241,39.7 					"/>
				</g>
				<g>
					<g>
						<path class="st8" d="M230,39.7l-3.9,3.9l12.8,12.8l-12.8,12.8l3.9,3.9l16.7-16.7c0,0,0-0.1,0-0.1L230,39.7z"/>
					</g>
					<g>
						<path class="st8" d="M256.7,41c0,1.1-0.9,2-2,2c-1.1,0-2-0.9-2-2c0-1.1,0.9-2,2-2C255.8,39,256.7,39.9,256.7,41"/>
					</g>
				</g>
				<rect x="258.5" y="39.7" class="st8" width="14.2" height="2.6"/>
				<g>
					<g>
						<path class="st8" d="M256.7,47.1c0,1.1-0.9,2-2,2c-1.1,0-2-0.9-2-2c0-1.1,0.9-2,2-2S256.7,46,256.7,47.1"/>
					</g>
				</g>
				<rect x="258.5" y="45.8" class="st8" width="14.2" height="2.6"/>
				<rect x="258.5" y="51.8" class="st8" width="14.2" height="2.6"/>
			</g>
		</g>
		<g>
			<polygon class="st1" points="404.8,80.9 404.8,27 358.1,0 311.4,27 311.4,80.9 358.1,107.9 			"/>
			<g>
				<path class="st8" d="M368.9,44.7h-21.7v-5.3c0-4.7,3.8-8.5,8.5-8.5h4.7c4.7,0,8.5,3.8,8.5,8.5L368.9,44.7z M359.8,61.5v4h-3.4
					v-4c-1.7-0.7-2.9-2.4-2.9-4.3c0-2.6,2.1-4.7,4.7-4.7c2.6,0,4.7,2.1,4.7,4.7C362.7,59.1,361.5,60.8,359.8,61.5 M373.9,45.2v-6.7
					c0-7.2-5.8-13.1-13.1-13.1h-5.6c-7.2,0-13.1,5.8-13.1,13.1v6.7c-1.6,0.8-2.8,2.4-2.8,4.3v20.5c0,2.7,2.1,4.8,4.8,4.8h27.7
					c2.7,0,4.8-2.1,4.8-4.8V49.5C376.7,47.6,375.6,45.9,373.9,45.2"/>
			</g>
		</g>
		<g>
			<polygon class="st1" points="508.7,81.2 508.7,27.2 462,0.2 415.3,27.2 415.3,81.2 462,108.1 			"/>
			<g>
				<path class="st8" d="M485.8,64.4c0,1.6-0.7,3-1.9,4V44.9c0-3.4-2.7-6.1-6.1-6.1h-22.3l-2.4-3H442v-3.1h13.4l2.4,3h22.8
					c2.9,0,5.2,2.3,5.2,5.2L485.8,64.4L485.8,64.4z M480.6,33.9h-21.9l-2.4-3h-16.1v4.9h-1.9v8.3h0.1c0,0.2-0.1,0.5-0.1,0.7v23.5
					c0,3.4,2.7,6.1,6.1,6.1h29.9l-3-3.1l-1.1-1.1c-3.2,1.5-7,1.2-9.9-0.7c-0.7-0.4-1.3-0.9-1.9-1.5c-1.9-2-3-4.6-2.9-7.4
					c0-2.8,1.2-5.4,3.2-7.3c4.1-4,10.7-3.9,14.7,0.2c3.1,3.2,3.8,8,1.8,11.9l3.9,4.1l1.7,1.8l1.3,1.4c0.6-0.6,1-1.2,1.4-2
					c2.4-1.1,4.1-3.5,4.1-6.4V40.9C487.5,37.1,484.4,33.9,480.6,33.9"/>
				<path class="st8" d="M469.7,64.8c-2.2,2.2-5.8,2.1-7.9-0.1c-2.2-2.2-2.1-5.8,0.1-8c2.2-2.2,5.8-2.1,7.9,0.1
					C472,59.1,471.9,62.6,469.7,64.8 M478.3,71.3l-1.7-1.8l-3.7-3.8l0.3-0.6c2-3.3,1.5-7.6-1.2-10.4c-3.3-3.4-8.8-3.5-12.2-0.2
					c-1.6,1.6-2.6,3.8-2.6,6.1c0,2.3,0.8,4.5,2.4,6.1c2.7,2.8,6.9,3.4,10.3,1.6l0.6-0.3l1.5,1.5l1.7,1.8l3,3.1l2.9,2.9l2.3-2.3
					l-1.3-1.3L478.3,71.3z"/>
			</g>
		</g>
	</g>
</g>
</svg>
