<?xml version="1.0" encoding="utf-8"?>
<!-- Generator: Adobe Illustrator 27.5.0, SVG Export Plug-In . SVG Version: 6.00 Build 0)  -->
<svg version="1.1" id="Ebene_1" xmlns="http://www.w3.org/2000/svg" xmlns:xlink="http://www.w3.org/1999/xlink" x="0px" y="0px"
	 viewBox="0 0 1920 1080" style="enable-background:new 0 0 1920 1080;" xml:space="preserve">
<style type="text/css">
	.st0{opacity:0.2;}
	.st1{clip-path:url(#SVGID_00000076582205562160021860000010555609976989546686_);}
	.st2{fill:#A2C4E8;}
	.st3{clip-path:url(#SVGID_00000165202445870313948290000009842875331711353515_);}
</style>
<g class="st0">
	<g>
		<defs>
			<rect id="SVGID_1_" width="1920" height="1079"/>
		</defs>
		<clipPath id="SVGID_00000148640259534729800040000009781859668814896775_">
			<use xlink:href="#SVGID_1_"  style="overflow:visible;"/>
		</clipPath>
		<g style="clip-path:url(#SVGID_00000148640259534729800040000009781859668814896775_);">
			<polygon class="st2" points="333.09,848.94 350.76,928.19 526.93,888.9 488.95,718.61 371.84,744.73 419.85,615.59 
				177.36,525.42 198.45,521.39 150.72,271.68 -90.67,317.81 -42.94,567.53 -13.63,561.92 -121.69,852.55 209.29,975.62 
				-11.29,1102.97 134.21,1354.98 394.91,1204.46 276.9,1000.05 			"/>
			<polygon class="st2" points="567.67,942.07 588.2,1010.06 460.09,962.42 399.69,1124.86 567.73,1187.34 608.57,1077.49 
				621.99,1121.9 808.02,1065.71 753.7,885.88 			"/>
			
				<rect x="1105.65" y="826.15" transform="matrix(0.3485 -0.9373 0.9373 0.3485 -63.5573 1622.8064)" class="st2" width="59.88" height="61.95"/>
			
				<rect x="579.81" y="553.33" transform="matrix(0.976 -0.2177 0.2177 0.976 -126.6968 165.5206)" class="st2" width="216.05" height="208.85"/>
			
				<rect x="1003.48" y="678.21" transform="matrix(0.976 -0.2177 0.2177 0.976 -131.8927 245.4666)" class="st2" width="89.17" height="86.2"/>
			<rect x="818.02" y="809.19" class="st2" width="92.7" height="95.9"/>
		</g>
	</g>
	<g>
		<defs>
			<rect id="SVGID_00000121238347141897713900000009667362730956827533_" width="1920" height="1079"/>
		</defs>
		<clipPath id="SVGID_00000158732614769536228880000008790032010296231319_">
			<use xlink:href="#SVGID_00000121238347141897713900000009667362730956827533_"  style="overflow:visible;"/>
		</clipPath>
		<g style="clip-path:url(#SVGID_00000158732614769536228880000008790032010296231319_);">
			<polygon class="st2" points="1716.53,264.55 2061.69,136.21 1937.63,-197.45 1592.46,-69.11 1627.35,24.72 1485.15,-57.38 
				1359.08,160.97 1584.97,291.39 1671.06,142.27 			"/>
			
				<rect x="1387.98" y="267.81" transform="matrix(0.2891 -0.9573 0.9573 0.2891 707.6065 1656.8629)" class="st2" width="162.77" height="168.38"/>
			
				<rect x="1026.9" y="172.16" transform="matrix(0.9373 -0.3485 0.3485 0.9373 -10.5794 390.9878)" class="st2" width="109.11" height="105.48"/>
			<polygon class="st2" points="1685.62,529.63 1806.31,552.7 1771.52,612.95 1841.08,653.11 1882.63,581.15 1846.74,560.43 
				1919.53,574.34 1962.74,348.23 1728.83,303.52 			"/>
			
				<rect x="1220.8" y="153.73" transform="matrix(0.9972 -0.0749 0.0749 0.9972 -11.8436 96.0605)" class="st2" width="108" height="104.4"/>
			
				<rect x="884.07" y="213.88" transform="matrix(0.1545 -0.988 0.988 0.1545 531.1725 1107.0288)" class="st2" width="56.63" height="58.58"/>
			
				<rect x="1143.07" y="328.76" transform="matrix(0.5 -0.866 0.866 0.5 260.3733 1246.6674)" class="st2" width="133.56" height="138.16"/>
			
				<rect x="1278.45" y="25.68" transform="matrix(0.1877 -0.9822 0.9822 0.1877 1007.5566 1350.006)" class="st2" width="83.09" height="80.32"/>
		</g>
	</g>
</g>
</svg>
