<?xml version="1.0" encoding="utf-8"?>
<!-- Generator: Adobe Illustrator 16.0.0, SVG Export Plug-In . SVG Version: 6.00 Build 0)  -->
<!DOCTYPE svg PUBLIC "-//W3C//DTD SVG 1.1//EN" "http://www.w3.org/Graphics/SVG/1.1/DTD/svg11.dtd">
<svg version="1.1" xmlns="http://www.w3.org/2000/svg" xmlns:xlink="http://www.w3.org/1999/xlink" x="0px" y="0px"
	 width="166.128px" height="190px" viewBox="0 0 166.128 190" enable-background="new 0 0 166.128 190" xml:space="preserve">
<g id="weiss">
	<g>
		<polygon fill="#FFFFFF" points="3,140.758 3.003,49.236 83.067,3.456 163.128,49.244 163.124,140.762 83.06,186.544 		"/>
		<path fill="#231F20" d="M83.066,6.912l77.062,44.073l-0.004,88.037L83.06,183.088L6,139.018l0.003-88.041L83.066,6.912 M83.067,0
			L0.003,47.496L0,142.498L83.06,190l83.064-47.498l0.004-94.998L83.067,0L83.067,0z"/>
	</g>
	<g display="none">
		<path display="inline" fill="#231F20" d="M67.213,107.313l6.183-0.523c0.458,3.01,1.521,5.271,3.189,6.787
			c1.669,1.518,3.681,2.275,6.036,2.275c2.835,0,5.234-1.068,7.197-3.207c1.963-2.137,2.944-4.973,2.944-8.506
			c0-3.358-0.943-6.008-2.83-7.95c-1.887-1.941-4.356-2.912-7.41-2.912c-1.897,0-3.61,0.431-5.136,1.292
			c-1.527,0.862-2.727,1.979-3.599,3.353l-5.529-0.72l4.646-24.634h23.849v5.627H77.617l-2.584,12.89
			c2.879-2.006,5.899-3.01,9.062-3.01c4.188,0,7.721,1.451,10.6,4.351c2.879,2.901,4.318,6.63,4.318,11.188
			c0,4.34-1.266,8.092-3.795,11.254c-3.076,3.883-7.274,5.824-12.596,5.824c-4.362,0-7.923-1.223-10.682-3.664
			C69.181,114.586,67.606,111.348,67.213,107.313z"/>
	</g>
	<g display="none">
		<path display="inline" fill="#231F20" d="M86.09,119.875v-11.482H65.283v-5.398l21.886-31.08h4.809v31.08h6.478v5.398h-6.478
			v11.482H86.09z M86.09,102.994V81.369l-15.016,21.625H86.09z"/>
	</g>
	<g display="none">
		<path display="inline" fill="#231F20" d="M67.246,107.215l5.889-0.785c0.676,3.336,1.826,5.74,3.451,7.213
			c1.625,1.473,3.604,2.209,5.938,2.209c2.77,0,5.108-0.961,7.017-2.879c1.908-1.92,2.862-4.297,2.862-7.133
			c0-2.703-0.883-4.934-2.649-6.69c-1.767-1.755-4.013-2.634-6.739-2.634c-1.112,0-2.498,0.218-4.155,0.654l0.654-5.169
			c0.393,0.044,0.708,0.065,0.949,0.065c2.508,0,4.765-0.654,6.772-1.963c2.006-1.309,3.01-3.326,3.01-6.052
			c0-2.159-0.731-3.947-2.192-5.365c-1.461-1.417-3.348-2.126-5.66-2.126c-2.29,0-4.199,0.72-5.725,2.159
			c-1.527,1.439-2.508,3.599-2.944,6.478l-5.889-1.047c0.72-3.947,2.355-7.006,4.907-9.177c2.552-2.169,5.725-3.255,9.52-3.255
			c2.617,0,5.027,0.562,7.23,1.685c2.202,1.124,3.888,2.656,5.055,4.597c1.166,1.941,1.75,4.002,1.75,6.183
			c0,2.072-0.556,3.958-1.669,5.66c-1.111,1.701-2.759,3.054-4.939,4.057c2.835,0.654,5.038,2.012,6.608,4.073
			c1.57,2.061,2.355,4.641,2.355,7.737c0,4.188-1.527,7.736-4.58,10.648c-3.054,2.912-6.914,4.367-11.581,4.367
			c-4.209,0-7.704-1.254-10.485-3.762C69.226,114.455,67.639,111.205,67.246,107.215z"/>
	</g>
	<g display="none">
		<path display="inline" fill="#231F20" d="M98.161,114.215v5.66h-31.7c-0.044-1.418,0.185-2.781,0.687-4.09
			c0.807-2.158,2.099-4.285,3.876-6.379c1.777-2.094,4.346-4.516,7.705-7.264c5.212-4.274,8.735-7.66,10.567-10.158
			c1.832-2.497,2.748-4.858,2.748-7.083c0-2.333-0.834-4.302-2.503-5.905c-1.668-1.604-3.844-2.405-6.526-2.405
			c-2.835,0-5.104,0.851-6.805,2.552s-2.563,4.057-2.584,7.066l-6.052-0.622c0.414-4.515,1.974-7.955,4.678-10.321
			c2.704-2.366,6.335-3.55,10.894-3.55c4.602,0,8.244,1.276,10.927,3.828s4.024,5.714,4.024,9.487c0,1.919-0.393,3.806-1.178,5.66
			c-0.785,1.854-2.089,3.806-3.91,5.856c-1.821,2.05-4.848,4.863-9.078,8.441c-3.533,2.965-5.802,4.977-6.805,6.035
			c-1.003,1.059-1.832,2.121-2.486,3.189H98.161z"/>
	</g>
	<g>
		<path fill="#231F20" d="M89.394,119.875h-5.888V82.351c-1.418,1.353-3.277,2.705-5.578,4.057c-2.302,1.353-4.368,2.367-6.2,3.042
			v-5.692c3.293-1.548,6.172-3.424,8.637-5.627c2.464-2.203,4.209-4.34,5.234-6.412h3.794V119.875z"/>
	</g>
</g>
<g id="Ebene_2" display="none">
	<rect y="71.903" display="inline" fill="none" width="166.128" height="57.671"/>
	<text transform="matrix(1 0 0 1 64.4326 119.875)" display="inline" fill="#231F20" font-family="'ArialMT'" font-size="67">5</text>
</g>
</svg>
