<?xml version="1.0" encoding="utf-8"?>
<!-- Generator: Adobe Illustrator 16.0.0, SVG Export Plug-In . SVG Version: 6.00 Build 0)  -->
<!DOCTYPE svg PUBLIC "-//W3C//DTD SVG 1.1//EN" "http://www.w3.org/Graphics/SVG/1.1/DTD/svg11.dtd">
<svg version="1.1" xmlns="http://www.w3.org/2000/svg" xmlns:xlink="http://www.w3.org/1999/xlink" x="0px" y="0px"
	 width="166.128px" height="190px" viewBox="0 0 166.128 190" enable-background="new 0 0 166.128 190" xml:space="preserve">
<g id="weiss">
	<g>
		<polygon fill="#231F20" points="3,140.758 3.003,49.236 83.067,3.456 163.128,49.244 163.124,140.762 83.06,186.544 		"/>
		<path fill="#231F20" d="M83.066,6.912l77.062,44.073l-0.004,88.037L83.06,183.088L6,139.018l0.003-88.041L83.066,6.912 M83.067,0
			L0.003,47.496L0,142.498L83.06,190l83.064-47.498l0.004-94.998L83.067,0L83.067,0z"/>
	</g>
	<g>
		<path fill="#FFFFFF" d="M98.161,114.215v5.66h-31.7c-0.044-1.418,0.185-2.781,0.687-4.09c0.807-2.158,2.099-4.285,3.876-6.379
			c1.777-2.094,4.346-4.516,7.705-7.264c5.212-4.274,8.735-7.66,10.567-10.158c1.832-2.497,2.748-4.858,2.748-7.083
			c0-2.333-0.834-4.302-2.503-5.905c-1.668-1.604-3.844-2.405-6.526-2.405c-2.835,0-5.104,0.851-6.805,2.552
			s-2.563,4.057-2.584,7.066l-6.052-0.622c0.414-4.515,1.974-7.955,4.678-10.321c2.704-2.366,6.335-3.55,10.894-3.55
			c4.602,0,8.244,1.276,10.927,3.828s4.024,5.714,4.024,9.487c0,1.919-0.393,3.806-1.178,5.66c-0.785,1.854-2.089,3.806-3.91,5.856
			c-1.821,2.05-4.848,4.863-9.078,8.441c-3.533,2.965-5.802,4.977-6.805,6.035c-1.003,1.059-1.832,2.121-2.486,3.189H98.161z"/>
	</g>
	<rect y="71.903" fill="none" width="166.128" height="57.671"/>
	<text transform="matrix(1 0 0 1 64.4326 119.875)" display="none" fill="#231F20" font-family="'ArialMT'" font-size="67">5</text>
</g>
<g id="Ebene_2" display="none">
	<rect y="71.903" display="inline" fill="none" width="166.128" height="57.671"/>
	<text transform="matrix(1 0 0 1 64.4326 119.875)" display="inline" fill="#231F20" font-family="'ArialMT'" font-size="67">5</text>
</g>
</svg>
