<?xml version="1.0" encoding="utf-8"?>
<!-- Generator: Adobe Illustrator 16.0.0, SVG Export Plug-In . SVG Version: 6.00 Build 0)  -->
<!DOCTYPE svg PUBLIC "-//W3C//DTD SVG 1.1//EN" "http://www.w3.org/Graphics/SVG/1.1/DTD/svg11.dtd">
<svg version="1.1" xmlns="http://www.w3.org/2000/svg" xmlns:xlink="http://www.w3.org/1999/xlink" x="0px" y="0px"
	 width="166.128px" height="190px" viewBox="0 0 166.128 190" enable-background="new 0 0 166.128 190" xml:space="preserve">
<g id="weiss">
	<g>
		<polygon fill="#231F20" points="3,140.758 3.003,49.236 83.067,3.456 163.128,49.244 163.124,140.762 83.06,186.544 		"/>
		<path fill="#231F20" d="M83.066,6.912l77.062,44.073l-0.004,88.037L83.06,183.088L6,139.018l0.003-88.041L83.066,6.912 M83.067,0
			L0.003,47.496L0,142.498L83.06,190l83.064-47.498l0.004-94.998L83.067,0L83.067,0z"/>
	</g>
	<g>
		<path fill="#FFFFFF" d="M86.09,119.875v-11.482H65.283v-5.398l21.886-31.08h4.809v31.08h6.478v5.398h-6.478v11.482H86.09z
			 M86.09,102.994V81.369l-15.016,21.625H86.09z"/>
	</g>
</g>
<g id="Ebene_2" display="none">
	<rect y="71.903" display="inline" fill="none" width="166.128" height="57.671"/>
	<text transform="matrix(1 0 0 1 64.4326 119.875)" display="inline" fill="#231F20" font-family="'ArialMT'" font-size="67">5</text>
</g>
</svg>
