<?xml version="1.0" encoding="utf-8"?>
<!-- Generator: Adobe Illustrator 16.0.0, SVG Export Plug-In . SVG Version: 6.00 Build 0)  -->
<!DOCTYPE svg PUBLIC "-//W3C//DTD SVG 1.1//EN" "http://www.w3.org/Graphics/SVG/1.1/DTD/svg11.dtd">
<svg version="1.1" xmlns="http://www.w3.org/2000/svg" xmlns:xlink="http://www.w3.org/1999/xlink" x="0px" y="0px"
	 width="166.128px" height="190px" viewBox="0 0 166.128 190" enable-background="new 0 0 166.128 190" xml:space="preserve">
<g id="weiss">
	<g>
		<polygon fill="#FFFFFF" points="3,140.758 3.003,49.236 83.067,3.456 163.128,49.244 163.124,140.762 83.06,186.544 		"/>
		<path fill="#231F20" d="M83.066,6.912l77.062,44.073l-0.004,88.037L83.06,183.088L6,139.018l0.003-88.041L83.066,6.912 M83.067,0
			L0.003,47.496L0,142.498L83.06,190l83.064-47.498l0.004-94.998L83.067,0L83.067,0z"/>
	</g>
	<g display="none">
		<path display="inline" fill="#231F20" d="M67.213,107.313l6.183-0.523c0.458,3.01,1.521,5.271,3.189,6.787
			c1.669,1.518,3.681,2.275,6.036,2.275c2.835,0,5.234-1.068,7.197-3.207c1.963-2.137,2.944-4.973,2.944-8.506
			c0-3.358-0.943-6.008-2.83-7.95c-1.887-1.941-4.356-2.912-7.41-2.912c-1.897,0-3.61,0.431-5.136,1.292
			c-1.527,0.862-2.727,1.979-3.599,3.353l-5.529-0.72l4.646-24.634h23.849v5.627H77.617l-2.584,12.89
			c2.879-2.006,5.899-3.01,9.062-3.01c4.188,0,7.721,1.451,10.6,4.351c2.879,2.901,4.318,6.63,4.318,11.188
			c0,4.34-1.266,8.092-3.795,11.254c-3.076,3.883-7.274,5.824-12.596,5.824c-4.362,0-7.923-1.223-10.682-3.664
			C69.181,114.586,67.606,111.348,67.213,107.313z"/>
	</g>
	<g>
		<path fill="#231F20" d="M86.09,119.875v-11.482H65.283v-5.398l21.886-31.08h4.809v31.08h6.478v5.398h-6.478v11.482H86.09z
			 M86.09,102.994V81.369l-15.016,21.625H86.09z"/>
	</g>
	<rect y="71.903" fill="none" width="166.128" height="57.671"/>
	<text transform="matrix(1 0 0 1 64.4326 119.875)" display="none" fill="#231F20" font-family="'ArialMT'" font-size="67">5</text>
	<rect y="71.903" fill="none" width="166.128" height="57.671"/>
	<text transform="matrix(1 0 0 1 64.4326 119.875)" display="none" fill="#231F20" font-family="'ArialMT'" font-size="67">5</text>
	<rect y="71.903" fill="none" width="166.128" height="57.671"/>
	<text transform="matrix(1 0 0 1 64.4326 119.875)" display="none" fill="#231F20" font-family="'ArialMT'" font-size="67">5</text>
</g>
<g id="Ebene_2" display="none">
	<rect y="71.903" display="inline" fill="none" width="166.128" height="57.671"/>
	<text transform="matrix(1 0 0 1 64.4326 119.875)" display="inline" fill="#231F20" font-family="'ArialMT'" font-size="67">5</text>
</g>
</svg>
