<?xml version="1.0" encoding="utf-8"?>
<!-- Generator: Adobe Illustrator 16.0.0, SVG Export Plug-In . SVG Version: 6.00 Build 0)  -->
<!DOCTYPE svg PUBLIC "-//W3C//DTD SVG 1.1//EN" "http://www.w3.org/Graphics/SVG/1.1/DTD/svg11.dtd">
<svg version="1.1" xmlns="http://www.w3.org/2000/svg" xmlns:xlink="http://www.w3.org/1999/xlink" x="0px" y="0px"
	 width="166.128px" height="190px" viewBox="0 0 166.128 190" enable-background="new 0 0 166.128 190" xml:space="preserve">
<g id="weiss">
	<g>
		<polygon fill="#231F20" points="3,140.758 3.003,49.236 83.067,3.456 163.128,49.244 163.124,140.762 83.06,186.544 		"/>
		<path fill="#231F20" d="M83.066,6.912l77.062,44.073l-0.004,88.037L83.06,183.088L6,139.018l0.003-88.041L83.066,6.912 M83.067,0
			L0.003,47.496L0,142.498L83.06,190l83.064-47.498l0.004-94.998L83.067,0L83.067,0z"/>
	</g>
	<g>
		<path fill="#FFFFFF" d="M89.394,119.875h-5.888V82.351c-1.418,1.353-3.277,2.705-5.578,4.057c-2.302,1.353-4.368,2.367-6.2,3.042
			v-5.692c3.293-1.548,6.172-3.424,8.637-5.627c2.464-2.203,4.209-4.34,5.234-6.412h3.794V119.875z"/>
	</g>
</g>
<g id="Ebene_2" display="none">
	<rect y="71.903" display="inline" fill="none" width="166.128" height="57.671"/>
	<text transform="matrix(1 0 0 1 64.4326 119.875)" display="inline" fill="#231F20" font-family="'ArialMT'" font-size="67">5</text>
</g>
</svg>
