<?xml version="1.0" encoding="utf-8"?>
<!-- Generator: Adobe Illustrator 25.2.3, SVG Export Plug-In . SVG Version: 6.00 Build 0)  -->
<svg version="1.1" id="Ebene_1" xmlns="http://www.w3.org/2000/svg" xmlns:xlink="http://www.w3.org/1999/xlink" x="0px" y="0px"
	 viewBox="0 0 73.9 93.2" style="enable-background:new 0 0 73.9 93.2;" xml:space="preserve">
<style type="text/css">
	.st0{fill:#3C9662;}
</style>
<g>
	<polygon class="st0" points="45.7,1.2 45.7,22.4 67.5,22.4 	"/>
	<path class="st0" d="M52.1,49.6c-12,0-21.8,9.8-21.8,21.8s9.8,21.8,21.8,21.8s21.8-9.8,21.8-21.8S64.1,49.6,52.1,49.6z M64.5,66.6
		L50.4,82.7c-0.5,0.6-1.3,1-2.1,1l0,0c-0.8,0-1.6-0.3-2.1-0.9L39.8,76c-1.1-1.2-1-3,0.1-4.1c1.2-1.1,3-1,4.1,0.1l4.2,4.5l12-13.7
		c1-1.2,2.9-1.3,4.1-0.3C65.4,63.6,65.5,65.4,64.5,66.6z"/>
	<path class="st0" d="M26.7,71.4c0-14,11.4-25.3,25.3-25.3c6.3,0,12,2.3,16.4,6.1V24.7H43.3V0H0v87.8h32.8
		C29,83.4,26.7,77.7,26.7,71.4z"/>
</g>
</svg>
