<?xml version="1.0" encoding="utf-8"?>
<!-- Generator: Adobe Illustrator 25.2.3, SVG Export Plug-In . SVG Version: 6.00 Build 0)  -->
<svg version="1.1" id="Ebene_1" xmlns="http://www.w3.org/2000/svg" xmlns:xlink="http://www.w3.org/1999/xlink" x="0px" y="0px"
	 viewBox="0 0 69.2 69.3" style="enable-background:new 0 0 69.2 69.3;" xml:space="preserve">
<style type="text/css">
	.st0{fill:#FFFFFF;}
</style>
<g>
	<g id="Ebene_4_2_">
		<g>
			<polygon class="st0" points="22.5,31.9 20.8,28.5 19.1,31.9 15.3,32.4 18.1,35.1 17.4,38.9 20.8,37.1 24.2,38.9 23.6,35.1 
				26.3,32.4 			"/>
			<polygon class="st0" points="31.5,35.1 30.9,38.9 34.3,37.1 37.7,38.9 37,35.1 39.8,32.4 36,31.9 34.3,28.5 32.6,31.9 28.8,32.4 
							"/>
			<polygon class="st0" points="49.4,31.9 47.7,28.5 46,31.9 42.2,32.4 45,35.1 44.3,38.9 47.7,37.1 51.1,38.9 50.5,35.1 53.2,32.4 
							"/>
			<path class="st0" d="M62.7,14.4l-8.5,8.5c2,3.4,3.2,7.4,3.2,11.7c0,12.6-10.3,22.9-22.9,22.9S11.6,47.2,11.6,34.6v-0.1L0,31.2
				c-0.1,1.1-0.2,2.2-0.2,3.4c0,19.1,15.5,34.7,34.7,34.7s34.7-15.5,34.7-34.7C69.2,27.1,66.7,20.1,62.7,14.4z"/>
			<polygon class="st0" points="15.3,22.2 13.2,21.3 11.4,25.6 2.5,21.9 1.5,24.3 12.4,29 			"/>
			<polygon class="st0" points="22.4,15.3 20.9,13.6 17.3,16.9 15.4,14.8 18.6,11.9 17.2,10.2 13.9,13.2 12.3,11.4 15.7,8.2 
				14.2,6.6 8.8,11.5 16.8,20.3 			"/>
			<path class="st0" d="M30.2,12.5L31,0l-2.8,0.7L28,6c0,1.4,0,2.9,0,4.3h-0.1c-0.7-1.4-1.4-2.6-2.1-3.8L23.1,2l-2.6,0.7l6.7,10.5
				L30.2,12.5z"/>
			<polygon class="st0" points="43.9,11.3 39.1,10.3 39.7,7.5 44,8.5 44.5,6.3 40.2,5.4 40.7,3 45.3,4 45.7,1.8 38.6,0.2 36,11.9 
				43.4,13.5 			"/>
			<polygon class="st0" points="51.6,19.2 53,17.4 49.2,14.5 55,6.9 52.9,5.2 45.7,14.7 			"/>
		</g>
	</g>
</g>
</svg>
