<?xml version="1.0" encoding="utf-8"?>
<!-- Generator: Adobe Illustrator 25.2.3, SVG Export Plug-In . SVG Version: 6.00 Build 0)  -->
<svg version="1.1" id="Ebene_1" xmlns="http://www.w3.org/2000/svg" xmlns:xlink="http://www.w3.org/1999/xlink" x="0px" y="0px"
	 viewBox="0 0 71.5 66.9" style="enable-background:new 0 0 71.5 66.9;" xml:space="preserve">
<style type="text/css">
	.st0{fill:#3B488CFF;}
</style>
<g id="Ebene_5_1_">
	<g>
		<path class="st0" d="M69.4,16.1l-0.6-8.2c0-0.3-0.1-0.6-0.4-0.8l-5.2-5c-0.2-0.2-0.4-0.3-0.7-0.3l-7.9-1c-0.4,0-0.7,0.1-1,0.3
			L11.4,41.9c-0.1,0.1-0.3,0.3-0.3,0.5L7,56.2c0.2,0.1,0.4,0.2,0.6,0.4L8,57l1,1l1.9,1.9l0.9,0.9l0.7,0.7c0.1,0.1,0.1,0.2,0.2,0.3
			l16-5.7c0.2-0.1,0.3-0.1,0.4-0.3L69,16.9C69.3,16.8,69.4,16.5,69.4,16.1z M64,9.8L21.3,50c-0.3,0.3-0.8,0.5-1.2,0.5
			c-0.5,0-0.9-0.2-1.3-0.6c-0.7-0.7-0.6-1.8,0.1-2.5L61.6,7.2c0.7-0.7,1.8-0.6,2.5,0.1S64.7,9.1,64,9.8z"/>
		<path class="st0" d="M7,61l-1-1l-0.7,2.4c-0.1,0.4,0,0.9,0.3,1.2c0.2,0.2,0.5,0.3,0.8,0.3c0.1,0,0.3,0,0.4-0.1L9,63l-0.9-0.9L7,61
			z"/>
		<path class="st0" d="M12.9,22.8c0.8-0.1,1.4-0.1,1.9-0.1c1,0,3.7,2.3,5.3,3.9l0.4,0.4l7.4-7.4l-0.4-0.4c-0.1-0.1-2.5-2.5-5-4.2
			c-2-1.4-1.4-3.3-1.4-3.5c0-0.3,0.8-6.9-2.7-9.6C15.4-0.4,9.9,0,7.9,0.1c-0.2,0-0.4,0-0.5,0c-0.7,0-1.7,0.4-2.2,1.2
			c-0.3,0.4-0.5,1.2,0,2.1C5.6,4.3,6.8,4.5,8,4.7c1.7,0.3,3.7,0.6,4.6,2.8c0.4,1,0.3,2-0.4,3.1c-1.3,2.3-4.3,4.2-4.8,4.2
			c-0.6-0.1-3.5-2.1-4.5-3.1c-0.5-0.5-1.3-0.6-2-0.2s-1.2,1.5-0.6,3.3c0.9,2.6,5,6.8,6.9,7.7C8.4,23.2,10.9,23,12.9,22.8z"/>
		<path class="st0" d="M71.3,52.3c-0.8-2.5-4.9-6.7-6.7-7.6c-1.3-0.6-3.7-0.4-5.7-0.2c-0.7,0.1-1.4,0.1-1.8,0.1
			c-0.9,0-3.6-2.2-5.2-3.8l-0.4-0.4l-7.3,7.3l0.4,0.4c0.1,0.1,2.5,2.5,4.9,4.1c2,1.3,1.4,3.3,1.4,3.4c0,0.3-0.8,6.8,2.6,9.4
			c2.1,1.5,5.2,1.9,7.6,1.9c1.1,0,2-0.1,2.6-0.1c0.2,0,0.4,0,0.5,0c0.7,0,1.7-0.4,2.1-1.2c0.3-0.4,0.5-1.1,0-2.1
			c-0.4-0.9-1.6-1.1-2.7-1.3c-1.7-0.3-3.6-0.6-4.5-2.7c-0.4-0.9-0.3-2,0.4-3.1c1.3-2.3,4.2-4.1,4.7-4.2c0.6,0.1,3.5,2.1,4.4,3
			c0.5,0.5,1.3,0.6,1.9,0.2C71.4,55.1,71.9,54,71.3,52.3z"/>
	</g>
</g>
</svg>
