<?xml version="1.0" encoding="utf-8"?>
<!-- Generator: Adobe Illustrator 25.2.3, SVG Export Plug-In . SVG Version: 6.00 Build 0)  -->
<svg version="1.1" id="Ebene_1" xmlns="http://www.w3.org/2000/svg" xmlns:xlink="http://www.w3.org/1999/xlink" x="0px" y="0px"
	 viewBox="0 0 76.4 65.6" style="enable-background:new 0 0 76.4 65.6;" xml:space="preserve">
<style type="text/css">
	.st0{fill:#3C9662;}
</style>
<g>
	<polygon class="st0" points="42.9,28.1 41,27.8 40.1,26.1 38.2,22.4 36.3,26.1 35.4,27.8 33.5,28.1 30,28.7 32.9,31.7 34.2,33.1 
		33.9,35 33.4,38.3 36.3,36.7 38.2,35.6 40.1,36.7 43,38.3 42.5,35 42.2,33.1 43.5,31.7 46.4,28.7 	"/>
	<path class="st0" d="M38.2,0C17.1,0,0,14.4,0,32.1c0,9.4,4.8,17.8,12.4,23.6l-0.2-0.1c0,0-5.4,9.4-5.9,10
		c3.3-0.3,12.2-0.5,17.9-3.6l-0.1-0.1c4.4,1.5,9.1,2.3,14.1,2.3c21.1,0,38.2-14.4,38.2-32.1S59.3,0,38.2,0z M48,45.5l-9.8-5.4
		l-9.8,5.4l1.7-11.1L21.9,26l11-1.7l5.3-10.5l0,0l0,0l0,0l5.3,10.5l11,1.7l-8.2,8.4L48,45.5z"/>
</g>
</svg>
