<?xml version="1.0" encoding="utf-8"?>
<!-- Generator: Adobe Illustrator 25.2.3, SVG Export Plug-In . SVG Version: 6.00 Build 0)  -->
<svg version="1.1" id="Ebene_1" xmlns="http://www.w3.org/2000/svg" xmlns:xlink="http://www.w3.org/1999/xlink" x="0px" y="0px"
	 viewBox="0 0 73.9 81.4" style="enable-background:new 0 0 73.9 81.4;" xml:space="preserve">
<style type="text/css">
	.st0{fill:#C9666F;}
</style>
<g>
	<path class="st0" d="M70.8,74.1l3.1-5.3l-3.8-3.6c0.3-1.1,0.4-2.3,0.4-3.5s-0.2-2.4-0.4-3.5l3.8-3.6l-3.1-5.3l-5,1.4
		c-0.5-0.5-1.1-1-1.8-1.4c-0.1-0.1-0.2-0.1-0.3-0.2c-0.6-0.4-1.3-0.8-1.9-1.1c-0.7-0.3-1.4-0.6-2.1-0.8l-1.3-5.1h-6.1L51,47.2
		c-2.3,0.7-4.4,1.9-6.1,3.5l-5-1.4l-3.1,5.3l3.8,3.6c-0.3,1.1-0.4,2.3-0.4,3.5s0.2,2.4,0.4,3.5l-3.8,3.6l3.1,5.3l5-1.4
		c0.3,0.3,0.6,0.5,0.9,0.8c0.7,0.6,1.5,1.1,2.3,1.6c0.1,0,0.2,0.1,0.2,0.1c0.8,0.4,1.7,0.8,2.6,1.1l1.3,5.1h6.1l1.3-5.1
		c2.3-0.7,4.4-1.9,6.1-3.5L70.8,74.1z M55.3,68.3c-3.7,0-6.7-3-6.7-6.7s3-6.7,6.7-6.7s6.7,3,6.7,6.7S59,68.3,55.3,68.3z"/>
	<path class="st0" d="M38.2,78.2l-5.8-10l4.4-4.2c-0.1-0.8-0.2-1.6-0.2-2.3c0-0.8,0-1.5,0.2-2.3l-4.4-4.2l5.8-10l5.9,1.7
		c1.2-0.9,2.6-1.7,4-2.3l1.5-5.9h11.5l1.5,5.9c0.1,0,0.2,0.1,0.3,0.1c5.3-17.5,4.7-34.1,4.7-34.1L33.7,0L0,10.5
		c0,0-2.2,55.2,33.7,70.7c2.5-1.1,4.8-2.3,6.9-3.8L38.2,78.2z"/>
</g>
</svg>
