<?xml version="1.0" encoding="utf-8"?>
<!-- Generator: Adobe Illustrator 25.2.3, SVG Export Plug-In . SVG Version: 6.00 Build 0)  -->
<svg version="1.1" id="Ebene_1" xmlns="http://www.w3.org/2000/svg" xmlns:xlink="http://www.w3.org/1999/xlink" x="0px" y="0px"
	 viewBox="0 0 65.5 68.9" style="enable-background:new 0 0 65.5 68.9;" xml:space="preserve">
<style type="text/css">
	.st0{fill:#FFFFFF;}
</style>
<g>
	<g id="Ebene_2_1_">
		<g>
			<path class="st0" d="M35.8,48L35.8,48c4.3-2.7,5.6-5.5,4.5-9c-0.9-2.9-4-4.9-7-4.9c-3.1,0-5.6,2.2-6.4,5.1
				c-0.9,3.6,0.5,6.4,4.6,8.8c-0.5,0.6-1.7,1.2-2.8,3.4c-4.3,8.9-3.1,13.3-3.1,13.3c0.6,2.8,1.3,4.1,3.9,4.2h8.3
				c2.7-0.1,3.4-1.4,3.9-4.2c0-0.1,1.2-4.4-3.1-13.3C37.5,49.2,36.4,48.6,35.8,48z"/>
			<path class="st0" d="M55.2,48L55.2,48c4.3-2.7,5.6-5.5,4.5-9c-0.9-2.9-4-4.9-7-4.9c-3.1,0-5.6,2.2-6.4,5.1
				c-0.9,3.6,0.5,6.4,4.6,8.8c-0.5,0.6-1.7,1.2-2.8,3.4C43.8,60.3,45,64.7,45,64.7c0.6,2.8,1.3,4.1,3.9,4.2h8.3
				c2.7-0.1,3.4-1.4,3.9-4.2c0-0.1,1.2-4.4-3.1-13.3C56.9,49.2,55.7,48.6,55.2,48z"/>
			<path class="st0" d="M30,31.6c-0.9-4.1,3.4-4.8,5-7.5c-6.3-4.8-8.9-10.9-4.5-18.5C23.2,0.9,10.5,2,4.2,7.8
				C-1.7,13.2-1.4,21,4.9,25.9c4.7,3.7,10.2,5,16,4.4c3-0.3,5.7-0.3,8.3,1.3C29.4,31.8,29.6,31.7,30,31.6z"/>
			<path class="st0" d="M61.5,4.5c-6.9-6.1-19.2-6-26.1,0.2c-5.2,4.7-5.3,11.7,0,16.3c1.8,1.6,3.7,2.9,3.6,5.9
				c2.7-2.2,5.5-1.5,8.3-1.3c4.9,0.4,9.5-0.9,13.5-3.9C66.8,17.2,67.1,9.5,61.5,4.5z"/>
			<path class="st0" d="M15.5,48L15.5,48c4.3-2.7,5.6-5.5,4.5-9c-0.9-2.9-4-4.9-7-4.9c-3.1,0-5.6,2.2-6.4,5.1
				c-0.9,3.6,0.5,6.4,4.6,8.8c-0.5,0.6-1.7,1.2-2.8,3.4c-4.3,8.9-3.1,13.3-3.1,13.3c0.6,2.8,1.3,4.1,3.9,4.2h8.3
				c2.7-0.1,3.4-1.4,3.9-4.2c0-0.1,1.2-4.4-3.1-13.3C17.2,49.2,16.1,48.6,15.5,48z"/>
		</g>
	</g>
</g>
</svg>
