<?xml version="1.0" encoding="utf-8"?>
<!-- Generator: Adobe Illustrator 25.2.3, SVG Export Plug-In . SVG Version: 6.00 Build 0)  -->
<svg version="1.1" id="Ebene_1" xmlns="http://www.w3.org/2000/svg" xmlns:xlink="http://www.w3.org/1999/xlink" x="0px" y="0px"
	 viewBox="0 0 58.5 65.5" style="enable-background:new 0 0 58.5 65.5;" xml:space="preserve">
<style type="text/css">
	.st0{fill:#FFFFFF;}
</style>
<g id="_x36_rfhdR_2_">
	<g>
		<path class="st0" d="M29.7,0c0.2,0.5,0.6,1,0.6,1.5c0.1,2.2,0.1,4.5,0,6.7c0,0.5-0.6,1-1,1.5c-0.4-0.5-1.1-1-1.1-1.5
			c-0.1-2.2-0.1-4.5,0-6.7c0-0.5,0.4-1,0.6-1.5C29,0,29.3,0,29.7,0z"/>
		<path class="st0" d="M12.1,5.1c0.2,0.2,0.6,0.5,0.9,0.8c1.2,1.9,2.5,3.7,3.6,5.7c0.3,0.5,0,1.2,0,1.8c-0.6-0.2-1.5-0.3-1.7-0.7
			c-1.3-1.8-2.5-3.7-3.6-5.6C10.5,6.1,10.9,5.1,12.1,5.1z"/>
		<path class="st0" d="M8.8,21.9c-0.6,0.2-1.4,0.7-1.7,0.5c-2.3-1.1-4.5-2.4-6.7-3.6c-0.3-0.2-0.5-0.9-0.4-1.3
			c0.1-0.3,0.9-0.6,1.1-0.5c2.4,1.2,4.8,2.5,7.1,3.8C8.4,21,8.5,21.3,8.8,21.9z"/>
		<path class="st0" d="M50.3,23.3c-0.1-0.5-0.4-0.9-0.4-1.4c0-0.4,0.2-1,0.5-1.2c2.2-1.3,4.5-2.5,6.7-3.6c0.3-0.2,1.1,0.1,1.3,0.4
			s0,1.2-0.3,1.3c-2.3,1.3-4.6,2.5-6.8,3.7c-0.1,0.1-0.2,0-0.3,0.1C50.7,22.9,50.5,23.1,50.3,23.3z"/>
		<path class="st0" d="M42.4,14.4c-0.2-1-0.6-1.7-0.4-2.1c1.3-2.1,2.7-4.2,4.1-6.2c0.2-0.3,1-0.3,1.5-0.4c0.1,0.5,0.4,1.1,0.2,1.5
			c-1.3,2.1-2.6,4.1-4,6.1C43.6,13.6,43.2,13.8,42.4,14.4z"/>
		<path class="st0" d="M29.1,65.7c-1.5,0-3,0.1-4.6-0.1c-0.4,0-0.7-1.1-1-1.6c0.3-0.5,0.7-1.3,1-1.3c3-0.1,6.1-0.1,9.1,0
			c0.4,0,0.7,1.1,1,1.6c-0.3,0.4-0.7,1.2-1,1.2C32.2,65.8,30.7,65.7,29.1,65.7z"/>
		<path class="st0" d="M36.4,52.3c-4.9,0-9.6,0-14.2,0c-0.5-2-0.6-4-1.4-5.8c-0.6-1.5-1.5-3-2.6-4.1c-5-5-6.4-12.4-3.4-18.6
			S24.5,14,31,14.9c7.5,1.1,12.8,6.2,13.9,13.4c0.8,5-0.4,9.7-4.1,13.3c-2.9,2.8-4.1,6.2-4.4,10C36.5,51.8,36.4,52,36.4,52.3z
			 M43.2,30.4c-0.1-3.8-2.2-7.7-5.3-10.1c-2.4-1.9-5.1-2.9-8.1-3c-0.6,0-1.2,0.6-1.7,0.9c0.5,0.4,1,0.8,1.5,1.2c0.1,0.1,0.3,0,0.5,0
			c5.4,0.6,9.5,4.1,10.7,9.3c0.2,0.9,0.2,1.8,0.4,2.6c0.1,0.4,0.7,0.6,1,1c0.3-0.4,0.7-0.7,1-1.2C43.3,31,43.2,30.7,43.2,30.4z"/>
		<path class="st0" d="M29.1,59.9c-2.1,0-4.3,0.1-6.4-0.1c-0.4,0-0.8-1.4-1.2-2.2c0.4-0.6,0.7-1.9,1.1-1.9c4.4-0.1,8.7-0.1,13.1,0
			c0.4,0,0.7,1.3,1.1,1.9c-0.4,0.7-0.8,2.1-1.2,2.1C33.4,60,31.3,59.9,29.1,59.9z"/>
	</g>
</g>
</svg>
