<?xml version="1.0" encoding="utf-8"?>
<!-- Generator: Adobe Illustrator 25.2.3, SVG Export Plug-In . SVG Version: 6.00 Build 0)  -->
<svg version="1.1" id="Ebene_1" xmlns="http://www.w3.org/2000/svg" xmlns:xlink="http://www.w3.org/1999/xlink" x="0px" y="0px"
	 viewBox="0 0 77.4 87.6" style="enable-background:new 0 0 77.4 87.6;" xml:space="preserve">
<style type="text/css">
	.st0{fill:#9F9F9F;}
</style>
<g>
	<polygon class="st0" points="38.7,7.6 77.4,20.3 77.4,12.9 38.7,0 0,12.9 0,20.3 	"/>
	<path class="st0" d="M38.7,10L0,22.8v64.8h77.4V22.8L38.7,10z M26.4,71.3H11.7v-9.6h14.8v9.6H26.4z M26.4,56.3H11.7v-9.6h14.8v9.6
		H26.4z M26.4,41.3H11.7v-9.6h14.8v9.6H26.4z M46.1,71.3H31.3v-9.6h14.8V71.3z M46.1,56.3H31.3v-9.6h14.8V56.3z M46.1,41.3H31.3
		v-9.6h14.8V41.3z M65.7,71.3H50.9v-9.6h14.8V71.3z M65.7,56.3H50.9v-9.6h14.8V56.3z M65.7,41.3H50.9v-9.6h14.8V41.3z"/>
</g>
</svg>
