<?xml version="1.0" encoding="utf-8"?>
<!-- Generator: Adobe Illustrator 25.2.3, SVG Export Plug-In . SVG Version: 6.00 Build 0)  -->
<svg version="1.1" id="Ebene_1" xmlns="http://www.w3.org/2000/svg" xmlns:xlink="http://www.w3.org/1999/xlink" x="0px" y="0px"
	 viewBox="0 0 64.8 69.4" style="enable-background:new 0 0 64.8 69.4;" xml:space="preserve">
<style type="text/css">
	.st0{fill:#9F9F9F;}
</style>
<g>
	<polygon class="st0" points="39.8,35.9 42.7,30.2 19,30.2 15.4,24 0,24 3.2,61.3 8.7,35.9 	"/>
	<path class="st0" d="M45.5,32l-3.6,7.2H11.3L4.7,69.4h52.9c3.5-15.6,6.9-32.7,7.2-37.4L45.5,32L45.5,32z"/>
	<polygon class="st0" points="39,23.3 43.4,23.3 43.4,8.7 46.6,8.7 41.2,0 35.8,8.7 39,8.7 	"/>
	<polygon class="st0" points="32.4,15.3 29.1,15.3 29.1,0.7 24.8,0.7 24.8,15.3 21.5,15.3 26.9,23.9 	"/>
</g>
</svg>
