<?xml version="1.0" encoding="utf-8"?>
<!-- Generator: Adobe Illustrator 25.2.3, SVG Export Plug-In . SVG Version: 6.00 Build 0)  -->
<svg version="1.1" id="Ebene_1" xmlns="http://www.w3.org/2000/svg" xmlns:xlink="http://www.w3.org/1999/xlink" x="0px" y="0px"
	 viewBox="0 0 61.5 68.4" style="enable-background:new 0 0 61.5 68.4;" xml:space="preserve">
<style type="text/css">
	.st0{fill:#FFFFFF;}
</style>
<g>
	<g id="Ebene_2_2_">
		<g>
			<path class="st0" d="M27.9,5.9c-6.7-4.2-18.3-3.2-24,2c-5.4,5-5.1,12,0.7,16.5c4.3,3.4,9.3,4.6,14.6,4c2.7-0.3,5.2-0.3,7.6,1.2
				c0.1,0,0.2,0,0.6-0.1c-0.9-3.8,3.1-4.4,4.6-6.8C26.3,18.4,23.9,12.8,27.9,5.9z M15.4,22.4c-1,0-1.6-0.7-1.6-1.7s0.7-1.7,1.6-1.7
				c1,0,1.6,0.7,1.7,1.7C17.1,21.7,16.4,22.4,15.4,22.4z M17.7,15.5c-0.7,0.8-1,1.5-0.9,2.3v0.3h-2.5v-0.5c-0.1-0.9,0.3-1.9,1.1-2.9
				c0.6-0.7,1.1-1.3,1.1-1.9s-0.4-1.1-1.4-1.1c-0.6,0-1.4,0.2-1.8,0.6l-0.6-2c0.7-0.4,1.8-0.8,3.1-0.8c2.4,0,3.6,1.4,3.6,2.9
				C19.2,13.8,18.4,14.7,17.7,15.5z"/>
			<path class="st0" d="M57.7,4.2c-6.5-5.7-18.1-5.6-24.6,0.2c-4.9,4.4-5,11.1,0,15.4c1.7,1.5,3.5,2.8,3.4,5.6
				c2.5-2,5.2-1.5,7.8-1.2c4.7,0.4,8.9-0.9,12.7-3.7C62.8,16.2,63,8.9,57.7,4.2z M46.6,4.4l-0.4,8.4h-2.1l-0.4-8.4H46.6z M45.1,17.1
				c-1,0-1.7-0.7-1.7-1.7s0.7-1.7,1.7-1.7s1.6,0.7,1.7,1.7C46.7,16.4,46.1,17.1,45.1,17.1z"/>
			<path class="st0" d="M22.1,47.5L22.1,47.5c4.3-2.7,5.6-5.5,4.5-9c-0.9-2.9-4-4.9-7-4.9c-3.1,0-5.6,2.2-6.4,5.1
				c-0.9,3.6,0.5,6.4,4.6,8.8c-0.5,0.6-1.7,1.2-2.8,3.4c-4.3,8.9-3.1,13.3-3.1,13.3c0.6,2.8,1.3,4.1,3.9,4.2h8.3
				c2.7-0.1,3.4-1.4,3.9-4.2c0-0.1,1.2-4.4-3.1-13.3C23.7,48.7,22.6,48.1,22.1,47.5z"/>
			<path class="st0" d="M43.7,47.5L43.7,47.5c4.3-2.7,5.6-5.5,4.5-9c-0.9-2.9-4-4.9-7-4.9c-3.1,0-5.6,2.2-6.4,5.1
				c-0.9,3.6,0.5,6.4,4.6,8.8c-0.5,0.6-1.7,1.2-2.8,3.4c-4.3,8.9-3.1,13.3-3.1,13.3c0.6,2.8,1.3,4.1,3.9,4.2h8.3
				c2.7-0.1,3.4-1.4,3.9-4.2c0-0.1,1.2-4.4-3.1-13.3C45.4,48.7,44.3,48.1,43.7,47.5z"/>
		</g>
	</g>
</g>
</svg>
