<?xml version="1.0" encoding="utf-8"?>
<!-- Generator: Adobe Illustrator 25.2.3, SVG Export Plug-In . SVG Version: 6.00 Build 0)  -->
<svg version="1.1" id="Ebene_1" xmlns="http://www.w3.org/2000/svg" xmlns:xlink="http://www.w3.org/1999/xlink" x="0px" y="0px"
	 viewBox="0 0 65 48" style="enable-background:new 0 0 65 48;" xml:space="preserve">
<style type="text/css">
	.st0{fill:#9F9F9F;}
</style>
<g>
	<path class="st0" d="M46.4,28.3H29.9v-3.2h16.5V28.3z M57,22.1H29.9v-3.2H57V22.1z"/>
	<path class="st0" d="M24,28.2l-5.1-8.1c2.7-0.8,4.6-3.3,4.6-6.2c0-3.6-2.9-6.5-6.5-6.5s-6.5,2.9-6.5,6.5c0,2.9,2,5.4,4.6,6.2
		L10,28.2c-0.4,0.6-0.6,1.3-0.6,2v5.9c0,1.9,1.6,3.5,3.5,3.5h7.8c2,0,3.7-1.7,3.7-3.7v-5.8C24.5,29.5,24.3,28.8,24,28.2z"/>
	<g>
		<path class="st0" d="M65,48H0V0h64.9v48H65z M4.5,43.5h56v-39h-56V43.5z"/>
	</g>
</g>
</svg>
