<?xml version="1.0" encoding="utf-8"?>
<!-- Generator: Adobe Illustrator 25.2.3, SVG Export Plug-In . SVG Version: 6.00 Build 0)  -->
<svg version="1.1" id="Ebene_1" xmlns="http://www.w3.org/2000/svg" xmlns:xlink="http://www.w3.org/1999/xlink" x="0px" y="0px"
	 viewBox="0 0 66.6 68.8" style="enable-background:new 0 0 66.6 68.8;" xml:space="preserve">
<style type="text/css">
	.st0{fill:#9F9F9F;}
</style>
<g>
	<path class="st0" d="M39.1,60V12.9h5.3l-0.2-2.8h-6.4c-0.7,0-1.3,0.6-1.3,1.4v24c-0.1,0-0.3-0.1-0.4-0.1l-6.4-0.3
		c0.7-4.3,1.3-7.9,1.4-9.3h-9l-1.7,3.9H6.2L3.1,45.9h24.6c0.5-2.7,1-5.4,1.5-8l6.8,0.3l0,0c0.2,0,0.3,0,0.4-0.1v23.3
		c0,0.8,0.6,1.4,1.3,1.4h6.7L44.2,60L39.1,60L39.1,60z"/>
	<polygon class="st0" points="18.6,26.8 19.9,23.3 8.9,23.3 7.2,19.5 0,19.5 1.5,42.4 4.1,26.8 	"/>
	<polygon class="st0" points="48.5,4.9 58.2,4.9 59.1,2.6 51.7,2.6 50.6,0 45.8,0 46.8,15.4 	"/>
	<path class="st0" d="M47.9,17.6h16.5c1.1-5.6,2.2-11.8,2.2-13.5h-6l-1.1,2.6H50L47.9,17.6z"/>
	<polygon class="st0" points="58.2,56.1 59.1,53.7 51.7,53.7 50.6,51.2 45.8,51.2 46.8,66.5 48.5,56.1 	"/>
	<path class="st0" d="M59.4,57.9h-9.5l-2,10.9h16.5c1.1-5.6,2.2-11.8,2.2-13.5h-6L59.4,57.9z"/>
</g>
</svg>
