<?xml version="1.0" encoding="utf-8"?>
<!-- Generator: Adobe Illustrator 25.2.3, SVG Export Plug-In . SVG Version: 6.00 Build 0)  -->
<svg version="1.1" id="Ebene_1" xmlns="http://www.w3.org/2000/svg" xmlns:xlink="http://www.w3.org/1999/xlink" x="0px" y="0px"
	 viewBox="0 0 97.2 77.6" style="enable-background:new 0 0 97.2 77.6;" xml:space="preserve">
<style type="text/css">
	.st0{fill:#3C9662;}
</style>
<g>
	<rect x="45.5" y="9.4" class="st0" width="51.7" height="25.1"/>
	<path class="st0" d="M32,0H9C4,0,0,4,0,9v15.9c0,5,4,9,9,9h2.9v36.4l4.8,7V34H19v43.6h4.7l5.1-7.1v-7.3l-2.2-2.5V58l2.2-2.3v-4.6
		l-2.4-2.6v-2.6l2.4-2.4v-9.7h3.1c5,0,9-4,9-9V9.1C41,4.1,37,0,32,0z M34.4,15.2c0,2.7-2.2,5-5,5H11.9c-2.7,0-5-2.2-5-5v-3.3
		c0-2.7,2.2-5,5-5h17.6c2.7,0,5,2.2,5,5L34.4,15.2L34.4,15.2z"/>
	<path class="st0" d="M45.5,43.7v24.1h51.7V43.7H45.5z M63.7,58.3c-0.5,0.5-1.2,0.8-1.9,0.8c-0.8,0-1.4-0.3-2-0.8
		c-0.5-0.5-0.8-1.2-0.8-2s0.3-1.4,0.8-2c0.5-0.5,1.2-0.8,1.9-0.8c0.7,0,1.4,0.3,1.9,0.8s0.8,1.2,0.8,2
		C64.5,57.1,64.2,57.8,63.7,58.3z M73.3,58.3c-0.5,0.5-1.2,0.8-1.9,0.8c-0.8,0-1.4-0.3-2-0.8c-0.5-0.5-0.8-1.2-0.8-2s0.3-1.4,0.8-2
		c0.5-0.5,1.2-0.8,1.9-0.8c0.7,0,1.4,0.3,1.9,0.8s0.8,1.2,0.8,2C74.1,57.1,73.8,57.8,73.3,58.3z M82.9,58.3
		c-0.5,0.5-1.2,0.8-1.9,0.8c-0.8,0-1.4-0.3-2-0.8c-0.5-0.5-0.8-1.2-0.8-2s0.3-1.4,0.8-2c0.5-0.5,1.2-0.8,1.9-0.8s1.4,0.3,1.9,0.8
		s0.8,1.2,0.8,2C83.7,57.1,83.4,57.8,82.9,58.3z"/>
</g>
</svg>
