<?xml version="1.0" encoding="utf-8"?>
<!-- Generator: Adobe Illustrator 25.2.3, SVG Export Plug-In . SVG Version: 6.00 Build 0)  -->
<svg version="1.1" id="Ebene_1" xmlns="http://www.w3.org/2000/svg" xmlns:xlink="http://www.w3.org/1999/xlink" x="0px" y="0px"
	 viewBox="0 0 66.2 69.4" style="enable-background:new 0 0 66.2 69.4;" xml:space="preserve">
<style type="text/css">
	.st0{fill:#FFFFFF;}
</style>
<g>
	<polygon class="st0" points="41.2,35.9 44.1,30.2 20.4,30.2 16.8,24 1.4,24 4.6,61.3 10.1,35.9 	"/>
	<path class="st0" d="M46.9,32l-3.6,7.2H12.7L6.1,69.4H59c3.5-15.6,6.9-32.7,7.2-37.4L46.9,32L46.9,32z"/>
	<polygon class="st0" points="40.4,23.3 44.8,23.3 44.8,8.7 48,8.7 42.6,0 37.2,8.7 40.4,8.7 	"/>
	<polygon class="st0" points="33.8,15.3 30.5,15.3 30.5,0.7 26.2,0.7 26.2,15.3 22.9,15.3 28.3,23.9 	"/>
</g>
</svg>
