<?xml version="1.0" encoding="utf-8"?>
<!-- Generator: Adobe Illustrator 25.2.3, SVG Export Plug-In . SVG Version: 6.00 Build 0)  -->
<svg version="1.1" id="Ebene_1" xmlns="http://www.w3.org/2000/svg" xmlns:xlink="http://www.w3.org/1999/xlink" x="0px" y="0px"
	 viewBox="0 0 53.5 68.7" style="enable-background:new 0 0 53.5 68.7;" xml:space="preserve">
<style type="text/css">
	.st0{fill:#3B488CFF;}
</style>
<g>
	<g id="Ebene_3_1_">
		<path class="st0" d="M9.9,28h9.3l-4.7,5.4l-2.7-1.9c-0.6-0.4-1.4-0.3-1.9,0.3V28L9.9,28z M20.4,38.5H9.9v-5
			c0.1,0.1,0.2,0.2,0.3,0.3l3.7,2.7c0.2,0.2,0.5,0.3,0.8,0.3c0.4,0,0.8-0.2,1.1-0.5l4.6-5.4V38.5L20.4,38.5z"/>
		<path class="st0" d="M51.2,11.1h-9.3v2.3H17.8v-2.3H9.4c-1.3,0-2.3,1-2.3,2.3v7.2c-1.6,1-3,2.2-4.1,3.8c-2.4,3.2-3.4,7.1-2.8,11.1
			c0.7,4.5,3.4,8.4,7.1,10.6c-0.1,0-0.1-0.1-0.2-0.1v20.4c0,1.3,1,2.3,2.3,2.3h41.8c1.3,0,2.3-1,2.3-2.3v-53
			C53.6,12.1,52.5,11.1,51.2,11.1z M43.7,30.6v1.9H29.8v-1.9H43.7z M41.8,27.8v1.9H29.7c-0.2-0.6-0.4-1.3-0.6-1.9H41.8L41.8,27.8z
			 M1.1,35.3c-0.5-3.7,0.4-7.4,2.6-10.4s5.5-5,9.2-5.5c0.7-0.1,1.4-0.2,2.1-0.2c3,0,5.9,1,8.3,2.8c3,2.2,5,5.5,5.5,9.2
			s-0.4,7.4-2.6,10.4s-5.5,5-9.2,5.5c-0.7,0.1-1.4,0.1-2,0.1l0,0C8.1,47.3,2.1,42.3,1.1,35.3z M18.6,54.1H14v-4.6h4.6V54.1
			L18.6,54.1z M45.7,58.8l-6.8-5h-17v-1.9h14.5L35.2,51H22v-1.9h10.7l-7.2-5.3c-0.1,0.1-0.1,0.1-0.2,0.2c0.6-0.6,1.1-1.2,1.6-1.8
			c0.8-1,1.4-2.1,1.8-3.2c0,0.1-0.1,0.2-0.1,0.3L49,54.4L45.7,58.8z"/>
		<path class="st0" d="M39.8,4.6h-3.4C36.4,2,33.6,0,30.1,0s-6.3,2.1-6.3,4.6h-3.9v6h19.9V4.6L39.8,4.6z M29.9,4.6
			c-0.8,0-1.4-0.6-1.4-1.4s0.6-1.4,1.4-1.4s1.4,0.6,1.4,1.4S30.6,4.6,29.9,4.6z"/>
		<path class="st0" d="M11.8,31.5l2.7,1.9l4.7-5.4H9.9v3.8C10.4,31.2,11.2,31.1,11.8,31.5z"/>
		<path class="st0" d="M14.7,36.7c-0.3,0-0.6-0.1-0.8-0.3l-3.7-2.7c-0.1-0.1-0.2-0.2-0.3-0.3v5h10.5v-7.6l-4.6,5.4
			C15.5,36.5,15.1,36.7,14.7,36.7z"/>
		<path class="st0" d="M16.6,44.4c6.1-0.9,10.4-6.6,9.5-12.7c-0.4-3-2-5.6-4.4-7.4c-2-1.5-4.3-2.2-6.7-2.2c-0.5,0-1.1,0-1.7,0.1
			c-3,0.4-5.6,2-7.4,4.4S3.4,32,3.8,34.9c0.8,5.6,5.6,9.6,11.1,9.6C15.5,44.5,16.1,44.5,16.6,44.4z M9,27.1h11l1-1.1
			c0.5-0.6,1.4-0.6,2-0.1s0.6,1.4,0.1,2l-1.7,2v9.6H9V27.1z"/>
	</g>
</g>
</svg>
