<?xml version="1.0" encoding="utf-8"?>
<!-- Generator: Adobe Illustrator 25.2.3, SVG Export Plug-In . SVG Version: 6.00 Build 0)  -->
<svg version="1.1" id="Ebene_1" xmlns="http://www.w3.org/2000/svg" xmlns:xlink="http://www.w3.org/1999/xlink" x="0px" y="0px"
	 viewBox="0 0 62.6 62.1" style="enable-background:new 0 0 62.6 62.1;" xml:space="preserve">
<style type="text/css">
	.st0{fill:#FFFFFF;}
</style>
<g>
	<path class="st0" d="M37.9,62.1c-0.2,0-0.4,0-0.6,0c-1.7-0.2-3.1-1.3-4.1-3.2c-0.5-0.9-1.3-1.4-2.1-1.5l0,0c-0.9,0-1.7,0.6-2.3,1.5
		c-1.1,1.9-2.5,2.9-4.3,3c-1.4,0.1-2.7-0.4-4-1c-0.3-0.1-0.6-0.3-1-0.4c-1.1-0.4-2.3-0.9-3.2-1.8c-1.2-1.2-1.5-2.8-1.2-4.9
		c0.2-1.3,0-2.4-0.5-2.9c-0.6-0.5-1.7-0.6-3.1-0.1c-2,0.7-3.7,0.5-5-0.5c-1.1-0.8-1.6-2-2.1-3c-0.2-0.5-0.4-0.9-0.7-1.2
		c-2.9-4-1-6.7,1-8.2c1-0.7,1.4-1.6,1.3-2.5c-0.1-0.8-0.8-1.5-2-1.9c-2.1-0.8-3.3-2-3.8-3.6c-0.4-1.4-0.1-2.7,0.2-3.9
		c0.1-0.5,0.2-1,0.3-1.4c0.2-1.9,0.8-3.3,1.8-4.2c1.1-1,2.7-1.5,4.8-1.3c0.9,0.1,1.4-0.4,1.7-0.8c0.6-0.8,0.7-1.9,0.3-2.8
		c-0.1-0.2-0.2-0.4-0.4-0.7c-0.6-1-1.9-3.1-0.1-5.2c2-2.4,4.3-4.2,6.8-5.3c2-0.9,3.4,0.5,4.1,1.1c0.1,0.1,0.2,0.2,0.3,0.3
		c1.1,0.9,2.2,1.3,2.9,1c0.8-0.3,1.4-1.1,1.7-2.5c0.5-2,1.6-3.3,3.1-3.9C29-0.2,30.2,0,31.3,0.1c0.6,0.1,1.2,0.1,1.6,0.1
		c3.3-0.5,5.6,1.2,6.2,4.6c0.2,1.1,0.8,1.9,1.6,2.2c0.8,0.3,1.8,0.1,2.6-0.6C45,5.1,46.6,4.6,48.2,5c1.5,0.4,2.6,1.5,3.5,2.5
		c0.3,0.3,0.6,0.6,1,0.9c0.9,0.7,1.9,1.6,2.4,2.8c0.6,1.5,0.3,3.2-0.9,5c-0.7,1.1-0.3,2.1-0.1,2.4c0.5,0.9,1.3,1.4,2.4,1.4
		c2.1,0,3.7,0.7,4.6,2.1c0.8,1.1,0.9,2.5,1.1,3.6c0,0.2,0.1,0.5,0.1,0.7s0.1,0.3,0.1,0.5c0.2,1.2,0.4,2.5,0.1,3.9
		c-0.5,1.7-1.7,2.9-3.7,3.6l0,0c-1,0.4-1.7,1-1.8,1.9c-0.2,1,0.3,2,1.2,2.9c1.5,1.4,2.2,2.9,2,4.5C60,45,59.3,46,58.7,46.9
		c-0.3,0.4-0.5,0.8-0.7,1.1c-0.5,1-1.1,2.3-2.3,3.1c-1.4,1-3.1,1.2-5.1,0.4c-0.6-0.3-1.8-0.6-2.7,0c-0.7,0.5-1.1,1.6-1,3
		c0.4,1.4,0.3,2.6-0.3,3.7c-1,1.8-2.9,2.4-4.7,2.9c-0.3,0.1-0.7,0.2-1,0.3C40.1,61.7,39,62.1,37.9,62.1z M31,53.5
		C31,53.5,31.1,53.5,31,53.5c2.3,0,4.4,1.3,5.6,3.5c0.6,1.1,1,1.1,1.1,1.1c0.5,0.1,1.3-0.2,2.1-0.5c0.4-0.1,0.8-0.3,1.2-0.4
		c1.3-0.4,2.1-0.7,2.3-1c0-0.1,0.1-0.3-0.1-0.8l-0.1-0.2V55c-0.2-2.9,0.8-5.3,2.6-6.7c1.8-1.3,4.1-1.5,6.5-0.5
		c1.2,0.5,1.4,0.4,2.4-1.6c0.3-0.6,0.6-1.1,1-1.6s0.8-1.1,0.8-1.5c0-0.3-0.5-0.9-0.7-1c-2-1.8-3-4.3-2.5-6.6c0.4-2.2,2-4,4.4-4.8
		l0,0c1.1-0.4,1.2-0.8,1.2-0.9c0.1-0.5,0-1.3-0.2-2.2c0-0.2-0.1-0.4-0.1-0.6c0-0.3-0.1-0.5-0.1-0.8c-0.1-0.8-0.2-1.6-0.5-1.9
		c-0.2-0.2-0.6-0.4-1.3-0.4c-2.5,0-4.8-1.4-5.9-3.5s-1-4.5,0.3-6.5c0.1-0.2,0.6-1,0.5-1.3s-0.7-0.8-1.3-1.3c-0.5-0.4-1-0.8-1.4-1.3
		c-0.2-0.3-1-1.1-1.5-1.3c-0.4-0.1-1,0.3-1.4,0.6c-1.9,1.6-4.4,2-6.5,1.2c-2.2-0.8-3.7-2.8-4.1-5.3c-0.2-1-0.4-1.2-0.5-1.3
		c-0.2-0.1-0.6-0.2-1.1-0.1c-0.9,0.1-1.8,0-2.6,0c-0.7-0.1-1.4-0.2-1.8,0C29,3.9,28.8,4.6,28.7,5c-0.7,2.7-2.2,4.6-4.3,5.3
		c-2.1,0.7-4.5,0.1-6.7-1.7c-0.2-0.2-0.4-0.3-0.5-0.5C17.1,8,17,7.9,16.9,7.9c-1.8,0.9-3.4,2.2-4.9,3.9c0.1,0.2,0.3,0.5,0.4,0.7
		c0.2,0.4,0.5,0.8,0.7,1.2c0.9,2.2,0.6,4.8-0.8,6.7C11,22.1,9.1,23,7,22.8c-0.8-0.1-1.4,0-1.7,0.2c-0.1,0.1-0.4,0.5-0.5,1.7
		c-0.1,0.6-0.2,1.2-0.3,1.8c-0.2,0.8-0.3,1.5-0.2,2c0.1,0.4,0.8,0.7,1.3,0.9c2.5,0.9,4.2,2.8,4.5,5.1c0.4,2.3-0.7,4.6-2.8,6.2
		C7,41,6.4,41.5,6.4,41.9c0,0.2,0.1,0.7,0.7,1.6c0.4,0.6,0.8,1.3,1,1.9c0.8,1.7,0.8,1.8,2.2,1.4c2.7-0.9,5.2-0.6,7,0.9
		c1.7,1.5,2.4,3.9,1.9,6.6c-0.3,1.4-0.1,1.5,1.9,2.3c0.4,0.2,0.8,0.3,1.2,0.5c0.6,0.3,1.6,0.7,2.1,0.7c0.1,0,0.5,0,1-1
		C26.6,54.8,28.7,53.5,31,53.5z M31.6,44.1L31.6,44.1c-3.5,0-6.8-1.3-9.1-3.7c-2.4-2.4-3.7-5.6-3.6-9.1c0-7.1,5.8-12.9,12.8-12.9
		l0,0c3.3,0,6.6,1.4,9,3.8s3.8,5.8,3.9,9.1c0,3.3-1.3,6.5-3.7,8.9C38.4,42.6,35.1,44.1,31.6,44.1z M31.7,22.3L31.7,22.3
		c-4.9,0-8.8,4-8.8,9c0,2.4,0.9,4.7,2.5,6.3c1.6,1.6,3.9,2.5,6.3,2.5l0,0l0,0c2.4,0,4.7-1,6.4-2.7c1.7-1.7,2.6-3.8,2.5-6.1
		C40.5,26.5,36.4,22.3,31.7,22.3z"/>
</g>
</svg>
