<?xml version="1.0" encoding="utf-8"?>
<!-- Generator: Adobe Illustrator 25.2.3, SVG Export Plug-In . SVG Version: 6.00 Build 0)  -->
<svg version="1.1" id="Ebene_1" xmlns="http://www.w3.org/2000/svg" xmlns:xlink="http://www.w3.org/1999/xlink" x="0px" y="0px"
	 viewBox="0 0 73.8 74" style="enable-background:new 0 0 73.8 74;" xml:space="preserve">
<style type="text/css">
	.st0{fill:#9F9F9F;}
</style>
<g>
	<path class="st0" d="M9.7,37c0-15,12.2-27.2,27.2-27.2c2,0,4,0.2,5.8,0.6V0.5C40.8,0.2,38.9,0,36.9,0C16.5,0,0,16.5,0,36.9
		C0,46.6,3.8,55.4,9.9,62l-6,6h19.4V48.6l-6.5,6.5C12.4,50.4,9.7,44,9.7,37z"/>
	<path class="st0" d="M63.9,11.9l6-6H50.5v19.4l6.5-6.5c4.4,4.8,7.1,11.2,7.1,18.2c0,15-12.2,27.2-27.2,27.2c-2,0-4-0.2-5.8-0.6v9.9
		c1.9,0.3,3.8,0.5,5.8,0.5c20.4,0,36.9-16.5,36.9-36.9C73.8,27.3,70.1,18.5,63.9,11.9z"/>
</g>
</svg>
