<?xml version="1.0" encoding="utf-8"?>
<!-- Generator: Adobe Illustrator 25.2.3, SVG Export Plug-In . SVG Version: 6.00 Build 0)  -->
<svg version="1.1" id="Ebene_1" xmlns="http://www.w3.org/2000/svg" xmlns:xlink="http://www.w3.org/1999/xlink" x="0px" y="0px"
	 viewBox="0 0 68.5 87.8" style="enable-background:new 0 0 68.5 87.8;" xml:space="preserve">
<style type="text/css">
	.st0{fill:#9F9F9F;}
</style>
<g>
	<path class="st0" d="M36,40.1c-0.4-0.6-0.9-0.9-1.7-0.9c-0.7,0-1.6,0.2-2.2,1.7c-1.4,3.7,0.4,11.6,2,15.2
		C35.5,51.9,37.8,43.1,36,40.1z"/>
	<path class="st0" d="M19.8,35.2c-0.4-0.5-0.9-0.7-1.5-0.7c-0.7,0-1.3,0.9-1.6,1.5c-2.5,4.4-2.9,15.9,1.6,24.9c2-5,3.7-9.8,3.8-12
		C22.2,46.2,22.3,37.8,19.8,35.2z"/>
	<polygon class="st0" points="45.7,1.1 45.7,22.4 67.5,22.4 	"/>
	<path class="st0" d="M43.4,24.7V0H0v87.8h68.5V24.7H43.4z M58.4,51.4c-1.4,0-2.6,1.2-3.7,2.4c-1.2,1.2-2.3,2.4-3.8,2.2
		c-1.5-0.2-2.3-1.7-3-3.3c-0.6-1.3-1.2-2.3-1.8-2.9c-0.7,6.1-2.6,9.7-5.7,11c-2,0.8-4.1,0.4-5.6-0.5c-2.1,3.6-5.7,8.6-10.1,8.7
		c-2.2,0-4.1-1-5.9-3.1c-2.2,5.1-4.2,9.3-4.4,9.7c-0.2,0.4-0.6,0.7-1,0.7c-0.2,0-0.3,0-0.5-0.1c-0.6-0.3-0.8-1-0.5-1.5
		c1.2-2.4,3.1-6.6,4.9-11c-6-10-5.5-23.5-2.6-28.7c1.2-2.2,2.7-2.6,3.6-2.6c1.2,0,2.3,0.5,3.2,1.4c2.8,2.9,3.1,9.7,2.9,15.3
		c-0.1,2.8-2.3,8.8-4.6,14.4c1.5,2.2,3.2,3.5,4.7,3.3c2.5-0.1,5.6-3,8.4-8c-2.2-3.3-4.9-13.6-3-18.6c0.8-2.2,2.4-3.3,4.4-3.3
		c1.6,0,2.8,0.7,3.6,2c2.8,4.6-0.9,15.9-2.2,19.3c1,0.6,2.5,1,3.8,0.5c2.4-1,3.9-4.7,4.4-10.5l0.1-1.1l1.1,0.1
		c2.7,0.1,3.9,2.7,4.9,4.6c0.3,0.7,0.9,1.9,1.2,2c0.2,0,1.3-0.9,1.9-1.5c1.3-1.4,3-3.1,5.4-3.1c0.6,0,1.2,0.5,1.2,1.2
		C59.5,50.9,59,51.4,58.4,51.4z"/>
</g>
</svg>
