<?xml version="1.0" encoding="utf-8"?>
<!-- Generator: Adobe Illustrator 25.2.3, SVG Export Plug-In . SVG Version: 6.00 Build 0)  -->
<svg version="1.1" id="Ebene_1" xmlns="http://www.w3.org/2000/svg" xmlns:xlink="http://www.w3.org/1999/xlink" x="0px" y="0px"
	 viewBox="0 0 58.2 92.2" style="enable-background:new 0 0 58.2 92.2;" xml:space="preserve">
<style type="text/css">
	.st0{fill:#9F9F9F;}
</style>
<g>
	<path class="st0" d="M46.2,12.3H12.4v11.8h33.8C46.2,24.1,46.2,12.3,46.2,12.3z M40.3,19.5h-5.2c-0.7,0-1.3-0.6-1.3-1.3
		c0-0.7,0.6-1.3,1.3-1.3h5.2c0.7,0,1.3,0.6,1.3,1.3S41,19.5,40.3,19.5z"/>
	<path class="st0" d="M29.4,64.9c-3.1,0-5.6,2.5-5.6,5.6s2.5,5.6,5.6,5.6s5.6-2.5,5.6-5.6S32.5,64.9,29.4,64.9z"/>
	<path class="st0" d="M46.2,27H12.4v11.8h33.8C46.2,38.8,46.2,27,46.2,27z M40.3,34.2h-5.2c-0.7,0-1.3-0.6-1.3-1.3
		c0-0.7,0.6-1.3,1.3-1.3h5.2c0.7,0,1.3,0.6,1.3,1.3S41,34.2,40.3,34.2z"/>
	<path class="st0" d="M46.2,41.7H12.4v11.8h33.8C46.2,53.5,46.2,41.7,46.2,41.7z M40.3,48.9h-5.2c-0.7,0-1.3-0.6-1.3-1.3
		c0-0.7,0.6-1.3,1.3-1.3h5.2c0.7,0,1.3,0.6,1.3,1.3C41.6,48.3,41,48.9,40.3,48.9z"/>
	<path class="st0" d="M0,0v92.2h58.2V0H0z M29.4,78.2c-4.3,0-7.7-3.5-7.7-7.7s3.5-7.7,7.7-7.7c4.3,0,7.7,3.5,7.7,7.7
		S33.7,78.2,29.4,78.2z M48.6,56H9.9V9.8h38.8V56H48.6z"/>
</g>
</svg>
