<?xml version="1.0" encoding="utf-8"?>
<!-- Generator: Adobe Illustrator 25.2.3, SVG Export Plug-In . SVG Version: 6.00 Build 0)  -->
<svg version="1.1" id="Ebene_1" xmlns="http://www.w3.org/2000/svg" xmlns:xlink="http://www.w3.org/1999/xlink" x="0px" y="0px"
	 viewBox="0 0 79.6 79.6" style="enable-background:new 0 0 79.6 79.6;" xml:space="preserve">
<style type="text/css">
	.st0{fill:#FFFFFF;}
</style>
<g>
	<path class="st0" d="M39.8,0C17.8,0,0,17.8,0,39.8s17.9,39.8,39.8,39.8s39.8-17.9,39.8-39.8C79.6,17.8,61.8,0,39.8,0z M39.8,77.6
		C18.9,77.6,2,60.7,2,39.8S18.9,2,39.8,2s37.8,16.9,37.8,37.8S60.7,77.6,39.8,77.6z"/>
	<path class="st0" d="M55.5,25c0-4.5-4.1-7.3-7.7-7.3c-3.6,0-19.7,0-19.7,0c-2.3,0-4.2,1.9-4.2,4.2c0,0.9,0.3,1.8,0.8,2.5
		c-2,0.4-3.6,2.2-3.6,4.4c0,1.4,0.6,2.6,1.6,3.4c-1.9,0.6-3.3,2.4-3.3,4.5c0,1.2,0.5,2.4,1.3,3.2c-2,0.7-3.5,2.6-3.5,4.8
		c0,2.9,2.3,5.2,5.2,5.2h17.9c0,0-2.4,5.8-2.4,10.9c0,2.6,2.1,4.8,4.8,4.8c2.6,0,4.8-2.1,4.8-4.8s0.3-4.9,5.4-10
		c3-3,2.6-12.2,2.6-12.2S55.5,29.5,55.5,25z"/>
</g>
</svg>
