<?xml version="1.0" encoding="utf-8"?>
<!-- Generator: Adobe Illustrator 25.2.3, SVG Export Plug-In . SVG Version: 6.00 Build 0)  -->
<svg version="1.1" id="Ebene_1" xmlns="http://www.w3.org/2000/svg" xmlns:xlink="http://www.w3.org/1999/xlink" x="0px" y="0px"
	 viewBox="0 0 73.2 69" style="enable-background:new 0 0 73.2 69;" xml:space="preserve">
<style type="text/css">
	.st0{fill:#9F9F9F;}
</style>
<g>
	<g id="Ebene_6_1_">
		<g>
			<path class="st0" d="M73.1,47.2c0,5.9,0,11.8,0,17.7c0,0.8-0.1,1.7-0.9,2.1c-0.8,0.4-1.6,0-2.2-0.5c-3.2-2.4-6.4-4.7-9.5-7.2
				c-2-1.6-3.1-3.8-3.1-6.4c0-3.9,0-7.8,0-11.6c0-2.5,1.1-4.7,3.1-6.3c3.1-2.5,6.4-4.8,9.6-7.2c0.3-0.2,0.6-0.4,1-0.5
				c0.9-0.3,1.7,0.1,1.9,1c0.1,0.3,0.2,0.7,0.2,1.1C73.1,35.3,73.1,41.2,73.1,47.2L73.1,47.2z"/>
			<path class="st0" d="M38.1,9.9c0,5.6-4.4,9.9-10,10c-5.5,0-10-4.6-9.9-10.1c0.1-5.4,4.5-9.8,10-9.8S38.1,4.4,38.1,9.9z"/>
			<path class="st0" d="M7.3,5.5c4.2,0,7.3,3.4,7.2,7.4c-0.1,3.7-3.3,7-6.9,7c-4.2,0.1-7.7-3.3-7.5-7.6C0.2,8.7,3.3,5.5,7.3,5.5z"/>
			<path class="st0" d="M54.2,35.2c0-0.4-0.1-0.6-0.6-0.6c-0.6,0-1.1,0-1.7,0c-9.6,0-19.2,0-28.8,0c-1.1,0-2.2,0-3.3,0
				c0-1.7,0-3.2,0-4.9c11.5,0,22.9,0,34.4,0c0-0.2,0-0.4,0-0.6c-0.2-2.2-2.1-4.2-4.4-4.3c-1.9-0.1-3.8-0.1-5.7-0.1
				c-7.2,0-14.3,0-21.5,0c-5.9,0-11.7,0-17.6,0c-3,0-5,2.1-5,5.1c0,11.4,0,22.8,0,34.3C0,66.9,2.1,69,4.9,69c14.7,0,29.5,0,44.2,0
				c2.8,0,5-2.1,5-5c0-3.9,0-7.7,0-11.5C54.2,46.7,54.2,41,54.2,35.2z M14.8,59.2c-2.7,0-4.8-2.2-4.8-5c0-2.6,2.3-4.8,4.9-4.8
				c2.7,0,4.8,2.3,4.8,4.9C19.7,57,17.5,59.2,14.8,59.2z M28.8,58.7c-1.7,0-3.1-1.3-3-3c0.1-1.4,1.3-2.7,2.9-2.7
				c1.7,0,2.9,1.4,2.9,2.9C31.5,57.4,30.3,58.7,28.8,58.7z"/>
		</g>
	</g>
</g>
</svg>
