<?xml version="1.0" encoding="utf-8"?>
<!-- Generator: Adobe Illustrator 25.2.3, SVG Export Plug-In . SVG Version: 6.00 Build 0)  -->
<svg version="1.1" id="Ebene_1" xmlns="http://www.w3.org/2000/svg" xmlns:xlink="http://www.w3.org/1999/xlink" x="0px" y="0px"
	 viewBox="0 0 79.6 79.6" style="enable-background:new 0 0 79.6 79.6;" xml:space="preserve">
<style type="text/css">
	.st0{fill:#FFFFFF;}
</style>
<g>
	<path class="st0" d="M39.8,0C17.8,0,0,17.8,0,39.8s17.8,39.8,39.8,39.8s39.8-17.9,39.8-39.8S61.8,0,39.8,0z M39.8,77.6
		C18.9,77.6,2,60.7,2,39.8S18.9,2,39.8,2s37.8,16.9,37.8,37.8S60.7,77.6,39.8,77.6z"/>
	<path class="st0" d="M60.7,32.1c-2.7,0-4.9-0.3-10-5.4c-2.3-2.3-8.5-2.6-11.1-2.6c-0.7,0-1.1,0-1.1,0s-9.1,0-13.6,0
		c-4.6,0-7.3,4.1-7.3,7.7c0,3.6,0,19.7,0,19.7c0.1,2.4,2,4.3,4.3,4.3c0.9,0,1.8-0.3,2.5-0.8c0.4,2,2.2,3.6,4.4,3.6
		c1.4,0,2.6-0.6,3.4-1.6c0.6,1.9,2.4,3.3,4.5,3.3c1.2,0,2.4-0.5,3.2-1.3c0.7,2,2.6,3.5,4.8,3.5c2.8,0,5.1-2.3,5.1-5.1V39.3
		c0,0,5.8,2.4,10.9,2.4c2.6,0,4.8-2.1,4.8-4.8C65.5,34.3,63.4,32.1,60.7,32.1z"/>
</g>
</svg>
