<?xml version="1.0" encoding="utf-8"?>
<!-- Generator: Adobe Illustrator 25.2.3, SVG Export Plug-In . SVG Version: 6.00 Build 0)  -->
<svg version="1.1" id="Ebene_1" xmlns="http://www.w3.org/2000/svg" xmlns:xlink="http://www.w3.org/1999/xlink" x="0px" y="0px"
	 viewBox="0 0 73 64.9" style="enable-background:new 0 0 73 64.9;" xml:space="preserve">
<style type="text/css">
	.st0{fill:#9F9F9F;}
</style>
<g>
	<path class="st0" d="M69.4,24.2V13.8C69.4,6.2,63.2,0,55.6,0h-38C10,0,3.8,6.2,3.8,13.8v10.5C1.6,24.8,0,26.7,0,29v31.1
		c0,2.7,2.2,4.8,4.8,4.8h63.4c2.7,0,4.8-2.2,4.8-4.8V28.9C73.1,26.6,71.5,24.7,69.4,24.2z M58.2,44.5L58.2,44.5
		c-1,2.3-2.5,3.9-4.7,5c-1.6,0.7-3.3,1-5,0.9c-1.2-0.1-2.4-0.5-3.4-1.1c-0.7-0.4-1.2-0.7-1.7-1.2c-0.3-0.2-0.8-0.6-1.6-0.3
		c-3.6,1.5-7.2,2.9-10.7,4.4l-1.5,0.6c-0.8,0.3-1.6,0.6-2.4,1c-1.9,0.8-3.9,1.6-5.9,2.4c-0.9,0.4-1.7,0.4-2.5,0.2
		c-1-0.3-1.8-0.9-2.2-1.9c-0.4-0.7-0.4-1.4-0.3-2.2c0.3-1.3,1-2.2,2.2-2.7c3.1-1.3,6.2-2.5,9.3-3.8c1.5-0.6,3-1.2,4.4-1.8
		c0.7-0.3,1.4-0.6,2.1-0.9c1.5-0.6,3.1-1.3,4.7-1.9c0.6-0.2,0.9-0.7,1-1.3c0.1-1.2,0.4-2.3,1-3.4c0.9-1.8,2.2-3.1,3.9-4
		c2-1.1,4.2-1.4,6.5-0.9c0.6,0.1,1.2,0.3,1.8,0.5c0.6,0.2,1.1,0.5,1.6,0.9c-0.8,0.3-1.6,0.6-2.3,0.9l-1.7,0.7
		c-0.8,0.3-1.7,0.7-2.6,1.1c-0.4,0.2-0.8,0.6-0.9,1c-0.4,1.5-0.7,3-1.1,4.7c-0.1,0.5,0.1,1.2,0.6,1.5c0.7,0.4,1.3,0.9,2,1.3l0.6,0.4
		c0.1,0.1,0.2,0.2,0.4,0.2c0.4,0.2,0.7,0.4,1,0.7c0.3,0.2,0.9,0.4,1.5,0.1c1.2-0.5,2.4-1,3.6-1.5c1-0.4,1.9-0.8,2.9-1.2
		C58.6,43.4,58.4,44,58.2,44.5z M59.4,24.1H13.8V13.8c0-2.1,1.7-3.9,3.9-3.9h37.9c2.1,0,3.9,1.7,3.9,3.9L59.4,24.1L59.4,24.1z"/>
</g>
</svg>
