<?xml version="1.0" encoding="utf-8"?>
<!-- Generator: Adobe Illustrator 25.2.3, SVG Export Plug-In . SVG Version: 6.00 Build 0)  -->
<svg version="1.1" id="Ebene_1" xmlns="http://www.w3.org/2000/svg" xmlns:xlink="http://www.w3.org/1999/xlink" x="0px" y="0px"
	 viewBox="0 0 56.9 56.8" style="enable-background:new 0 0 56.9 56.8;" xml:space="preserve">
<style type="text/css">
	.st0{fill:#FFFFFF;}
</style>
<path class="st0" d="M52.8,41.9h1.1h2.7v-2.7V35v-2.6H55V2.7V0h-2.6H6.7H4v2.7v6c-2.2,1.6-3.7,4.1-3.7,7.1c0,2.5,1.1,4.7,2.8,6.3
	c-1.9,1.4-3.1,3.5-3.1,6V48v2.7h0.4c0.9,3.5,4,6.1,7.7,6.1c1.9,0,3.7-0.7,5.1-1.9c1.4,1.2,3.1,1.9,5.1,1.9s3.7-0.7,5.1-1.9
	c1.4,1.2,3.1,1.9,5.1,1.9s3.7-0.7,5.1-1.9c1.4,1.2,3.1,1.9,5.1,1.9c1.9,0,3.7-0.7,5.1-1.9c1.4,1.2,3.1,1.9,5.1,1.9c4.4,0,8-3.6,8-8
	C56.7,45.9,55.1,43.3,52.8,41.9z M6.7,2.7h45.7l0,0v29.7l0,0v1.4h-35v-1.4h10c0.2,0,0.4,0,0.6-0.1c0.7-0.1,1.4-0.3,2.1-0.6l0,0
	c0.3-0.2,0.6-0.3,0.9-0.5c0,0,0.1,0,0.1-0.1c0.2-0.2,0.5-0.4,0.7-0.6c0.1-0.1,0.1-0.1,0.2-0.2c0.2-0.2,0.3-0.4,0.5-0.6
	c0.1-0.1,0.1-0.2,0.2-0.4c0.1-0.2,0.2-0.4,0.3-0.6c0.1-0.2,0.1-0.4,0.2-0.6c0-0.1,0.1-0.3,0.1-0.4c0.1-0.4,0.1-0.8,0.1-1.1
	c0-3.2-2.6-5.9-5.9-5.9H16.1c1-1.4,1.5-3.1,1.5-4.9c0-4.8-3.9-8.6-8.6-8.6c-0.8,0-1.6,0.1-2.3,0.3C6.7,7.5,6.7,2.7,6.7,2.7z
	 M3.1,15.9C3.1,15.8,3.1,15.8,3.1,15.9C3.1,15.8,3.1,15.8,3.1,15.9c0-0.4,0-0.8,0.1-1.1c0-0.1,0-0.2,0.1-0.3
	c0.1-0.3,0.1-0.5,0.2-0.7c0-0.1,0.1-0.2,0.1-0.3c0.1-0.3,0.3-0.6,0.5-0.9l0,0c0.7-1,1.6-1.7,2.7-2.2l0,0c0.1,0,0.2-0.1,0.4-0.1
	c0.2-0.1,0.5-0.2,0.7-0.2C8.3,10,8.7,10,9.1,10l0,0l0,0c0.1,0,0.1,0,0.1,0c3.2,0.1,5.8,2.7,5.8,5.9c0,0,0,0,0,0.1l0,0l0,0l0,0
	c0,0.5-0.1,0.9-0.2,1.3c0,0.1-0.1,0.3-0.1,0.4c-0.1,0.3-0.2,0.6-0.3,0.9c-0.1,0.1-0.1,0.2-0.2,0.4c-0.2,0.3-0.3,0.5-0.6,0.8
	c-0.1,0.1-0.1,0.2-0.2,0.3c-0.3,0.3-0.6,0.6-0.9,0.8l0,0l0,0c-1,0.7-2.2,1.1-3.4,1.1c-2.6,0-4.9-1.7-5.7-4.1c0-0.1-0.1-0.2-0.1-0.3
	c-0.1-0.2-0.1-0.4-0.1-0.6C3.1,16.5,3.1,16.2,3.1,15.9z M8.1,53.8c-2.8,0-5.1-2.3-5.1-5.1s2.3-5.1,5.1-5.1s5.1,2.3,5.1,5.1
	S10.9,53.8,8.1,53.8z M8.1,40.8c-1.5,0-2.9,0.4-4.1,1.1c-0.5,0.3-0.9,0.6-1.3,1l0,0l0,0V28.1c0,0,0,0,0-0.1c0-0.3,0-0.6,0.1-0.9
	c0-0.2,0.1-0.5,0.2-0.7c0-0.1,0-0.1,0.1-0.2c0.7-1.7,2.4-3,4.4-3h3.8h3.4l0,0h12.7l0,0l0,0c0.3,0,0.6,0.1,0.8,0.1l0,0l0,0
	c0.7,0.2,1.2,0.6,1.6,1.1c0,0,0,0,0.1,0.1c0.2,0.2,0.3,0.5,0.4,0.8v0.1c0.1,0.3,0.2,0.6,0.2,1s-0.1,0.7-0.2,1v0.1
	c-0.1,0.3-0.3,0.6-0.4,0.8c0,0,0,0-0.1,0.1c-0.4,0.5-1,0.9-1.6,1.1l0,0l0,0c-0.3,0.1-0.6,0.1-0.8,0.1l0,0l0,0H14.7v2.6v1.4l0,0v2.7
	l0,0v2.9l0,0v2.4c-0.5,0.3-1,0.6-1.5,1C11.8,41.5,10.1,40.8,8.1,40.8z M18.3,53.8c-2.8,0-5.1-2.3-5.1-5.1s2.3-5.1,5.1-5.1
	s5.1,2.3,5.1,5.1S21.1,53.8,18.3,53.8z M28.4,53.8c-2.8,0-5.1-2.3-5.1-5.1s2.3-5.1,5.1-5.1s5.1,2.3,5.1,5.1S31.2,53.8,28.4,53.8z
	 M38.6,53.8c-2.8,0-5.1-2.3-5.1-5.1s2.3-5.1,5.1-5.1s5.1,2.3,5.1,5.1S41.4,53.8,38.6,53.8z M17.4,39.3v-2.9l0,0H54l0,0l0,0v2.8l0,0
	L17.4,39.3L17.4,39.3z M48.8,53.8c-2.8,0-5.1-2.3-5.1-5.1s2.3-5.1,5.1-5.1s5.1,2.3,5.1,5.1S51.6,53.8,48.8,53.8z"/>
</svg>
