<?xml version="1.0" encoding="utf-8"?>
<!-- Generator: Adobe Illustrator 25.2.3, SVG Export Plug-In . SVG Version: 6.00 Build 0)  -->
<svg version="1.1" id="Ebene_1" xmlns="http://www.w3.org/2000/svg" xmlns:xlink="http://www.w3.org/1999/xlink" x="0px" y="0px"
	 viewBox="0 0 69.9 69.3" style="enable-background:new 0 0 69.9 69.3;" xml:space="preserve">
<style type="text/css">
	.st0{fill:#3B488CFF;}
</style>
<g>
	<g id="Ebene_4_1_">
		<g>
			<polygon class="st0" points="23.2,31.9 21.5,28.5 19.8,31.9 16,32.4 18.8,35.1 18.1,38.9 21.5,37.1 24.9,38.9 24.3,35.1 27,32.4 
							"/>
			<polygon class="st0" points="32.2,35.1 31.6,38.9 35,37.1 38.4,38.9 37.7,35.1 40.5,32.4 36.7,31.9 35,28.5 33.3,31.9 29.5,32.4 
							"/>
			<polygon class="st0" points="50.1,31.9 48.4,28.5 46.7,31.9 42.9,32.4 45.7,35.1 45,38.9 48.4,37.1 51.8,38.9 51.2,35.1 
				53.9,32.4 			"/>
			<path class="st0" d="M63.4,14.4l-8.5,8.5c2,3.4,3.2,7.4,3.2,11.7c0,12.6-10.3,22.9-22.9,22.9S12.3,47.2,12.3,34.6v-0.1L0.7,31.2
				c-0.1,1.1-0.2,2.2-0.2,3.4c0,19.1,15.5,34.7,34.7,34.7s34.7-15.5,34.7-34.7C69.9,27.1,67.4,20.1,63.4,14.4z"/>
			<polygon class="st0" points="16,22.2 13.9,21.3 12.1,25.6 3.2,21.9 2.2,24.3 13.1,29 			"/>
			<polygon class="st0" points="23.1,15.3 21.6,13.6 18,16.9 16.1,14.8 19.3,11.9 17.9,10.2 14.6,13.2 13,11.4 16.4,8.2 14.9,6.6 
				9.5,11.5 17.5,20.3 			"/>
			<path class="st0" d="M30.9,12.5L31.7,0l-2.8,0.7L28.7,6c0,1.4,0,2.9,0,4.3h-0.1c-0.7-1.4-1.4-2.6-2.1-3.8L23.8,2l-2.6,0.7
				l6.7,10.5L30.9,12.5z"/>
			<polygon class="st0" points="44.6,11.3 39.8,10.3 40.4,7.5 44.7,8.5 45.2,6.3 40.9,5.4 41.4,3 46,4 46.4,1.8 39.3,0.2 36.7,11.9 
				44.1,13.5 			"/>
			<polygon class="st0" points="52.3,19.2 53.7,17.4 49.9,14.5 55.7,6.9 53.6,5.2 46.4,14.7 			"/>
		</g>
	</g>
</g>
</svg>
