<?xml version="1.0" encoding="utf-8"?>
<!-- Generator: Adobe Illustrator 25.2.3, SVG Export Plug-In . SVG Version: 6.00 Build 0)  -->
<svg version="1.1" id="Ebene_1" xmlns="http://www.w3.org/2000/svg" xmlns:xlink="http://www.w3.org/1999/xlink" x="0px" y="0px"
	 viewBox="0 0 57 68.8" style="enable-background:new 0 0 57 68.8;" xml:space="preserve">
<style type="text/css">
	.st0{fill:#FFFFFF;}
</style>
<g>
	<g id="Ebene_9_1_">
		<g>
			<path class="st0" d="M28.4,2.9c0.1-0.1,0.3-0.3,0.3-0.4c0-0.7,0-1.3,0-2c0-0.2-0.1-0.3-0.2-0.5c-0.1,0-0.2,0-0.3,0
				C28.1,0.1,28,0.3,28,0.4c0,0.7,0,1.3,0,2C28.1,2.6,28.3,2.7,28.4,2.9z"/>
			<path class="st0" d="M9.5,41.5L9.5,41.5c3.9-2.5,5.2-5.1,4.2-8.3c-0.8-2.6-3.7-4.5-6.5-4.5c-2.9,0-5.2,2-5.9,4.7
				c-0.9,3.3,0.4,5.9,4.2,8.1C5,42,3.9,42.6,2.9,44.6C-1,52.8,0.1,56.8,0.1,56.9c0.5,2.6,1.2,3.8,3.6,3.9h7.7
				c2.5-0.1,3.1-1.3,3.6-3.9c0-0.1,1.1-4.1-2.8-12.3C11.1,42.6,10,42,9.5,41.5z"/>
			<path class="st0" d="M21.5,17.4c-0.3-0.3-0.8-0.3-1.1,0L13,24.8c-0.3,0.3-0.3,0.8,0,1.1c0.2,0.2,0.4,0.2,0.6,0.2s0.4-0.1,0.6-0.2
				l7.4-7.4C21.8,18.2,21.8,17.7,21.5,17.4z"/>
			<path class="st0" d="M36.4,17.8c-0.3,0.3-0.3,0.8,0,1.1l7,7c0.2,0.2,0.4,0.2,0.6,0.2s0.4-0.1,0.6-0.2c0.3-0.3,0.3-0.8,0-1.1l-7-7
				C37.2,17.5,36.7,17.5,36.4,17.8z"/>
			<path class="st0" d="M28.1,23.8v9.4c0,0.4,0.3,0.8,0.8,0.8c0.4,0,0.8-0.3,0.8-0.8v-9.4c0-0.4-0.3-0.8-0.8-0.8
				C28.5,23.1,28.1,23.4,28.1,23.8z"/>
			<path class="st0" d="M24.5,3.6c0.1,0.1,0.3,0.1,0.5,0.2c0-0.2,0.1-0.4,0-0.5c-0.3-0.6-0.7-1.1-1.1-1.7c-0.1-0.1-0.2-0.2-0.3-0.2
				c-0.3,0-0.5,0.3-0.3,0.6C23.8,2.5,24.1,3.1,24.5,3.6z"/>
			<path class="st0" d="M20.3,5.4c0.6,0.4,1.3,0.7,2,1.1c0.1,0.1,0.3-0.1,0.5-0.2C22.7,6.1,22.7,6,22.6,6c-0.7-0.4-1.4-0.8-2.1-1.1
				c-0.1,0-0.3,0.1-0.3,0.2C20.2,5.2,20.2,5.4,20.3,5.4z"/>
			<path class="st0" d="M35.1,6.6C35.2,6.5,35.2,6.5,35.1,6.6c0.8-0.4,1.4-0.7,2.1-1.1c0.1,0,0.1-0.3,0.1-0.4C37.2,5,37,4.9,36.9,5
				c-0.7,0.3-1.3,0.7-2,1.1c-0.1,0-0.1,0.2-0.1,0.3c0,0.1,0.1,0.3,0.1,0.4C35,6.7,35.1,6.6,35.1,6.6z"/>
			<path class="st0" d="M33,3.8c0.4-0.6,0.8-1.2,1.2-1.8c0.1-0.1,0-0.3-0.1-0.4c-0.1,0-0.4,0-0.4,0.1c-0.4,0.6-0.8,1.2-1.2,1.8
				c-0.1,0.1,0.1,0.3,0.1,0.6C32.9,3.9,33,3.9,33,3.8z"/>
			<path class="st0" d="M30.4,18.8c-0.1-0.2-0.2-0.5-0.3-0.5c-0.9,0-1.8,0-2.7,0c-0.1,0-0.2,0.2-0.3,0.4c0.1,0.2,0.2,0.5,0.3,0.5
				c0.4,0.1,0.9,0,1.3,0s0.9,0,1.3,0C30.2,19.2,30.3,19,30.4,18.8z"/>
			<path class="st0" d="M25.5,12.3c0.3,0.3,0.6,0.8,0.8,1.2c0.2,0.5,0.3,1.1,0.4,1.7c1.4,0,2.7,0,4.2,0c0-0.1,0-0.2,0-0.2
				c0.1-1.1,0.4-2.1,1.3-3c1.1-1.1,1.4-2.4,1.2-3.9c-0.3-2.1-1.9-3.6-4.1-3.9c-1.9-0.3-3.9,0.8-4.8,2.6
				C23.6,8.7,24.1,10.9,25.5,12.3z"/>
			<path class="st0" d="M31,16.8c-0.1-0.2-0.2-0.6-0.3-0.6c-1.3,0-2.6,0-3.9,0c-0.1,0-0.2,0.4-0.3,0.6c0.1,0.2,0.2,0.6,0.4,0.6
				c0.6,0.1,1.3,0,1.9,0s1.3,0,1.9,0C30.8,17.5,30.9,17.1,31,16.8z"/>
			<path class="st0" d="M31.3,49.5L31.3,49.5c3.9-2.5,5.2-5.1,4.2-8.3c-0.8-2.6-3.7-4.5-6.5-4.5c-2.9,0-5.2,2-5.9,4.7
				c-0.9,3.3,0.4,5.9,4.2,8.1c-0.5,0.5-1.6,1.1-2.6,3.1c-3.9,8.2-2.8,12.2-2.8,12.3c0.5,2.6,1.2,3.8,3.6,3.9h7.7
				c2.5-0.1,3.1-1.3,3.6-3.9c0-0.1,1.1-4.1-2.8-12.3C32.8,50.6,31.8,50,31.3,49.5z"/>
			<path class="st0" d="M53.9,44.2c-1.1-2-2.1-2.6-2.6-3.1h0.1c3.9-2.5,5.1-5.1,4.1-8.3c-0.8-2.6-3.7-4.5-6.5-4.5
				c-2.9,0-5.2,2-5.9,4.7c-0.9,3.3,0.4,5.9,4.2,8.1c-0.5,0.5-1.6,1.1-2.6,3.1c-3.9,8.2-2.8,12.2-2.8,12.3c0.5,2.6,1.2,3.8,3.6,3.9
				h7.7c2.5-0.1,3.1-1.3,3.6-3.9C56.8,56.4,57.8,52.4,53.9,44.2z"/>
		</g>
	</g>
</g>
</svg>
