<?xml version="1.0" encoding="utf-8"?>
<!-- Generator: Adobe Illustrator 16.0.4, SVG Export Plug-In . SVG Version: 6.00 Build 0)  -->
<!DOCTYPE svg PUBLIC "-//W3C//DTD SVG 1.1//EN" "http://www.w3.org/Graphics/SVG/1.1/DTD/svg11.dtd">
<svg version="1.1" id="Ebene_1" xmlns="http://www.w3.org/2000/svg" xmlns:xlink="http://www.w3.org/1999/xlink" x="0px" y="0px"
	 width="85.863px" height="99.098px" viewBox="0 0 85.863 99.098" enable-background="new 0 0 85.863 99.098" xml:space="preserve">
<g>
	<polygon fill="#231F20" points="42.932,0 0,24.766 0,74.332 40.575,97.756 42.932,99.098 85.863,74.332 85.863,24.766 	"/>
	<polygon fill="#FFFFFF" points="42.932,4.447 3.854,26.989 3.854,72.107 40.787,93.429 42.932,94.65 82.01,72.107 82.01,26.989 	
		"/>
	<g>
		<defs>
			<rect id="SVGID_1_" y="0.001" width="85.863" height="99.097"/>
		</defs>
		<clipPath id="SVGID_2_">
			<use xlink:href="#SVGID_1_"  overflow="visible"/>
		</clipPath>
		<path clip-path="url(#SVGID_2_)" fill="#231F20" d="M55.314,34.834c0,0.869-0.396,1.646-1.014,2.163V24.275
			c0-1.82-1.471-3.297-3.285-3.297H38.892l-1.3-1.604h-6.03v-1.687h7.295l1.299,1.605h12.352c1.547,0,2.807,1.263,2.807,2.814
			V34.834z M52.508,18.33H40.613l-1.299-1.605h-8.712v2.649h-1.013v4.495h0.028c-0.017,0.133-0.028,0.269-0.028,0.406v12.727
			c0,1.819,1.471,3.296,3.286,3.296h16.207l-1.626-1.687l-0.582-0.604c-1.755,0.818-3.796,0.661-5.394-0.359
			c-0.365-0.232-0.706-0.51-1.016-0.831c-1.045-1.083-1.606-2.51-1.581-4.017c0.024-1.507,0.633-2.914,1.712-3.962
			c2.23-2.163,5.795-2.104,7.953,0.132c1.667,1.73,2.045,4.341,0.974,6.467l2.131,2.211l0.926,0.959l0.727,0.755
			c0.314-0.306,0.568-0.673,0.74-1.083c1.312-0.592,2.229-1.911,2.229-3.445V22.107C56.273,20.024,54.585,18.33,52.508,18.33"/>
		<path clip-path="url(#SVGID_2_)" fill="#231F20" d="M46.605,35.071c-1.207,1.173-3.134,1.141-4.303-0.07
			c-1.168-1.212-1.136-3.146,0.072-4.317c1.207-1.172,3.133-1.14,4.302,0.072C47.845,31.967,47.812,33.899,46.605,35.071
			 M51.246,38.611l-0.93-0.963l-1.986-2.06l0.187-0.316c1.066-1.808,0.796-4.124-0.659-5.632c-1.787-1.854-4.747-1.904-6.595-0.109
			c-0.895,0.868-1.4,2.035-1.421,3.285c-0.02,1.25,0.446,2.434,1.312,3.331c1.454,1.51,3.752,1.857,5.588,0.849l0.32-0.178
			l0.801,0.83l0.929,0.963l1.626,1.687l1.553,1.549l1.268-1.229l-0.721-0.687L51.246,38.611z"/>
		<path clip-path="url(#SVGID_2_)" fill="#231F20" d="M68.487,67.432c-0.294,0-0.563,0.049-0.808,0.148
			c-0.246,0.099-0.451,0.238-0.616,0.42v-0.504h-1.192V71.8h1.248v-2.128c0-0.384,0.094-0.673,0.28-0.868s0.437-0.292,0.752-0.292
			c0.282,0,0.498,0.084,0.647,0.252c0.15,0.168,0.225,0.423,0.225,0.764V71.8h1.248v-2.464c0-0.629-0.164-1.104-0.492-1.424
			C69.451,67.592,69.021,67.432,68.487,67.432 M62.808,68.376c0.276,0,0.512,0.081,0.704,0.244c0.191,0.163,0.309,0.38,0.352,0.651
			h-2.119c0.041-0.276,0.159-0.496,0.352-0.655C62.287,68.456,62.524,68.376,62.808,68.376 M65.039,69.664
			c0-0.448-0.098-0.841-0.291-1.181c-0.195-0.339-0.463-0.599-0.805-0.779c-0.342-0.182-0.723-0.272-1.145-0.272
			c-0.432,0-0.822,0.095-1.172,0.284c-0.35,0.188-0.623,0.453-0.823,0.792s-0.3,0.719-0.3,1.14c0,0.428,0.101,0.809,0.304,1.145
			c0.202,0.336,0.489,0.599,0.864,0.788c0.373,0.188,0.802,0.283,1.287,0.283c0.778,0,1.371-0.231,1.776-0.695l-0.664-0.72
			c-0.149,0.144-0.311,0.248-0.483,0.315c-0.174,0.067-0.373,0.1-0.596,0.1c-0.326,0-0.599-0.076-0.816-0.231
			c-0.219-0.155-0.358-0.365-0.416-0.632h3.256C65.031,69.792,65.039,69.68,65.039,69.664 M58.64,68.063v-0.567h-1.192V71.8h1.248
			v-2.032c0-0.399,0.102-0.7,0.305-0.899c0.201-0.2,0.481-0.301,0.84-0.301c0.048,0,0.141,0.006,0.279,0.017v-1.152
			c-0.33,0-0.623,0.053-0.875,0.16C58.989,67.699,58.789,67.855,58.64,68.063 M54.535,67.432c-0.277,0-0.533,0.044-0.768,0.132
			s-0.436,0.215-0.6,0.38v-2.08H51.92V71.8h1.248v-2.128c0-0.384,0.093-0.673,0.279-0.868c0.186-0.195,0.438-0.292,0.752-0.292
			c0.282,0,0.498,0.084,0.648,0.252c0.148,0.168,0.224,0.423,0.224,0.764V71.8h1.248v-2.464c0-0.629-0.164-1.104-0.491-1.424
			C55.5,67.592,55.068,67.432,54.535,67.432 M48.623,71.023c-0.219,0-0.391-0.047-0.516-0.14c-0.126-0.093-0.188-0.22-0.188-0.38
			c0-0.336,0.256-0.504,0.768-0.504h0.855v0.439c-0.069,0.192-0.187,0.337-0.352,0.437C49.025,70.975,48.836,71.023,48.623,71.023
			 M48.72,67.432c-0.347,0-0.685,0.045-1.013,0.136c-0.328,0.092-0.609,0.22-0.844,0.385l0.448,0.872
			c0.153-0.123,0.342-0.221,0.563-0.292c0.222-0.072,0.446-0.108,0.676-0.108c0.33,0,0.578,0.073,0.744,0.22
			c0.166,0.147,0.248,0.356,0.248,0.628h-0.992c-0.629,0-1.094,0.115-1.396,0.345c-0.302,0.229-0.452,0.544-0.452,0.943
			c0,0.251,0.064,0.476,0.192,0.672c0.128,0.197,0.313,0.353,0.556,0.464c0.242,0.112,0.529,0.168,0.86,0.168
			c0.64,0,1.077-0.199,1.312-0.6V71.8h1.168v-2.456c0-0.64-0.179-1.119-0.535-1.436C49.897,67.591,49.386,67.432,48.72,67.432
			 M45.439,67.496l-1.048,2.912l-1.024-2.912h-1.056l-1.056,2.912l-1.016-2.912h-1.176l1.552,4.304h1.2l1-2.672l0.968,2.672h1.2
			l1.56-4.304H45.439z M36.647,68.376c0.277,0,0.512,0.081,0.704,0.244s0.309,0.38,0.352,0.651h-2.12
			c0.042-0.276,0.16-0.496,0.352-0.655C36.127,68.456,36.364,68.376,36.647,68.376 M38.879,69.664c0-0.448-0.098-0.841-0.292-1.181
			c-0.195-0.339-0.463-0.599-0.804-0.779c-0.342-0.182-0.723-0.272-1.144-0.272c-0.432,0-0.823,0.095-1.172,0.284
			c-0.35,0.188-0.624,0.453-0.824,0.792c-0.2,0.339-0.3,0.719-0.3,1.14c0,0.428,0.101,0.809,0.304,1.145
			c0.202,0.336,0.49,0.599,0.864,0.788c0.373,0.188,0.802,0.283,1.288,0.283c0.778,0,1.37-0.231,1.776-0.695l-0.664-0.72
			c-0.15,0.144-0.311,0.248-0.484,0.315c-0.174,0.067-0.372,0.1-0.596,0.1c-0.326,0-0.598-0.076-0.816-0.231
			C35.796,70.477,35.658,70.267,35.6,70h3.256C38.872,69.792,38.879,69.68,38.879,69.664 M31.472,70.84
			c-0.32,0-0.583-0.108-0.788-0.324c-0.206-0.216-0.308-0.505-0.308-0.868c0-0.362,0.102-0.651,0.308-0.868
			c0.205-0.216,0.468-0.323,0.788-0.323c0.32,0,0.582,0.107,0.788,0.323c0.205,0.217,0.308,0.506,0.308,0.868
			c0,0.363-0.103,0.652-0.308,0.868C32.054,70.731,31.792,70.84,31.472,70.84 M31.688,67.432c-0.55,0-0.982,0.173-1.296,0.521
			v-2.089h-1.248V71.8h1.192v-0.496c0.309,0.373,0.76,0.56,1.352,0.56c0.4,0,0.764-0.092,1.092-0.275
			c0.328-0.185,0.585-0.443,0.772-0.776c0.186-0.333,0.28-0.721,0.28-1.164c0-0.442-0.094-0.831-0.28-1.164
			c-0.187-0.333-0.444-0.592-0.772-0.775C32.452,67.523,32.087,67.432,31.688,67.432 M27.416,67.408
			c0-0.416,0.189-0.624,0.568-0.624c0.192,0,0.36,0.051,0.504,0.151l0.328-0.903c-0.112-0.075-0.252-0.133-0.42-0.173
			s-0.345-0.06-0.532-0.06c-0.528,0-0.937,0.144-1.228,0.432c-0.291,0.288-0.436,0.678-0.436,1.168v0.192h-0.664v0.96H26.2V71.8
			h1.248v-3.248h1.072v-0.96h-1.104V67.408z M23.64,67.496v2.128c0,0.384-0.091,0.673-0.272,0.868
			c-0.181,0.194-0.421,0.292-0.72,0.292c-0.581,0-0.872-0.348-0.872-1.04v-2.248h-1.248v2.432c0,0.64,0.165,1.123,0.496,1.448
			s0.779,0.487,1.344,0.487c0.267,0,0.515-0.049,0.744-0.147s0.427-0.241,0.592-0.428V71.8h1.184v-4.304H23.64z M17.255,71.023
			c-0.219,0-0.391-0.047-0.516-0.14s-0.188-0.22-0.188-0.38c0-0.336,0.256-0.504,0.768-0.504h0.856v0.439
			c-0.069,0.192-0.187,0.337-0.352,0.437C17.659,70.975,17.468,71.023,17.255,71.023 M17.352,67.432
			c-0.347,0-0.684,0.045-1.012,0.136c-0.328,0.092-0.609,0.22-0.844,0.385l0.448,0.872c0.155-0.123,0.343-0.221,0.564-0.292
			c0.221-0.072,0.447-0.108,0.676-0.108c0.331,0,0.579,0.073,0.744,0.22c0.165,0.147,0.248,0.356,0.248,0.628h-0.992
			c-0.629,0-1.095,0.115-1.396,0.345c-0.301,0.229-0.452,0.544-0.452,0.943c0,0.251,0.064,0.476,0.192,0.672
			c0.128,0.197,0.313,0.353,0.556,0.464c0.243,0.112,0.529,0.168,0.86,0.168c0.64,0,1.077-0.199,1.312-0.6V71.8h1.168v-2.456
			c0-0.64-0.179-1.119-0.536-1.436C18.53,67.591,18.019,67.432,17.352,67.432"/>
		<path clip-path="url(#SVGID_2_)" fill="#231F20" d="M67.84,61.319c-0.305,0-0.547-0.063-0.729-0.191s-0.271-0.296-0.271-0.504
			c0-0.176,0.053-0.333,0.16-0.473c0.105-0.139,0.285-0.279,0.535-0.424l1.353,1.265C68.578,61.211,68.229,61.319,67.84,61.319
			 M68.016,57.376c0.176,0,0.312,0.043,0.408,0.128s0.144,0.197,0.144,0.336c0,0.133-0.054,0.257-0.159,0.372
			c-0.107,0.115-0.297,0.244-0.568,0.388c-0.172-0.165-0.286-0.297-0.344-0.396c-0.06-0.1-0.088-0.204-0.088-0.316
			c0-0.149,0.053-0.271,0.164-0.368C67.681,57.424,67.828,57.376,68.016,57.376 M70.976,61.504l-0.655-0.608
			c0.233-0.352,0.404-0.775,0.512-1.271l-1-0.312c-0.064,0.325-0.158,0.616-0.28,0.872l-1.024-0.952
			c0.385-0.208,0.662-0.424,0.836-0.647c0.174-0.225,0.26-0.48,0.26-0.769c0-0.395-0.146-0.708-0.439-0.939
			c-0.294-0.232-0.684-0.349-1.168-0.349c-0.348,0-0.652,0.058-0.916,0.173c-0.264,0.114-0.468,0.275-0.611,0.483
			c-0.145,0.208-0.217,0.448-0.217,0.72c0,0.203,0.045,0.399,0.137,0.589c0.09,0.188,0.236,0.388,0.439,0.596
			c-0.432,0.24-0.746,0.492-0.939,0.756c-0.195,0.264-0.293,0.569-0.293,0.916c0,0.293,0.092,0.557,0.276,0.792
			s0.438,0.417,0.765,0.548c0.324,0.131,0.689,0.196,1.096,0.196c0.714,0,1.338-0.208,1.871-0.624l0.672,0.624L70.976,61.504z
			 M60.728,57.832c-0.294,0-0.563,0.049-0.808,0.147c-0.246,0.1-0.451,0.239-0.616,0.42v-0.504h-1.192V62.2h1.248v-2.129
			c0-0.384,0.094-0.673,0.28-0.867c0.187-0.195,0.437-0.292,0.752-0.292c0.282,0,0.498,0.084,0.647,0.252s0.225,0.423,0.225,0.764
			V62.2h1.248v-2.465c0-0.629-0.164-1.104-0.492-1.424C61.691,57.992,61.261,57.832,60.728,57.832 M55.047,58.775
			c0.277,0,0.513,0.081,0.705,0.244c0.191,0.163,0.309,0.38,0.352,0.652h-2.12c0.042-0.277,0.16-0.496,0.353-0.656
			C54.527,58.855,54.765,58.775,55.047,58.775 M57.279,60.063c0-0.447-0.098-0.841-0.291-1.18c-0.195-0.339-0.464-0.599-0.805-0.78
			c-0.342-0.181-0.723-0.271-1.145-0.271c-0.432,0-0.822,0.095-1.172,0.284c-0.35,0.188-0.623,0.452-0.824,0.792
			c-0.199,0.339-0.299,0.719-0.299,1.14c0,0.427,0.101,0.808,0.303,1.144c0.203,0.336,0.49,0.6,0.865,0.788
			c0.373,0.189,0.801,0.284,1.287,0.284c0.778,0,1.371-0.231,1.776-0.696l-0.664-0.72c-0.149,0.145-0.312,0.249-0.483,0.316
			c-0.174,0.066-0.373,0.1-0.597,0.1c-0.325,0-0.598-0.077-0.815-0.231c-0.219-0.155-0.358-0.365-0.416-0.633h3.256
			C57.271,60.191,57.279,60.08,57.279,60.063 M52.16,61.111c-0.14,0.107-0.308,0.16-0.504,0.16c-0.172,0-0.304-0.049-0.396-0.147
			c-0.094-0.1-0.141-0.239-0.141-0.42v-1.752h1.072v-0.96h-1.072v-1.049h-1.248v1.049h-0.664v0.96h0.664v1.768
			c0,0.507,0.141,0.891,0.42,1.152c0.281,0.261,0.677,0.392,1.188,0.392c0.197,0,0.386-0.022,0.563-0.068
			c0.179-0.045,0.33-0.112,0.453-0.203L52.16,61.111z M47.936,57.296c0.229,0,0.416-0.068,0.561-0.204
			c0.144-0.136,0.215-0.308,0.215-0.516c0-0.192-0.071-0.353-0.215-0.48c-0.145-0.128-0.332-0.192-0.561-0.192
			c-0.23,0-0.416,0.067-0.561,0.2c-0.144,0.133-0.215,0.299-0.215,0.496s0.071,0.363,0.215,0.496
			C47.52,57.229,47.705,57.296,47.936,57.296 M47.312,62.2h1.248v-4.305h-1.248V62.2z M44.248,58.775
			c0.276,0,0.512,0.081,0.703,0.244c0.192,0.163,0.31,0.38,0.353,0.652h-2.12c0.042-0.277,0.16-0.496,0.352-0.656
			S43.965,58.775,44.248,58.775 M46.479,60.063c0-0.447-0.098-0.841-0.292-1.18c-0.195-0.339-0.463-0.599-0.804-0.78
			c-0.343-0.181-0.724-0.271-1.144-0.271c-0.433,0-0.824,0.095-1.173,0.284c-0.35,0.188-0.624,0.452-0.824,0.792
			c-0.2,0.339-0.3,0.719-0.3,1.14c0,0.427,0.101,0.808,0.304,1.144c0.202,0.336,0.49,0.6,0.864,0.788
			c0.373,0.189,0.802,0.284,1.288,0.284c0.778,0,1.37-0.231,1.776-0.696l-0.664-0.72c-0.15,0.145-0.311,0.249-0.484,0.316
			c-0.174,0.066-0.371,0.1-0.596,0.1c-0.326,0-0.598-0.077-0.816-0.231c-0.219-0.155-0.358-0.365-0.416-0.633h3.255
			C46.472,60.191,46.479,60.08,46.479,60.063 M39.072,61.24c-0.32,0-0.583-0.108-0.788-0.324s-0.308-0.505-0.308-0.868
			s0.103-0.652,0.308-0.868s0.468-0.324,0.788-0.324c0.32,0,0.583,0.108,0.788,0.324c0.205,0.216,0.308,0.505,0.308,0.868
			s-0.103,0.652-0.308,0.868C39.655,61.132,39.392,61.24,39.072,61.24 M39.288,57.832c-0.549,0-0.981,0.173-1.296,0.52v-2.088
			h-1.248V62.2h1.192v-0.496c0.309,0.373,0.76,0.56,1.352,0.56c0.4,0,0.764-0.092,1.092-0.276c0.328-0.184,0.585-0.442,0.772-0.775
			c0.187-0.333,0.28-0.721,0.28-1.164s-0.093-0.831-0.28-1.164c-0.187-0.333-0.444-0.592-0.772-0.776
			C40.052,57.924,39.688,57.832,39.288,57.832 M34.52,58.464v-0.568h-1.192V62.2h1.248v-2.032c0-0.4,0.101-0.7,0.304-0.9
			c0.203-0.2,0.483-0.3,0.84-0.3c0.048,0,0.141,0.005,0.28,0.016v-1.151c-0.331,0-0.623,0.053-0.876,0.16
			C34.871,58.099,34.668,58.256,34.52,58.464 M30.032,61.424c-0.219,0-0.391-0.047-0.516-0.14c-0.125-0.094-0.188-0.221-0.188-0.381
			c0-0.336,0.256-0.504,0.768-0.504h0.856v0.44c-0.069,0.192-0.187,0.337-0.352,0.436C30.435,61.375,30.245,61.424,30.032,61.424
			 M30.127,57.832c-0.347,0-0.684,0.045-1.012,0.136c-0.328,0.091-0.609,0.219-0.844,0.384l0.448,0.872
			c0.155-0.123,0.343-0.22,0.564-0.292c0.221-0.072,0.447-0.107,0.676-0.107c0.331,0,0.579,0.072,0.744,0.22
			c0.165,0.146,0.248,0.355,0.248,0.628h-0.992c-0.629,0-1.095,0.115-1.396,0.344c-0.301,0.229-0.452,0.544-0.452,0.944
			c0,0.251,0.064,0.475,0.192,0.672s0.313,0.352,0.556,0.464c0.243,0.112,0.529,0.168,0.86,0.168c0.64,0,1.077-0.2,1.312-0.6V62.2
			H32.2v-2.456c0-0.641-0.179-1.119-0.536-1.437C31.307,57.991,30.794,57.832,30.127,57.832 M26.191,58.464v-0.568H25V62.2h1.248
			v-2.032c0-0.4,0.101-0.7,0.304-0.9c0.203-0.2,0.483-0.3,0.84-0.3c0.048,0,0.141,0.005,0.28,0.016v-1.151
			c-0.331,0-0.623,0.053-0.876,0.16C26.542,58.099,26.341,58.256,26.191,58.464 M21.936,58.775c0.277,0,0.512,0.081,0.704,0.244
			s0.309,0.38,0.352,0.652h-2.12c0.043-0.277,0.16-0.496,0.352-0.656S21.653,58.775,21.936,58.775 M24.167,60.063
			c0-0.447-0.097-0.841-0.292-1.18c-0.195-0.339-0.463-0.599-0.804-0.78c-0.341-0.181-0.723-0.271-1.144-0.271
			c-0.432,0-0.823,0.095-1.172,0.284c-0.349,0.188-0.624,0.452-0.824,0.792c-0.2,0.339-0.3,0.719-0.3,1.14
			c0,0.427,0.101,0.808,0.304,1.144s0.491,0.6,0.864,0.788c0.373,0.189,0.803,0.284,1.288,0.284c0.779,0,1.371-0.231,1.776-0.696
			l-0.664-0.72c-0.149,0.145-0.311,0.249-0.484,0.316c-0.173,0.066-0.372,0.1-0.596,0.1c-0.325,0-0.597-0.077-0.816-0.231
			c-0.219-0.155-0.357-0.365-0.416-0.633h3.256C24.16,60.191,24.167,60.08,24.167,60.063 M18.359,57.896l-1.232,2.929l-1.192-2.929
			h-1.288l1.808,4.305h1.288l1.816-4.305H18.359z"/>
		<path clip-path="url(#SVGID_2_)" fill="#231F20" d="M58.664,51.111c-0.225,0-0.41,0.071-0.557,0.213
			c-0.146,0.141-0.22,0.326-0.22,0.556c0,0.16,0.038,0.3,0.116,0.42c0.076,0.12,0.182,0.207,0.316,0.26l-0.353,1.272h0.792
			l0.456-1.152c0.09-0.213,0.149-0.373,0.176-0.479c0.026-0.107,0.04-0.214,0.04-0.32c0-0.229-0.072-0.415-0.216-0.556
			C59.072,51.183,58.888,51.111,58.664,51.111 M55.271,48.231c-0.294,0-0.562,0.049-0.809,0.148c-0.245,0.099-0.45,0.239-0.615,0.42
			v-0.504h-1.191V52.6h1.248v-2.128c0-0.384,0.092-0.673,0.279-0.868c0.186-0.194,0.438-0.292,0.752-0.292
			c0.282,0,0.498,0.084,0.648,0.252c0.148,0.168,0.224,0.423,0.224,0.765V52.6h1.248v-2.464c0-0.629-0.164-1.104-0.492-1.424
			C56.236,48.392,55.805,48.231,55.271,48.231 M49.592,49.176c0.277,0,0.512,0.081,0.703,0.244c0.193,0.163,0.31,0.38,0.353,0.651
			h-2.12c0.043-0.276,0.16-0.495,0.352-0.655C49.072,49.256,49.309,49.176,49.592,49.176 M51.824,50.464
			c0-0.448-0.099-0.841-0.293-1.18c-0.195-0.34-0.463-0.6-0.804-0.78c-0.342-0.181-0.724-0.272-1.144-0.272
			c-0.433,0-0.823,0.096-1.172,0.284c-0.351,0.189-0.625,0.453-0.824,0.792c-0.2,0.339-0.301,0.719-0.301,1.141
			c0,0.427,0.102,0.808,0.305,1.144c0.201,0.336,0.49,0.599,0.863,0.788c0.373,0.188,0.803,0.284,1.289,0.284
			c0.777,0,1.369-0.232,1.775-0.696l-0.664-0.72c-0.15,0.144-0.311,0.249-0.484,0.315c-0.174,0.067-0.371,0.101-0.596,0.101
			c-0.326,0-0.598-0.077-0.816-0.232s-0.357-0.365-0.416-0.632H51.8C51.815,50.592,51.824,50.479,51.824,50.464 M44.647,48.231
			c-0.278,0-0.534,0.044-0.768,0.132c-0.235,0.089-0.435,0.216-0.6,0.381v-2.08h-1.248V52.6h1.248v-2.128
			c0-0.384,0.093-0.673,0.28-0.868c0.186-0.194,0.437-0.292,0.752-0.292c0.282,0,0.498,0.084,0.647,0.252s0.225,0.423,0.225,0.765
			V52.6h1.248v-2.464c0-0.629-0.164-1.104-0.492-1.424S45.181,48.231,44.647,48.231 M39.416,52.664c0.453,0,0.849-0.097,1.188-0.288
			c0.338-0.192,0.585-0.459,0.74-0.8l-0.968-0.528c-0.219,0.395-0.542,0.592-0.968,0.592c-0.326,0-0.595-0.106-0.808-0.32
			c-0.214-0.213-0.32-0.504-0.32-0.871c0-0.368,0.106-0.659,0.32-0.872c0.213-0.214,0.482-0.32,0.808-0.32
			c0.421,0,0.744,0.197,0.968,0.592l0.968-0.52c-0.155-0.353-0.402-0.623-0.74-0.812c-0.339-0.188-0.735-0.284-1.188-0.284
			c-0.459,0-0.871,0.096-1.236,0.284c-0.366,0.189-0.651,0.452-0.856,0.788c-0.206,0.336-0.308,0.717-0.308,1.145
			c0,0.427,0.102,0.808,0.308,1.144c0.205,0.336,0.49,0.599,0.856,0.788C38.544,52.568,38.957,52.664,39.416,52.664 M34.928,48.296
			v2.128c0,0.384-0.091,0.673-0.272,0.868c-0.181,0.194-0.422,0.292-0.72,0.292c-0.581,0-0.872-0.348-0.872-1.04v-2.248h-1.248
			v2.432c0,0.641,0.165,1.123,0.496,1.448s0.778,0.488,1.344,0.488c0.266,0,0.515-0.049,0.744-0.148
			c0.229-0.099,0.427-0.241,0.592-0.428V52.6h1.184v-4.304H34.928z M28.664,52.695c0.512,0,0.947-0.076,1.304-0.231
			s0.625-0.364,0.804-0.628c0.179-0.265,0.268-0.557,0.268-0.876c0-0.373-0.097-0.669-0.292-0.889
			c-0.195-0.219-0.428-0.379-0.7-0.479c-0.272-0.101-0.621-0.203-1.048-0.304c-0.411-0.092-0.716-0.184-0.916-0.276
			c-0.2-0.093-0.3-0.236-0.3-0.428c0-0.192,0.087-0.348,0.26-0.464c0.173-0.117,0.441-0.177,0.804-0.177
			c0.517,0,1.035,0.147,1.552,0.44l0.4-0.984c-0.256-0.159-0.555-0.282-0.896-0.367c-0.341-0.086-0.691-0.129-1.048-0.129
			c-0.512,0-0.945,0.077-1.3,0.232s-0.62,0.364-0.796,0.628c-0.176,0.264-0.264,0.56-0.264,0.884c0,0.373,0.097,0.672,0.292,0.896
			c0.195,0.224,0.428,0.387,0.7,0.488c0.272,0.101,0.621,0.202,1.048,0.304c0.277,0.063,0.497,0.123,0.66,0.176
			c0.163,0.053,0.296,0.124,0.4,0.212s0.156,0.199,0.156,0.332c0,0.181-0.088,0.327-0.264,0.437
			c-0.176,0.108-0.448,0.163-0.816,0.163c-0.331,0-0.661-0.053-0.992-0.159c-0.331-0.107-0.616-0.248-0.856-0.425l-0.44,0.977
			c0.251,0.192,0.583,0.348,0.996,0.468C27.792,52.636,28.221,52.695,28.664,52.695"/>
	</g>
</g>
</svg>
