<?xml version="1.0" encoding="utf-8"?>
<!-- Generator: Adobe Illustrator 16.0.4, SVG Export Plug-In . SVG Version: 6.00 Build 0)  -->
<!DOCTYPE svg PUBLIC "-//W3C//DTD SVG 1.1//EN" "http://www.w3.org/Graphics/SVG/1.1/DTD/svg11.dtd">
<svg version="1.1" id="Ebene_6" xmlns="http://www.w3.org/2000/svg" xmlns:xlink="http://www.w3.org/1999/xlink" x="0px" y="0px"
	 width="85.863px" height="99.098px" viewBox="0 0 85.863 99.098" enable-background="new 0 0 85.863 99.098" xml:space="preserve">
<g>
	<polygon fill="#231F20" points="42.932,0.001 0,24.767 0,74.333 40.575,97.757 42.932,99.099 85.863,74.333 85.863,24.767 	"/>
	<polygon fill="#231F20" points="42.932,4.448 3.854,26.99 3.854,72.108 40.786,93.43 42.932,94.651 82.01,72.108 82.01,26.99 	"/>
	<g>
		<defs>
			<rect id="SVGID_1_" y="0.002" width="85.863" height="99.097"/>
		</defs>
		<clipPath id="SVGID_2_">
			<use xlink:href="#SVGID_1_"  overflow="visible"/>
		</clipPath>
		<path clip-path="url(#SVGID_2_)" fill="#FFFFFF" d="M57.848,22.504L39.118,22.51c-2.072,0-3.75,1.68-3.75,3.752l0.002,0.118
			l2.301,2.301l-0.002-1.762c0-1.271,1.029-2.3,2.299-2.301l17.03-0.005c1.271,0,2.299,1.029,2.301,2.298l0.002,12.942
			c0.002,1.271-1.027,2.299-2.297,2.3l-6.012,0.001l-2.968,0.001l-0.514,0.001h-2.968l-0.946,0.001l-2.11,2.11h2.173l-3.316,3.318
			l1.484,1.483l4.8-4.803l2.281-0.001l4.803,4.8l1.483-1.484l-3.317-3.316l5.977-0.002c2.072,0,3.751-1.68,3.751-3.752
			l-0.004-14.256C61.6,24.183,59.92,22.503,57.848,22.504"/>
	</g>
	<polygon fill="#FFFFFF" points="31.515,29.992 35.962,34.438 37.987,36.463 39.989,38.463 39.355,39.097 37.756,40.697 
		31.519,46.938 34.132,49.549 42.612,41.063 44.469,39.206 45.213,38.462 37.987,31.238 35.961,29.214 34.126,27.38 	"/>
	<g>
		<defs>
			<rect id="SVGID_3_" y="0.002" width="85.863" height="99.097"/>
		</defs>
		<clipPath id="SVGID_4_">
			<use xlink:href="#SVGID_3_"  overflow="visible"/>
		</clipPath>
		<path clip-path="url(#SVGID_4_)" fill="#FFFFFF" d="M26.87,27.382l-2.611,2.613l8.475,8.47l-8.471,8.474l2.613,2.611
			l11.057-11.063c-0.005-0.021-0.012-0.042-0.016-0.063L26.87,27.382z"/>
		<path clip-path="url(#SVGID_4_)" fill="#FFFFFF" d="M44.564,28.224c0,0.73-0.592,1.322-1.321,1.322
			c-0.73,0-1.321-0.592-1.321-1.322c0-0.729,0.591-1.322,1.321-1.322C43.973,26.901,44.564,27.494,44.564,28.224"/>
	</g>
	<rect x="45.768" y="27.37" fill="#FFFFFF" width="9.432" height="1.707"/>
	<g>
		<defs>
			<rect id="SVGID_5_" y="0.002" width="85.863" height="99.097"/>
		</defs>
		<clipPath id="SVGID_6_">
			<use xlink:href="#SVGID_5_"  overflow="visible"/>
		</clipPath>
		<path clip-path="url(#SVGID_6_)" fill="#FFFFFF" d="M44.564,32.236c0,0.729-0.592,1.321-1.321,1.321
			c-0.73,0-1.321-0.592-1.321-1.321c0-0.73,0.591-1.322,1.321-1.322C43.973,30.914,44.564,31.506,44.564,32.236"/>
	</g>
	<rect x="45.768" y="31.383" fill="#FFFFFF" width="9.432" height="1.708"/>
	<rect x="45.768" y="35.395" fill="#FFFFFF" width="9.432" height="1.708"/>
	<g>
		<defs>
			<rect id="SVGID_7_" y="0.002" width="85.863" height="99.097"/>
		</defs>
		<clipPath id="SVGID_8_">
			<use xlink:href="#SVGID_7_"  overflow="visible"/>
		</clipPath>
		<path clip-path="url(#SVGID_8_)" fill="#FFFFFF" d="M67.375,67.633c-0.293,0-0.562,0.05-0.808,0.148
			c-0.246,0.099-0.45,0.239-0.616,0.42v-0.504H64.76v4.304h1.248v-2.128c0-0.384,0.093-0.673,0.279-0.868
			c0.187-0.194,0.438-0.292,0.752-0.292c0.282,0,0.498,0.084,0.648,0.252c0.148,0.168,0.225,0.423,0.225,0.765v2.271h1.248v-2.464
			c0-0.629-0.164-1.104-0.492-1.424S67.908,67.633,67.375,67.633 M61.695,68.577c0.277,0,0.512,0.081,0.704,0.244
			s0.31,0.38,0.353,0.651h-2.121c0.043-0.276,0.16-0.495,0.353-0.655S61.412,68.577,61.695,68.577 M63.928,69.865
			c0-0.448-0.098-0.841-0.292-1.18c-0.195-0.34-0.464-0.6-0.804-0.78c-0.343-0.181-0.724-0.272-1.145-0.272
			c-0.432,0-0.823,0.096-1.172,0.284c-0.35,0.189-0.624,0.453-0.824,0.792c-0.199,0.339-0.3,0.719-0.3,1.141
			c0,0.427,0.101,0.808,0.304,1.144c0.202,0.336,0.49,0.599,0.864,0.788c0.373,0.188,0.802,0.284,1.288,0.284
			c0.777,0,1.369-0.232,1.775-0.696l-0.664-0.72c-0.149,0.144-0.311,0.249-0.483,0.315c-0.175,0.067-0.372,0.101-0.597,0.101
			c-0.325,0-0.598-0.077-0.815-0.232c-0.219-0.155-0.358-0.365-0.416-0.632h3.256C63.92,69.993,63.928,69.881,63.928,69.865
			 M57.527,68.265v-0.567h-1.191v4.304h1.248v-2.032c0-0.399,0.101-0.699,0.304-0.899c0.202-0.2,0.481-0.3,0.84-0.3
			c0.048,0,0.142,0.005,0.28,0.016v-1.152c-0.332,0-0.623,0.054-0.877,0.16C57.877,67.9,57.676,68.058,57.527,68.265 M53.271,68.577
			c0.277,0,0.512,0.081,0.704,0.244s0.31,0.38,0.353,0.651h-2.121c0.043-0.276,0.16-0.495,0.353-0.655S52.988,68.577,53.271,68.577
			 M55.504,69.865c0-0.448-0.099-0.841-0.293-1.18c-0.194-0.34-0.463-0.6-0.803-0.78c-0.343-0.181-0.724-0.272-1.145-0.272
			c-0.432,0-0.823,0.096-1.172,0.284c-0.35,0.189-0.625,0.453-0.824,0.792c-0.2,0.339-0.301,0.719-0.301,1.141
			c0,0.427,0.102,0.808,0.305,1.144c0.202,0.336,0.49,0.599,0.864,0.788c0.372,0.188,0.802,0.284,1.288,0.284
			c0.777,0,1.369-0.232,1.775-0.696l-0.664-0.72c-0.149,0.144-0.311,0.249-0.484,0.315c-0.174,0.067-0.371,0.101-0.596,0.101
			c-0.326,0-0.598-0.077-0.815-0.232c-0.22-0.155-0.358-0.365-0.416-0.632h3.256C55.496,69.993,55.504,69.881,55.504,69.865
			 M49.504,67.097c0.229,0,0.416-0.067,0.56-0.203c0.144-0.137,0.216-0.309,0.216-0.517c0-0.191-0.072-0.352-0.216-0.479
			s-0.331-0.192-0.56-0.192c-0.23,0-0.416,0.067-0.561,0.2s-0.216,0.299-0.216,0.496c0,0.196,0.071,0.362,0.216,0.496
			C49.088,67.03,49.273,67.097,49.504,67.097 M48.879,72.001h1.248v-4.304h-1.248V72.001z M47.84,70.913
			c-0.139,0.107-0.307,0.16-0.504,0.16c-0.172,0-0.303-0.049-0.396-0.148c-0.094-0.099-0.141-0.238-0.141-0.42v-1.752h1.072v-0.96
			h-1.072v-1.048h-1.248v1.048h-0.663v0.96h0.663v1.769c0,0.507,0.141,0.891,0.421,1.151c0.28,0.262,0.676,0.393,1.188,0.393
			c0.196,0,0.385-0.023,0.563-0.068c0.178-0.045,0.329-0.113,0.452-0.204L47.84,70.913z M42.487,67.633
			c-0.294,0-0.562,0.05-0.808,0.148c-0.246,0.099-0.451,0.239-0.616,0.42v-0.504h-1.191v4.304h1.248v-2.128
			c0-0.384,0.092-0.673,0.279-0.868c0.186-0.194,0.438-0.292,0.752-0.292c0.282,0,0.498,0.084,0.648,0.252
			c0.148,0.168,0.224,0.423,0.224,0.765v2.271h1.248v-2.464c0-0.629-0.164-1.104-0.492-1.424
			C43.452,67.793,43.021,67.633,42.487,67.633 M36.808,68.577c0.277,0,0.512,0.081,0.704,0.244s0.309,0.38,0.352,0.651h-2.12
			c0.043-0.276,0.16-0.495,0.353-0.655S36.524,68.577,36.808,68.577 M39.04,69.865c0-0.448-0.099-0.841-0.293-1.18
			c-0.194-0.34-0.463-0.6-0.804-0.78c-0.342-0.181-0.723-0.272-1.144-0.272c-0.432,0-0.823,0.096-1.172,0.284
			c-0.351,0.189-0.625,0.453-0.824,0.792c-0.2,0.339-0.301,0.719-0.301,1.141c0,0.427,0.102,0.808,0.305,1.144
			c0.201,0.336,0.49,0.599,0.863,0.788c0.373,0.188,0.803,0.284,1.289,0.284c0.777,0,1.369-0.232,1.775-0.696l-0.664-0.72
			c-0.15,0.144-0.311,0.249-0.484,0.315c-0.174,0.067-0.371,0.101-0.596,0.101c-0.326,0-0.598-0.077-0.816-0.232
			s-0.357-0.365-0.416-0.632h3.257C39.032,69.993,39.04,69.881,39.04,69.865 M32.023,72.065c0.421,0,0.785-0.058,1.093-0.172
			c0.307-0.115,0.539-0.276,0.699-0.484s0.24-0.445,0.24-0.712c0-0.315-0.083-0.561-0.248-0.736s-0.36-0.297-0.584-0.364
			c-0.225-0.066-0.512-0.129-0.864-0.188c-0.315-0.048-0.544-0.099-0.688-0.152c-0.144-0.053-0.215-0.146-0.215-0.279
			c0-0.117,0.066-0.214,0.199-0.288c0.133-0.075,0.333-0.112,0.6-0.112c0.449,0,0.861,0.107,1.24,0.32l0.416-0.889
			c-0.197-0.116-0.447-0.209-0.748-0.275c-0.301-0.067-0.604-0.101-0.908-0.101c-0.41,0-0.767,0.06-1.067,0.177
			c-0.301,0.116-0.53,0.28-0.688,0.491c-0.156,0.211-0.235,0.452-0.235,0.725c0,0.325,0.084,0.576,0.252,0.752
			s0.366,0.299,0.596,0.368c0.229,0.068,0.521,0.131,0.872,0.184c0.299,0.037,0.52,0.083,0.664,0.136
			c0.145,0.054,0.216,0.142,0.216,0.265c0,0.261-0.264,0.392-0.792,0.392c-0.261,0-0.527-0.039-0.8-0.116s-0.504-0.177-0.696-0.3
			l-0.416,0.896c0.203,0.133,0.475,0.243,0.816,0.332C31.316,72.021,31.667,72.065,32.023,72.065 M28.312,67.105
			c0.16,0,0.293-0.053,0.4-0.156c0.106-0.104,0.16-0.236,0.16-0.396c0-0.159-0.054-0.292-0.16-0.396
			c-0.107-0.104-0.24-0.156-0.4-0.156s-0.292,0.052-0.396,0.156c-0.104,0.104-0.156,0.236-0.156,0.396
			c0,0.16,0.053,0.292,0.156,0.396C28.02,67.053,28.151,67.105,28.312,67.105 M26.695,67.105c0.16,0,0.292-0.053,0.396-0.156
			c0.104-0.104,0.156-0.236,0.156-0.396c0-0.159-0.052-0.292-0.156-0.396c-0.104-0.104-0.235-0.156-0.396-0.156
			c-0.159,0-0.293,0.052-0.399,0.156c-0.107,0.104-0.16,0.236-0.16,0.396c0,0.16,0.053,0.292,0.16,0.396
			C26.402,67.053,26.536,67.105,26.695,67.105 M27.279,71.226c-0.219,0-0.391-0.048-0.516-0.141s-0.188-0.22-0.188-0.38
			c0-0.336,0.256-0.504,0.768-0.504H28.2v0.44c-0.07,0.191-0.188,0.337-0.353,0.436S27.493,71.226,27.279,71.226 M27.376,67.633
			c-0.348,0-0.685,0.045-1.013,0.137c-0.327,0.091-0.608,0.219-0.844,0.384l0.448,0.872c0.154-0.123,0.343-0.221,0.564-0.292
			c0.221-0.072,0.446-0.108,0.676-0.108c0.33,0,0.578,0.073,0.744,0.22c0.164,0.147,0.248,0.356,0.248,0.628h-0.992
			c-0.629,0-1.096,0.115-1.396,0.345c-0.301,0.229-0.452,0.544-0.452,0.943c0,0.251,0.063,0.476,0.192,0.673
			c0.128,0.196,0.312,0.352,0.556,0.464c0.243,0.111,0.529,0.168,0.86,0.168c0.64,0,1.076-0.2,1.312-0.601v0.536h1.168v-2.456
			c0-0.64-0.179-1.119-0.536-1.436C28.555,67.792,28.042,67.633,27.376,67.633 M23.439,68.265v-0.567h-1.192v4.304h1.248v-2.032
			c0-0.399,0.102-0.699,0.305-0.899s0.482-0.3,0.84-0.3c0.048,0,0.141,0.005,0.279,0.016v-1.152c-0.33,0-0.623,0.054-0.875,0.16
			C23.79,67.9,23.589,68.058,23.439,68.265 M19.056,71.041c-0.32,0-0.583-0.107-0.788-0.324c-0.205-0.216-0.308-0.505-0.308-0.867
			c0-0.363,0.103-0.652,0.308-0.868c0.205-0.217,0.468-0.324,0.788-0.324s0.583,0.107,0.787,0.324
			c0.205,0.216,0.309,0.505,0.309,0.868c0,0.362-0.104,0.651-0.309,0.867C19.639,70.934,19.376,71.041,19.056,71.041 M19.271,67.633
			c-0.592,0-1.043,0.188-1.353,0.561v-0.496h-1.191v5.855h1.248v-2.008c0.314,0.348,0.747,0.521,1.296,0.521
			c0.399,0,0.765-0.093,1.092-0.276c0.328-0.184,0.585-0.443,0.772-0.776c0.187-0.333,0.279-0.721,0.279-1.163
			c0-0.443-0.093-0.831-0.279-1.164c-0.188-0.333-0.444-0.593-0.772-0.776C20.036,67.726,19.671,67.633,19.271,67.633"/>
		<path clip-path="url(#SVGID_8_)" fill="#FFFFFF" d="M69.123,61.521c-0.304,0-0.547-0.064-0.728-0.192
			c-0.183-0.128-0.272-0.296-0.272-0.504c0-0.176,0.053-0.333,0.16-0.472c0.106-0.14,0.285-0.28,0.536-0.425l1.353,1.265
			C69.861,61.412,69.513,61.521,69.123,61.521 M69.299,57.577c0.177,0,0.312,0.043,0.408,0.128c0.097,0.085,0.145,0.197,0.145,0.336
			c0,0.133-0.055,0.257-0.16,0.372c-0.107,0.115-0.296,0.244-0.568,0.388c-0.17-0.165-0.285-0.297-0.344-0.396
			c-0.059-0.1-0.088-0.204-0.088-0.316c0-0.148,0.055-0.271,0.164-0.368C68.965,57.625,69.112,57.577,69.299,57.577 M72.26,61.705
			l-0.656-0.608c0.234-0.352,0.404-0.775,0.512-1.271l-1-0.312c-0.064,0.325-0.158,0.616-0.279,0.872l-1.024-0.951
			c0.384-0.208,0.662-0.425,0.836-0.648c0.173-0.224,0.261-0.48,0.261-0.768c0-0.396-0.147-0.708-0.441-0.94
			c-0.293-0.232-0.682-0.348-1.168-0.348c-0.346,0-0.651,0.057-0.916,0.172c-0.264,0.115-0.467,0.275-0.611,0.483
			s-0.216,0.448-0.216,0.721c0,0.203,0.045,0.398,0.136,0.588c0.09,0.188,0.237,0.388,0.439,0.596
			c-0.432,0.24-0.745,0.492-0.939,0.756c-0.195,0.265-0.292,0.569-0.292,0.916c0,0.293,0.093,0.558,0.276,0.792
			c0.184,0.235,0.438,0.417,0.764,0.548c0.325,0.132,0.689,0.196,1.096,0.196c0.715,0,1.338-0.208,1.873-0.624l0.672,0.624
			L72.26,61.705z M62.012,58.033c-0.295,0-0.562,0.049-0.809,0.147c-0.246,0.1-0.451,0.239-0.615,0.421v-0.505h-1.192v4.305h1.248
			v-2.128c0-0.385,0.093-0.673,0.28-0.868c0.186-0.195,0.437-0.292,0.752-0.292c0.281,0,0.498,0.084,0.648,0.252
			c0.148,0.168,0.223,0.423,0.223,0.764v2.272h1.248v-2.464c0-0.629-0.164-1.104-0.491-1.425
			C62.976,58.193,62.545,58.033,62.012,58.033 M56.332,58.978c0.276,0,0.512,0.081,0.703,0.243c0.192,0.163,0.31,0.381,0.353,0.652
			h-2.12c0.042-0.277,0.16-0.496,0.352-0.656C55.812,59.058,56.049,58.978,56.332,58.978 M58.563,60.265
			c0-0.447-0.097-0.841-0.292-1.18s-0.463-0.599-0.805-0.78c-0.342-0.181-0.723-0.271-1.143-0.271c-0.433,0-0.824,0.095-1.173,0.284
			c-0.349,0.188-0.624,0.453-0.823,0.792c-0.201,0.339-0.301,0.719-0.301,1.14c0,0.427,0.102,0.809,0.305,1.145
			c0.201,0.336,0.489,0.599,0.863,0.787c0.373,0.189,0.803,0.284,1.288,0.284c0.778,0,1.371-0.231,1.776-0.695l-0.664-0.721
			c-0.15,0.145-0.311,0.249-0.484,0.316c-0.173,0.067-0.372,0.1-0.596,0.1c-0.325,0-0.598-0.077-0.816-0.231
			c-0.219-0.155-0.357-0.365-0.416-0.632h3.256C58.556,60.394,58.563,60.281,58.563,60.265 M52.164,58.665v-0.568h-1.192v4.305
			h1.248v-2.032c0-0.4,0.101-0.7,0.304-0.9c0.202-0.199,0.482-0.3,0.84-0.3c0.049,0,0.141,0.005,0.28,0.017v-1.152
			c-0.331,0-0.623,0.053-0.876,0.16C52.514,58.3,52.312,58.457,52.164,58.665 M47.908,58.978c0.276,0,0.512,0.081,0.703,0.243
			c0.192,0.163,0.309,0.381,0.352,0.652h-2.119c0.042-0.277,0.16-0.496,0.352-0.656C47.388,59.058,47.625,58.978,47.908,58.978
			 M50.14,60.265c0-0.447-0.099-0.841-0.292-1.18c-0.195-0.339-0.463-0.599-0.805-0.78c-0.342-0.181-0.723-0.271-1.144-0.271
			c-0.433,0-0.823,0.095-1.172,0.284c-0.351,0.188-0.624,0.453-0.824,0.792s-0.3,0.719-0.3,1.14c0,0.427,0.102,0.809,0.305,1.145
			c0.201,0.336,0.489,0.599,0.863,0.787c0.373,0.189,0.803,0.284,1.288,0.284c0.778,0,1.37-0.231,1.776-0.695l-0.664-0.721
			c-0.15,0.145-0.312,0.249-0.484,0.316c-0.174,0.067-0.372,0.1-0.596,0.1c-0.326,0-0.598-0.077-0.816-0.231
			c-0.219-0.155-0.357-0.365-0.416-0.632h3.256C50.131,60.394,50.14,60.281,50.14,60.265 M44.14,57.497
			c0.229,0,0.416-0.068,0.56-0.204c0.145-0.136,0.217-0.308,0.217-0.516c0-0.192-0.072-0.353-0.217-0.48
			c-0.144-0.128-0.33-0.191-0.56-0.191s-0.416,0.066-0.561,0.199c-0.144,0.134-0.216,0.3-0.216,0.496
			c0,0.197,0.072,0.363,0.216,0.496C43.724,57.43,43.91,57.497,44.14,57.497 M43.516,62.401h1.248v-4.305h-1.248V62.401z
			 M40.452,61.441l2.191-2.592v-0.753h-3.712v0.961h2.136l-2.191,2.592v0.752h3.84v-0.96H40.452z M36.764,58.097v2.129
			c0,0.384-0.091,0.673-0.272,0.867c-0.182,0.195-0.422,0.292-0.72,0.292c-0.581,0-0.872-0.347-0.872-1.04v-2.248h-1.248v2.433
			c0,0.64,0.165,1.123,0.496,1.448c0.33,0.324,0.777,0.487,1.344,0.487c0.266,0,0.514-0.049,0.744-0.147
			c0.229-0.1,0.428-0.241,0.592-0.429v0.513h1.185v-4.305H36.764z M30.204,61.441c-0.32,0-0.584-0.108-0.793-0.324
			c-0.207-0.216-0.312-0.505-0.312-0.868s0.104-0.652,0.312-0.868c0.209-0.216,0.473-0.323,0.793-0.323
			c0.314,0,0.575,0.107,0.783,0.323s0.312,0.505,0.312,0.868s-0.104,0.652-0.312,0.868S30.519,61.441,30.204,61.441 M31.275,56.465
			v2.088c-0.31-0.347-0.739-0.52-1.288-0.52c-0.404,0-0.771,0.091-1.1,0.271c-0.328,0.182-0.585,0.44-0.771,0.776
			c-0.188,0.336-0.281,0.725-0.281,1.168s0.094,0.832,0.281,1.168c0.187,0.336,0.443,0.595,0.771,0.776
			c0.328,0.181,0.695,0.271,1.1,0.271c0.588,0,1.035-0.187,1.344-0.56v0.496h1.192v-5.937H31.275z M24.947,61.441
			c-0.319,0-0.584-0.108-0.792-0.324s-0.312-0.505-0.312-0.868s0.104-0.652,0.312-0.868s0.473-0.323,0.792-0.323
			c0.32,0,0.583,0.107,0.788,0.323s0.309,0.505,0.309,0.868s-0.104,0.652-0.309,0.868S25.268,61.441,24.947,61.441 M24.947,62.465
			c0.453,0,0.859-0.095,1.216-0.284c0.357-0.188,0.637-0.451,0.84-0.787s0.305-0.718,0.305-1.145s-0.102-0.808-0.305-1.144
			s-0.482-0.6-0.84-0.788c-0.356-0.189-0.763-0.284-1.216-0.284c-0.452,0-0.86,0.095-1.22,0.284
			c-0.359,0.188-0.641,0.452-0.844,0.788s-0.305,0.717-0.305,1.144s0.102,0.809,0.305,1.145s0.484,0.599,0.844,0.787
			C24.087,62.37,24.495,62.465,24.947,62.465 M20.716,58.665v-0.568h-1.192v4.305h1.248v-2.032c0-0.4,0.101-0.7,0.304-0.9
			c0.203-0.199,0.483-0.3,0.84-0.3c0.049,0,0.142,0.005,0.28,0.017v-1.152c-0.331,0-0.623,0.053-0.876,0.16
			C21.066,58.3,20.864,58.457,20.716,58.665 M16.331,61.441c-0.319,0-0.582-0.108-0.787-0.324s-0.309-0.505-0.309-0.868
			s0.104-0.652,0.309-0.868s0.468-0.323,0.787-0.323c0.32,0,0.584,0.107,0.789,0.323s0.308,0.505,0.308,0.868
			s-0.103,0.652-0.308,0.868S16.651,61.441,16.331,61.441 M16.548,58.033c-0.592,0-1.043,0.187-1.353,0.56v-0.496h-1.192v5.856
			h1.248v-2.008c0.315,0.347,0.748,0.52,1.297,0.52c0.399,0,0.764-0.092,1.092-0.275c0.328-0.185,0.585-0.443,0.771-0.776
			c0.188-0.333,0.28-0.721,0.28-1.164s-0.093-0.831-0.28-1.164c-0.187-0.333-0.443-0.592-0.771-0.775
			C17.312,58.125,16.947,58.033,16.548,58.033"/>
	</g>
</g>
</svg>
