<?xml version="1.0" encoding="utf-8"?>
<!-- Generator: Adobe Illustrator 16.0.4, SVG Export Plug-In . SVG Version: 6.00 Build 0)  -->
<!DOCTYPE svg PUBLIC "-//W3C//DTD SVG 1.1//EN" "http://www.w3.org/Graphics/SVG/1.1/DTD/svg11.dtd">
<svg version="1.1" id="Ebene_4" xmlns="http://www.w3.org/2000/svg" xmlns:xlink="http://www.w3.org/1999/xlink" x="0px" y="0px"
	 width="85.863px" height="99.098px" viewBox="0 0 85.863 99.098" enable-background="new 0 0 85.863 99.098" xml:space="preserve">
<g>
	<polygon fill="#231F20" points="42.932,0 0,24.766 0,74.333 40.575,97.757 42.932,99.099 85.863,74.333 85.863,24.766 	"/>
	<polygon fill="#231F20" points="42.932,4.448 3.854,26.99 3.854,72.108 40.786,93.429 42.932,94.651 82.01,72.108 82.01,26.99 	"/>
	<g>
		<defs>
			<rect id="SVGID_1_" y="0.001" width="85.863" height="99.097"/>
		</defs>
		<clipPath id="SVGID_2_">
			<use xlink:href="#SVGID_1_"  overflow="visible"/>
		</clipPath>
		<path clip-path="url(#SVGID_2_)" fill="#FFFFFF" d="M38.466,44.532l-2.241-3.548c1.179-0.348,2.038-1.437,2.038-2.726
			c0-1.57-1.273-2.844-2.843-2.844c-1.57,0-2.843,1.273-2.843,2.844c0,1.289,0.859,2.378,2.037,2.726l-2.24,3.548
			c-0.164,0.259-0.25,0.56-0.25,0.865V48c0,0.855,0.693,1.55,1.548,1.55h3.425c0.895,0,1.619-0.726,1.619-1.62v-2.533
			C38.716,45.091,38.629,44.791,38.466,44.532"/>
		<path clip-path="url(#SVGID_2_)" fill="#FFFFFF" d="M45.978,44.532l-2.241-3.548c1.178-0.348,2.038-1.437,2.038-2.726
			c0-1.57-1.272-2.844-2.843-2.844s-2.843,1.273-2.843,2.844c0,1.289,0.859,2.378,2.037,2.726l-2.24,3.548
			c-0.164,0.259-0.25,0.56-0.25,0.865V48c0,0.855,0.693,1.55,1.548,1.55h3.425c0.894,0,1.619-0.726,1.619-1.62v-2.533
			C46.228,45.091,46.141,44.791,45.978,44.532"/>
		<path clip-path="url(#SVGID_2_)" fill="#FFFFFF" d="M53.489,44.532l-2.241-3.548c1.178-0.348,2.038-1.437,2.038-2.726
			c0-1.57-1.272-2.844-2.843-2.844S47.6,36.688,47.6,38.258c0,1.289,0.861,2.378,2.039,2.726l-2.241,3.548
			c-0.164,0.259-0.25,0.56-0.25,0.865V48c0,0.855,0.692,1.55,1.548,1.55h3.425c0.894,0,1.619-0.726,1.619-1.62v-2.533
			C53.739,45.091,53.652,44.791,53.489,44.532"/>
		<path clip-path="url(#SVGID_2_)" fill="#FFFFFF" d="M41.06,26.378c0-1.066,0.362-2.068,0.995-2.937
			c-1.323-0.742-2.979-1.185-4.778-1.185c-4.332,0-7.844,2.56-7.844,5.717c0,3.156,3.512,5.716,7.844,5.716
			c0.886,0,1.737-0.107,2.531-0.304l1.859,0.863l0.329-1.71c0.755-0.415,1.399-0.928,1.908-1.512
			C42.116,29.901,41.06,28.184,41.06,26.378"/>
		<path clip-path="url(#SVGID_2_)" fill="#FFFFFF" d="M49.416,21.08c-2.633,0-4.924,1.098-6.122,2.719
			c-0.565,0.765-0.891,1.644-0.891,2.58c0,1.656,1.008,3.134,2.581,4.105c0.07,0.044,0.141,0.087,0.212,0.128l0.294,1.586
			l1.662-0.802c0.71,0.183,1.473,0.282,2.264,0.282c3.873,0,7.015-2.373,7.015-5.3C56.431,23.453,53.289,21.08,49.416,21.08"/>
		<path clip-path="url(#SVGID_2_)" fill="#FFFFFF" d="M70.123,67.632c-0.293,0-0.562,0.05-0.808,0.148
			c-0.246,0.099-0.451,0.239-0.616,0.42v-0.504h-1.191V72h1.248v-2.128c0-0.384,0.093-0.673,0.279-0.868
			c0.187-0.194,0.438-0.292,0.752-0.292c0.282,0,0.498,0.084,0.648,0.252c0.148,0.168,0.225,0.423,0.225,0.765V72h1.248v-2.464
			c0-0.629-0.164-1.104-0.492-1.424S70.656,67.632,70.123,67.632 M64.443,68.577c0.277,0,0.512,0.081,0.704,0.244
			s0.31,0.38,0.353,0.651h-2.121c0.043-0.276,0.16-0.495,0.353-0.655S64.16,68.577,64.443,68.577 M66.676,69.865
			c0-0.448-0.098-0.841-0.293-1.18c-0.194-0.34-0.463-0.6-0.803-0.78c-0.343-0.181-0.724-0.272-1.145-0.272
			c-0.432,0-0.823,0.096-1.172,0.284c-0.35,0.189-0.624,0.453-0.824,0.792s-0.3,0.719-0.3,1.141c0,0.427,0.101,0.808,0.304,1.144
			c0.202,0.336,0.49,0.599,0.864,0.788c0.373,0.188,0.802,0.284,1.288,0.284c0.777,0,1.369-0.232,1.775-0.696l-0.664-0.72
			c-0.149,0.144-0.311,0.249-0.483,0.315c-0.175,0.067-0.372,0.101-0.597,0.101c-0.326,0-0.598-0.077-0.815-0.232
			c-0.22-0.155-0.358-0.365-0.416-0.632h3.256C66.668,69.993,66.676,69.88,66.676,69.865 M60.275,68.264v-0.567h-1.191V72h1.248
			v-2.032c0-0.399,0.101-0.699,0.304-0.899c0.202-0.2,0.481-0.3,0.84-0.3c0.048,0,0.142,0.005,0.28,0.016v-1.152
			c-0.332,0-0.623,0.054-0.877,0.16C60.625,67.9,60.424,68.057,60.275,68.264 M56.02,68.577c0.277,0,0.512,0.081,0.704,0.244
			s0.31,0.38,0.353,0.651h-2.121c0.043-0.276,0.16-0.495,0.353-0.655S55.736,68.577,56.02,68.577 M58.252,69.865
			c0-0.448-0.099-0.841-0.293-1.18c-0.194-0.34-0.463-0.6-0.804-0.78c-0.342-0.181-0.723-0.272-1.144-0.272
			c-0.432,0-0.823,0.096-1.172,0.284c-0.351,0.189-0.625,0.453-0.824,0.792c-0.2,0.339-0.301,0.719-0.301,1.141
			c0,0.427,0.102,0.808,0.305,1.144c0.202,0.336,0.49,0.599,0.863,0.788c0.373,0.188,0.803,0.284,1.289,0.284
			c0.777,0,1.369-0.232,1.775-0.696l-0.664-0.72c-0.15,0.144-0.311,0.249-0.484,0.315c-0.174,0.067-0.371,0.101-0.596,0.101
			c-0.326,0-0.598-0.077-0.815-0.232c-0.22-0.155-0.358-0.365-0.416-0.632h3.256C58.244,69.993,58.252,69.88,58.252,69.865
			 M52.252,67.096c0.229,0,0.416-0.067,0.56-0.203c0.144-0.137,0.216-0.309,0.216-0.517c0-0.191-0.072-0.352-0.216-0.479
			s-0.331-0.192-0.56-0.192c-0.23,0-0.416,0.067-0.561,0.2s-0.216,0.299-0.216,0.496c0,0.196,0.071,0.362,0.216,0.496
			C51.836,67.03,52.021,67.096,52.252,67.096 M51.627,72h1.248v-4.304h-1.248V72z M49.403,68.264v-0.567h-1.192V72h1.248v-2.032
			c0-0.399,0.102-0.699,0.305-0.899c0.201-0.2,0.482-0.3,0.84-0.3c0.048,0,0.141,0.005,0.279,0.016v-1.152
			c-0.33,0-0.622,0.054-0.875,0.16C49.754,67.9,49.553,68.057,49.403,68.264 M45.147,68.577c0.276,0,0.513,0.081,0.704,0.244
			s0.309,0.38,0.352,0.651h-2.119c0.041-0.276,0.16-0.495,0.352-0.655S44.864,68.577,45.147,68.577 M47.379,69.865
			c0-0.448-0.098-0.841-0.291-1.18c-0.195-0.34-0.463-0.6-0.805-0.78s-0.723-0.272-1.144-0.272c-0.433,0-0.823,0.096-1.173,0.284
			c-0.349,0.189-0.624,0.453-0.823,0.792c-0.2,0.339-0.301,0.719-0.301,1.141c0,0.427,0.102,0.808,0.305,1.144
			c0.202,0.336,0.49,0.599,0.864,0.788c0.373,0.188,0.802,0.284,1.287,0.284c0.779,0,1.371-0.232,1.777-0.696l-0.664-0.72
			c-0.15,0.144-0.312,0.249-0.484,0.315c-0.174,0.067-0.372,0.101-0.596,0.101c-0.326,0-0.599-0.077-0.816-0.232
			c-0.219-0.155-0.357-0.365-0.416-0.632h3.256C47.371,69.993,47.379,69.88,47.379,69.865 M39.972,71.041
			c-0.32,0-0.583-0.107-0.788-0.324c-0.206-0.216-0.308-0.505-0.308-0.867c0-0.363,0.102-0.652,0.308-0.868
			c0.205-0.217,0.468-0.324,0.788-0.324s0.582,0.107,0.787,0.324c0.205,0.216,0.309,0.505,0.309,0.868
			c0,0.362-0.104,0.651-0.309,0.867C40.554,70.933,40.292,71.041,39.972,71.041 M40.188,67.632c-0.592,0-1.043,0.188-1.353,0.561
			v-0.496h-1.191v5.855h1.248v-2.008c0.314,0.348,0.746,0.521,1.296,0.521c0.399,0,0.765-0.093,1.092-0.276
			c0.328-0.184,0.585-0.443,0.772-0.776c0.186-0.333,0.279-0.721,0.279-1.163c0-0.443-0.094-0.831-0.279-1.164
			c-0.188-0.333-0.444-0.593-0.772-0.776C40.952,67.725,40.587,67.632,40.188,67.632 M34.452,71.041
			c-0.32,0-0.584-0.107-0.793-0.324c-0.207-0.216-0.312-0.505-0.312-0.867c0-0.363,0.104-0.652,0.312-0.868
			c0.209-0.217,0.473-0.324,0.793-0.324c0.319,0,0.582,0.107,0.787,0.324c0.205,0.216,0.309,0.505,0.309,0.868
			c0,0.362-0.104,0.651-0.309,0.867C35.034,70.933,34.771,71.041,34.452,71.041 M34.452,72.065c0.452,0,0.857-0.096,1.215-0.284
			c0.357-0.189,0.638-0.452,0.84-0.788c0.203-0.336,0.305-0.717,0.305-1.144c0-0.428-0.102-0.809-0.305-1.145
			c-0.202-0.336-0.482-0.599-0.84-0.788c-0.357-0.188-0.763-0.284-1.215-0.284c-0.455,0-0.861,0.096-1.221,0.284
			c-0.359,0.189-0.643,0.452-0.844,0.788c-0.203,0.336-0.305,0.717-0.305,1.145c0,0.427,0.102,0.808,0.305,1.144
			c0.201,0.336,0.484,0.599,0.844,0.788C33.591,71.969,33.997,72.065,34.452,72.065 M29.212,71.041c-0.32,0-0.584-0.107-0.793-0.324
			c-0.207-0.216-0.312-0.505-0.312-0.867c0-0.363,0.104-0.652,0.312-0.868c0.209-0.217,0.473-0.324,0.793-0.324
			s0.582,0.107,0.787,0.324c0.205,0.216,0.309,0.505,0.309,0.868c0,0.362-0.104,0.651-0.309,0.867
			C29.794,70.933,29.532,71.041,29.212,71.041 M29.212,72.065c0.453,0,0.857-0.096,1.216-0.284c0.356-0.189,0.637-0.452,0.84-0.788
			c0.202-0.336,0.304-0.717,0.304-1.144c0-0.428-0.102-0.809-0.304-1.145c-0.203-0.336-0.483-0.599-0.84-0.788
			c-0.358-0.188-0.763-0.284-1.216-0.284c-0.455,0-0.86,0.096-1.221,0.284c-0.359,0.189-0.642,0.452-0.844,0.788
			c-0.203,0.336-0.305,0.717-0.305,1.145c0,0.427,0.102,0.808,0.305,1.144c0.202,0.336,0.484,0.599,0.844,0.788
			C28.352,71.969,28.757,72.065,29.212,72.065 M25.275,72h1.513l-1.953-2.479l1.793-1.824H25.14l-1.824,1.728v-3.359h-1.248V72
			h1.248v-1.096l0.6-0.592L25.275,72z M15.915,71.121c-0.304,0-0.547-0.063-0.728-0.192c-0.181-0.128-0.272-0.296-0.272-0.504
			c0-0.176,0.053-0.333,0.16-0.472s0.285-0.28,0.536-0.424l1.353,1.264C16.654,71.011,16.305,71.121,15.915,71.121 M16.091,67.176
			c0.177,0,0.312,0.043,0.408,0.128c0.097,0.085,0.145,0.197,0.145,0.337c0,0.133-0.053,0.257-0.16,0.371
			c-0.107,0.115-0.296,0.244-0.568,0.389c-0.17-0.165-0.285-0.297-0.344-0.396c-0.059-0.099-0.088-0.204-0.088-0.315
			c0-0.149,0.055-0.272,0.164-0.368S15.904,67.176,16.091,67.176 M19.052,71.304l-0.656-0.607c0.234-0.353,0.404-0.776,0.512-1.272
			l-1-0.312c-0.064,0.325-0.156,0.616-0.279,0.872l-1.024-0.952c0.384-0.208,0.663-0.424,0.836-0.648
			c0.173-0.224,0.261-0.479,0.261-0.768c0-0.396-0.147-0.708-0.441-0.94c-0.293-0.231-0.682-0.348-1.168-0.348
			c-0.346,0-0.651,0.057-0.916,0.172c-0.264,0.115-0.467,0.276-0.611,0.484s-0.216,0.448-0.216,0.72
			c0,0.203,0.045,0.399,0.136,0.588c0.092,0.189,0.237,0.388,0.439,0.596c-0.432,0.24-0.744,0.492-0.939,0.757
			c-0.195,0.264-0.292,0.568-0.292,0.916c0,0.293,0.093,0.557,0.276,0.792c0.184,0.234,0.439,0.417,0.764,0.548
			c0.325,0.131,0.691,0.195,1.096,0.195c0.715,0,1.34-0.208,1.873-0.624l0.672,0.624L19.052,71.304z"/>
		<path clip-path="url(#SVGID_2_)" fill="#FFFFFF" d="M73.748,58.033c-0.295,0-0.563,0.049-0.809,0.147
			c-0.246,0.1-0.451,0.239-0.615,0.421v-0.505h-1.193v4.305h1.248v-2.128c0-0.385,0.094-0.673,0.281-0.868
			c0.186-0.195,0.437-0.292,0.752-0.292c0.281,0,0.498,0.084,0.647,0.252s0.224,0.423,0.224,0.764v2.272h1.248v-2.464
			c0-0.629-0.164-1.104-0.492-1.425C74.711,58.193,74.28,58.033,73.748,58.033 M68.067,58.977c0.277,0,0.513,0.081,0.704,0.243
			c0.191,0.163,0.309,0.381,0.352,0.652h-2.119c0.041-0.277,0.16-0.496,0.352-0.656C67.547,59.057,67.785,58.977,68.067,58.977
			 M70.299,60.264c0-0.447-0.098-0.841-0.291-1.18c-0.195-0.339-0.463-0.599-0.805-0.78c-0.342-0.181-0.723-0.271-1.144-0.271
			c-0.433,0-0.823,0.095-1.172,0.284c-0.351,0.188-0.624,0.453-0.824,0.792s-0.3,0.719-0.3,1.14c0,0.427,0.101,0.809,0.304,1.145
			c0.202,0.336,0.49,0.599,0.864,0.787c0.373,0.189,0.802,0.284,1.288,0.284c0.778,0,1.37-0.231,1.776-0.695l-0.664-0.721
			c-0.15,0.145-0.312,0.249-0.484,0.316c-0.174,0.067-0.372,0.1-0.596,0.1c-0.326,0-0.599-0.077-0.816-0.231
			c-0.219-0.155-0.357-0.365-0.416-0.632h3.256C70.291,60.393,70.299,60.281,70.299,60.264 M63.899,58.665v-0.568h-1.192v4.305
			h1.248v-2.032c0-0.4,0.102-0.7,0.305-0.9c0.201-0.199,0.482-0.3,0.84-0.3c0.048,0,0.141,0.005,0.279,0.017v-1.152
			c-0.33,0-0.623,0.053-0.875,0.16C64.25,58.299,64.049,58.457,63.899,58.665 M59.644,58.977c0.276,0,0.512,0.081,0.704,0.243
			c0.191,0.163,0.309,0.381,0.352,0.652H58.58c0.041-0.277,0.159-0.496,0.352-0.656C59.123,59.057,59.36,58.977,59.644,58.977
			 M61.875,60.264c0-0.447-0.098-0.841-0.291-1.18c-0.195-0.339-0.463-0.599-0.805-0.78c-0.342-0.181-0.723-0.271-1.144-0.271
			c-0.433,0-0.823,0.095-1.173,0.284c-0.35,0.188-0.623,0.453-0.823,0.792s-0.3,0.719-0.3,1.14c0,0.427,0.101,0.809,0.304,1.145
			c0.202,0.336,0.489,0.599,0.864,0.787c0.373,0.189,0.802,0.284,1.287,0.284c0.779,0,1.371-0.231,1.776-0.695l-0.663-0.721
			c-0.15,0.145-0.312,0.249-0.484,0.316c-0.174,0.067-0.373,0.1-0.596,0.1c-0.326,0-0.599-0.077-0.816-0.231
			c-0.219-0.155-0.358-0.365-0.416-0.632h3.256C61.867,60.393,61.875,60.281,61.875,60.264 M55.875,57.497
			c0.229,0,0.416-0.068,0.561-0.204s0.216-0.308,0.216-0.516c0-0.192-0.071-0.353-0.216-0.48s-0.331-0.191-0.561-0.191
			s-0.416,0.066-0.56,0.199c-0.144,0.134-0.216,0.3-0.216,0.496c0,0.197,0.072,0.363,0.216,0.496S55.646,57.497,55.875,57.497
			 M55.252,62.401H56.5v-4.305h-1.248V62.401z M52.188,61.441l2.191-2.592v-0.753h-3.711v0.961h2.136l-2.192,2.592v0.752h3.84v-0.96
			H52.188z M49.123,57.497c0.229,0,0.416-0.068,0.561-0.204s0.216-0.308,0.216-0.516c0-0.192-0.071-0.353-0.216-0.48
			s-0.331-0.191-0.561-0.191s-0.416,0.066-0.56,0.199c-0.144,0.134-0.216,0.3-0.216,0.496c0,0.197,0.072,0.363,0.216,0.496
			S48.894,57.497,49.123,57.497 M48.5,62.401h1.248v-4.305H48.5V62.401z M45.588,58.033c-0.295,0-0.563,0.049-0.809,0.147
			c-0.246,0.1-0.451,0.239-0.615,0.421v-0.505h-1.192v4.305h1.248v-2.128c0-0.385,0.093-0.673,0.28-0.868
			c0.186-0.195,0.437-0.292,0.752-0.292c0.281,0,0.498,0.084,0.647,0.252s0.224,0.423,0.224,0.764v2.272h1.248v-2.464
			c0-0.629-0.164-1.104-0.492-1.425C46.551,58.193,46.121,58.033,45.588,58.033 M40.563,58.096v2.129
			c0,0.384-0.091,0.673-0.271,0.867c-0.183,0.195-0.422,0.292-0.721,0.292c-0.582,0-0.871-0.347-0.871-1.04v-2.248h-1.248v2.433
			c0,0.64,0.164,1.123,0.495,1.448c0.33,0.324,0.778,0.487,1.345,0.487c0.266,0,0.514-0.049,0.744-0.147
			c0.229-0.1,0.426-0.241,0.592-0.429v0.513h1.184v-4.305H40.563z M34.596,58.033c-0.32,0-0.615,0.061-0.884,0.184
			c-0.27,0.123-0.492,0.296-0.668,0.521c-0.149-0.229-0.348-0.404-0.592-0.524c-0.246-0.12-0.521-0.18-0.824-0.18
			c-0.277,0-0.532,0.048-0.765,0.144c-0.231,0.097-0.428,0.235-0.588,0.416v-0.496h-1.192v4.305h1.248v-2.16
			c0-0.373,0.086-0.655,0.256-0.844c0.172-0.189,0.4-0.284,0.688-0.284c0.544,0,0.815,0.339,0.815,1.016v2.272h1.248v-2.16
			c0-0.373,0.086-0.655,0.257-0.844c0.171-0.189,0.403-0.284,0.696-0.284c0.261,0,0.463,0.084,0.604,0.252s0.212,0.423,0.212,0.764
			v2.272h1.248v-2.464c0-0.636-0.159-1.111-0.476-1.429C35.562,58.192,35.134,58.033,34.596,58.033 M26.204,58.033
			c-0.32,0-0.615,0.061-0.885,0.184s-0.492,0.296-0.668,0.521c-0.148-0.229-0.347-0.404-0.592-0.524s-0.52-0.18-0.824-0.18
			c-0.277,0-0.531,0.048-0.764,0.144c-0.232,0.097-0.428,0.235-0.588,0.416v-0.496h-1.192v4.305h1.248v-2.16
			c0-0.373,0.085-0.655,0.256-0.844c0.171-0.189,0.4-0.284,0.688-0.284c0.544,0,0.816,0.339,0.816,1.016v2.272h1.247v-2.16
			c0-0.373,0.085-0.655,0.257-0.844c0.17-0.189,0.402-0.284,0.695-0.284c0.262,0,0.463,0.084,0.604,0.252
			c0.142,0.168,0.213,0.423,0.213,0.764v2.272h1.248v-2.464c0-0.636-0.159-1.111-0.477-1.429
			C27.171,58.192,26.743,58.033,26.204,58.033 M17.499,61.441c-0.319,0-0.584-0.108-0.791-0.324
			c-0.209-0.216-0.312-0.505-0.312-0.868s0.104-0.652,0.312-0.868c0.207-0.216,0.472-0.323,0.791-0.323
			c0.32,0,0.584,0.107,0.789,0.323s0.308,0.505,0.308,0.868s-0.103,0.652-0.308,0.868S17.819,61.441,17.499,61.441 M17.499,62.464
			c0.453,0,0.859-0.095,1.217-0.284c0.356-0.188,0.637-0.451,0.84-0.787s0.304-0.718,0.304-1.145s-0.101-0.808-0.304-1.144
			s-0.483-0.6-0.84-0.788c-0.357-0.189-0.764-0.284-1.217-0.284s-0.859,0.095-1.22,0.284c-0.36,0.188-0.641,0.452-0.844,0.788
			s-0.304,0.717-0.304,1.144s0.101,0.809,0.304,1.145s0.483,0.599,0.844,0.787C16.64,62.37,17.046,62.464,17.499,62.464
			 M13.563,62.401h1.512l-1.951-2.48l1.791-1.824h-1.487l-1.824,1.729v-3.36h-1.248v5.937h1.248v-1.097l0.601-0.592L13.563,62.401z"
			/>
	</g>
</g>
</svg>
