<?xml version="1.0" encoding="utf-8"?>
<!-- Generator: Adobe Illustrator 16.0.4, SVG Export Plug-In . SVG Version: 6.00 Build 0)  -->
<!DOCTYPE svg PUBLIC "-//W3C//DTD SVG 1.1//EN" "http://www.w3.org/Graphics/SVG/1.1/DTD/svg11.dtd">
<svg version="1.1" id="Ebene_5" xmlns="http://www.w3.org/2000/svg" xmlns:xlink="http://www.w3.org/1999/xlink" x="0px" y="0px"
	 width="85.863px" height="99.098px" viewBox="0 0 85.863 99.098" enable-background="new 0 0 85.863 99.098" xml:space="preserve">
<polygon fill="#231F20" points="43.469,-0.192 0.537,24.574 0.537,74.14 41.112,97.563 43.469,98.905 86.4,74.14 86.4,24.574 "/>
<polygon fill="#FFFFFF" points="43.469,4.255 4.391,26.797 4.391,71.916 41.324,93.237 43.469,94.458 82.547,71.916 82.547,26.797 
	"/>
<g>
	<defs>
		<rect id="SVGID_1_" x="0.537" y="-0.191" width="85.863" height="99.096"/>
	</defs>
	<clipPath id="SVGID_2_">
		<use xlink:href="#SVGID_1_"  overflow="visible"/>
	</clipPath>
	<path clip-path="url(#SVGID_2_)" d="M58.385,22.311l-18.729,0.006c-2.072,0-3.751,1.68-3.751,3.752l0.002,0.118l2.302,2.301
		l-0.002-1.762c0-1.271,1.029-2.3,2.298-2.301l17.031-0.005c1.271,0,2.299,1.029,2.301,2.298l0.002,12.942
		c0.002,1.271-1.027,2.299-2.297,2.3l-6.012,0.001l-2.968,0.001l-0.514,0.001H45.08l-0.946,0.001l-2.11,2.11h2.173l-3.317,3.318
		l1.485,1.483l4.799-4.803l2.281-0.001l4.803,4.8l1.483-1.484l-3.317-3.316l5.977-0.002c2.072,0,3.751-1.68,3.751-3.752
		l-0.004-14.256C62.137,23.99,60.457,22.31,58.385,22.311"/>
</g>
<polygon points="32.052,29.799 36.499,34.245 38.525,36.27 40.526,38.27 39.893,38.904 38.293,40.504 32.056,46.745 34.669,49.356 
	43.149,40.871 45.006,39.013 45.75,38.269 38.524,31.045 36.498,29.021 34.663,27.187 "/>
<g>
	<defs>
		<rect id="SVGID_3_" x="0.537" y="-0.191" width="85.863" height="99.096"/>
	</defs>
	<clipPath id="SVGID_4_">
		<use xlink:href="#SVGID_3_"  overflow="visible"/>
	</clipPath>
	<path clip-path="url(#SVGID_4_)" d="M27.407,27.189l-2.611,2.613l8.474,8.47l-8.47,8.474l2.613,2.611L38.47,38.293
		c-0.005-0.021-0.012-0.042-0.016-0.063L27.407,27.189z"/>
	<path clip-path="url(#SVGID_4_)" d="M45.102,28.031c0,0.73-0.592,1.322-1.322,1.322s-1.321-0.592-1.321-1.322
		c0-0.729,0.591-1.322,1.321-1.322S45.102,27.301,45.102,28.031"/>
</g>
<rect x="46.305" y="27.177" width="9.432" height="1.707"/>
<g>
	<defs>
		<rect id="SVGID_5_" x="0.537" y="-0.191" width="85.863" height="99.096"/>
	</defs>
	<clipPath id="SVGID_6_">
		<use xlink:href="#SVGID_5_"  overflow="visible"/>
	</clipPath>
	<path clip-path="url(#SVGID_6_)" d="M45.102,32.043c0,0.729-0.592,1.321-1.322,1.321s-1.321-0.592-1.321-1.321
		c0-0.73,0.591-1.322,1.321-1.322S45.102,31.313,45.102,32.043"/>
</g>
<rect x="46.305" y="31.19" width="9.432" height="1.708"/>
<rect x="46.305" y="35.202" width="9.432" height="1.708"/>
<g>
	<defs>
		<rect id="SVGID_7_" x="0.537" y="-0.191" width="85.863" height="99.096"/>
	</defs>
	<clipPath id="SVGID_8_">
		<use xlink:href="#SVGID_7_"  overflow="visible"/>
	</clipPath>
	<path clip-path="url(#SVGID_8_)" fill="#231F20" d="M67.912,67.44c-0.293,0-0.562,0.05-0.808,0.148
		c-0.246,0.099-0.45,0.239-0.616,0.42v-0.504h-1.191v4.304h1.248V69.68c0-0.384,0.093-0.673,0.279-0.868
		c0.187-0.194,0.438-0.292,0.752-0.292c0.282,0,0.498,0.084,0.648,0.252c0.148,0.168,0.225,0.423,0.225,0.765v2.271h1.248v-2.464
		c0-0.629-0.164-1.104-0.492-1.424S68.445,67.44,67.912,67.44 M62.232,68.384c0.277,0,0.512,0.081,0.704,0.244
		s0.31,0.38,0.353,0.651h-2.121c0.043-0.276,0.16-0.495,0.353-0.655S61.949,68.384,62.232,68.384 M64.465,69.672
		c0-0.448-0.098-0.841-0.292-1.18c-0.195-0.34-0.464-0.6-0.804-0.78c-0.343-0.181-0.724-0.272-1.145-0.272
		c-0.432,0-0.823,0.096-1.172,0.284c-0.35,0.189-0.624,0.453-0.824,0.792c-0.199,0.339-0.3,0.719-0.3,1.141
		c0,0.427,0.101,0.808,0.304,1.144c0.202,0.336,0.49,0.599,0.864,0.788c0.373,0.188,0.802,0.284,1.288,0.284
		c0.777,0,1.369-0.232,1.775-0.696l-0.664-0.72c-0.149,0.144-0.311,0.249-0.483,0.315c-0.175,0.067-0.372,0.101-0.597,0.101
		c-0.325,0-0.598-0.077-0.815-0.232c-0.219-0.155-0.358-0.365-0.416-0.632h3.256C64.457,69.8,64.465,69.688,64.465,69.672
		 M58.064,68.072v-0.567h-1.191v4.304h1.248v-2.032c0-0.399,0.101-0.699,0.304-0.899c0.202-0.2,0.481-0.3,0.84-0.3
		c0.048,0,0.142,0.005,0.28,0.016V67.44c-0.332,0-0.623,0.054-0.877,0.16C58.414,67.708,58.213,67.865,58.064,68.072 M53.809,68.384
		c0.277,0,0.512,0.081,0.704,0.244s0.31,0.38,0.353,0.651h-2.121c0.043-0.276,0.16-0.495,0.353-0.655S53.525,68.384,53.809,68.384
		 M56.041,69.672c0-0.448-0.099-0.841-0.293-1.18c-0.194-0.34-0.463-0.6-0.803-0.78c-0.343-0.181-0.724-0.272-1.145-0.272
		c-0.432,0-0.823,0.096-1.172,0.284c-0.35,0.189-0.625,0.453-0.824,0.792c-0.2,0.339-0.301,0.719-0.301,1.141
		c0,0.427,0.102,0.808,0.305,1.144c0.202,0.336,0.49,0.599,0.864,0.788c0.372,0.188,0.802,0.284,1.288,0.284
		c0.777,0,1.369-0.232,1.775-0.696l-0.664-0.72c-0.149,0.144-0.311,0.249-0.484,0.315c-0.174,0.067-0.371,0.101-0.596,0.101
		c-0.326,0-0.598-0.077-0.815-0.232c-0.22-0.155-0.358-0.365-0.416-0.632h3.256C56.033,69.8,56.041,69.688,56.041,69.672
		 M50.041,66.904c0.229,0,0.416-0.067,0.56-0.203c0.144-0.137,0.216-0.309,0.216-0.517c0-0.191-0.072-0.352-0.216-0.479
		s-0.331-0.192-0.56-0.192c-0.23,0-0.416,0.067-0.561,0.2s-0.216,0.299-0.216,0.496c0,0.196,0.071,0.362,0.216,0.496
		C49.625,66.837,49.811,66.904,50.041,66.904 M49.416,71.808h1.248v-4.304h-1.248V71.808z M48.377,70.72
		c-0.139,0.107-0.307,0.16-0.504,0.16c-0.172,0-0.303-0.049-0.396-0.148c-0.094-0.099-0.141-0.238-0.141-0.42V68.56h1.072V67.6
		h-1.072v-1.048h-1.248V67.6h-0.663v0.96h0.663v1.769c0,0.507,0.141,0.891,0.421,1.151c0.28,0.262,0.676,0.393,1.188,0.393
		c0.196,0,0.385-0.023,0.563-0.068c0.178-0.045,0.329-0.113,0.452-0.204L48.377,70.72z M43.024,67.44
		c-0.294,0-0.563,0.05-0.808,0.148c-0.246,0.099-0.451,0.239-0.616,0.42v-0.504h-1.192v4.304h1.248V69.68
		c0-0.384,0.093-0.673,0.28-0.868c0.186-0.194,0.437-0.292,0.752-0.292c0.282,0,0.498,0.084,0.648,0.252
		c0.149,0.168,0.224,0.423,0.224,0.765v2.271h1.248v-2.464c0-0.629-0.164-1.104-0.492-1.424C43.989,67.6,43.558,67.44,43.024,67.44
		 M37.345,68.384c0.277,0,0.512,0.081,0.704,0.244c0.192,0.163,0.309,0.38,0.352,0.651h-2.12c0.042-0.276,0.16-0.495,0.352-0.655
		C36.825,68.464,37.062,68.384,37.345,68.384 M39.577,69.672c0-0.448-0.098-0.841-0.292-1.18c-0.195-0.34-0.463-0.6-0.804-0.78
		c-0.342-0.181-0.723-0.272-1.144-0.272c-0.432,0-0.823,0.096-1.172,0.284c-0.35,0.189-0.624,0.453-0.824,0.792
		c-0.2,0.339-0.3,0.719-0.3,1.141c0,0.427,0.101,0.808,0.304,1.144c0.202,0.336,0.49,0.599,0.864,0.788
		c0.373,0.188,0.802,0.284,1.288,0.284c0.778,0,1.37-0.232,1.776-0.696l-0.664-0.72c-0.15,0.144-0.311,0.249-0.484,0.315
		c-0.174,0.067-0.372,0.101-0.596,0.101c-0.326,0-0.598-0.077-0.816-0.232c-0.219-0.155-0.358-0.365-0.416-0.632h3.256
		C39.569,69.8,39.577,69.688,39.577,69.672 M32.561,71.873c0.421,0,0.785-0.058,1.092-0.172c0.307-0.115,0.54-0.276,0.7-0.484
		s0.24-0.445,0.24-0.712c0-0.315-0.083-0.561-0.248-0.736s-0.36-0.297-0.584-0.364c-0.224-0.066-0.512-0.129-0.864-0.188
		c-0.315-0.048-0.544-0.099-0.688-0.152c-0.144-0.053-0.216-0.146-0.216-0.279c0-0.117,0.067-0.214,0.2-0.288
		c0.133-0.075,0.333-0.112,0.6-0.112c0.448,0,0.861,0.107,1.24,0.32l0.416-0.889c-0.197-0.116-0.447-0.209-0.748-0.275
		c-0.301-0.067-0.604-0.101-0.908-0.101c-0.411,0-0.767,0.06-1.068,0.177c-0.301,0.116-0.531,0.28-0.688,0.491
		s-0.236,0.452-0.236,0.725c0,0.325,0.084,0.576,0.252,0.752s0.367,0.299,0.596,0.368c0.229,0.068,0.52,0.131,0.872,0.184
		c0.299,0.037,0.52,0.083,0.664,0.136c0.144,0.054,0.216,0.142,0.216,0.265c0,0.261-0.264,0.392-0.792,0.392
		c-0.261,0-0.528-0.039-0.8-0.116s-0.504-0.177-0.696-0.3l-0.416,0.896c0.203,0.133,0.475,0.243,0.816,0.332
		C31.854,71.829,32.204,71.873,32.561,71.873 M28.849,66.913c0.16,0,0.293-0.053,0.4-0.156c0.107-0.104,0.16-0.236,0.16-0.396
		c0-0.159-0.053-0.292-0.16-0.396c-0.107-0.104-0.24-0.156-0.4-0.156s-0.292,0.052-0.396,0.156
		c-0.104,0.104-0.156,0.236-0.156,0.396c0,0.16,0.052,0.292,0.156,0.396C28.557,66.86,28.688,66.913,28.849,66.913 M27.232,66.913
		c0.16,0,0.292-0.053,0.396-0.156c0.104-0.104,0.156-0.236,0.156-0.396c0-0.159-0.052-0.292-0.156-0.396
		c-0.104-0.104-0.236-0.156-0.396-0.156c-0.16,0-0.293,0.052-0.4,0.156c-0.107,0.104-0.16,0.236-0.16,0.396
		c0,0.16,0.053,0.292,0.16,0.396C26.939,66.86,27.073,66.913,27.232,66.913 M27.816,71.033c-0.219,0-0.391-0.048-0.516-0.141
		s-0.188-0.22-0.188-0.38c0-0.336,0.256-0.504,0.768-0.504h0.856v0.44c-0.069,0.191-0.187,0.337-0.352,0.436
		S28.03,71.033,27.816,71.033 M27.913,67.44c-0.347,0-0.684,0.045-1.012,0.137c-0.328,0.091-0.609,0.219-0.844,0.384l0.448,0.872
		c0.155-0.123,0.343-0.221,0.564-0.292c0.221-0.072,0.447-0.108,0.676-0.108c0.331,0,0.579,0.073,0.744,0.22
		c0.165,0.147,0.248,0.356,0.248,0.628h-0.992c-0.629,0-1.095,0.115-1.396,0.345c-0.301,0.229-0.452,0.544-0.452,0.943
		c0,0.251,0.064,0.476,0.192,0.673c0.128,0.196,0.313,0.352,0.556,0.464c0.243,0.111,0.529,0.168,0.86,0.168
		c0.64,0,1.077-0.2,1.312-0.601v0.536h1.168v-2.456c0-0.64-0.179-1.119-0.536-1.436C29.092,67.599,28.58,67.44,27.913,67.44
		 M23.977,68.072v-0.567h-1.192v4.304h1.248v-2.032c0-0.399,0.101-0.699,0.304-0.899c0.203-0.2,0.483-0.3,0.84-0.3
		c0.048,0,0.141,0.005,0.28,0.016V67.44c-0.331,0-0.623,0.054-0.876,0.16C24.328,67.708,24.125,67.865,23.977,68.072 M19.593,70.848
		c-0.32,0-0.583-0.107-0.788-0.324c-0.205-0.216-0.308-0.505-0.308-0.867c0-0.363,0.103-0.652,0.308-0.868
		c0.205-0.217,0.468-0.324,0.788-0.324c0.32,0,0.583,0.107,0.788,0.324c0.205,0.216,0.308,0.505,0.308,0.868
		c0,0.362-0.103,0.651-0.308,0.867C20.176,70.741,19.913,70.848,19.593,70.848 M19.809,67.44c-0.592,0-1.043,0.188-1.352,0.561
		v-0.496h-1.192v5.855h1.248v-2.008c0.315,0.348,0.747,0.521,1.296,0.521c0.4,0,0.764-0.093,1.092-0.276
		c0.328-0.184,0.585-0.443,0.772-0.776c0.187-0.333,0.28-0.721,0.28-1.163c0-0.443-0.093-0.831-0.28-1.164
		c-0.187-0.333-0.444-0.593-0.772-0.776C20.573,67.533,20.208,67.44,19.809,67.44"/>
	<path clip-path="url(#SVGID_8_)" fill="#231F20" d="M69.66,61.329c-0.304,0-0.547-0.064-0.728-0.192
		c-0.183-0.128-0.272-0.296-0.272-0.504c0-0.176,0.053-0.333,0.16-0.472c0.106-0.14,0.285-0.28,0.536-0.425L70.709,61
		C70.398,61.219,70.05,61.329,69.66,61.329 M69.836,57.384c0.177,0,0.312,0.043,0.408,0.128c0.097,0.085,0.145,0.197,0.145,0.336
		c0,0.133-0.055,0.257-0.16,0.372c-0.107,0.115-0.296,0.244-0.568,0.388c-0.17-0.165-0.285-0.297-0.344-0.396
		c-0.059-0.1-0.088-0.204-0.088-0.316c0-0.148,0.055-0.271,0.164-0.368C69.502,57.432,69.649,57.384,69.836,57.384 M72.797,61.512
		l-0.656-0.608c0.234-0.352,0.404-0.775,0.512-1.271l-1-0.312c-0.064,0.325-0.158,0.616-0.279,0.872l-1.024-0.951
		c0.384-0.208,0.662-0.425,0.836-0.648c0.173-0.224,0.261-0.48,0.261-0.768c0-0.396-0.147-0.708-0.441-0.94
		c-0.293-0.232-0.682-0.348-1.168-0.348c-0.346,0-0.651,0.057-0.916,0.172c-0.264,0.115-0.467,0.275-0.611,0.483
		s-0.216,0.448-0.216,0.721c0,0.203,0.045,0.398,0.136,0.588c0.09,0.188,0.237,0.388,0.439,0.596
		c-0.432,0.24-0.745,0.492-0.939,0.756c-0.195,0.265-0.292,0.569-0.292,0.916c0,0.293,0.093,0.558,0.276,0.792
		c0.184,0.235,0.438,0.417,0.764,0.548c0.325,0.132,0.689,0.196,1.096,0.196c0.715,0,1.338-0.208,1.873-0.624l0.672,0.624
		L72.797,61.512z M62.549,57.84c-0.295,0-0.562,0.049-0.809,0.147c-0.246,0.1-0.451,0.239-0.615,0.421v-0.505h-1.192v4.305h1.248
		v-2.128c0-0.385,0.093-0.673,0.28-0.868c0.186-0.195,0.437-0.292,0.752-0.292c0.281,0,0.498,0.084,0.648,0.252
		c0.148,0.168,0.223,0.423,0.223,0.764v2.272h1.248v-2.464c0-0.629-0.164-1.104-0.491-1.425C63.513,58,63.082,57.84,62.549,57.84
		 M56.869,58.785c0.276,0,0.512,0.081,0.703,0.243c0.192,0.163,0.31,0.381,0.353,0.652h-2.12c0.042-0.277,0.16-0.496,0.352-0.656
		C56.349,58.865,56.586,58.785,56.869,58.785 M59.101,60.072c0-0.447-0.097-0.841-0.292-1.18s-0.463-0.599-0.805-0.78
		c-0.34-0.181-0.723-0.271-1.143-0.271c-0.433,0-0.824,0.095-1.173,0.284c-0.349,0.188-0.624,0.453-0.823,0.792
		c-0.201,0.339-0.301,0.719-0.301,1.14c0,0.427,0.102,0.809,0.305,1.145s0.49,0.599,0.863,0.787
		c0.373,0.189,0.803,0.284,1.288,0.284c0.779,0,1.371-0.231,1.776-0.695l-0.664-0.721c-0.15,0.145-0.311,0.249-0.484,0.316
		c-0.173,0.067-0.372,0.1-0.596,0.1c-0.325,0-0.598-0.077-0.816-0.231c-0.219-0.155-0.357-0.365-0.416-0.632h3.256
		C59.093,60.201,59.101,60.088,59.101,60.072 M52.701,58.472v-0.568h-1.192v4.305h1.248v-2.032c0-0.4,0.101-0.7,0.304-0.9
		c0.202-0.199,0.482-0.3,0.84-0.3c0.049,0,0.141,0.005,0.28,0.017V57.84c-0.331,0-0.623,0.053-0.876,0.16
		C53.051,58.107,52.85,58.264,52.701,58.472 M48.445,58.785c0.276,0,0.512,0.081,0.703,0.243c0.192,0.163,0.309,0.381,0.352,0.652
		h-2.119c0.042-0.277,0.16-0.496,0.352-0.656C47.925,58.865,48.162,58.785,48.445,58.785 M50.677,60.072
		c0-0.447-0.099-0.841-0.292-1.18c-0.195-0.339-0.463-0.599-0.805-0.78c-0.342-0.181-0.723-0.271-1.144-0.271
		c-0.433,0-0.823,0.095-1.172,0.284c-0.351,0.188-0.624,0.453-0.824,0.792s-0.3,0.719-0.3,1.14c0,0.427,0.102,0.809,0.305,1.145
		c0.201,0.336,0.489,0.599,0.863,0.787c0.373,0.189,0.803,0.284,1.288,0.284c0.778,0,1.37-0.231,1.776-0.695l-0.664-0.721
		c-0.15,0.145-0.312,0.249-0.484,0.316c-0.174,0.067-0.372,0.1-0.596,0.1c-0.326,0-0.598-0.077-0.816-0.231
		c-0.219-0.155-0.357-0.365-0.416-0.632h3.256C50.668,60.201,50.677,60.088,50.677,60.072 M44.677,57.304
		c0.229,0,0.416-0.068,0.56-0.204c0.145-0.136,0.217-0.308,0.217-0.516c0-0.192-0.072-0.353-0.217-0.48
		c-0.144-0.128-0.33-0.191-0.56-0.191s-0.416,0.066-0.56,0.199c-0.144,0.134-0.216,0.3-0.216,0.496c0,0.197,0.072,0.363,0.216,0.496
		S44.447,57.304,44.677,57.304 M44.053,62.208h1.248v-4.305h-1.248V62.208z M40.989,61.249l2.192-2.592v-0.753h-3.712v0.961h2.136
		l-2.192,2.592v0.752h3.84v-0.96H40.989z M37.301,57.904v2.129c0,0.384-0.091,0.673-0.272,0.867
		c-0.181,0.195-0.421,0.292-0.72,0.292c-0.581,0-0.872-0.347-0.872-1.04v-2.248h-1.248v2.433c0,0.64,0.165,1.123,0.496,1.448
		c0.331,0.324,0.779,0.487,1.344,0.487c0.267,0,0.515-0.049,0.744-0.147c0.229-0.1,0.427-0.241,0.592-0.429v0.513h1.184v-4.305
		H37.301z M30.741,61.249c-0.32,0-0.584-0.108-0.792-0.324s-0.312-0.505-0.312-0.868s0.104-0.652,0.312-0.868
		s0.472-0.323,0.792-0.323c0.315,0,0.576,0.107,0.784,0.323s0.312,0.505,0.312,0.868s-0.104,0.652-0.312,0.868
		S31.056,61.249,30.741,61.249 M31.812,56.272v2.088c-0.309-0.347-0.739-0.52-1.288-0.52c-0.405,0-0.772,0.091-1.1,0.271
		c-0.328,0.182-0.585,0.44-0.772,0.776s-0.28,0.725-0.28,1.168s0.093,0.832,0.28,1.168s0.444,0.595,0.772,0.776
		c0.328,0.181,0.695,0.271,1.1,0.271c0.587,0,1.035-0.187,1.344-0.56v0.496h1.192v-5.937H31.812z M25.484,61.249
		c-0.32,0-0.584-0.108-0.792-0.324s-0.312-0.505-0.312-0.868s0.104-0.652,0.312-0.868s0.472-0.323,0.792-0.323
		c0.32,0,0.583,0.107,0.788,0.323s0.308,0.505,0.308,0.868s-0.103,0.652-0.308,0.868S25.805,61.249,25.484,61.249 M25.484,62.272
		c0.453,0,0.859-0.095,1.216-0.284c0.357-0.188,0.637-0.451,0.84-0.787s0.304-0.718,0.304-1.145s-0.101-0.808-0.304-1.144
		s-0.483-0.6-0.84-0.788c-0.357-0.189-0.763-0.284-1.216-0.284c-0.453,0-0.86,0.095-1.22,0.284c-0.36,0.188-0.641,0.452-0.844,0.788
		c-0.203,0.336-0.304,0.717-0.304,1.144s0.101,0.809,0.304,1.145c0.203,0.336,0.484,0.599,0.844,0.787
		C24.625,62.177,25.032,62.272,25.484,62.272 M21.252,58.472v-0.568h-1.192v4.305h1.248v-2.032c0-0.4,0.101-0.7,0.304-0.9
		c0.203-0.199,0.483-0.3,0.84-0.3c0.048,0,0.141,0.005,0.28,0.017V57.84c-0.331,0-0.623,0.053-0.876,0.16
		C21.604,58.107,21.401,58.264,21.252,58.472 M16.869,61.249c-0.32,0-0.583-0.108-0.788-0.324s-0.308-0.505-0.308-0.868
		s0.103-0.652,0.308-0.868s0.468-0.323,0.788-0.323s0.583,0.107,0.788,0.323s0.308,0.505,0.308,0.868s-0.103,0.652-0.308,0.868
		S17.188,61.249,16.869,61.249 M17.084,57.84c-0.592,0-1.043,0.187-1.352,0.56v-0.496h-1.192v5.856h1.248v-2.008
		c0.315,0.347,0.747,0.52,1.296,0.52c0.4,0,0.764-0.092,1.092-0.275c0.328-0.185,0.585-0.443,0.772-0.776s0.28-0.721,0.28-1.164
		s-0.093-0.831-0.28-1.164s-0.444-0.592-0.772-0.775C17.849,57.932,17.484,57.84,17.084,57.84"/>
</g>
</svg>
