<?xml version="1.0" encoding="utf-8"?>
<!-- Generator: Adobe Illustrator 16.0.4, SVG Export Plug-In . SVG Version: 6.00 Build 0)  -->
<!DOCTYPE svg PUBLIC "-//W3C//DTD SVG 1.1//EN" "http://www.w3.org/Graphics/SVG/1.1/DTD/svg11.dtd">
<svg version="1.1" id="Ebene_12" xmlns="http://www.w3.org/2000/svg" xmlns:xlink="http://www.w3.org/1999/xlink" x="0px" y="0px"
	 width="85.863px" height="99.098px" viewBox="0 0 85.863 99.098" enable-background="new 0 0 85.863 99.098" xml:space="preserve">
<polygon fill="#231F20" points="42.932,0 0,24.765 0,74.332 40.575,97.756 42.932,99.098 85.863,74.332 85.863,24.765 "/>
<polygon fill="#231F20" points="42.932,4.447 3.854,26.989 3.854,72.107 40.787,93.428 42.932,94.65 82.01,72.107 82.01,26.989 "/>
<g>
	<defs>
		<rect id="SVGID_1_" y="0" width="85.863" height="99.097"/>
	</defs>
	<clipPath id="SVGID_2_">
		<use xlink:href="#SVGID_1_"  overflow="visible"/>
	</clipPath>
	<path clip-path="url(#SVGID_2_)" fill="#FFFFFF" d="M45.721,37.461c-0.291,0.28-0.653,0.421-1.086,0.421
		c-0.434,0-0.795-0.141-1.086-0.421c-0.291-0.279-0.436-0.62-0.436-1.021c0-0.402,0.143-0.737,0.428-1.007
		c0.285-0.27,0.65-0.404,1.094-0.404c0.443,0,0.808,0.135,1.094,0.404c0.285,0.27,0.428,0.604,0.428,1.007
		C46.156,36.841,46.012,37.182,45.721,37.461 M46.156,25.401l-0.594,8.748h-1.855l-0.595-8.748H46.156z M54.559,26.288
		c-2.309-4.976-8.152-5.472-11.758-4.91c-3.478,0.543-5.776,2.641-6.872,4.443c-1.097,1.803-1.343,4.241-1.253,5.049
		c0.066,0.581,0.763,2.388,0.199,2.966c-0.645,0.662-3.105,2.467-2.503,3.151c0.603,0.684,1.347,0.467,1.253,1.067
		c-0.094,0.602-0.657,0.628-0.418,1.314c0.239,0.686,0.647,0.72,0.647,0.72s-0.528,0.696-0.247,1.04
		c0.282,0.346,1.132,0.431,0.979,0.87s-0.966,1.592-0.112,2.708c0.853,1.117,5.072,0.658,5.072,0.658l-0.268,3.999h11.516
		c0-1.954-0.178-3.13,0.008-5.322c0.207-2.466,0.541-2.62,2.088-4.426C54.434,37.81,56.867,31.263,54.559,26.288"/>
	<path clip-path="url(#SVGID_2_)" fill="#FFFFFF" d="M65.168,67.631c-0.295,0-0.563,0.05-0.809,0.148
		c-0.246,0.099-0.451,0.239-0.615,0.42v-0.504h-1.193V72h1.248v-2.128c0-0.384,0.094-0.673,0.281-0.868
		c0.186-0.194,0.437-0.292,0.752-0.292c0.281,0,0.498,0.084,0.647,0.252s0.224,0.423,0.224,0.765V72h1.248v-2.464
		c0-0.629-0.164-1.104-0.492-1.424S65.701,67.631,65.168,67.631 M59.487,68.576c0.277,0,0.513,0.081,0.704,0.244
		s0.309,0.38,0.352,0.651h-2.119c0.043-0.276,0.16-0.495,0.352-0.655S59.205,68.576,59.487,68.576 M61.72,69.864
		c0-0.448-0.097-0.841-0.292-1.18c-0.195-0.34-0.463-0.6-0.805-0.78s-0.723-0.272-1.144-0.272c-0.433,0-0.823,0.096-1.172,0.284
		c-0.349,0.189-0.624,0.453-0.824,0.792s-0.3,0.719-0.3,1.141c0,0.427,0.102,0.808,0.304,1.144c0.203,0.336,0.49,0.599,0.864,0.788
		c0.373,0.188,0.803,0.284,1.288,0.284c0.778,0,1.371-0.232,1.776-0.696l-0.664-0.72c-0.149,0.144-0.312,0.249-0.484,0.315
		c-0.173,0.067-0.372,0.101-0.596,0.101c-0.325,0-0.598-0.077-0.816-0.232s-0.357-0.365-0.416-0.632h3.256
		C61.711,69.992,61.72,69.879,61.72,69.864 M55.319,68.263v-0.567h-1.192V72h1.248v-2.032c0-0.399,0.102-0.699,0.305-0.899
		c0.201-0.2,0.482-0.3,0.84-0.3c0.048,0,0.141,0.005,0.279,0.016v-1.152c-0.33,0-0.623,0.054-0.875,0.16
		C55.67,67.899,55.469,68.056,55.319,68.263 M51.063,68.576c0.276,0,0.513,0.081,0.704,0.244s0.309,0.38,0.352,0.651H50
		c0.041-0.276,0.16-0.495,0.352-0.655S50.78,68.576,51.063,68.576 M53.295,69.864c0-0.448-0.098-0.841-0.291-1.18
		c-0.195-0.34-0.463-0.6-0.805-0.78s-0.723-0.272-1.144-0.272c-0.433,0-0.823,0.096-1.173,0.284
		c-0.35,0.189-0.623,0.453-0.823,0.792s-0.3,0.719-0.3,1.141c0,0.427,0.101,0.808,0.304,1.144c0.202,0.336,0.49,0.599,0.864,0.788
		c0.373,0.188,0.802,0.284,1.287,0.284c0.779,0,1.371-0.232,1.777-0.696l-0.664-0.72c-0.15,0.144-0.312,0.249-0.484,0.315
		c-0.174,0.067-0.372,0.101-0.596,0.101c-0.326,0-0.599-0.077-0.816-0.232c-0.219-0.155-0.357-0.365-0.416-0.632h3.256
		C53.287,69.992,53.295,69.879,53.295,69.864 M47.295,67.095c0.229,0,0.416-0.067,0.561-0.203c0.145-0.137,0.216-0.309,0.216-0.517
		c0-0.191-0.071-0.352-0.216-0.479s-0.331-0.192-0.561-0.192s-0.416,0.067-0.56,0.2S46.52,66.203,46.52,66.4
		c0,0.196,0.072,0.362,0.216,0.496C46.879,67.029,47.065,67.095,47.295,67.095 M46.672,72h1.248v-4.304h-1.248V72z M45.631,70.912
		c-0.139,0.107-0.307,0.16-0.504,0.16c-0.17,0-0.303-0.049-0.396-0.148c-0.094-0.099-0.14-0.238-0.14-0.42v-1.752h1.072v-0.96
		h-1.072v-1.048h-1.249v1.048H42.68v0.96h0.664v1.769c0,0.507,0.14,0.891,0.42,1.151c0.279,0.262,0.676,0.393,1.188,0.393
		c0.197,0,0.385-0.023,0.564-0.068c0.178-0.045,0.329-0.113,0.451-0.204L45.631,70.912z M41.12,72h1.512L40.68,69.52l1.792-1.824
		h-1.488l-1.824,1.728v-3.359h-1.248V72h1.248v-1.096l0.6-0.592L41.12,72z M34.848,68.576c0.277,0,0.512,0.081,0.704,0.244
		c0.192,0.163,0.309,0.38,0.352,0.651h-2.12c0.043-0.276,0.16-0.495,0.352-0.655C34.328,68.656,34.564,68.576,34.848,68.576
		 M37.08,69.864c0-0.448-0.097-0.841-0.292-1.18c-0.195-0.34-0.463-0.6-0.804-0.78c-0.341-0.181-0.723-0.272-1.144-0.272
		c-0.432,0-0.823,0.096-1.172,0.284c-0.349,0.189-0.624,0.453-0.824,0.792c-0.2,0.339-0.3,0.719-0.3,1.141
		c0,0.427,0.101,0.808,0.304,1.144c0.203,0.336,0.491,0.599,0.864,0.788c0.373,0.188,0.803,0.284,1.288,0.284
		c0.779,0,1.371-0.232,1.776-0.696l-0.664-0.72c-0.149,0.144-0.311,0.249-0.484,0.315c-0.173,0.067-0.372,0.101-0.596,0.101
		c-0.325,0-0.597-0.077-0.816-0.232c-0.219-0.155-0.357-0.365-0.416-0.632h3.256C37.071,69.992,37.08,69.879,37.08,69.864
		 M30.456,72h1.248v-5.936h-1.248V72z M28.728,67.608c0-0.416,0.189-0.624,0.568-0.624c0.192,0,0.36,0.051,0.504,0.151l0.328-0.903
		c-0.112-0.075-0.252-0.132-0.42-0.172S29.362,66,29.175,66c-0.528,0-0.937,0.145-1.228,0.433c-0.291,0.287-0.436,0.677-0.436,1.168
		v0.191h-0.664v0.96h0.664V72h1.248v-3.248h1.072v-0.96h-1.104V67.608z M24.295,68.576c0.277,0,0.512,0.081,0.704,0.244
		s0.309,0.38,0.352,0.651h-2.12c0.043-0.276,0.16-0.495,0.352-0.655S24.013,68.576,24.295,68.576 M26.527,69.864
		c0-0.448-0.097-0.841-0.292-1.18c-0.195-0.34-0.463-0.6-0.804-0.78c-0.341-0.181-0.723-0.272-1.144-0.272
		c-0.432,0-0.823,0.096-1.172,0.284c-0.349,0.189-0.624,0.453-0.824,0.792s-0.3,0.719-0.3,1.141c0,0.427,0.101,0.808,0.304,1.144
		s0.491,0.599,0.864,0.788c0.373,0.188,0.803,0.284,1.288,0.284c0.779,0,1.371-0.232,1.776-0.696l-0.664-0.72
		c-0.149,0.144-0.311,0.249-0.484,0.315c-0.173,0.067-0.372,0.101-0.596,0.101c-0.325,0-0.597-0.077-0.816-0.232
		c-0.219-0.155-0.357-0.365-0.416-0.632h3.256C26.52,69.992,26.527,69.879,26.527,69.864 M20.127,68.263v-0.567h-1.192V72h1.248
		v-2.032c0-0.399,0.101-0.699,0.304-0.899c0.203-0.2,0.483-0.3,0.84-0.3c0.048,0,0.141,0.005,0.28,0.016v-1.152
		c-0.331,0-0.623,0.054-0.876,0.16C20.479,67.899,20.276,68.056,20.127,68.263"/>
	<path clip-path="url(#SVGID_2_)" fill="#FFFFFF" d="M67.756,61.52c-0.305,0-0.547-0.064-0.729-0.192s-0.271-0.296-0.271-0.504
		c0-0.176,0.053-0.333,0.16-0.472c0.105-0.14,0.285-0.28,0.535-0.425l1.353,1.265C68.494,61.411,68.145,61.52,67.756,61.52
		 M67.932,57.576c0.176,0,0.312,0.043,0.408,0.128s0.144,0.197,0.144,0.336c0,0.133-0.054,0.257-0.159,0.372
		c-0.107,0.115-0.297,0.244-0.568,0.388c-0.172-0.165-0.286-0.297-0.344-0.396c-0.06-0.1-0.088-0.204-0.088-0.316
		c0-0.148,0.053-0.271,0.164-0.368C67.597,57.624,67.744,57.576,67.932,57.576 M70.892,61.704l-0.656-0.608
		c0.234-0.352,0.405-0.775,0.513-1.271l-1-0.312c-0.064,0.325-0.158,0.616-0.28,0.872l-1.024-0.951
		c0.385-0.208,0.662-0.425,0.836-0.648s0.26-0.48,0.26-0.768c0-0.396-0.146-0.708-0.439-0.94c-0.294-0.232-0.684-0.348-1.168-0.348
		c-0.348,0-0.652,0.057-0.916,0.172s-0.469,0.275-0.611,0.483c-0.145,0.208-0.217,0.448-0.217,0.721
		c0,0.203,0.045,0.398,0.137,0.588c0.09,0.188,0.236,0.388,0.439,0.596c-0.432,0.24-0.746,0.492-0.939,0.756
		c-0.195,0.265-0.293,0.569-0.293,0.916c0,0.293,0.092,0.558,0.276,0.792c0.185,0.235,0.438,0.417,0.765,0.548
		c0.324,0.132,0.689,0.196,1.096,0.196c0.714,0,1.338-0.208,1.871-0.624l0.672,0.624L70.892,61.704z M60.644,58.032
		c-0.294,0-0.563,0.049-0.808,0.147c-0.246,0.1-0.451,0.239-0.616,0.421v-0.505h-1.192V62.4h1.248v-2.128
		c0-0.385,0.094-0.673,0.28-0.868s0.437-0.292,0.752-0.292c0.282,0,0.498,0.084,0.647,0.252s0.225,0.423,0.225,0.764V62.4h1.248
		v-2.464c0-0.629-0.164-1.104-0.492-1.425C61.607,58.192,61.177,58.032,60.644,58.032 M54.963,58.976
		c0.277,0,0.513,0.081,0.705,0.243c0.191,0.163,0.309,0.381,0.352,0.652h-2.12c0.042-0.277,0.16-0.496,0.353-0.656
		C54.443,59.056,54.681,58.976,54.963,58.976 M57.195,60.263c0-0.447-0.098-0.841-0.291-1.18c-0.195-0.339-0.464-0.599-0.805-0.78
		c-0.342-0.181-0.723-0.271-1.145-0.271c-0.432,0-0.822,0.095-1.172,0.284c-0.35,0.188-0.623,0.453-0.824,0.792
		c-0.199,0.339-0.299,0.719-0.299,1.14c0,0.427,0.101,0.809,0.303,1.145c0.203,0.336,0.49,0.599,0.865,0.787
		c0.373,0.189,0.801,0.284,1.287,0.284c0.778,0,1.37-0.231,1.776-0.695l-0.664-0.721c-0.149,0.145-0.312,0.249-0.483,0.316
		c-0.174,0.067-0.373,0.1-0.597,0.1c-0.325,0-0.598-0.077-0.815-0.231c-0.219-0.155-0.358-0.365-0.416-0.632h3.256
		C57.188,60.392,57.195,60.28,57.195,60.263 M50.795,58.664v-0.568h-1.191V62.4h1.248v-2.032c0-0.4,0.102-0.7,0.305-0.9
		c0.201-0.199,0.481-0.3,0.84-0.3c0.047,0,0.141,0.005,0.279,0.017v-1.152c-0.33,0-0.623,0.053-0.876,0.16
		C51.146,58.298,50.945,58.456,50.795,58.664 M46.539,58.976c0.277,0,0.513,0.081,0.705,0.243c0.191,0.163,0.309,0.381,0.352,0.652
		h-2.12c0.042-0.277,0.16-0.496,0.353-0.656C46.02,59.056,46.257,58.976,46.539,58.976 M48.771,60.263
		c0-0.447-0.098-0.841-0.292-1.18s-0.463-0.599-0.804-0.78c-0.342-0.181-0.723-0.271-1.145-0.271c-0.432,0-0.822,0.095-1.172,0.284
		c-0.35,0.188-0.623,0.453-0.824,0.792c-0.199,0.339-0.299,0.719-0.299,1.14c0,0.427,0.1,0.809,0.303,1.145s0.49,0.599,0.865,0.787
		c0.372,0.189,0.801,0.284,1.287,0.284c0.778,0,1.37-0.231,1.776-0.695l-0.664-0.721c-0.149,0.145-0.312,0.249-0.483,0.316
		c-0.175,0.067-0.373,0.1-0.597,0.1c-0.326,0-0.599-0.077-0.815-0.231c-0.22-0.155-0.358-0.365-0.416-0.632h3.256
		C48.764,60.392,48.771,60.28,48.771,60.263 M42.771,57.496c0.229,0,0.416-0.068,0.56-0.204s0.216-0.308,0.216-0.516
		c0-0.192-0.072-0.353-0.216-0.48s-0.331-0.191-0.56-0.191c-0.23,0-0.416,0.066-0.56,0.199c-0.144,0.134-0.216,0.3-0.216,0.496
		c0,0.197,0.072,0.363,0.216,0.496S42.542,57.496,42.771,57.496 M42.147,62.4h1.248v-4.305h-1.248V62.4z M39.348,62.463
		c0.421,0,0.785-0.057,1.092-0.172c0.306-0.115,0.54-0.275,0.7-0.483s0.24-0.445,0.24-0.713c0-0.314-0.083-0.56-0.248-0.735
		c-0.166-0.176-0.36-0.297-0.584-0.364c-0.224-0.067-0.512-0.129-0.864-0.188c-0.315-0.049-0.544-0.1-0.688-0.152
		s-0.216-0.147-0.216-0.28c0-0.117,0.066-0.213,0.2-0.288c0.133-0.075,0.333-0.111,0.6-0.111c0.448,0,0.861,0.106,1.24,0.319
		l0.416-0.888c-0.198-0.117-0.447-0.209-0.748-0.276c-0.302-0.066-0.604-0.1-0.908-0.1c-0.411,0-0.767,0.059-1.068,0.176
		c-0.302,0.117-0.531,0.281-0.688,0.492c-0.158,0.211-0.236,0.452-0.236,0.724c0,0.325,0.084,0.576,0.252,0.752
		c0.168,0.177,0.366,0.3,0.596,0.368c0.229,0.069,0.52,0.131,0.872,0.185c0.298,0.037,0.52,0.083,0.664,0.136
		s0.216,0.141,0.216,0.264c0,0.261-0.264,0.393-0.792,0.393c-0.262,0-0.528-0.039-0.8-0.116s-0.504-0.177-0.696-0.3L37.483,62
		c0.202,0.133,0.474,0.244,0.816,0.332C38.641,62.419,38.99,62.463,39.348,62.463 M36.251,58.095l-1.216,2.921l-1.208-2.921H32.54
		l1.864,4.337l-0.016,0.039c-0.086,0.192-0.182,0.329-0.288,0.412c-0.107,0.083-0.246,0.124-0.416,0.124
		c-0.123,0-0.247-0.023-0.372-0.071c-0.126-0.049-0.236-0.115-0.332-0.2l-0.456,0.888c0.138,0.123,0.317,0.219,0.536,0.288
		c0.218,0.069,0.44,0.104,0.664,0.104c0.41,0,0.761-0.102,1.052-0.305c0.29-0.203,0.534-0.552,0.732-1.048l1.944-4.568H36.251z
		 M30.771,62.4h1.248v-5.937h-1.248V62.4z M27.476,61.624c-0.219,0-0.391-0.047-0.516-0.14c-0.126-0.093-0.188-0.221-0.188-0.38
		c0-0.336,0.256-0.504,0.768-0.504h0.856v0.439c-0.07,0.192-0.187,0.337-0.352,0.437C27.877,61.575,27.688,61.624,27.476,61.624
		 M27.572,58.032c-0.347,0-0.684,0.045-1.012,0.136s-0.61,0.219-0.844,0.384l0.448,0.872c0.154-0.123,0.342-0.22,0.564-0.292
		c0.221-0.071,0.446-0.107,0.676-0.107c0.33,0,0.578,0.072,0.744,0.22c0.165,0.147,0.248,0.356,0.248,0.628h-0.992
		c-0.63,0-1.095,0.115-1.396,0.344c-0.302,0.229-0.452,0.544-0.452,0.944c0,0.251,0.064,0.475,0.192,0.672s0.313,0.353,0.556,0.464
		c0.242,0.112,0.529,0.168,0.86,0.168c0.64,0,1.077-0.2,1.312-0.6V62.4h1.168v-2.456c0-0.641-0.179-1.119-0.536-1.437
		C28.75,58.191,28.238,58.032,27.572,58.032 M22.924,58.032c-0.293,0-0.563,0.049-0.808,0.147c-0.245,0.1-0.451,0.239-0.616,0.421
		v-0.505h-1.192V62.4h1.248v-2.128c0-0.385,0.093-0.673,0.28-0.868s0.437-0.292,0.752-0.292c0.283,0,0.499,0.084,0.648,0.252
		c0.149,0.168,0.224,0.423,0.224,0.764V62.4h1.248v-2.464c0-0.629-0.164-1.104-0.492-1.425
		C23.888,58.192,23.457,58.032,22.924,58.032 M17.012,61.624c-0.219,0-0.391-0.047-0.516-0.14s-0.188-0.221-0.188-0.38
		c0-0.336,0.256-0.504,0.768-0.504h0.856v0.439c-0.069,0.192-0.187,0.337-0.352,0.437C17.415,61.575,17.225,61.624,17.012,61.624
		 M17.107,58.032c-0.347,0-0.684,0.045-1.012,0.136s-0.609,0.219-0.844,0.384l0.448,0.872c0.155-0.123,0.343-0.22,0.564-0.292
		c0.221-0.071,0.447-0.107,0.676-0.107c0.331,0,0.579,0.072,0.744,0.22s0.248,0.356,0.248,0.628h-0.992
		c-0.629,0-1.095,0.115-1.396,0.344c-0.301,0.229-0.452,0.544-0.452,0.944c0,0.251,0.064,0.475,0.192,0.672s0.313,0.353,0.556,0.464
		c0.243,0.112,0.529,0.168,0.86,0.168c0.64,0,1.077-0.2,1.312-0.6V62.4h1.168v-2.456c0-0.641-0.179-1.119-0.536-1.437
		C18.287,58.191,17.774,58.032,17.107,58.032"/>
</g>
</svg>
