<?xml version="1.0" encoding="utf-8"?>
<!-- Generator: Adobe Illustrator 16.0.4, SVG Export Plug-In . SVG Version: 6.00 Build 0)  -->
<!DOCTYPE svg PUBLIC "-//W3C//DTD SVG 1.1//EN" "http://www.w3.org/Graphics/SVG/1.1/DTD/svg11.dtd">
<svg version="1.1" id="Ebene_2" xmlns="http://www.w3.org/2000/svg" xmlns:xlink="http://www.w3.org/1999/xlink" x="0px" y="0px"
	 width="85.863px" height="99.098px" viewBox="0 0 85.863 99.098" enable-background="new 0 0 85.863 99.098" xml:space="preserve">
<g>
	<polygon fill="#231F20" points="43.268,0 0.336,24.766 0.336,74.332 40.91,97.756 43.268,99.098 86.199,74.332 86.199,24.766 	"/>
	<g>
		<defs>
			<rect id="SVGID_1_" x="0.336" y="-1.079" width="85.863" height="99.097"/>
		</defs>
		<clipPath id="SVGID_2_">
			<use xlink:href="#SVGID_1_"  overflow="visible"/>
		</clipPath>
		<path clip-path="url(#SVGID_2_)" fill="#FFFFFF" d="M55.65,33.754c0,0.869-0.396,1.646-1.014,2.163V23.195
			c0-1.82-1.471-3.297-3.285-3.297H39.228l-1.3-1.604h-6.03v-1.687h7.295l1.299,1.605h12.352c1.547,0,2.807,1.263,2.807,2.814
			V33.754z M52.844,17.25H40.949l-1.299-1.605h-8.712v2.649h-1.013v4.495h0.028c-0.017,0.133-0.028,0.269-0.028,0.406v12.727
			c0,1.819,1.471,3.296,3.286,3.296h16.207l-1.626-1.687l-0.582-0.604c-1.755,0.818-3.796,0.661-5.394-0.359
			c-0.365-0.232-0.706-0.51-1.016-0.831c-1.045-1.083-1.606-2.51-1.581-4.017c0.024-1.507,0.633-2.914,1.712-3.962
			c2.23-2.163,5.795-2.104,7.953,0.132c1.667,1.73,2.045,4.341,0.974,6.467l2.131,2.211l0.926,0.959l0.727,0.755
			c0.314-0.306,0.568-0.673,0.74-1.083c1.312-0.592,2.229-1.911,2.229-3.445V21.027C56.609,18.944,54.921,17.25,52.844,17.25"/>
		<path clip-path="url(#SVGID_2_)" fill="#FFFFFF" d="M46.941,33.991c-1.207,1.173-3.134,1.141-4.303-0.07
			c-1.168-1.212-1.136-3.146,0.072-4.317c1.207-1.172,3.133-1.14,4.302,0.072C48.181,30.887,48.148,32.819,46.941,33.991
			 M51.582,37.531l-0.93-0.963l-1.986-2.06l0.187-0.316c1.066-1.808,0.796-4.124-0.659-5.632c-1.787-1.854-4.747-1.904-6.595-0.109
			c-0.895,0.868-1.4,2.035-1.421,3.285c-0.02,1.25,0.446,2.434,1.312,3.331c1.454,1.51,3.752,1.857,5.588,0.849l0.32-0.178
			l0.801,0.83l0.929,0.963l1.626,1.687l1.553,1.549l1.268-1.229l-0.721-0.687L51.582,37.531z"/>
		<path clip-path="url(#SVGID_2_)" fill="#FFFFFF" d="M68.823,66.352c-0.294,0-0.563,0.049-0.808,0.148
			c-0.246,0.099-0.451,0.238-0.616,0.42v-0.504h-1.192v4.304h1.248v-2.128c0-0.384,0.094-0.673,0.28-0.868s0.437-0.292,0.752-0.292
			c0.282,0,0.498,0.084,0.647,0.252c0.15,0.168,0.225,0.423,0.225,0.764v2.272h1.248v-2.464c0-0.629-0.164-1.104-0.492-1.424
			C69.787,66.512,69.356,66.352,68.823,66.352 M63.144,67.296c0.276,0,0.512,0.081,0.704,0.244c0.191,0.163,0.309,0.38,0.352,0.651
			H62.08c0.041-0.276,0.159-0.496,0.352-0.655C62.623,67.376,62.86,67.296,63.144,67.296 M65.375,68.584
			c0-0.448-0.098-0.841-0.291-1.181c-0.195-0.339-0.463-0.599-0.805-0.779c-0.342-0.182-0.723-0.272-1.145-0.272
			c-0.432,0-0.822,0.095-1.172,0.284c-0.35,0.188-0.623,0.453-0.823,0.792s-0.3,0.719-0.3,1.14c0,0.428,0.101,0.809,0.304,1.145
			c0.202,0.336,0.489,0.599,0.864,0.788c0.373,0.188,0.802,0.283,1.287,0.283c0.778,0,1.371-0.231,1.776-0.695l-0.664-0.72
			c-0.149,0.144-0.311,0.248-0.483,0.315c-0.174,0.067-0.373,0.1-0.596,0.1c-0.326,0-0.599-0.076-0.816-0.231
			c-0.219-0.155-0.358-0.365-0.416-0.632h3.256C65.367,68.712,65.375,68.6,65.375,68.584 M58.976,66.983v-0.567h-1.192v4.304h1.248
			v-2.032c0-0.399,0.102-0.7,0.305-0.899c0.201-0.2,0.481-0.301,0.84-0.301c0.048,0,0.141,0.006,0.279,0.017v-1.152
			c-0.33,0-0.623,0.053-0.875,0.16C59.325,66.619,59.125,66.775,58.976,66.983 M54.871,66.352c-0.277,0-0.533,0.044-0.768,0.132
			s-0.436,0.215-0.6,0.38v-2.08h-1.248v5.937h1.248v-2.128c0-0.384,0.093-0.673,0.279-0.868c0.186-0.195,0.438-0.292,0.752-0.292
			c0.282,0,0.498,0.084,0.648,0.252c0.148,0.168,0.224,0.423,0.224,0.764v2.272h1.248v-2.464c0-0.629-0.164-1.104-0.491-1.424
			C55.836,66.512,55.404,66.352,54.871,66.352 M48.959,69.943c-0.219,0-0.391-0.047-0.516-0.14c-0.126-0.093-0.188-0.22-0.188-0.38
			c0-0.336,0.256-0.504,0.768-0.504h0.855v0.439c-0.069,0.192-0.187,0.337-0.352,0.437C49.361,69.895,49.172,69.943,48.959,69.943
			 M49.056,66.352c-0.347,0-0.685,0.045-1.013,0.136c-0.328,0.092-0.609,0.22-0.844,0.385l0.448,0.872
			c0.153-0.123,0.342-0.221,0.563-0.292c0.222-0.072,0.446-0.108,0.676-0.108c0.33,0,0.578,0.073,0.744,0.22
			c0.166,0.147,0.248,0.356,0.248,0.628h-0.992c-0.629,0-1.094,0.115-1.396,0.345c-0.302,0.229-0.452,0.544-0.452,0.943
			c0,0.251,0.064,0.476,0.192,0.672c0.128,0.197,0.313,0.353,0.556,0.464c0.242,0.112,0.529,0.168,0.86,0.168
			c0.64,0,1.077-0.199,1.312-0.6v0.536h1.168v-2.456c0-0.64-0.179-1.119-0.535-1.436C50.233,66.511,49.722,66.352,49.056,66.352
			 M45.775,66.416l-1.048,2.912l-1.024-2.912h-1.056l-1.056,2.912l-1.016-2.912h-1.176l1.552,4.304h1.2l1-2.672l0.968,2.672h1.2
			l1.56-4.304H45.775z M36.983,67.296c0.277,0,0.512,0.081,0.704,0.244s0.309,0.38,0.352,0.651h-2.12
			c0.042-0.276,0.16-0.496,0.352-0.655C36.463,67.376,36.7,67.296,36.983,67.296 M39.215,68.584c0-0.448-0.098-0.841-0.292-1.181
			c-0.195-0.339-0.463-0.599-0.804-0.779c-0.342-0.182-0.723-0.272-1.144-0.272c-0.432,0-0.823,0.095-1.172,0.284
			c-0.35,0.188-0.624,0.453-0.824,0.792c-0.2,0.339-0.3,0.719-0.3,1.14c0,0.428,0.101,0.809,0.304,1.145
			c0.202,0.336,0.49,0.599,0.864,0.788c0.373,0.188,0.802,0.283,1.288,0.283c0.778,0,1.37-0.231,1.776-0.695l-0.664-0.72
			c-0.15,0.144-0.311,0.248-0.484,0.315c-0.174,0.067-0.372,0.1-0.596,0.1c-0.326,0-0.598-0.076-0.816-0.231
			c-0.219-0.155-0.358-0.365-0.416-0.632h3.256C39.208,68.712,39.215,68.6,39.215,68.584 M31.808,69.76
			c-0.32,0-0.583-0.108-0.788-0.324c-0.206-0.216-0.308-0.505-0.308-0.868c0-0.362,0.102-0.651,0.308-0.868
			c0.205-0.216,0.468-0.323,0.788-0.323c0.32,0,0.582,0.107,0.788,0.323c0.205,0.217,0.308,0.506,0.308,0.868
			c0,0.363-0.103,0.652-0.308,0.868C32.39,69.651,32.127,69.76,31.808,69.76 M32.023,66.352c-0.55,0-0.982,0.173-1.296,0.521v-2.089
			h-1.248v5.937h1.192v-0.496c0.309,0.373,0.76,0.56,1.352,0.56c0.4,0,0.764-0.092,1.092-0.275c0.328-0.185,0.585-0.443,0.772-0.776
			c0.186-0.333,0.28-0.721,0.28-1.164c0-0.442-0.094-0.831-0.28-1.164c-0.187-0.333-0.444-0.592-0.772-0.775
			C32.788,66.443,32.423,66.352,32.023,66.352 M27.751,66.328c0-0.416,0.189-0.624,0.568-0.624c0.192,0,0.36,0.051,0.504,0.151
			l0.328-0.903c-0.112-0.075-0.252-0.133-0.42-0.173s-0.345-0.06-0.532-0.06c-0.528,0-0.937,0.144-1.228,0.432
			c-0.291,0.288-0.436,0.678-0.436,1.168v0.192h-0.664v0.96h0.664v3.248h1.248v-3.248h1.072v-0.96h-1.104V66.328z M23.976,66.416
			v2.128c0,0.384-0.091,0.673-0.272,0.868c-0.181,0.194-0.421,0.292-0.72,0.292c-0.581,0-0.872-0.348-0.872-1.04v-2.248h-1.248
			v2.432c0,0.64,0.165,1.123,0.496,1.448s0.779,0.487,1.344,0.487c0.267,0,0.515-0.049,0.744-0.147s0.427-0.241,0.592-0.428v0.512
			h1.184v-4.304H23.976z M17.591,69.943c-0.219,0-0.391-0.047-0.516-0.14s-0.188-0.22-0.188-0.38c0-0.336,0.256-0.504,0.768-0.504
			h0.856v0.439c-0.069,0.192-0.187,0.337-0.352,0.437C17.995,69.895,17.804,69.943,17.591,69.943 M17.688,66.352
			c-0.347,0-0.684,0.045-1.012,0.136c-0.328,0.092-0.609,0.22-0.844,0.385l0.448,0.872c0.155-0.123,0.343-0.221,0.564-0.292
			c0.221-0.072,0.447-0.108,0.676-0.108c0.331,0,0.579,0.073,0.744,0.22c0.165,0.147,0.248,0.356,0.248,0.628H17.52
			c-0.629,0-1.095,0.115-1.396,0.345c-0.301,0.229-0.452,0.544-0.452,0.943c0,0.251,0.064,0.476,0.192,0.672
			c0.128,0.197,0.313,0.353,0.556,0.464c0.243,0.112,0.529,0.168,0.86,0.168c0.64,0,1.077-0.199,1.312-0.6v0.536h1.168v-2.456
			c0-0.64-0.179-1.119-0.536-1.436C18.866,66.511,18.354,66.352,17.688,66.352"/>
		<path clip-path="url(#SVGID_2_)" fill="#FFFFFF" d="M68.176,60.239c-0.305,0-0.547-0.063-0.729-0.191s-0.271-0.296-0.271-0.504
			c0-0.176,0.053-0.333,0.16-0.473c0.105-0.139,0.285-0.279,0.535-0.424l1.353,1.265C68.914,60.131,68.564,60.239,68.176,60.239
			 M68.352,56.296c0.176,0,0.312,0.043,0.408,0.128s0.144,0.197,0.144,0.336c0,0.133-0.054,0.257-0.159,0.372
			c-0.107,0.115-0.297,0.244-0.568,0.388c-0.172-0.165-0.286-0.297-0.344-0.396c-0.06-0.1-0.088-0.204-0.088-0.316
			c0-0.149,0.053-0.271,0.164-0.368C68.017,56.344,68.164,56.296,68.352,56.296 M71.312,60.424l-0.655-0.608
			c0.233-0.352,0.404-0.775,0.512-1.271l-1-0.312c-0.064,0.325-0.158,0.616-0.28,0.872l-1.024-0.952
			c0.385-0.208,0.662-0.424,0.836-0.647c0.174-0.225,0.26-0.48,0.26-0.769c0-0.395-0.146-0.708-0.439-0.939
			c-0.294-0.232-0.684-0.349-1.168-0.349c-0.348,0-0.652,0.058-0.916,0.173c-0.264,0.114-0.468,0.275-0.611,0.483
			c-0.145,0.208-0.217,0.448-0.217,0.72c0,0.203,0.045,0.399,0.137,0.589c0.09,0.188,0.236,0.388,0.439,0.596
			c-0.432,0.24-0.746,0.492-0.939,0.756c-0.195,0.264-0.293,0.569-0.293,0.916c0,0.293,0.092,0.557,0.276,0.792
			s0.438,0.417,0.765,0.548c0.324,0.131,0.689,0.196,1.096,0.196c0.714,0,1.338-0.208,1.871-0.624l0.672,0.624L71.312,60.424z
			 M61.063,56.752c-0.294,0-0.563,0.049-0.808,0.147c-0.246,0.1-0.451,0.239-0.616,0.42v-0.504h-1.192v4.305h1.248v-2.129
			c0-0.384,0.094-0.673,0.28-0.867c0.187-0.195,0.437-0.292,0.752-0.292c0.282,0,0.498,0.084,0.647,0.252s0.225,0.423,0.225,0.764
			v2.272h1.248v-2.465c0-0.629-0.164-1.104-0.492-1.424C62.027,56.912,61.597,56.752,61.063,56.752 M55.383,57.695
			c0.277,0,0.513,0.081,0.705,0.244c0.191,0.163,0.309,0.38,0.352,0.652h-2.12c0.042-0.277,0.16-0.496,0.353-0.656
			C54.863,57.775,55.101,57.695,55.383,57.695 M57.615,58.983c0-0.447-0.098-0.841-0.291-1.18c-0.195-0.339-0.464-0.599-0.805-0.78
			c-0.342-0.181-0.723-0.271-1.145-0.271c-0.432,0-0.822,0.095-1.172,0.284c-0.35,0.188-0.623,0.452-0.824,0.792
			c-0.199,0.339-0.299,0.719-0.299,1.14c0,0.427,0.101,0.808,0.303,1.144c0.203,0.336,0.49,0.6,0.865,0.788
			c0.373,0.189,0.801,0.284,1.287,0.284c0.778,0,1.371-0.231,1.776-0.696l-0.664-0.72c-0.149,0.145-0.312,0.249-0.483,0.316
			c-0.174,0.066-0.373,0.1-0.597,0.1c-0.325,0-0.598-0.077-0.815-0.231c-0.219-0.155-0.358-0.365-0.416-0.633h3.256
			C57.607,59.111,57.615,59,57.615,58.983 M52.496,60.031c-0.14,0.107-0.308,0.16-0.504,0.16c-0.172,0-0.304-0.049-0.396-0.147
			c-0.094-0.1-0.141-0.239-0.141-0.42v-1.752h1.072v-0.96h-1.072v-1.049h-1.248v1.049h-0.664v0.96h0.664v1.768
			c0,0.507,0.141,0.891,0.42,1.152c0.281,0.261,0.677,0.392,1.188,0.392c0.197,0,0.386-0.022,0.563-0.068
			c0.179-0.045,0.33-0.112,0.453-0.203L52.496,60.031z M48.271,56.216c0.229,0,0.416-0.068,0.561-0.204
			c0.144-0.136,0.215-0.308,0.215-0.516c0-0.192-0.071-0.353-0.215-0.48c-0.145-0.128-0.332-0.192-0.561-0.192
			c-0.23,0-0.416,0.067-0.561,0.2c-0.144,0.133-0.215,0.299-0.215,0.496s0.071,0.363,0.215,0.496
			C47.855,56.148,48.041,56.216,48.271,56.216 M47.647,61.12h1.248v-4.305h-1.248V61.12z M44.584,57.695
			c0.276,0,0.512,0.081,0.703,0.244c0.192,0.163,0.31,0.38,0.353,0.652h-2.12c0.042-0.277,0.16-0.496,0.352-0.656
			S44.301,57.695,44.584,57.695 M46.815,58.983c0-0.447-0.098-0.841-0.292-1.18c-0.195-0.339-0.463-0.599-0.804-0.78
			c-0.343-0.181-0.724-0.271-1.144-0.271c-0.433,0-0.824,0.095-1.173,0.284c-0.35,0.188-0.624,0.452-0.824,0.792
			c-0.2,0.339-0.3,0.719-0.3,1.14c0,0.427,0.101,0.808,0.304,1.144c0.202,0.336,0.49,0.6,0.864,0.788
			c0.373,0.189,0.802,0.284,1.288,0.284c0.778,0,1.37-0.231,1.776-0.696l-0.664-0.72c-0.15,0.145-0.311,0.249-0.484,0.316
			c-0.174,0.066-0.371,0.1-0.596,0.1c-0.326,0-0.598-0.077-0.816-0.231c-0.219-0.155-0.358-0.365-0.416-0.633h3.255
			C46.808,59.111,46.815,59,46.815,58.983 M39.408,60.16c-0.32,0-0.583-0.108-0.788-0.324s-0.308-0.505-0.308-0.868
			s0.103-0.652,0.308-0.868s0.468-0.324,0.788-0.324c0.32,0,0.583,0.108,0.788,0.324c0.205,0.216,0.308,0.505,0.308,0.868
			s-0.103,0.652-0.308,0.868C39.991,60.052,39.728,60.16,39.408,60.16 M39.624,56.752c-0.549,0-0.981,0.173-1.296,0.52v-2.088H37.08
			v5.937h1.192v-0.496c0.309,0.373,0.76,0.56,1.352,0.56c0.4,0,0.764-0.092,1.092-0.276c0.328-0.184,0.585-0.442,0.772-0.775
			c0.187-0.333,0.28-0.721,0.28-1.164s-0.093-0.831-0.28-1.164c-0.187-0.333-0.444-0.592-0.772-0.776
			C40.388,56.844,40.023,56.752,39.624,56.752 M34.855,57.384v-0.568h-1.192v4.305h1.248v-2.032c0-0.4,0.101-0.7,0.304-0.9
			c0.203-0.2,0.483-0.3,0.84-0.3c0.048,0,0.141,0.005,0.28,0.016v-1.151c-0.331,0-0.623,0.053-0.876,0.16
			C35.207,57.019,35.004,57.176,34.855,57.384 M30.368,60.344c-0.219,0-0.391-0.047-0.516-0.14
			c-0.125-0.094-0.188-0.221-0.188-0.381c0-0.336,0.256-0.504,0.768-0.504h0.856v0.44c-0.069,0.192-0.187,0.337-0.352,0.436
			C30.771,60.295,30.581,60.344,30.368,60.344 M30.463,56.752c-0.347,0-0.684,0.045-1.012,0.136
			c-0.328,0.091-0.609,0.219-0.844,0.384l0.448,0.872c0.155-0.123,0.343-0.22,0.564-0.292c0.221-0.072,0.447-0.107,0.676-0.107
			c0.331,0,0.579,0.072,0.744,0.22c0.165,0.146,0.248,0.355,0.248,0.628h-0.992c-0.629,0-1.095,0.115-1.396,0.344
			c-0.301,0.229-0.452,0.544-0.452,0.944c0,0.251,0.064,0.475,0.192,0.672s0.313,0.352,0.556,0.464
			c0.243,0.112,0.529,0.168,0.86,0.168c0.64,0,1.077-0.2,1.312-0.6v0.536h1.168v-2.456c0-0.641-0.179-1.119-0.536-1.437
			C31.643,56.911,31.13,56.752,30.463,56.752 M26.527,57.384v-0.568h-1.192v4.305h1.248v-2.032c0-0.4,0.101-0.7,0.304-0.9
			c0.203-0.2,0.483-0.3,0.84-0.3c0.048,0,0.141,0.005,0.28,0.016v-1.151c-0.331,0-0.623,0.053-0.876,0.16
			C26.878,57.019,26.677,57.176,26.527,57.384 M22.271,57.695c0.277,0,0.512,0.081,0.704,0.244s0.309,0.38,0.352,0.652h-2.12
			c0.043-0.277,0.16-0.496,0.352-0.656S21.989,57.695,22.271,57.695 M24.503,58.983c0-0.447-0.097-0.841-0.292-1.18
			c-0.195-0.339-0.463-0.599-0.804-0.78c-0.341-0.181-0.723-0.271-1.144-0.271c-0.432,0-0.823,0.095-1.172,0.284
			c-0.349,0.188-0.624,0.452-0.824,0.792c-0.2,0.339-0.3,0.719-0.3,1.14c0,0.427,0.101,0.808,0.304,1.144s0.491,0.6,0.864,0.788
			c0.373,0.189,0.803,0.284,1.288,0.284c0.779,0,1.371-0.231,1.776-0.696l-0.664-0.72c-0.149,0.145-0.311,0.249-0.484,0.316
			c-0.173,0.066-0.372,0.1-0.596,0.1c-0.325,0-0.597-0.077-0.816-0.231c-0.219-0.155-0.357-0.365-0.416-0.633h3.256
			C24.496,59.111,24.503,59,24.503,58.983 M18.695,56.815l-1.232,2.929l-1.192-2.929h-1.288l1.808,4.305h1.288l1.816-4.305H18.695z"
			/>
		<path clip-path="url(#SVGID_2_)" fill="#FFFFFF" d="M59,50.031c-0.225,0-0.41,0.071-0.557,0.213
			c-0.146,0.141-0.22,0.326-0.22,0.556c0,0.16,0.038,0.3,0.116,0.42c0.076,0.12,0.182,0.207,0.316,0.26l-0.353,1.272h0.792
			l0.456-1.152c0.09-0.213,0.149-0.373,0.176-0.479c0.026-0.107,0.04-0.214,0.04-0.32c0-0.229-0.072-0.415-0.216-0.556
			C59.408,50.103,59.224,50.031,59,50.031 M55.607,47.151c-0.294,0-0.562,0.049-0.809,0.148c-0.245,0.099-0.45,0.239-0.615,0.42
			v-0.504h-1.191v4.304h1.248v-2.128c0-0.384,0.092-0.673,0.279-0.868c0.186-0.194,0.438-0.292,0.752-0.292
			c0.282,0,0.498,0.084,0.648,0.252c0.148,0.168,0.224,0.423,0.224,0.765v2.271h1.248v-2.464c0-0.629-0.164-1.104-0.492-1.424
			C56.572,47.312,56.141,47.151,55.607,47.151 M49.928,48.096c0.277,0,0.512,0.081,0.703,0.244c0.193,0.163,0.31,0.38,0.353,0.651
			h-2.12c0.043-0.276,0.16-0.495,0.352-0.655C49.408,48.176,49.645,48.096,49.928,48.096 M52.16,49.384
			c0-0.448-0.099-0.841-0.293-1.18c-0.195-0.34-0.463-0.6-0.804-0.78c-0.342-0.181-0.724-0.272-1.144-0.272
			c-0.433,0-0.823,0.096-1.172,0.284c-0.351,0.189-0.625,0.453-0.824,0.792c-0.2,0.339-0.301,0.719-0.301,1.141
			c0,0.427,0.102,0.808,0.305,1.144c0.201,0.336,0.49,0.599,0.863,0.788c0.373,0.188,0.803,0.284,1.289,0.284
			c0.777,0,1.369-0.232,1.775-0.696l-0.664-0.72c-0.15,0.144-0.311,0.249-0.484,0.315c-0.174,0.067-0.371,0.101-0.596,0.101
			c-0.326,0-0.598-0.077-0.816-0.232s-0.357-0.365-0.416-0.632h3.257C52.151,49.512,52.16,49.399,52.16,49.384 M44.983,47.151
			c-0.278,0-0.534,0.044-0.769,0.132c-0.234,0.089-0.434,0.216-0.599,0.381v-2.08h-1.248v5.936h1.248v-2.128
			c0-0.384,0.093-0.673,0.28-0.868c0.187-0.194,0.437-0.292,0.752-0.292c0.282,0,0.498,0.084,0.647,0.252s0.225,0.423,0.225,0.765
			v2.271h1.248v-2.464c0-0.629-0.164-1.104-0.492-1.424S45.517,47.151,44.983,47.151 M39.751,51.584
			c0.453,0,0.849-0.097,1.188-0.288c0.338-0.192,0.585-0.459,0.74-0.8l-0.968-0.528c-0.219,0.395-0.542,0.592-0.968,0.592
			c-0.326,0-0.595-0.106-0.808-0.32c-0.214-0.213-0.32-0.504-0.32-0.871c0-0.368,0.106-0.659,0.32-0.872
			c0.213-0.214,0.482-0.32,0.808-0.32c0.421,0,0.744,0.197,0.968,0.592l0.968-0.52c-0.155-0.353-0.402-0.623-0.74-0.812
			c-0.339-0.188-0.735-0.284-1.188-0.284c-0.459,0-0.871,0.096-1.236,0.284c-0.366,0.189-0.651,0.452-0.856,0.788
			c-0.206,0.336-0.308,0.717-0.308,1.145c0,0.427,0.102,0.808,0.308,1.144c0.205,0.336,0.49,0.599,0.856,0.788
			C38.88,51.488,39.292,51.584,39.751,51.584 M35.264,47.216v2.128c0,0.384-0.091,0.673-0.272,0.868
			c-0.181,0.194-0.422,0.292-0.72,0.292c-0.581,0-0.872-0.348-0.872-1.04v-2.248h-1.248v2.432c0,0.641,0.165,1.123,0.496,1.448
			s0.778,0.488,1.344,0.488c0.266,0,0.515-0.049,0.744-0.148c0.229-0.099,0.427-0.241,0.592-0.428v0.512h1.184v-4.304H35.264z
			 M29,51.615c0.512,0,0.947-0.076,1.304-0.231s0.625-0.364,0.804-0.628c0.179-0.265,0.268-0.557,0.268-0.876
			c0-0.373-0.097-0.669-0.292-0.889c-0.195-0.219-0.428-0.379-0.7-0.479c-0.272-0.101-0.621-0.203-1.048-0.304
			c-0.411-0.092-0.716-0.184-0.916-0.276c-0.2-0.093-0.3-0.236-0.3-0.428c0-0.192,0.087-0.348,0.26-0.464
			c0.173-0.117,0.441-0.177,0.804-0.177c0.517,0,1.035,0.147,1.552,0.44l0.4-0.984c-0.256-0.159-0.555-0.282-0.896-0.367
			c-0.341-0.086-0.691-0.129-1.048-0.129c-0.512,0-0.945,0.077-1.3,0.232s-0.62,0.364-0.796,0.628
			c-0.176,0.264-0.264,0.56-0.264,0.884c0,0.373,0.097,0.672,0.292,0.896c0.195,0.224,0.428,0.387,0.7,0.488
			c0.272,0.101,0.621,0.202,1.048,0.304c0.277,0.063,0.497,0.123,0.66,0.176c0.163,0.053,0.296,0.124,0.4,0.212
			s0.156,0.199,0.156,0.332c0,0.181-0.088,0.327-0.264,0.437c-0.176,0.108-0.448,0.163-0.816,0.163
			c-0.331,0-0.661-0.053-0.992-0.159c-0.331-0.107-0.616-0.248-0.856-0.425l-0.44,0.977c0.251,0.192,0.583,0.348,0.996,0.468
			C28.128,51.556,28.557,51.615,29,51.615"/>
	</g>
</g>
</svg>
