<?xml version="1.0" encoding="utf-8"?>
<!-- Generator: Adobe Illustrator 16.0.4, SVG Export Plug-In . SVG Version: 6.00 Build 0)  -->
<!DOCTYPE svg PUBLIC "-//W3C//DTD SVG 1.1//EN" "http://www.w3.org/Graphics/SVG/1.1/DTD/svg11.dtd">
<svg version="1.1" id="Ebene_8" xmlns="http://www.w3.org/2000/svg" xmlns:xlink="http://www.w3.org/1999/xlink" x="0px" y="0px"
	 width="85.863px" height="99.098px" viewBox="0 0 85.863 99.098" enable-background="new 0 0 85.863 99.098" xml:space="preserve">
<polygon fill="#231F20" points="42.932,0 0,24.766 0,74.332 40.575,97.756 42.932,99.098 85.863,74.332 85.863,24.766 "/>
<polygon fill="#231F20" points="42.932,4.447 3.854,26.989 3.854,72.107 40.787,93.429 42.932,94.65 82.01,72.107 82.01,26.989 "/>
<g>
	<defs>
		<rect id="SVGID_1_" y="0.001" width="85.863" height="99.097"/>
	</defs>
	<clipPath id="SVGID_2_">
		<use xlink:href="#SVGID_1_"  overflow="visible"/>
	</clipPath>
	<path clip-path="url(#SVGID_2_)" fill="#FFFFFF" d="M49.132,32.121H36.731v-3.006c0-2.684,2.174-4.857,4.857-4.857h2.688
		c2.682,0,4.856,2.174,4.856,4.857V32.121z M43.904,41.717v2.309h-1.947v-2.309c-0.987-0.389-1.686-1.349-1.686-2.474
		c0-1.469,1.191-2.66,2.66-2.66s2.661,1.191,2.661,2.66C45.592,40.368,44.893,41.328,43.904,41.717 M52.002,32.382v-3.837
		c0-4.123-3.343-7.466-7.466-7.466h-3.209c-4.124,0-7.466,3.343-7.466,7.466v3.837c-0.935,0.438-1.583,1.384-1.583,2.485v11.751
		c0,1.517,1.229,2.746,2.745,2.746H50.84c1.516,0,2.745-1.229,2.745-2.746V34.867C53.585,33.766,52.936,32.82,52.002,32.382"/>
	<path clip-path="url(#SVGID_2_)" fill="#FFFFFF" d="M70.436,67.632c-0.294,0-0.562,0.05-0.809,0.148
		c-0.245,0.099-0.45,0.239-0.615,0.42v-0.504H67.82V72h1.247v-2.128c0-0.384,0.093-0.673,0.28-0.868
		c0.186-0.194,0.438-0.292,0.752-0.292c0.282,0,0.498,0.084,0.648,0.252c0.148,0.168,0.223,0.423,0.223,0.765V72h1.249v-2.464
		c0-0.629-0.165-1.104-0.493-1.424S70.969,67.632,70.436,67.632 M64.756,68.576c0.277,0,0.512,0.081,0.703,0.244
		c0.192,0.163,0.31,0.38,0.353,0.651h-2.12c0.042-0.276,0.16-0.495,0.352-0.655C64.235,68.656,64.473,68.576,64.756,68.576
		 M66.988,69.864c0-0.448-0.099-0.841-0.293-1.18c-0.195-0.34-0.463-0.6-0.804-0.78c-0.342-0.181-0.724-0.272-1.144-0.272
		c-0.433,0-0.823,0.096-1.172,0.284c-0.351,0.189-0.625,0.453-0.824,0.792c-0.2,0.339-0.301,0.719-0.301,1.141
		c0,0.427,0.102,0.808,0.305,1.144c0.201,0.336,0.49,0.599,0.863,0.788c0.373,0.188,0.803,0.284,1.289,0.284
		c0.777,0,1.369-0.232,1.775-0.696l-0.664-0.72c-0.15,0.144-0.311,0.249-0.484,0.315c-0.174,0.067-0.371,0.101-0.596,0.101
		c-0.326,0-0.598-0.077-0.816-0.232s-0.357-0.365-0.416-0.632h3.256C66.979,69.992,66.988,69.88,66.988,69.864 M60.586,68.264
		v-0.567h-1.191V72h1.248v-2.032c0-0.399,0.102-0.699,0.305-0.899c0.202-0.2,0.482-0.3,0.84-0.3c0.047,0,0.142,0.005,0.279,0.016
		v-1.152c-0.33,0-0.621,0.054-0.876,0.16C60.938,67.899,60.736,68.057,60.586,68.264 M56.33,68.576c0.278,0,0.513,0.081,0.705,0.244
		c0.191,0.163,0.31,0.38,0.352,0.651h-2.12c0.043-0.276,0.16-0.495,0.353-0.655C55.811,68.656,56.049,68.576,56.33,68.576
		 M58.562,69.864c0-0.448-0.097-0.841-0.292-1.18c-0.194-0.34-0.462-0.6-0.804-0.78s-0.723-0.272-1.145-0.272
		c-0.432,0-0.822,0.096-1.172,0.284c-0.349,0.189-0.624,0.453-0.824,0.792c-0.199,0.339-0.3,0.719-0.3,1.141
		c0,0.427,0.103,0.808,0.304,1.144c0.203,0.336,0.492,0.599,0.865,0.788c0.373,0.188,0.803,0.284,1.287,0.284
		c0.779,0,1.371-0.232,1.776-0.696l-0.664-0.72c-0.149,0.144-0.31,0.249-0.484,0.315c-0.173,0.067-0.372,0.101-0.596,0.101
		c-0.325,0-0.597-0.077-0.815-0.232s-0.357-0.365-0.416-0.632h3.256C58.555,69.992,58.562,69.88,58.562,69.864 M52.562,67.096
		c0.23,0,0.416-0.067,0.561-0.203c0.144-0.137,0.215-0.309,0.215-0.517c0-0.191-0.071-0.352-0.215-0.479
		c-0.145-0.128-0.33-0.192-0.561-0.192c-0.229,0-0.416,0.067-0.561,0.2c-0.144,0.133-0.215,0.299-0.215,0.496
		c0,0.196,0.071,0.362,0.215,0.496C52.146,67.029,52.334,67.096,52.562,67.096 M51.939,72h1.248v-4.304h-1.248V72z M48.42,70.769
		c-0.332,0-0.604-0.098-0.816-0.292c-0.214-0.195-0.32-0.449-0.32-0.765c0-0.314,0.106-0.568,0.32-0.764
		c0.213-0.195,0.484-0.292,0.816-0.292c0.33,0,0.601,0.097,0.812,0.292c0.21,0.195,0.315,0.449,0.315,0.764
		c0,0.315-0.105,0.569-0.315,0.765C49.021,70.671,48.75,70.769,48.42,70.769 M49.596,67.696v0.552
		c-0.326-0.411-0.801-0.616-1.424-0.616c-0.396,0-0.756,0.087-1.084,0.261c-0.328,0.173-0.588,0.417-0.78,0.731
		c-0.192,0.315-0.288,0.677-0.288,1.088s0.096,0.773,0.288,1.088c0.192,0.315,0.452,0.56,0.78,0.732s0.688,0.26,1.084,0.26
		c0.58,0,1.033-0.179,1.359-0.536v0.185c0,0.395-0.103,0.688-0.308,0.884c-0.206,0.195-0.524,0.292-0.956,0.292
		c-0.277,0-0.555-0.044-0.832-0.132s-0.507-0.207-0.688-0.356l-0.496,0.896c0.244,0.191,0.554,0.339,0.928,0.439
		c0.373,0.102,0.768,0.152,1.184,0.152c0.789,0,1.389-0.192,1.801-0.576c0.41-0.384,0.615-0.971,0.615-1.76v-3.584H49.596z
		 M42.996,71.225c-0.219,0-0.391-0.048-0.516-0.141c-0.126-0.093-0.188-0.22-0.188-0.38c0-0.336,0.256-0.504,0.768-0.504h0.856v0.44
		c-0.07,0.191-0.188,0.337-0.353,0.436C43.397,71.175,43.208,71.225,42.996,71.225 M43.092,67.632c-0.347,0-0.684,0.045-1.012,0.137
		c-0.328,0.091-0.61,0.219-0.844,0.384l0.448,0.872c0.154-0.123,0.342-0.221,0.564-0.292c0.221-0.072,0.446-0.108,0.676-0.108
		c0.33,0,0.578,0.073,0.744,0.22c0.165,0.147,0.249,0.356,0.249,0.628h-0.992c-0.63,0-1.095,0.115-1.396,0.345
		c-0.302,0.229-0.452,0.544-0.452,0.943c0,0.251,0.064,0.476,0.192,0.673c0.128,0.196,0.313,0.352,0.556,0.464
		c0.242,0.111,0.529,0.168,0.86,0.168c0.64,0,1.077-0.2,1.312-0.601V72h1.168v-2.456c0-0.64-0.18-1.119-0.537-1.436
		C44.27,67.791,43.758,67.632,43.092,67.632 M36.835,68.264v-0.567h-1.192V72h1.248v-2.032c0-0.399,0.101-0.699,0.304-0.899
		c0.202-0.2,0.482-0.3,0.84-0.3c0.048,0,0.141,0.005,0.28,0.016v-1.152c-0.331,0-0.623,0.054-0.876,0.16
		C37.186,67.899,36.984,68.057,36.835,68.264 M32.58,68.576c0.277,0,0.512,0.081,0.704,0.244s0.309,0.38,0.352,0.651h-2.12
		c0.042-0.276,0.16-0.495,0.352-0.655S32.296,68.576,32.58,68.576 M34.812,69.864c0-0.448-0.098-0.841-0.292-1.18
		c-0.195-0.34-0.463-0.6-0.804-0.78c-0.342-0.181-0.723-0.272-1.144-0.272c-0.432,0-0.823,0.096-1.172,0.284
		c-0.35,0.189-0.624,0.453-0.824,0.792c-0.2,0.339-0.3,0.719-0.3,1.141c0,0.427,0.101,0.808,0.304,1.144
		c0.202,0.336,0.49,0.599,0.864,0.788c0.373,0.188,0.802,0.284,1.288,0.284c0.778,0,1.37-0.232,1.776-0.696l-0.664-0.72
		c-0.15,0.144-0.311,0.249-0.484,0.315c-0.174,0.067-0.372,0.101-0.596,0.101c-0.326,0-0.598-0.077-0.816-0.232
		c-0.219-0.155-0.358-0.365-0.416-0.632h3.256C34.804,69.992,34.812,69.88,34.812,69.864 M27.636,67.632
		c-0.278,0-0.534,0.044-0.768,0.132c-0.235,0.089-0.435,0.216-0.6,0.381v-2.08H25.02V72h1.248v-2.128
		c0-0.384,0.093-0.673,0.28-0.868c0.186-0.194,0.437-0.292,0.752-0.292c0.282,0,0.498,0.084,0.648,0.252
		c0.149,0.168,0.224,0.423,0.224,0.765V72h1.248v-2.464c0-0.629-0.164-1.104-0.492-1.424C28.6,67.792,28.168,67.632,27.636,67.632
		 M22.404,72.064c0.453,0,0.849-0.097,1.188-0.288c0.339-0.192,0.585-0.459,0.74-0.8l-0.968-0.528
		c-0.219,0.395-0.541,0.592-0.968,0.592c-0.325,0-0.595-0.106-0.808-0.32c-0.213-0.213-0.32-0.504-0.32-0.871
		c0-0.368,0.107-0.659,0.32-0.872c0.213-0.214,0.483-0.32,0.808-0.32c0.421,0,0.744,0.197,0.968,0.592l0.968-0.52
		c-0.155-0.353-0.401-0.623-0.74-0.812c-0.339-0.188-0.735-0.284-1.188-0.284c-0.459,0-0.871,0.096-1.236,0.284
		c-0.365,0.189-0.651,0.452-0.856,0.788s-0.308,0.717-0.308,1.145c0,0.427,0.103,0.808,0.308,1.144s0.491,0.599,0.856,0.788
		C21.533,71.969,21.945,72.064,22.404,72.064 M18.54,67.096c0.229,0,0.416-0.067,0.56-0.203c0.144-0.137,0.216-0.309,0.216-0.517
		c0-0.191-0.072-0.352-0.216-0.479s-0.331-0.192-0.56-0.192s-0.416,0.067-0.56,0.2s-0.216,0.299-0.216,0.496
		c0,0.196,0.072,0.362,0.216,0.496C18.124,67.029,18.311,67.096,18.54,67.096 M17.916,72h1.248v-4.304h-1.248V72z M15.116,72.064
		c0.421,0,0.785-0.058,1.092-0.172c0.307-0.115,0.54-0.276,0.7-0.484c0.16-0.208,0.24-0.445,0.24-0.712
		c0-0.315-0.083-0.561-0.248-0.736s-0.36-0.297-0.584-0.364c-0.224-0.066-0.512-0.129-0.864-0.188
		c-0.315-0.048-0.544-0.099-0.688-0.152c-0.144-0.053-0.216-0.146-0.216-0.279c0-0.117,0.067-0.214,0.2-0.288
		c0.133-0.075,0.333-0.112,0.6-0.112c0.448,0,0.861,0.107,1.24,0.32l0.416-0.889c-0.197-0.116-0.447-0.209-0.748-0.275
		c-0.301-0.067-0.604-0.101-0.908-0.101c-0.411,0-0.767,0.06-1.068,0.177c-0.301,0.116-0.531,0.28-0.688,0.491
		c-0.157,0.211-0.236,0.452-0.236,0.725c0,0.325,0.084,0.576,0.252,0.752s0.367,0.299,0.596,0.368
		c0.229,0.068,0.52,0.131,0.872,0.184c0.299,0.037,0.52,0.083,0.664,0.136c0.144,0.054,0.216,0.142,0.216,0.265
		c0,0.261-0.264,0.392-0.792,0.392c-0.261,0-0.528-0.039-0.8-0.116s-0.504-0.177-0.696-0.3l-0.416,0.896
		c0.203,0.133,0.475,0.243,0.816,0.332C14.409,72.021,14.759,72.064,15.116,72.064"/>
	<path clip-path="url(#SVGID_2_)" fill="#FFFFFF" d="M62.819,61.521c-0.304,0-0.547-0.064-0.728-0.192
		c-0.182-0.128-0.272-0.296-0.272-0.504c0-0.176,0.054-0.333,0.16-0.472c0.106-0.14,0.285-0.28,0.536-0.425l1.352,1.265
		C63.558,61.411,63.209,61.521,62.819,61.521 M62.996,57.576c0.176,0,0.312,0.043,0.407,0.128c0.097,0.085,0.144,0.197,0.144,0.336
		c0,0.133-0.053,0.257-0.159,0.372c-0.107,0.115-0.296,0.244-0.568,0.388c-0.171-0.165-0.286-0.297-0.344-0.396
		c-0.06-0.1-0.088-0.204-0.088-0.316c0-0.148,0.054-0.271,0.163-0.368C62.66,57.624,62.809,57.576,62.996,57.576 M65.955,61.704
		l-0.656-0.608c0.234-0.352,0.406-0.775,0.513-1.271l-1-0.312c-0.063,0.325-0.158,0.616-0.28,0.872l-1.023-0.951
		c0.384-0.208,0.662-0.425,0.836-0.648c0.173-0.224,0.26-0.48,0.26-0.768c0-0.396-0.146-0.708-0.439-0.94
		c-0.295-0.232-0.684-0.348-1.168-0.348c-0.348,0-0.652,0.057-0.916,0.172c-0.265,0.115-0.469,0.275-0.613,0.483
		c-0.143,0.208-0.215,0.448-0.215,0.721c0,0.203,0.045,0.398,0.136,0.588c0.09,0.188,0.237,0.388,0.44,0.596
		c-0.433,0.24-0.746,0.492-0.94,0.756c-0.195,0.265-0.292,0.569-0.292,0.916c0,0.293,0.092,0.558,0.275,0.792
		c0.185,0.235,0.438,0.417,0.765,0.548c0.325,0.132,0.69,0.196,1.096,0.196c0.714,0,1.338-0.208,1.872-0.624l0.672,0.624
		L65.955,61.704z M55.707,58.032c-0.293,0-0.562,0.049-0.808,0.147c-0.246,0.1-0.45,0.239-0.616,0.421v-0.505h-1.191V62.4h1.248
		v-2.128c0-0.385,0.093-0.673,0.279-0.868s0.438-0.292,0.752-0.292c0.282,0,0.498,0.084,0.648,0.252
		c0.148,0.168,0.225,0.423,0.225,0.764V62.4h1.248v-2.464c0-0.629-0.164-1.104-0.492-1.425
		C56.672,58.192,56.24,58.032,55.707,58.032 M50.027,58.977c0.277,0,0.512,0.081,0.704,0.243c0.192,0.163,0.31,0.381,0.353,0.652
		h-2.121c0.043-0.277,0.16-0.496,0.353-0.656C49.508,59.057,49.744,58.977,50.027,58.977 M52.26,60.264
		c0-0.447-0.098-0.841-0.293-1.18c-0.194-0.339-0.463-0.599-0.803-0.78c-0.343-0.181-0.724-0.271-1.145-0.271
		c-0.432,0-0.823,0.095-1.172,0.284c-0.35,0.188-0.624,0.453-0.824,0.792c-0.199,0.339-0.3,0.719-0.3,1.14
		c0,0.427,0.101,0.809,0.304,1.145c0.202,0.336,0.49,0.599,0.864,0.787c0.373,0.189,0.802,0.284,1.288,0.284
		c0.777,0,1.369-0.231,1.775-0.695l-0.664-0.721c-0.149,0.145-0.311,0.249-0.483,0.316c-0.175,0.067-0.372,0.1-0.597,0.1
		c-0.325,0-0.598-0.077-0.815-0.231c-0.22-0.155-0.358-0.365-0.416-0.632h3.256C52.252,60.393,52.26,60.28,52.26,60.264
		 M45.035,61.44l2.192-2.592v-0.753h-3.712v0.961h2.136l-2.192,2.592V62.4h3.839v-0.96H45.035z M42.715,61.312
		c-0.139,0.106-0.307,0.159-0.504,0.159c-0.171,0-0.303-0.049-0.396-0.147c-0.094-0.099-0.14-0.239-0.14-0.42v-1.752h1.072v-0.96
		h-1.072v-1.048h-1.248v1.048h-0.664v0.96h0.664v1.768c0,0.507,0.14,0.892,0.42,1.152c0.28,0.261,0.676,0.392,1.188,0.392
		c0.197,0,0.385-0.022,0.564-0.067c0.178-0.045,0.329-0.113,0.452-0.204L42.715,61.312z M37.739,57.504
		c0.16,0,0.293-0.052,0.4-0.155c0.106-0.104,0.16-0.236,0.16-0.396s-0.054-0.292-0.16-0.396c-0.107-0.104-0.24-0.156-0.4-0.156
		c-0.16,0-0.292,0.052-0.396,0.156c-0.104,0.104-0.156,0.235-0.156,0.396s0.052,0.292,0.156,0.396
		C37.447,57.452,37.58,57.504,37.739,57.504 M36.124,57.504c0.16,0,0.292-0.052,0.396-0.155c0.104-0.104,0.156-0.236,0.156-0.396
		s-0.052-0.292-0.156-0.396c-0.104-0.104-0.236-0.156-0.396-0.156s-0.294,0.052-0.4,0.156c-0.107,0.104-0.16,0.235-0.16,0.396
		s0.053,0.292,0.16,0.396C35.83,57.452,35.963,57.504,36.124,57.504 M37.868,58.096v2.129c0,0.384-0.091,0.673-0.272,0.867
		c-0.182,0.195-0.422,0.292-0.72,0.292c-0.582,0-0.872-0.347-0.872-1.04v-2.248h-1.248v2.433c0,0.64,0.165,1.123,0.496,1.448
		c0.33,0.324,0.778,0.487,1.344,0.487c0.266,0,0.514-0.049,0.744-0.147c0.229-0.1,0.426-0.241,0.592-0.429V62.4h1.184v-4.305H37.868
		z M31.868,58.032c-0.278,0-0.534,0.044-0.768,0.132c-0.235,0.088-0.435,0.215-0.6,0.38v-2.08h-1.248V62.4H30.5v-2.128
		c0-0.385,0.093-0.673,0.28-0.868c0.186-0.195,0.437-0.292,0.752-0.292c0.282,0,0.498,0.084,0.648,0.252
		c0.149,0.168,0.224,0.423,0.224,0.764V62.4h1.248v-2.464c0-0.629-0.164-1.104-0.492-1.425C32.832,58.192,32.4,58.032,31.868,58.032
		 M26.636,62.464c0.453,0,0.849-0.096,1.188-0.288c0.339-0.191,0.585-0.459,0.74-0.8l-0.968-0.527
		c-0.219,0.395-0.541,0.592-0.968,0.592c-0.325,0-0.595-0.107-0.808-0.32c-0.213-0.213-0.32-0.504-0.32-0.872
		s0.107-0.659,0.32-0.872c0.213-0.213,0.483-0.319,0.808-0.319c0.421,0,0.744,0.196,0.968,0.592l0.968-0.521
		c-0.155-0.352-0.401-0.623-0.74-0.812c-0.339-0.189-0.735-0.284-1.188-0.284c-0.459,0-0.871,0.095-1.236,0.284
		c-0.365,0.188-0.651,0.452-0.856,0.788s-0.308,0.717-0.308,1.144s0.103,0.809,0.308,1.145s0.491,0.599,0.856,0.787
		C25.765,62.369,26.176,62.464,26.636,62.464 M21.755,62.464c0.421,0,0.785-0.057,1.092-0.172c0.307-0.115,0.54-0.275,0.7-0.483
		c0.16-0.208,0.24-0.445,0.24-0.713c0-0.314-0.083-0.56-0.248-0.735s-0.36-0.297-0.584-0.364s-0.512-0.129-0.864-0.188
		c-0.315-0.049-0.544-0.1-0.688-0.152s-0.216-0.147-0.216-0.28c0-0.117,0.067-0.213,0.2-0.288c0.133-0.075,0.333-0.111,0.6-0.111
		c0.448,0,0.861,0.106,1.24,0.319l0.416-0.888c-0.197-0.117-0.447-0.209-0.748-0.276c-0.301-0.066-0.604-0.1-0.908-0.1
		c-0.411,0-0.767,0.059-1.068,0.176c-0.301,0.117-0.531,0.281-0.688,0.492c-0.157,0.211-0.236,0.452-0.236,0.724
		c0,0.325,0.084,0.576,0.252,0.752c0.168,0.177,0.367,0.3,0.596,0.368c0.229,0.069,0.52,0.131,0.872,0.185
		c0.299,0.037,0.52,0.083,0.664,0.136s0.216,0.141,0.216,0.264c0,0.261-0.264,0.393-0.792,0.393c-0.261,0-0.528-0.039-0.8-0.116
		s-0.504-0.177-0.696-0.3L19.892,62c0.203,0.133,0.475,0.244,0.816,0.332S21.398,62.464,21.755,62.464"/>
</g>
</svg>
