<?xml version="1.0" encoding="utf-8"?>
<!-- Generator: Adobe Illustrator 16.0.4, SVG Export Plug-In . SVG Version: 6.00 Build 0)  -->
<!DOCTYPE svg PUBLIC "-//W3C//DTD SVG 1.1//EN" "http://www.w3.org/Graphics/SVG/1.1/DTD/svg11.dtd">
<svg version="1.1" id="Ebene_10" xmlns="http://www.w3.org/2000/svg" xmlns:xlink="http://www.w3.org/1999/xlink" x="0px" y="0px"
	 width="85.863px" height="99.098px" viewBox="0 0 85.863 99.098" enable-background="new 0 0 85.863 99.098" xml:space="preserve">
<g>
	<polygon fill="#231F20" points="42.932,0 0,24.766 0,74.332 40.575,97.756 42.932,99.098 85.863,74.332 85.863,24.766 	"/>
	<polygon fill="#231F20" points="42.932,4.447 3.854,26.989 3.854,72.107 40.786,93.429 42.932,94.65 82.01,72.107 82.01,26.989 	
		"/>
	<g>
		<defs>
			<rect id="SVGID_1_" y="0.001" width="85.863" height="99.097"/>
		</defs>
		<clipPath id="SVGID_2_">
			<use xlink:href="#SVGID_1_"  overflow="visible"/>
		</clipPath>
		<path clip-path="url(#SVGID_2_)" fill="#FFFFFF" d="M39.39,41.245c-2.709,0-4.758-2.054-4.748-4.754
			c0.011-2.647,2.146-4.811,4.756-4.816c2.548-0.006,4.771,2.226,4.799,4.822C44.225,39.062,42.015,41.246,39.39,41.245
			 M51.129,37.044c1.452-0.527,1.146-1.556,0.984-2.564c-0.158-0.99-0.107-2.097-1.705-2.104c-1.632-0.007-2.595-1.734-1.716-3.046
			c1.034-1.542-0.336-1.999-1.036-2.776c-0.725-0.804-1.416-1.25-2.518-0.364c-1.313,1.058-2.983,0.388-3.261-1.249
			c-0.182-1.075-0.752-1.47-1.715-1.315c-1.045,0.166-2.471-0.725-2.945,1.145c-0.484,1.902-1.949,2.336-3.446,1.142
			c-0.323-0.258-0.644-0.694-1.076-0.506c-1.063,0.464-1.957,1.217-2.685,2.102c-0.494,0.602,0.135,1.164,0.367,1.718
			c0.568,1.36-0.353,2.944-1.779,2.811c-1.338-0.126-1.813,0.466-1.934,1.624c-0.113,1.107-0.893,2.33,0.893,2.981
			c1.697,0.62,1.945,2.353,0.527,3.447c-1.025,0.792-0.875,1.564-0.261,2.413c0.601,0.83,0.642,2.351,2.412,1.748
			c1.864-0.635,3.082,0.413,2.731,2.312c-0.299,1.625,0.916,1.741,1.879,2.179c0.961,0.435,1.785,0.737,2.512-0.495
			c0.861-1.464,2.637-1.478,3.447-0.011c0.843,1.526,1.889,0.842,2.958,0.54c1.023-0.287,1.951-0.648,1.551-1.907
			c-0.131-1.916,1.131-2.969,2.812-2.302c1.299,0.517,1.736-0.278,2.159-1.119c0.442-0.879,1.614-1.664,0.304-2.841
			C49.25,39.404,49.518,37.629,51.129,37.044"/>
		<path clip-path="url(#SVGID_2_)" fill="#FFFFFF" d="M59.88,43.466c0.42-0.168,0.649-0.852,0.685-1.951
			c-0.67-2.085-1.471-4.32-2.285-6.356c-1.827-4.571-3.198-6.811-4.139-7.477c0.502-0.428,0.944-1.303,0.103-2.617
			c-1.125-1.757-3.444-3.985-3.444-3.985s0.332,2.411,0.254,5.261c-0.043,1.562,1.221,1.862,1.881,1.825
			c-0.223,1.131,0.328,3.698,2.156,8.269c0.725,1.812,1.567,3.732,2.416,5.522C58.535,43.128,59.368,43.671,59.88,43.466"/>
		<path clip-path="url(#SVGID_2_)" fill="#FFFFFF" d="M60.938,42.709c-0.159,0.636-0.44,1.067-0.865,1.238
			c-0.527,0.21-1.17-0.019-1.889-0.589c1.74,3.516,3.377,6.211,3.923,5.993C62.633,49.142,62.026,46.271,60.938,42.709"/>
		<path clip-path="url(#SVGID_2_)" fill="#FFFFFF" d="M61.918,67.632c-0.293,0-0.562,0.05-0.807,0.148
			c-0.246,0.099-0.451,0.239-0.615,0.42v-0.504h-1.192V72h1.248v-2.128c0-0.384,0.093-0.673,0.28-0.868
			c0.186-0.194,0.437-0.292,0.75-0.292c0.283,0,0.5,0.084,0.649,0.252s0.224,0.423,0.224,0.765V72h1.248v-2.464
			c0-0.629-0.164-1.104-0.492-1.424C62.884,67.792,62.453,67.632,61.918,67.632 M56.896,72h1.248v-5.936h-1.248V72z M53.832,68.576
			c0.276,0,0.512,0.081,0.703,0.244c0.192,0.163,0.31,0.38,0.353,0.651h-2.12c0.042-0.276,0.16-0.495,0.352-0.655
			C53.312,68.656,53.549,68.576,53.832,68.576 M56.063,69.864c0-0.448-0.098-0.841-0.292-1.18c-0.195-0.34-0.463-0.6-0.804-0.78
			c-0.343-0.181-0.724-0.272-1.144-0.272c-0.433,0-0.824,0.096-1.173,0.284c-0.35,0.189-0.624,0.453-0.823,0.792
			c-0.201,0.339-0.301,0.719-0.301,1.141c0,0.427,0.102,0.808,0.305,1.144c0.201,0.336,0.49,0.599,0.863,0.788
			c0.373,0.188,0.803,0.284,1.288,0.284c0.778,0,1.37-0.232,1.776-0.696l-0.664-0.72c-0.15,0.144-0.311,0.249-0.484,0.315
			c-0.174,0.067-0.371,0.101-0.596,0.101c-0.326,0-0.598-0.077-0.816-0.232s-0.357-0.365-0.416-0.632h3.256
			C56.056,69.992,56.063,69.88,56.063,69.864 M48.375,71.04c-0.319,0-0.584-0.107-0.791-0.324c-0.209-0.216-0.312-0.505-0.312-0.867
			c0-0.363,0.104-0.652,0.312-0.868c0.207-0.217,0.472-0.324,0.791-0.324c0.314,0,0.576,0.107,0.785,0.324
			c0.207,0.216,0.312,0.505,0.312,0.868c0,0.362-0.104,0.651-0.312,0.867C48.951,70.933,48.689,71.04,48.375,71.04 M49.447,66.064
			v2.088c-0.31-0.348-0.738-0.521-1.287-0.521c-0.406,0-0.772,0.092-1.101,0.272s-0.586,0.439-0.772,0.775
			c-0.187,0.337-0.279,0.726-0.279,1.169c0,0.442,0.093,0.831,0.279,1.168c0.187,0.336,0.444,0.595,0.772,0.775
			c0.328,0.182,0.694,0.272,1.101,0.272c0.586,0,1.033-0.188,1.344-0.561V72h1.191v-5.936H49.447z M43.352,67.632
			c-0.294,0-0.563,0.05-0.808,0.148c-0.246,0.099-0.451,0.239-0.616,0.42v-0.504h-1.192V72h1.248v-2.128
			c0-0.384,0.094-0.673,0.28-0.868c0.187-0.194,0.437-0.292,0.752-0.292c0.282,0,0.498,0.084,0.647,0.252s0.225,0.423,0.225,0.765
			V72h1.248v-2.464c0-0.629-0.164-1.104-0.492-1.424S43.885,67.632,43.352,67.632 M37.439,71.225c-0.219,0-0.391-0.048-0.516-0.141
			c-0.126-0.093-0.188-0.22-0.188-0.38c0-0.336,0.256-0.504,0.768-0.504h0.856v0.44c-0.069,0.191-0.187,0.337-0.352,0.436
			C37.842,71.175,37.653,71.225,37.439,71.225 M37.536,67.632c-0.348,0-0.685,0.045-1.013,0.137
			c-0.327,0.091-0.61,0.219-0.844,0.384l0.448,0.872c0.154-0.123,0.342-0.221,0.563-0.292c0.222-0.072,0.446-0.108,0.677-0.108
			c0.33,0,0.578,0.073,0.744,0.22c0.164,0.147,0.247,0.356,0.247,0.628h-0.991c-0.631,0-1.096,0.115-1.396,0.345
			c-0.303,0.229-0.452,0.544-0.452,0.943c0,0.251,0.063,0.476,0.192,0.673c0.128,0.196,0.312,0.352,0.556,0.464
			c0.242,0.111,0.528,0.168,0.86,0.168c0.64,0,1.076-0.2,1.312-0.601V72h1.168v-2.456c0-0.64-0.179-1.119-0.536-1.436
			C38.714,67.791,38.202,67.632,37.536,67.632 M32.888,67.632c-0.277,0-0.533,0.044-0.768,0.132
			c-0.235,0.089-0.436,0.216-0.601,0.381v-2.08h-1.248V72h1.248v-2.128c0-0.384,0.093-0.673,0.28-0.868
			c0.188-0.194,0.438-0.292,0.752-0.292c0.283,0,0.499,0.084,0.648,0.252c0.148,0.168,0.224,0.423,0.224,0.765V72h1.247v-2.464
			c0-0.629-0.163-1.104-0.491-1.424S33.421,67.632,32.888,67.632 M24.12,71.12c-0.305,0-0.547-0.063-0.729-0.192
			c-0.182-0.128-0.271-0.296-0.271-0.504c0-0.176,0.053-0.333,0.16-0.472c0.106-0.139,0.284-0.28,0.535-0.424l1.352,1.264
			C24.858,71.011,24.509,71.12,24.12,71.12 M24.296,67.176c0.176,0,0.312,0.043,0.408,0.128c0.096,0.085,0.144,0.197,0.144,0.337
			c0,0.133-0.054,0.257-0.16,0.371c-0.106,0.115-0.296,0.244-0.567,0.389c-0.172-0.165-0.285-0.297-0.345-0.396
			c-0.059-0.099-0.088-0.204-0.088-0.315c0-0.149,0.056-0.272,0.164-0.368S24.108,67.176,24.296,67.176 M27.255,71.304L26.6,70.696
			c0.235-0.353,0.405-0.776,0.513-1.272l-1-0.312c-0.064,0.325-0.158,0.616-0.281,0.872l-1.023-0.952
			c0.384-0.208,0.663-0.424,0.836-0.648c0.173-0.224,0.26-0.479,0.26-0.768c0-0.396-0.146-0.708-0.439-0.94
			c-0.293-0.231-0.684-0.348-1.168-0.348c-0.348,0-0.652,0.057-0.916,0.172s-0.469,0.276-0.612,0.484s-0.216,0.448-0.216,0.72
			c0,0.203,0.045,0.399,0.136,0.588c0.091,0.189,0.237,0.388,0.44,0.596c-0.432,0.24-0.745,0.492-0.94,0.757
			c-0.194,0.264-0.292,0.568-0.292,0.916c0,0.293,0.092,0.557,0.275,0.792c0.185,0.234,0.439,0.417,0.765,0.548
			s0.69,0.195,1.097,0.195c0.715,0,1.338-0.208,1.871-0.624l0.672,0.624L27.255,71.304z"/>
		<path clip-path="url(#SVGID_2_)" fill="#FFFFFF" d="M69.584,58.032c-0.295,0-0.563,0.049-0.809,0.147
			c-0.246,0.1-0.451,0.239-0.615,0.421v-0.505h-1.192V62.4h1.248v-2.128c0-0.385,0.093-0.673,0.28-0.868
			c0.186-0.195,0.437-0.292,0.752-0.292c0.281,0,0.498,0.084,0.647,0.252s0.224,0.423,0.224,0.764V62.4h1.248v-2.464
			c0-0.629-0.164-1.104-0.492-1.425C70.547,58.192,70.117,58.032,69.584,58.032 M63.904,58.977c0.276,0,0.512,0.081,0.703,0.243
			c0.192,0.163,0.309,0.381,0.352,0.652H62.84c0.042-0.277,0.16-0.496,0.352-0.656C63.384,59.057,63.621,58.977,63.904,58.977
			 M66.136,60.264c0-0.447-0.099-0.841-0.292-1.18c-0.195-0.339-0.463-0.599-0.805-0.78c-0.342-0.181-0.723-0.271-1.144-0.271
			c-0.433,0-0.823,0.095-1.172,0.284c-0.351,0.188-0.624,0.453-0.824,0.792s-0.3,0.719-0.3,1.14c0,0.427,0.102,0.809,0.305,1.145
			c0.201,0.336,0.489,0.599,0.863,0.787c0.373,0.189,0.803,0.284,1.288,0.284c0.778,0,1.37-0.231,1.776-0.695l-0.664-0.721
			c-0.15,0.145-0.312,0.249-0.484,0.316c-0.174,0.067-0.372,0.1-0.596,0.1c-0.326,0-0.598-0.077-0.816-0.231
			c-0.219-0.155-0.357-0.365-0.416-0.632h3.256C66.127,60.393,66.136,60.28,66.136,60.264 M59.119,62.464
			c0.422,0,0.785-0.057,1.092-0.172s0.541-0.275,0.701-0.483s0.239-0.445,0.239-0.713c0-0.314-0.083-0.56-0.247-0.735
			c-0.166-0.176-0.361-0.297-0.584-0.364c-0.225-0.067-0.513-0.129-0.865-0.188c-0.314-0.049-0.543-0.1-0.688-0.152
			s-0.216-0.147-0.216-0.28c0-0.117,0.065-0.213,0.2-0.288c0.133-0.075,0.332-0.111,0.6-0.111c0.448,0,0.861,0.106,1.24,0.319
			l0.416-0.888c-0.198-0.117-0.447-0.209-0.748-0.276c-0.303-0.066-0.604-0.1-0.908-0.1c-0.411,0-0.768,0.059-1.068,0.176
			c-0.302,0.117-0.531,0.281-0.688,0.492c-0.158,0.211-0.236,0.452-0.236,0.724c0,0.325,0.084,0.576,0.252,0.752
			c0.168,0.177,0.366,0.3,0.596,0.368c0.229,0.069,0.521,0.131,0.873,0.185c0.297,0.037,0.52,0.083,0.664,0.136
			c0.144,0.053,0.215,0.141,0.215,0.264c0,0.261-0.264,0.393-0.791,0.393c-0.262,0-0.528-0.039-0.801-0.116
			c-0.271-0.077-0.504-0.177-0.695-0.3L57.256,62c0.201,0.133,0.474,0.244,0.816,0.332C58.412,62.42,58.762,62.464,59.119,62.464
			 M55.271,57.504c0.16,0,0.293-0.052,0.4-0.155c0.105-0.104,0.16-0.236,0.16-0.396s-0.055-0.292-0.16-0.396
			c-0.107-0.104-0.24-0.156-0.4-0.156s-0.292,0.052-0.396,0.156c-0.104,0.104-0.155,0.235-0.155,0.396s0.052,0.292,0.155,0.396
			C54.979,57.452,55.111,57.504,55.271,57.504 M53.656,57.504c0.159,0,0.291-0.052,0.396-0.155c0.104-0.104,0.155-0.236,0.155-0.396
			s-0.051-0.292-0.155-0.396c-0.104-0.104-0.236-0.156-0.396-0.156c-0.16,0-0.295,0.052-0.4,0.156
			c-0.107,0.104-0.16,0.235-0.16,0.396s0.053,0.292,0.16,0.396C53.361,57.452,53.496,57.504,53.656,57.504 M54.479,61.44
			c-0.319,0-0.584-0.108-0.792-0.324s-0.312-0.505-0.312-0.868s0.104-0.652,0.312-0.868s0.473-0.323,0.792-0.323
			c0.32,0,0.582,0.107,0.788,0.323c0.205,0.216,0.309,0.505,0.309,0.868s-0.104,0.652-0.309,0.868
			C55.062,61.332,54.8,61.44,54.479,61.44 M54.479,62.464c0.453,0,0.858-0.095,1.216-0.284c0.357-0.188,0.637-0.451,0.84-0.787
			s0.305-0.718,0.305-1.145s-0.102-0.808-0.305-1.144s-0.482-0.6-0.84-0.788c-0.357-0.189-0.763-0.284-1.216-0.284
			c-0.454,0-0.86,0.095-1.22,0.284c-0.36,0.188-0.643,0.452-0.844,0.788c-0.203,0.336-0.305,0.717-0.305,1.144
			s0.102,0.809,0.305,1.145c0.201,0.336,0.483,0.599,0.844,0.787C53.619,62.369,54.025,62.464,54.479,62.464 M50.023,62.4h1.248
			v-5.937h-1.248V62.4z M47.144,58.032c-0.319,0-0.614,0.061-0.884,0.184s-0.492,0.296-0.668,0.521
			c-0.15-0.229-0.348-0.404-0.592-0.524c-0.246-0.12-0.521-0.18-0.824-0.18c-0.278,0-0.532,0.048-0.765,0.144
			c-0.231,0.097-0.428,0.235-0.588,0.416v-0.496h-1.191V62.4h1.248v-2.16c0-0.373,0.085-0.655,0.256-0.844
			c0.17-0.189,0.4-0.284,0.688-0.284c0.543,0,0.815,0.339,0.815,1.016V62.4h1.248v-2.16c0-0.373,0.085-0.655,0.256-0.844
			c0.17-0.189,0.401-0.284,0.696-0.284c0.261,0,0.462,0.084,0.604,0.252c0.141,0.168,0.213,0.423,0.213,0.764V62.4h1.248v-2.464
			c0-0.636-0.16-1.111-0.477-1.429C48.109,58.191,47.682,58.032,47.144,58.032 M38.567,58.977c0.277,0,0.512,0.081,0.704,0.243
			c0.192,0.163,0.31,0.381,0.353,0.652h-2.121c0.043-0.277,0.16-0.496,0.353-0.656C38.048,59.057,38.284,58.977,38.567,58.977
			 M40.8,60.264c0-0.447-0.098-0.841-0.292-1.18c-0.195-0.339-0.464-0.599-0.804-0.78c-0.342-0.181-0.724-0.271-1.145-0.271
			c-0.432,0-0.822,0.095-1.172,0.284c-0.35,0.188-0.624,0.453-0.824,0.792c-0.199,0.339-0.3,0.719-0.3,1.14
			c0,0.427,0.101,0.809,0.304,1.145c0.202,0.336,0.49,0.599,0.864,0.787c0.373,0.189,0.802,0.284,1.288,0.284
			c0.777,0,1.37-0.231,1.775-0.695l-0.664-0.721c-0.149,0.145-0.311,0.249-0.483,0.316c-0.174,0.067-0.372,0.1-0.597,0.1
			c-0.325,0-0.598-0.077-0.815-0.231c-0.219-0.155-0.358-0.365-0.416-0.632h3.256C40.792,60.393,40.8,60.28,40.8,60.264
			 M34.176,62.4h1.248v-5.937h-1.248V62.4z M30.983,61.44c-0.32,0-0.583-0.108-0.787-0.324c-0.205-0.216-0.309-0.505-0.309-0.868
			s0.104-0.652,0.309-0.868c0.204-0.216,0.467-0.323,0.787-0.323s0.583,0.107,0.788,0.323s0.308,0.505,0.308,0.868
			s-0.103,0.652-0.308,0.868S31.304,61.44,30.983,61.44 M31.2,58.032c-0.55,0-0.981,0.173-1.297,0.52v-2.088h-1.248V62.4h1.192
			v-0.496c0.31,0.373,0.76,0.56,1.353,0.56c0.399,0,0.764-0.092,1.092-0.275c0.328-0.185,0.584-0.443,0.771-0.776
			s0.28-0.721,0.28-1.164s-0.093-0.831-0.28-1.164s-0.443-0.592-0.771-0.775C31.964,58.124,31.6,58.032,31.2,58.032 M25.464,61.44
			c-0.32,0-0.584-0.108-0.793-0.324c-0.207-0.216-0.312-0.505-0.312-0.868s0.104-0.652,0.312-0.868
			c0.209-0.216,0.473-0.323,0.793-0.323s0.582,0.107,0.787,0.323s0.309,0.505,0.309,0.868s-0.104,0.652-0.309,0.868
			S25.784,61.44,25.464,61.44 M25.464,62.464c0.453,0,0.859-0.095,1.216-0.284c0.356-0.188,0.637-0.451,0.84-0.787
			s0.304-0.718,0.304-1.145s-0.101-0.808-0.304-1.144s-0.483-0.6-0.84-0.788c-0.356-0.189-0.763-0.284-1.216-0.284
			s-0.86,0.095-1.221,0.284c-0.359,0.188-0.641,0.452-0.844,0.788s-0.304,0.717-0.304,1.144s0.101,0.809,0.304,1.145
			s0.484,0.599,0.844,0.787C24.604,62.369,25.011,62.464,25.464,62.464 M21.231,58.664v-0.568H20.04V62.4h1.248v-2.032
			c0-0.4,0.101-0.7,0.304-0.9c0.202-0.199,0.483-0.3,0.84-0.3c0.048,0,0.142,0.005,0.28,0.017v-1.152
			c-0.332,0-0.623,0.053-0.877,0.16C21.583,58.299,21.38,58.456,21.231,58.664 M16.848,61.44c-0.319,0-0.583-0.108-0.788-0.324
			s-0.309-0.505-0.309-0.868s0.104-0.652,0.309-0.868s0.469-0.323,0.788-0.323s0.583,0.107,0.788,0.323s0.308,0.505,0.308,0.868
			s-0.103,0.652-0.308,0.868S17.167,61.44,16.848,61.44 M17.063,58.032c-0.592,0-1.043,0.187-1.352,0.56v-0.496H14.52v5.856h1.248
			v-2.008c0.315,0.347,0.747,0.52,1.296,0.52c0.4,0,0.764-0.092,1.092-0.275c0.328-0.185,0.586-0.443,0.772-0.776
			s0.28-0.721,0.28-1.164s-0.094-0.831-0.28-1.164s-0.444-0.592-0.772-0.775C17.827,58.124,17.464,58.032,17.063,58.032"/>
	</g>
</g>
</svg>
